<?xml version="1.0" encoding="UTF-8"?>
<!-- generated by Finnhub -->
<svg viewBox="0 0 55.5 55.5" xmlns="http://www.w3.org/2000/svg">
<path d="M 0,0 H 55.5 V 55.5 H 0 Z" fill="rgb(1, 120, 187)"/>
<path d="M 26.171999999999997,17.62 L 24.452,25.664 V 12 L 29.649,18.683 L 26.182,17.635 Z M 34.606,20.368 L 27.248,24.411 L 37.825,15.384 L 36.08,23.589 L 34.606,20.369 Z M 38.058,27.965 L 29.978,25.536 L 43.999,26.825 L 36.649,31.215 L 38.058,27.965 Z M 33.49,36.58 L 30.935,28.758 L 37.847,40.666 L 29.935,37.316 L 33.489,36.581 Z M 24.467,38.13 L 29.037,31.235 L 24.015,44 L 21.613,35.95 L 24.467,38.13 Z M 17.175,31.71 L 25.62,31.292 L 12,34.768 L 17.343,28.184 L 17.175,31.71 Z M 18.124,22.506 L 23.613,28.75 L 12.467,20.396 L 21.095,20.488 L 18.124,22.506 Z" fill="rgb(254, 254, 253)"/>
</svg>
