<?xml version="1.0" encoding="UTF-8"?>
<!-- generated by Finnhub -->
<svg viewBox="0 0 55.5 55.5" xmlns="http://www.w3.org/2000/svg">
<path d="M 0,0 H 55.5 V 55.5 H 0 Z" fill="rgb(239, 242, 248)"/>
<path d="M 24.56,29.785 L 12.102,29.804 C 11.985,28.702 11.968,27.798 12.054,26.861 L 24.567,29.543 C 24.567,29.615 24.562,29.697 24.569,29.799 Z" fill="rgb(62, 154, 42)"/>
<path d="M 33.02,28.285 L 43.617,24.227 C 43.783,25.033 43.934,25.877 44,26.811 L 33.1,28.531 C 33.076,28.464 33.061,28.401 33.03,28.301 Z" fill="rgb(238, 48, 30)"/>
<path d="M 24.764999999999997,28.23 L 12.232,25.185 C 12.427,24.095 12.868,22.511 13.316,21.57 L 24.855,28.01 A 1,1 0 0,0 24.775,28.245 Z M 31.701,26.232 L 38.718,15.974 C 39.532,16.714 40.486,17.68 41.028,18.574 L 31.878,26.395 C 31.832,26.345 31.775,26.282 31.701,26.232 Z M 25.62,26.717 L 14.399,19.46 C 14.976,18.39 16.722,16.41 17.636,15.699 L 25.775,26.544 A 0.81,0.81 0 0,0 25.621,26.716 Z M 29.683,25.254 L 29.985,12 C 31.426,12.163 33.406,12.682 34.517,13.25 L 29.887,25.294 A 0.704,0.704 0 0,0 29.683,25.254 Z M 27.342,25.47 L 20.15,13.95 C 21.946,12.912 24.072,12.238 25.91,12.01 L 27.572,25.392 A 1.398,1.398 0 0,0 27.342,25.47 Z M 13.128,33.86 S 12.912,33.292 12.696,32.569 C 12.494,31.892 12.298,31.085 12.298,31.085 C 16.385,30.551 22.76,30.522 27.151,30.522 C 27.151,30.522 18.666,31.327 13.128,33.859 Z M 22.192,42.929 S 21.192,42.609 19.955,41.899 C 18.815,41.245 17.793,40.321 17.793,40.321 C 20.253,37.155 28.249,30.918 35.75,30.509 C 35.75,30.509 28.02,33.29 22.192,42.929 Z" fill="rgb(62, 154, 42)"/>
<path d="M 32.21,43.43 S 30.34,44.017 28.025,44 C 25.759,43.983 24.721,43.658 24.721,43.658 C 25.189,42.025 30.551,32.503 36.971,30.51 C 36.971,30.51 32.017,35.852 32.221,43.445 Z M 16.096,38.684 S 15.605,38.241 14.787,37.054 C 14.034,35.96 13.715,35.222 13.715,35.222 C 15.735,33.908 22.851,30.509 32.941,30.509 C 32.941,30.509 24.187,32.109 16.096,38.684 Z" fill="rgb(62, 154, 42)"/>
</svg>
