<?xml version="1.0" encoding="UTF-8"?>
<!-- generated by Finnhub -->
<svg viewBox="0 0 55.5 55.5" xmlns="http://www.w3.org/2000/svg">
<path d="M 0,0 H 55.5 V 55.5 H 0 Z" fill="rgb(239, 242, 248)"/>
<path d="M 12.036,27.081 C 12.046,27.39 12.004,27.685 12.004,28.021 C 12.004,31.007 12.8,33.824 14.224,36.221 C 15.228,32.857 16.694,29.283 18.536,25.751 C 16.233,26.087 14.056,26.549 12.046,27.096 Z M 14.809,18.938 C 17.489,18.35 20.42,17.971 23.477,17.761 C 24.943,15.743 26.451,13.851 28,12.211 L 27.79,12 C 22.389,12.042 17.657,14.775 14.809,18.938 Z M 36.753,14.607 C 35.58,19.317 33.486,24.447 30.555,29.493 C 29.718,30.923 28.88,32.31 28.001,33.613 C 28.881,34.917 29.801,36.179 30.723,37.356 A 57.42,57.42 0 0,0 34.575,37.104 A 50.134,50.134 0 0,0 36.962,33.235 C 39.307,29.115 41.15,24.993 42.406,21.125 C 41.108,18.475 39.14,16.205 36.753,14.607 Z" fill="rgb(247, 155, 12)"/>
<path d="M 36.743,14.591999999999999 A 15.991,15.991 0 0,0 28,12 H 27.79 C 30.177,14.565 32.522,17.593 34.658,20.999 A 54.047,54.047 0 0,0 36.752,14.607 Z M 42.407,21.125 C 41.57,23.732 40.438,26.465 39.097,29.241 C 40.103,31.511 40.983,33.781 41.653,35.968 C 41.737,35.926 41.863,35.926 41.947,35.884 A 16.042,16.042 0 0,0 43.999,28.021 A 17,17 0 0,0 42.407,21.125 Z M 25.406,29.493 A 52.91,52.91 0 0,1 23.145,25.203 A 72.095,72.095 0 0,0 18.58,25.708 A 52.627,52.627 0 0,0 16.905,29.198 A 73.083,73.083 0 0,0 19.041,33.193 A 62.16,62.16 0 0,0 26.788,43.958 C 27.206,44 27.625,44 28.044,44 C 30.64,44 33.069,43.37 35.247,42.276 C 31.729,38.954 28.337,34.581 25.406,29.493 Z" fill="rgb(63, 184, 58)"/>
<path d="M 41.894000000000005,35.869 C 38.511,36.684 34.701,37.23 30.68,37.398 A 52.472,52.472 0 0,0 35.161,42.402 C 38.009,40.888 40.354,38.66 41.903,35.884 Z M 21.417,37.055 C 18.947,36.803 16.527,36.431 14.307,35.926 C 14.265,36.01 14.265,36.095 14.223,36.221 C 16.819,40.594 21.459,43.531 26.777,43.951 C 24.935,41.933 23.134,39.578 21.417,37.055 Z M 27.959,17.593 C 23.227,17.593 18.788,18.055 14.768,18.938 A 16.097,16.097 0 0,0 12.004,27.096 C 16.652,25.792 22.096,25.036 27.959,25.036 C 29.592,25.036 31.279,25.108 32.829,25.234 A 72.53,72.53 0 0,0 34.671,20.987 A 89.573,89.573 0 0,0 32.44,17.719 C 31.016,17.677 29.508,17.593 27.959,17.593 Z" fill="rgb(20, 116, 195)"/>
</svg>
