<?xml version="1.0" encoding="UTF-8"?>
<!-- generated by Finnhub -->
<svg fill="none" viewBox="0 0 55.5 55.5" xmlns="http://www.w3.org/2000/svg">
<path d="M 0,0 H 55.5 V 55.5 H 0 Z" fill="url(#a)"/>
<ellipse cx="28" cy="28" rx="20" ry="12" fill="rgb(108, 171, 217)"/>
<path d="M 15.866,28.144 H 48" stroke="rgb(254, 254, 253)" stroke-width=".303"/>
<path d="M 19.703999999999997,22.389 L 19.766,22.261 L 19.818,22.119 H 19.82 L 19.826,22.122 L 19.851,22.13 A 14.154,14.154 0 0,0 20.345,22.29 C 20.69,22.395 21.195,22.538 21.83,22.685 A 28.31,28.31 0 0,0 27.007,23.384 C 31.217,23.557 36.635,22.83 41.516,19.156 L 41.793,19.309 C 36.839,23.038 31.248,23.862 26.994,23.687 A 28.609,28.609 0 0,1 21.762,22.98 A 23.153,23.153 0 0,1 20.257,22.58 A 14.267,14.267 0 0,1 19.75,22.417 L 19.723,22.407 L 19.716,22.404 H 19.714 Z" fill="rgb(254, 254, 253)"/>
<path d="M 31.49,16.485 S 42.599,18.896 43.002,28.212 C 43.002,28.212 42.766,36.862 31.5,39.5" stroke="rgb(254, 254, 253)" stroke-width=".303"/>
<path d="M 31.49,17.485 S 36.412,20.554 36.412,28.212 C 36.412,28.212 36.674,34.991 31.978,38.512 L 31.5,39" stroke="rgb(254, 254, 253)" stroke-width=".303"/>
<path d="M 19.918,34.184 L 19.866,34.06 C 19.804,33.922 19.805,33.921 19.805,33.921 L 19.809,33.919 L 19.822,33.914 L 19.872,33.892 A 15.841,15.841 0 0,1 20.807,33.542 C 21.447,33.326 22.368,33.052 23.494,32.825 C 25.742,32.37 28.814,32.095 32.104,32.824 H 32.108 L 32.149,32.829 A 12.247,12.247 0 0,1 32.896,32.949 A 19.06,19.06 0 0,1 35.014,33.493 A 23.392,23.392 0 0,1 41.584,36.802 L 41.294,36.966 A 23.079,23.079 0 0,0 34.923,33.782 A 18.75,18.75 0 0,0 32.838,33.247 A 12.049,12.049 0 0,0 32.113,33.13 L 32.076,33.126 L 32.066,33.125 H 32.064 L 32.054,33.123 L 32.046,33.121 C 28.808,32.403 25.777,32.672 23.554,33.122 C 22.443,33.347 21.534,33.617 20.904,33.83 A 15.59,15.59 0 0,0 19.99,34.172 L 19.943,34.192 L 19.931,34.197 L 19.928,34.199 Z" fill="rgb(254, 254, 253)"/>
<path d="M 27.977999999999998,20.073 V 39.242 M 20.955,21.587 S 17.468,26.919 20.955,34.731" stroke="rgb(254, 254, 253)" stroke-width=".303"/>
<path d="M 8.087,28.922 S 8.339,33.542 14.324,36.854 C 14.324,36.854 20.734,41.211 32,39.762 V 32 H 35 V 28 H 21 V 32 H 24 V 35.2 C 15.878,33.103 16.32,27.514 16.32,27.514 C 17.468,20.786 27.202,20.398 27.202,20.398 S 29.818,20.256 32,20.826 V 16.256 C 30.334,16 22.428,15.094 14.284,19.414 C 14.284,19.414 7.089,23.269 8.097,28.937 Z" fill="rgb(254, 254, 253)"/>
<defs>
<linearGradient id="a" x1="10.418" x2="68.147" y1="9.712" y2="76.017" gradientUnits="userSpaceOnUse">
<stop stop-color="rgb(25, 29, 31)" offset="0"/>
<stop stop-color="rgb(5, 5, 8)" offset="1"/>
</linearGradient>
</defs>
</svg>
