<?xml version="1.0" encoding="UTF-8"?>
<!-- generated by Finnhub -->
<svg viewBox="0 0 55.5 55.5" xmlns="http://www.w3.org/2000/svg">
<path d="M 0,0 H 55.5 V 55.5 H 0 Z" fill="rgb(10, 55, 99)"/>
<path d="M 37.67,37.649 L 30.842,34.836 L 28,41.686 L 25.165,34.836 L 18.322,37.664 L 21.162,30.824 L 14.309,27.984 L 21.162,25.147 L 18.322,18.307 L 25.165,21.134 L 28,14.294 L 30.841,21.134 L 30.807,21.152 L 37.68,18.307 L 34.85,25.147 L 41.698,27.985 L 34.848,30.825 L 37.68,37.664 Z M 28,12 C 19.166,12 12,19.164 12,28 C 12,36.839 19.166,44.002 28,44.002 C 36.836,44.002 44,36.839 44,28 C 44,19.164 36.836,12 28,12 Z" fill="rgb(254, 254, 253)"/>
<path d="M 36.223,19.739 L 22.18,25.574 L 28,27.986 L 30.41,33.801 L 36.233,19.755 Z" fill="rgb(254, 254, 253)"/>
</svg>
