<?xml version="1.0" encoding="UTF-8"?>
<!-- generated by Finnhub -->
<svg viewBox="0 0 55.5 55.5" xmlns="http://www.w3.org/2000/svg">
<path d="M 0,0 H 55.5 V 55.5 H 0 Z" fill="rgb(239, 242, 248)"/>
<path d="M 12.057,17.291 L 7,31 H 10.568 L 11.585,28 H 16.245 L 15.194,25 H 12.619 L 14.467,19.708 L 18.333,31 H 22 L 16.45,16 H 13.943 A 2,2 0 0,0 12.067,17.306 Z M 42.933,17.306 L 48,31 H 44.432 L 43.415,28 H 38.755 L 39.806,25 H 42.381 L 40.533,19.708 L 36.667,31 H 33 L 38.55,16 H 41.057 A 2,2 0 0,1 42.933,17.306 Z M 29.5,16 H 24 V 31 H 27 V 26 H 29.5 A 5,5 0 0,0 29.5,16 Z M 29.5,19 H 27 V 23 H 29.5 A 2,2 0 1,0 29.5,19 Z" clip-rule="evenodd" fill="rgb(218, 168, 35)" fill-rule="evenodd"/>
<path d="M 36.99,31.485 V 33 H 38 V 34 H 37 V 35.5 A 0.5,0.5 0 0,0 37.5,36 H 38 V 37 H 37.2 A 1.2,1.2 0 0,1 36,35.8 V 34 H 35.418 V 33 H 35.7 A 0.3,0.3 0 0,0 36,32.7 V 32.2 A 0.7,0.7 0 0,1 36.7,31.5 H 37 Z M 11.5,35 A 2.52,2.52 0 0,1 9.025,37 C 7.631,37 6.5,35.88 6.5,34.5 S 7.63,32 9.025,32 A 2.52,2.52 0 0,1 11.5,34 H 10.395 C 10.19,33.417 9.637,33 8.987,33 C 8.162,33 7.494,33.672 7.494,34.5 S 8.162,36 8.987,36 C 9.637,36 10.19,35.583 10.395,35 H 11.5 Z M 14,37 A 2,2 0 1,0 14,33 A 2,2 0 0,0 14,37 Z M 14,36 A 1,1 0 1,0 14,34 A 1,1 0 0,0 14,36 Z M 26,37 A 2,2 0 1,0 26,33 A 2,2 0 0,0 26,37 Z M 26,36 A 1,1 0 1,0 26,34 A 1,1 0 0,0 26,36 Z M 44,35 A 2,2 0 1,1 40,35 A 2,2 0 0,1 44,35 Z M 43,35 A 1,1 0 1,1 41,35 A 1,1 0 0,1 43,35 Z M 32.815,37 C 33.28,37 33.705,36.806 34.025,36.488 A 0.7,0.7 0 0,0 34.7,37 H 35 V 33 H 34 V 33.487 A 1.71,1.71 0 0,0 32.815,33 C 31.814,33 31.002,33.895 31.002,35 S 31.814,37 32.815,37 Z M 33,36 C 33.532,36 33.967,35.586 34,35.063 V 34.937 A 1.001,1.001 0 0,0 31.997,35 C 31.997,35.552 32.446,36 33,36 Z M 20.5,33 H 19.5 V 38 H 20.5 V 36.558 A 1.75,1.75 0 0,0 21.656,37 C 22.674,37 23.5,36.105 23.5,35 S 22.674,33 21.656,33 C 21.218,33 20.816,33.166 20.5,33.442 V 33 Z M 20.5,35.065 C 20.5,35.635 20.947,36.097 21.498,36.097 C 22.049,36.097 22.496,35.635 22.496,35.065 C 22.496,34.495 22.049,34.032 21.498,34.032 C 20.947,34.032 20.5,34.495 20.5,35.065 Z M 16.53,33 H 17.532 V 33.624 C 17.883,33.142 18.503,33.006 18.792,33 V 34.037 C 18.076,34.054 17.697,34.507 17.532,34.88 V 37 H 16.531 V 33 Z M 29.55,33 H 28.55 V 37 H 29.55 V 34.88 C 29.715,34.507 30.094,34.054 30.81,34.037 V 33 C 30.521,33.006 29.902,33.142 29.55,33.624 V 33 Z M 38.989,32.69 A 0.595,0.595 0 1,0 38.989,31.5 A 0.595,0.595 0 0,0 38.989,32.69 Z M 39.489,33 H 38.489 V 37 H 39.489 V 33 Z M 44.5,33 H 45.5 V 33.498 A 1.42,1.42 0 0,1 48,34.42 V 37 H 47 V 34.806 A 0.806,0.806 0 0,0 45.5,34.395 V 37 H 44.5 V 33 Z" clip-rule="evenodd" fill-rule="evenodd"/>
</svg>
