<?xml version="1.0" encoding="UTF-8"?>
<!-- generated by Finnhub -->
<svg viewBox="0 0 55.5 55.5" xmlns="http://www.w3.org/2000/svg">
<path d="M 0,0 H 55.5 V 55.5 H 0 Z" fill="rgb(1, 91, 183)"/>
<path d="M 5.618,30.985 H 4 L 6.625,24 H 8.393 L 11,31 H 9.32 L 8.847,29.55 H 6.136 L 5.628,31 Z M 6.538,28.35 H 8.41 L 7.517,25.583 H 7.5 L 6.537,28.35 Z M 19,31 H 17.685 V 28.047 C 17.685,27.328 17.349,27.094 16.965,27.094 C 16.309,27.094 16.16,27.516 16.16,28.094 V 31 H 14.928 V 28.062 C 14.928,27.656 14.928,27.078 14.128,27.078 C 13.504,27.078 13.32,27.5 13.32,28.031 V 31 H 12 V 26.125 H 13.32 V 26.844 C 13.496,26.531 13.824,26 14.704,26 C 15.424,26 15.824,26.25 16.16,26.781 C 16.336,26.547 16.576,26 17.376,26 C 18.368,26 19,26.563 19,27.625 V 31 Z M 21.314,26.843 C 21.565,26.445 21.956,26 22.86,26 C 23.997,26 25,26.843 25,28.546 C 25,29.898 24.364,31.202 22.826,31.202 C 21.873,31.202 21.481,30.709 21.314,30.439 V 33 H 20 V 26.127 H 21.314 V 26.843 Z M 22.492,30.136 C 23.362,30.136 23.612,29.23 23.612,28.641 C 23.612,27.861 23.328,27.13 22.458,27.13 C 21.522,27.13 21.304,27.925 21.304,28.72 C 21.304,29.452 21.639,30.136 22.492,30.136 Z M 31,31 H 29.542 V 28.033 C 29.542,27.65 29.518,26.833 28.589,26.833 C 27.946,26.833 27.429,27.25 27.429,28.033 V 31 H 26 V 24 H 27.428 V 26.483 C 27.608,26.05 28.268,25.667 29.071,25.667 C 30.161,25.667 31,26.267 31,27.4 V 31 Z M 36.933,29.484 C 36.567,30.625 35.517,31 34.617,31 C 33.133,31 32,30.36 32,28.406 C 32,27.828 32.217,26 34.517,26 C 35.55,26 37,26.453 37,28.61 V 28.828 H 33.383 C 33.417,29.188 33.5,29.984 34.617,29.984 C 35,29.984 35.4,29.812 35.5,29.469 H 36.933 V 29.484 Z M 35.567,28.031 C 35.483,27.266 34.95,27.031 34.5,27.031 C 33.85,27.031 33.5,27.406 33.417,28.031 H 35.567 Z M 43,31 H 41.542 V 28.047 C 41.542,27.687 41.525,27.094 40.602,27.094 C 39.962,27.094 39.465,27.484 39.465,28.219 V 31 H 38 V 26.125 H 39.394 V 26.844 H 39.411 C 39.607,26.547 40.015,26 41.063,26 C 42.146,26 43,26.563 43,27.625 V 31 Z M 46.5,31 C 45.187,31 44,30.219 44,28.5 C 44,26.781 45.188,26 46.5,26 C 47.813,26 49,26.781 49,28.5 C 49,30.219 47.812,31 46.5,31 Z M 46.5,27.047 C 45.516,27.047 45.328,27.891 45.328,28.5 C 45.328,29.11 45.516,29.953 46.5,29.953 C 47.5,29.953 47.672,29.109 47.672,28.5 C 47.672,27.89 47.5,27.047 46.5,27.047 Z M 51.5,31 H 50 V 24 H 51.5 V 31 Z" fill="rgb(254, 254, 253)"/>
</svg>
