<?xml version="1.0" encoding="UTF-8"?>
<!-- generated by Finnhub -->
<svg viewBox="0 0 55.5 55.5" xmlns="http://www.w3.org/2000/svg">
<path d="M 0,0 H 55.5 V 55.5 H 0 Z" fill="rgb(226, 27, 34)"/>
<path d="M 29.892,30.985 L 28.021,27.525 L 26.069,31 H 29.902 Z M 17.37,39 H 34.468 C 34.038,38.714 33.25,37 33.25,37 H 17.966 C 16.728,37 16.483,35 18.196,35 H 32.266 L 31.27,33 H 17.27 C 13.823,33.147 13.703,38.725 17.369,39 Z M 41.254,34.284 L 32.568,19.066 C 32.548,19.748 31.604,21.418 31.604,21.418 L 39.348,35.253 C 39.889,36.333 38.524,37.632 37.758,36.168 L 30.515,23.331 L 29.309,25.436 L 36.227,37.611 C 38.03,40.474 42.783,37.539 41.254,34.284 Z M 25.716,15.78 L 16.816,31.23 C 17.35,30.97 19.218,31.001 19.218,31.001 L 27.304,16.814 C 27.923,15.697 29.902,16.574 29.237,17.762 L 21.613,31 H 23.753 L 31.02,18.287 C 32.572,15.287 27.755,12.8 25.716,15.779 Z M 43.489,34.09 C 45.162,37.409 42.43,40.979 39.532,40.991 L 16.847,40.994 C 12.885,40.994 11.262,36.66 12.885,33.734 L 24.041,14.079 C 25.963,11.218 30.381,11.389 32.156,14.112 L 43.135,33.447 L 43.489,34.09 Z" fill="rgb(254, 254, 253)"/>
</svg>
