<?xml version="1.0" encoding="UTF-8"?>
<!-- generated by Finnhub -->
<svg viewBox="0 0 55.5 55.5" xmlns="http://www.w3.org/2000/svg">
<path d="M 0,0 H 55.5 V 55.5 H 0 Z" fill="rgb(1, 62, 132)"/>
<path d="M 42.376000000000005,24.384999999999998 C 42.239,24.793 42.092,25.211 41.933,25.618 C 40.612,24.373 38.703,24.171 37.028,24.618 C 36.012,24.874 34.923,25.793 34.728,27.01 C 34.544,28.24 34.764,29.496 35.669,30.267 C 36.954,31.349 38.911,31.362 40.465,30.971 L 40.881,30.795 C 40.881,30.463 40.876,29.758 40.876,28.524 C 40.558,28.524 40.159,28.551 39.828,28.591 C 39.828,28.307 39.853,28.01 39.828,27.726 C 40.661,27.862 41.609,27.798 42.298,27.82 V 31.295 C 40.509,31.82 38.263,32.079 36.281,31.645 C 34.971,31.375 33.516,30.375 33.173,28.835 C 32.843,27.415 33.223,25.955 34.286,25.062 C 35.986,23.657 38.348,23.536 40.49,23.846 C 41.15,23.941 41.8,24.104 42.386,24.401 Z M 50.865,23.906 C 50.791,24.217 50.852,24.481 50.852,24.792 C 50.13,24.671 49.335,24.657 48.589,24.657 H 45.212 C 45.212,26.97 45.2,26.252 45.2,27.05 C 46.986,27.064 48.772,27.037 50.57,27.01 A 2.668,2.668 0 0,0 50.558,27.834 C 48.772,27.766 46.998,27.834 45.212,27.834 C 45.212,30.688 45.2,29.876 45.212,30.848 C 46.312,30.876 47.402,30.848 48.503,30.835 C 49.323,30.822 50.175,30.83 50.983,30.695 C 50.983,31.005 50.926,31.449 51,31.745 H 43.758 C 43.758,28.989 43.748,26.48 43.76,23.885 C 46.709,23.885 44.19,23.906 50.865,23.906 Z M 31.703,24.046 V 31.87 H 31.119 A 454.199,454.199 0 0,0 24.352,26.05 C 24.349,26.548 24.35,28.383 24.35,31.79 C 24.044,31.763 23.635,31.736 23.316,31.79 V 24.025 C 23.304,24.013 24.099,24.025 24.132,24.025 C 24.332,24.025 28.493,27.645 30.672,29.497 C 30.675,26.547 30.672,27.173 30.672,24.046 C 31.002,24.086 31.384,24.06 31.702,24.046 Z M 21.692,24.013 V 28.808 C 21.692,29.903 21,30.943 20.071,31.416 C 18.871,32.025 17.403,32.12 16.033,31.876 C 15.043,31.7 13.916,31.213 13.513,30.038 A 4.493,4.493 0 0,1 13.304,28.74 L 13.318,24.015 C 14.19,24.131 14.006,24.081 14.74,24.015 C 14.74,27.984 14.717,27.265 14.767,28.888 C 14.791,29.699 15.201,30.605 15.972,30.902 C 16.938,31.267 18.15,31.322 19.14,30.971 C 19.764,30.754 20.352,30.105 20.535,29.401 C 20.621,29.051 20.645,28.672 20.67,28.294 V 24.03 C 21.286,24.114 21.331,24.081 21.691,24.013 Z M 9.744,28.307 C 8.484,27.821 7.094,28.027 5.678,28.025 L 5.67,31.107 C 7.66,31.115 7.81,31.119 8.839,31.037 C 9.439,30.984 10.05,30.7 10.356,30.091 C 10.576,29.672 10.503,29.037 10.234,28.672 C 10.104,28.503 9.934,28.377 9.744,28.307 Z M 8.937,24.86 C 6.381,24.839 6.721,24.833 5.668,24.86 C 5.668,26.808 5.658,25.012 5.658,27.266 C 6.722,27.28 7.884,27.32 8.938,27.104 C 9.426,27.009 10.025,26.725 10.173,26.104 C 10.246,25.766 10.184,25.428 9.953,25.199 C 9.671,24.942 9.303,24.864 8.937,24.86 Z M 11.004,24.55 C 11.444,24.86 11.616,25.428 11.518,25.982 C 11.372,26.847 10.528,27.334 9.878,27.577 C 10.588,27.712 11.372,27.875 11.775,28.632 C 12.117,29.28 12.045,30.241 11.579,30.808 C 10.674,31.903 9.304,31.808 8.019,31.876 L 4.004,31.87 C 4.004,27.814 4,27.413 4,24.013 C 6.283,24.013 6.698,24.021 8.068,24.021 C 9.035,24.035 10.173,23.995 11.004,24.549 Z M 17.722,20 C 17.102,20 16.532,20.229 16.074,20.613 H 19.369 A 2.548,2.548 0 0,0 17.722,20 Z M 20.444,23.007 C 20.444,22.883 20.437,22.762 20.424,22.642 H 15.02 A 3.462,3.462 0 0,0 15.014,23.317 H 20.43 C 20.44,23.216 20.444,23.112 20.444,23.007 Z" fill="rgb(254, 254, 253)"/>
<path d="M 17.712,26.0 C 18.346,26.016 18.951,25.78 19.435,25.345 H 16.01 C 16.494,25.78 17.1,26.016 17.723,26.015 Z M 19.956,21.29 H 15.489 C 15.356,21.499 15.249,21.726 15.168,21.965 H 20.276 A 3.134,3.134 0 0,0 19.956,21.29 Z M 15.15,23.993 C 15.225,24.232 15.326,24.459 15.453,24.669 H 19.991 C 20.117,24.459 20.219,24.231 20.294,23.993 H 15.15 Z" fill="rgb(254, 254, 253)"/>
</svg>
