<?xml version="1.0" encoding="UTF-8"?>
<!-- generated by Finnhub -->
<svg viewBox="0 0 55.5 55.5" xmlns="http://www.w3.org/2000/svg">
<path d="M 0,0 H 55.5 V 55.5 H 0 Z" fill="rgb(239, 242, 248)"/>
<path d="M 6.4670000000000005,20.985 H 4 L 4.01,35 H 13.553 C 14.245,34.373 13.983,33.757 13.764,33.528 C 11.742,31.23 7.575,26.468 7.082,25.799 C 6.588,25.132 6.352,25.034 6.296,25.069 C 5.86,25.245 5.38,26.042 5.194,26.419 L 4.473,26.116 L 6.477,21 Z M 18,21.004 H 8 C 10.616,24.003 15.994,30.128 16.583,30.641 C 17.173,31.153 17.773,31.013 18,30.879 V 21.004 Z M 18,32 L 15,35 H 18 V 32 Z" fill="rgb(236, 22, 73)"/>
<path d="M 18.99,28.983 V 20.998 H 22.26 C 23.68,20.998 24.117,21.914 24.21,22.931 C 24.286,23.744 23.764,24.503 23.493,24.781 C 24.354,25.075 24.476,26.259 24.429,26.815 C 24.504,28.521 23.015,28.981 22.261,28.998 H 19 Z" fill="rgb(1, 96, 168)"/>
<path d="M 20.476999999999997,24.029 V 22.69 H 21.687 C 22.073,22.69 22.368,22.852 22.406,23.323 C 22.443,23.793 21.946,24.02 21.686,24.045 H 20.486 Z M 20.487,27.278 V 25.848 H 21.832 C 22.265,25.848 22.596,26.019 22.638,26.516 C 22.68,27.012 22.123,27.251 21.832,27.278 H 20.487 Z" fill="rgb(239, 242, 248)"/>
<path d="M 25.012999999999998,26.996 V 23 H 26.5 C 26.496,23.922 26.5,25.831 26.5,26.089 C 26.5,26.661 26.672,27.429 27.298,27.429 C 27.924,27.429 28.008,26.471 28,26.089 V 23 H 29.5 V 29 H 28 V 27.99 C 27.619,28.862 26.937,29.024 26.607,28.996 C 25.329,29.086 25.018,27.71 25.023,27.011 Z M 30.04,21.036 H 31.5 V 22.536 H 30.04 Z M 30.04,23 H 31.5 V 29 H 30.04 V 23 Z M 32.28,20.998 H 33.813 V 28.998 H 32.281 V 20.998 Z M 39,29 V 21 H 37.5 V 23.617 C 37.325,23.051 36.408,23 36.07,23 C 35.072,23.181 34.307,23.946 34.245,26.07 C 34.182,28.193 35.321,29.016 36.21,29 C 36.922,28.987 37.36,28.402 37.5,28.11 V 29 H 39 Z M 41.72,23 C 43.789,22.988 44.232,25.342 44.196,26.52 H 40.789 C 40.775,27.433 41.389,27.624 41.83,27.624 C 42.412,27.624 42.626,27.2 42.626,27 H 44.12 C 43.865,28.46 42.476,28.997 41.83,28.997 C 39.617,29.09 39.156,27.114 39.202,26.114 C 39.179,25.081 39.65,23.012 41.719,23 Z M 44.5,29 V 23 H 46 V 23.965 C 46.323,23.087 46.73,23.013 47.11,23.001 C 47.416,22.991 47.754,23.111 47.884,23.174 L 47.304,25.207 C 47.19,25 46.834,24.987 46.738,25 C 46.156,25.08 45.981,26.04 46,26.464 V 29 H 44.5 Z M 49.698,23.003 C 51.379,22.935 51.984,24.378 51.996,25 H 50.5 C 50.5,24.42 50.187,24.298 49.942,24.241 C 49.698,24.185 49.275,24.248 49.247,24.578 C 49.213,24.989 49.767,25.038 50.887,25.438 C 51.783,25.758 52,26.678 51.996,27.098 C 52.046,27.715 51.67,28.96 49.767,28.999 C 47.864,29.038 47.469,27.65 47.5,27 H 49 C 49,27.57 49.513,27.8 49.767,27.788 C 50.021,27.776 50.24,27.63 50.264,27.34 C 50.287,27.049 50.148,26.806 48.82,26.528 C 47.757,26.305 47.553,25.272 47.584,24.783 C 47.588,24.218 48.016,23.07 49.698,23.003 Z M 19.01,35.004 V 29.546 H 22.64 V 30.232 H 19.743 V 31.884 H 22 V 32.544 H 19.743 V 35.004 H 19.009 Z M 23.179,29.546 H 23.864 V 30.285 H 23.179 Z M 23.179,31.004 H 23.864 V 35.004 H 23.179 Z M 24.246,35 V 31 H 24.904 V 31.421 C 25,31.272 25.287,30.979 25.673,31.001 C 26.058,31.023 26.327,31.187 26.413,31.266 L 26.183,31.75 C 26.071,31.56 25.796,31.53 25.673,31.54 C 25.028,31.62 24.891,32.212 24.903,32.498 V 35 H 24.246 Z M 43.278,35 V 31 H 43.936 V 31.421 C 44.032,31.272 44.319,30.979 44.705,31.001 C 45.09,31.023 45.359,31.187 45.445,31.266 L 45.215,31.75 C 45.103,31.56 44.828,31.53 44.705,31.54 C 44.06,31.62 43.924,32.212 43.936,32.498 V 35 H 43.278 Z M 27.79,31 C 29.02,31 29.274,31.79 29.248,32.186 H 28.644 C 28.644,31.93 28.459,31.581 27.791,31.558 C 27.122,31.535 26.994,31.86 26.985,32.101 C 26.977,32.341 27.05,32.551 28.072,32.705 C 28.89,32.829 29.27,33.151 29.328,33.418 C 29.441,33.935 29.308,34.975 27.879,34.999 C 26.449,35.024 26.172,34.121 26.213,33.666 H 26.833 C 26.8,34.146 27.195,34.472 27.879,34.465 C 28.563,34.457 28.724,34.085 28.74,33.852 C 28.757,33.62 28.628,33.38 27.436,33.186 C 26.483,33.031 26.309,32.455 26.341,32.186 C 26.311,31.791 26.561,31 27.791,31 Z M 33.528,29.44 C 35.19,29.44 35.533,30.539 35.498,31.089 H 34.681 C 34.681,30.733 34.431,30.248 33.528,30.216 C 32.624,30.183 32.45,30.636 32.439,30.97 C 32.429,31.305 32.526,31.596 33.909,31.811 C 35.014,31.984 35.482,32.509 35.561,32.881 C 35.714,33.601 35.58,34.969 33.647,35.003 C 31.715,35.038 31.34,33.781 31.395,33.148 H 32.233 C 32.189,33.817 32.723,34.27 33.647,34.259 C 34.572,34.249 34.79,33.731 34.812,33.407 C 34.833,33.084 34.659,32.749 33.049,32.48 C 31.76,32.264 31.525,31.463 31.569,31.089 C 31.529,30.539 31.865,29.439 33.528,29.439 Z M 29.887,31.114 V 30 H 30.572 V 31.114 H 31.137 V 31.624 H 30.572 V 34.04 C 30.572,34.315 30.717,34.4 30.789,34.408 H 31.137 V 35 H 30.572 C 30.005,34.99 29.879,34.459 29.887,34.194 V 31.624 H 29.37 V 31.114 H 29.887 Z" fill="rgb(1, 96, 168)"/>
<ellipse cx="37.478" cy="33.002" rx="1.72" ry="2.002" fill="rgb(1, 96, 168)"/>
<ellipse cx="36.655" cy="26.078" rx=".757" ry="1.327" fill="rgb(239, 242, 248)"/>
<path d="M 41.738,24.392 C 40.911,24.407 40.753,25.037 40.778,25.372 H 42.668 C 42.709,25.065 42.518,24.407 41.748,24.407 Z" fill="rgb(239, 242, 248)"/>
<ellipse cx="37.478" cy="33.005" rx="1.084" ry="1.464" fill="rgb(239, 242, 248)"/>
<path d="M 39.578,33.827 V 31 H 40.263 V 33.32 C 40.263,33.712 40.236,34.444 41.06,34.425 C 41.884,34.405 42.05,33.68 42.029,33.32 V 31 H 42.679 V 34.91 H 42.09 V 34.291 C 41.786,34.923 41.137,35.024 40.851,34.996 C 39.841,35.044 39.588,34.246 39.588,33.842 Z M 46.985,31 C 48.049,31.025 48.349,31.941 48.365,32.397 H 47.761 C 47.761,31.81 47.243,31.603 46.985,31.573 C 46.047,31.613 45.906,32.337 45.855,33.02 C 45.805,33.703 46.128,34.526 46.895,34.466 C 47.507,34.418 47.727,33.843 47.761,33.562 H 48.366 C 48.306,34.061 47.914,35.047 46.834,34.998 C 45.483,34.938 45.251,33.883 45.201,33.02 C 45.151,32.156 45.654,30.97 46.985,31 Z M 50.414,31 C 51.754,31.043 52.028,32.487 51.998,33.203 H 49.275 C 49.235,33.95 49.667,34.501 50.414,34.501 C 51.011,34.501 51.264,33.994 51.317,33.741 H 51.919 C 51.731,34.779 50.837,35.012 50.414,34.999 C 48.916,35.041 48.603,33.689 48.634,33.007 C 48.668,32.321 49.074,30.959 50.414,31.001 Z" fill="rgb(1, 96, 168)"/>
<path d="M 50.339,31.57 C 49.5,31.626 49.297,32.345 49.301,32.7 H 51.331 C 51.357,32.311 51.197,31.543 50.349,31.585 Z" fill="rgb(239, 242, 248)"/>
</svg>
