<?xml version="1.0" encoding="UTF-8"?>
<!-- generated by Finnhub -->
<svg fill="none" viewBox="0 0 55.5 55.5" xmlns="http://www.w3.org/2000/svg">
<path d="M 0,0 H 55.5 V 55.5 H 0 Z" fill="rgb(1, 86, 140)"/>
<path d="M 43.99,12.019 L 12,12 V 44 H 44 V 12.034 Z M 37,33.849 V 35.193 C 33.486,35.193 31.344,34.185 29.946,32.941 C 30.172,33.513 30.436,34.118 30.776,34.689 C 33.157,38.891 37.351,41.042 43.471,41.109 V 42.857 C 34.895,42.79 30.891,38.79 29.001,35.429 A 15.805,15.805 0 0,1 27.981,33.244 C 25.148,39.462 17.113,39.529 17,39.529 V 37.579 C 17.378,37.579 27,37.344 27,28 H 29 C 29,18.655 38.622,18.555 39,18.555 V 16.605 C 38.887,16.605 30.852,16.705 28.019,22.891 A 15.805,15.805 0 0,0 26.999,20.706 C 25.109,17.412 21.105,13.412 12.529,13.345 V 12.471 H 43.47 V 28 H 29 C 29,28.235 29.255,33.849 37,33.849 Z M 12.529,15.092 C 18.612,15.16 22.843,17.311 25.223,21.512 C 25.563,22.118 25.828,22.689 26.054,23.26 C 24.656,22.017 22.514,21.008 19,21.008 V 22.353 C 26.745,22.353 27,27.765 27,28 H 12.529 V 15.092 Z" fill="rgb(254, 254, 253)"/>
<path d="M 12.49,12.485 H 43.5 V 43.5 H 12.5 Z" stroke="rgb(254, 254, 253)"/>
</svg>
