<?xml version="1.0" encoding="UTF-8"?>
<!-- generated by Finnhub -->
<svg viewBox="0 0 55.5 55.5" xmlns="http://www.w3.org/2000/svg">
<path d="M 0,0 H 55.5 V 55.5 H 0 Z" fill="rgb(1, 40, 82)"/>
<path d="M 24.009999999999998,19.985 C 29.816,20 30.946,24.162 30.946,26.002 C 30.946,28.262 29.671,31 25.751,31 H 23.527 C 22.469,31 22,30.98 22,26.603 V 20 H 24.02 Z M 19,30.452 C 19,30.765 18.922,31 18.537,31 H 17 V 32 H 25.006 C 31.968,32 33.94,28.683 33.94,25.75 C 33.94,22.467 31.367,20.338 28.325,19.737 V 19.665 C 30.477,18.848 32.533,17.296 32.533,14.795 C 32.533,11.753 30.128,10 26.593,10 H 16 V 11 H 18.08 C 18.994,11 19,12.222 19,15.854 V 30.452 Z M 27.086,19.389 C 25.992,19.136 25.283,19 22,19 V 11.717 C 22,11.08 22.253,11 22.782,11 H 25.572 C 27.302,11 29.779,12.246 29.779,15.36 C 29.779,17.308 28.721,18.51 27.086,19.389 Z" fill="rgb(254, 254, 253)"/>
<path d="M 30.069999999999997,34.985 C 35.876,35 37.006,39.204 37.006,41.044 C 37.006,43.304 35.731,46.022 31.811,46.022 H 29.587 C 28.529,46.022 28,46.022 28,41.645 V 35 H 30.08 Z M 25,45.431 C 25,45.744 24.982,45.996 24.597,45.996 H 23 V 47 H 31.066 C 38.028,47 40,43.725 40,40.791 C 40,37.509 37.427,35.381 34.385,34.791 V 34.719 C 36.537,33.902 38.593,32.35 38.593,29.849 C 38.593,26.807 36.188,25 32.653,25 H 22 V 26 H 24.14 C 25.054,26 25,27.276 25,30.908 V 45.43 Z M 33.146,34.443 C 32.052,34.19 31.283,34 28,34 V 26.644 C 28,26.007 28.17,26 28.7,26 H 31.631 C 33.363,26 35.84,27.3 35.84,30.403 C 35.84,32.35 34.77,33.553 33.146,34.443 Z" fill="rgb(254, 254, 253)"/>
</svg>
