<?xml version="1.0" encoding="UTF-8"?>
<!-- generated by Finnhub -->
<svg viewBox="0 0 55.5 55.5" xmlns="http://www.w3.org/2000/svg">
<path d="M 0,0 H 55.5 V 55.5 H 0 Z" fill="url(#a)"/>
<path d="M 48.95,23.765 C 50.2,24.98 51,26.4 51,28 C 51,29.6 50.2,31.02 48.96,32.22 A 16,16 0 0,1 43.92,35.28 C 39.8,36.98 34.16,38 28,38 S 16.2,36.98 12.08,35.28 A 16,16 0 0,1 7.04,32.22 C 5.8,31.02 5,29.6 5,28 C 5,26.4 5.8,24.98 7.04,23.78 A 16,16 0 0,1 12.08,20.72 C 16.2,19.02 21.84,18 28,18 C 34.16,18 39.8,19.03 43.92,20.72 A 16,16 0 0,1 48.96,23.78 Z" fill="rgb(20, 43, 113)"/>
<path d="M 49.99,27.985 C 50,23.04 40.12,19 28,19 S 6,23.04 6,28 S 15.88,37 28,37 C 40.12,37 50,32.96 50,28 Z M 6.57,28 C 6.57,23.52 16.19,19.86 28,19.86 C 39.8,19.86 49.43,23.52 49.43,28 C 49.43,32.48 39.81,36.14 28,36.14 C 16.2,36.14 6.57,32.48 6.57,28 Z M 19.42,29.62 C 19.19,28.85 20.48,26.57 21.6,26.47 C 21.8,26.45 21.88,26.63 21.87,26.79 C 21.8,28.21 19.93,31.28 19.42,29.62 Z M 23.04,26.47 C 23.2,25.9 22.64,25.93 22.34,26 C 22.21,26.02 22.2,26.1 22.18,26.2 C 22.17,26.26 22.16,26.33 22.12,26.41 A 0.96,0.96 0 0,0 21.41,26.06 C 18.71,26.14 17.45,30.97 19.31,31 C 20.08,31 20.48,30.5 20.88,29.94 H 20.9 C 20.92,29.95 20.96,29.96 20.95,30.09 C 20.85,30.8 21.12,31.03 21.4,30.99 C 22.95,30.54 23.28,28.69 22.48,29.77 C 22.28,30.1 22.12,30.05 22.02,30.01 C 21.86,29.96 22.52,27.99 22.86,27.01 L 23.04,26.47 Z M 15.44,30.39 C 13.25,30.08 14.28,25.2 16.87,24.58 C 17.41,24.45 17.96,24.43 18.29,24.68 C 18.39,24.78 18.35,24.8 18.29,24.84 C 18.23,24.88 18.15,24.93 18.17,25.09 C 18.3,25.89 19.35,25.76 19.46,25.03 C 19.52,24.43 18.82,24 18.12,24 C 15.55,24 13.06,25.7 13,28.43 C 12.94,31.23 15.44,31.67 17.51,29.92 C 17.91,29.49 17.67,29.23 17.37,29.62 C 16.71,30.24 15.71,30.42 15.44,30.39 Z M 39.13,30.77 C 39.05,31.02 39.89,31.12 40.06,30.79 C 40.86,28.31 41.72,26.81 41.92,26.81 C 41.97,26.81 42,26.84 42,26.89 C 42.03,27.54 42.94,27.59 43,26.82 C 43.02,26.48 42.86,26 42.45,26 C 41.86,26 41.25,27.1 40.94,27.68 C 41.05,27.3 41.06,27.07 41.07,26.78 V 26.62 C 41.09,26.34 40.97,26 40.67,26 C 40.21,26 39.85,26.43 39.51,26.91 C 39.29,27.22 39.13,27.45 39.13,27.57 C 39.13,27.64 39.17,27.68 39.23,27.68 C 39.3,27.68 39.4,27.56 39.54,27.39 L 39.67,27.24 C 39.93,26.94 40.17,26.72 40.22,26.98 C 40.26,27.23 40.07,27.82 39.13,30.78 Z M 28.11,30.76 C 28.03,31.01 28.88,31.11 29.04,30.77 C 29.85,28.3 30.73,26.81 30.92,26.81 C 30.98,26.81 31.01,26.84 31.02,26.89 C 31.03,27.54 31.95,27.59 32.01,26.82 C 32.03,26.48 31.87,26 31.46,26 C 30.87,26 30.26,27.1 29.94,27.68 C 30.06,27.31 30.07,27.08 30.08,26.78 V 26.62 C 30.1,26.34 29.98,26 29.68,26 C 29.22,26 28.86,26.43 28.52,26.91 C 28.3,27.22 28.14,27.45 28.14,27.57 C 28.14,27.64 28.18,27.68 28.24,27.68 C 28.31,27.68 28.41,27.56 28.55,27.39 L 28.68,27.24 C 28.94,26.94 29.18,26.72 29.23,26.98 C 29.26,27.19 29.12,27.63 28.51,29.52 L 28.11,30.76 Z M 23.91,30.76 C 23.83,31.01 24.68,31.11 24.85,30.77 C 25.65,28.3 26.55,26.81 26.75,26.81 C 26.81,26.81 26.84,26.84 26.84,26.89 C 26.86,27.54 27.78,27.59 27.84,26.82 C 27.86,26.48 27.7,26 27.29,26 C 26.7,26 26.09,27.1 25.77,27.68 C 25.89,27.3 25.9,27.08 25.91,26.78 V 26.62 C 25.93,26.34 25.81,26 25.5,26 C 25.05,26 24.7,26.43 24.35,26.91 C 24.12,27.22 23.97,27.45 23.97,27.57 C 23.97,27.64 24.01,27.68 24.07,27.68 C 24.14,27.68 24.24,27.56 24.37,27.39 L 24.51,27.24 C 24.77,26.94 25.01,26.72 25.06,26.98 C 25.08,27.16 24.97,27.51 24.56,28.78 L 23.92,30.76 Z M 32.64,27.14 C 32.26,28.2 31.74,29.67 31.73,30.22 C 31.71,30.61 32.01,31 32.28,31 C 33.37,30.99 33.87,29.99 33.9,29.6 C 33.9,29.52 33.81,29.47 33.76,29.47 C 33.66,29.47 33.6,29.55 33.37,29.87 L 33.3,29.97 C 33.17,30.16 32.69,30.37 32.76,30 C 32.96,29.03 33.62,26.98 33.95,26 H 33 C 33,26.1 32.84,26.55 32.63,27.14 Z M 34.31,24.86 C 34.34,24.49 34.2,24.32 33.88,24.32 C 33.55,24.32 33.28,24.66 33.24,25.04 C 33.21,25.43 33.39,25.6 33.7,25.6 C 34.02,25.6 34.28,25.21 34.31,24.86 Z M 37.58,26 C 35.63,26.01 34.53,27.65 34.47,29.2 C 34.44,30 34.97,31 35.88,31 C 37.21,31 37.83,30.1 38.03,29.8 L 38.07,29.75 C 38.21,29.55 37.88,29.5 37.79,29.61 L 37.56,29.81 C 37.22,30.14 37.03,30.33 36.37,30.33 C 35.67,30.33 35.52,29.53 35.69,28.88 C 36.71,28.85 38.54,28.36 38.7,27.13 C 38.78,26.48 38.16,25.99 37.58,26 Z M 37.23,26.37 C 38.08,26.37 37.71,27.61 37.18,28.07 C 36.85,28.37 36.08,28.47 35.75,28.47 C 35.87,27.68 36.65,26.37 37.23,26.37 Z" fill="rgb(254, 254, 253)"/>
<defs>
<linearGradient id="a" x1="-1.59" x2="42.21" y1="14.44" y2="42" gradientUnits="userSpaceOnUse">
<stop stop-color="rgb(22, 124, 216)" offset="0"/>
<stop stop-color="rgb(21, 60, 136)" offset="1"/>
</linearGradient>
</defs>
</svg>
