<?xml version="1.0" encoding="UTF-8"?>
<!-- generated by Finnhub -->
<svg viewBox="0 0 55.5 55.5" xmlns="http://www.w3.org/2000/svg">
<path d="M 0,0 H 55.5 V 55.5 H 0 Z" fill="rgb(28, 40, 81)"/>
<path d="M 26.206999999999997,33.239 L 26.128,33.255 C 24.364,33.255 23.268,31.817 23.268,29.499 C 23.268,27.18 24.373,25.742 26.151,25.742 C 26.215,25.742 26.278,25.744 26.341,25.748 C 27.994,25.848 29.012,27.266 29.012,29.498 C 29.012,31.776 27.944,33.207 26.217,33.254 Z M 26.369,24.002 S 26.284,23.998 26.241,24 C 26.203,23.998 26.167,23.998 26.128,23.998 C 24.922,23.998 23.86,24.334 23.015,24.982 V 20 H 21 V 35 H 22.756 L 22.884,33.963 C 23.733,34.653 24.848,35 26.151,35 H 26.189 C 27.671,34.992 28.929,34.477 29.835,33.509 C 30.753,32.525 31.241,31.138 31.241,29.499 C 31.241,26.243 29.337,24.112 26.369,24.002 Z M 36.882,33.255 C 35.119,33.255 34.022,31.817 34.022,29.499 C 34.022,27.18 35.127,25.742 36.904,25.742 C 38.669,25.742 39.766,27.18 39.766,29.499 C 39.766,31.817 38.661,33.255 36.882,33.255 Z M 36.882,23.998 C 35.388,23.998 34.112,24.515 33.199,25.497 C 32.28,26.483 31.794,27.867 31.794,29.499 C 31.794,32.841 33.411,34.999 36.904,34.999 C 38.403,34.999 39.675,34.484 40.587,33.509 C 41.508,32.525 42,31.138 42,29.499 C 42,26.156 39.988,23.998 36.882,23.998 Z M 47.45,25.628 C 45.62,25.628 44.816,27.148 44.707,28.432 H 49.977 C 49.977,26.998 49.257,25.629 47.45,25.629 Z M 44.707,30.012 C 44.73,32.138 45.814,33.257 47.769,33.257 C 49.699,33.257 50.826,32.185 50.941,32.071 L 51.818,33.499 S 50.431,34.984 47.523,34.984 C 44.614,34.984 42.547,32.971 42.547,29.521 C 42.547,26.048 44.705,24.014 47.523,24.014 C 50.34,24.014 52,26.14 52,29.156 L 51.978,30 L 44.708,30.012 Z" fill="rgb(254, 254, 253)"/>
<path d="M 17.255999999999997,25.447 L 15.905,24.141 L 17.266,22.82 L 18.628,24.14 L 17.266,25.462 Z M 17.268,21.644 L 15.906,20.323 L 17.269,19.002 L 18.629,20.322 L 17.269,21.644 Z M 19.235,23.554 L 17.873,22.233 L 18.63,21.501 L 19.234,20.912 L 20.596,22.233 L 19.235,23.553 Z" fill="rgb(50, 180, 62)"/>
<path d="M 11.295,33.055 C 8.299,33.07 6.345,30.797 6.345,27.466 C 6.345,24.136 8.397,21.86 11.377,21.86 C 13.563,21.86 14.535,22.902 15.293,23.646 L 16.637,22.378 C 15.917,21.688 14.488,20 11.305,20 C 7.37,20 4,22.78 4,27.49 C 4,32.197 7.029,35 11.207,35 C 14.311,35 15.998,33.453 16.66,32.659 L 15.264,31.345 A 5.277,5.277 0 0,1 11.305,33.07 Z" fill="rgb(254, 254, 253)"/>
</svg>
