<?xml version="1.0" encoding="UTF-8"?>
<!-- generated by Finnhub -->
<svg viewBox="0 0 55.5 55.5" xmlns="http://www.w3.org/2000/svg">
<path d="M 0,0 H 55.5 V 55.5 H 0 Z" fill="rgb(1, 123, 73)"/>
<path d="M 25.572999999999997,27.287 C 26.892,26.859 26.892,24.817 26.892,24.402 C 26.889,22.67 25.738,21.002 22.34,21.002 L 16,21 V 34 H 22.324 C 25.742,34 26.999,32.133 26.999,30.263 C 26.999,27.998 25.584,27.302 25.584,27.302 Z M 19,24 H 23.278 C 23.715,24 24.092,24.454 24.092,24.966 C 24.092,25.489 23.75,25.924 23.253,25.996 H 19 V 24 Z M 23.072,30.995 H 19 V 29 H 23.181 C 23.699,29.063 24.091,29.377 24.091,29.92 C 24.091,30.515 23.627,30.987 23.072,30.995 Z M 41,21 H 50.998 L 51,24 H 44 V 26 H 50 V 29 H 44 V 31 H 51 L 50.998,34 H 41 M 34.559,21 H 28 V 34 H 31 V 28.588 L 34.329,28.585 C 35.279,28.6 36.017,29.417 36.017,30.425 V 34 H 39 V 29.792 C 39,27.848 37.173,27.273 37.173,27.273 S 39,26.7 39,24.403 C 39,21.59 36.701,21 34.559,21 Z M 36.203,25.183 C 36.148,25.611 35.743,26.005 35.234,26.005 H 31 V 24 H 35.236 C 35.742,24 36.138,24.386 36.203,24.9 M 14,31 S 9.375,31.013 8.905,31.013 C 6.767,30.78 5.996,28.817 5.996,27.379 C 5.996,25.584 7.096,24.365 8.798,24.118 C 9.61,23.999 13.953,24 14,24 V 21 H 8.878 C 8.319,21.038 7.394,21.111 6.446,21.542 A 6.123,6.123 0 0,0 4.152,23.606 A 6.945,6.945 0 0,0 3,27.48 C 3,27.923 3.032,28.362 3.096,28.783 C 3.456,30.753 4.618,32.385 6.283,33.261 C 6.845,33.537 7.713,33.866 9.461,33.976 L 10.403,33.998 L 14,34 V 31 Z" fill="rgb(254, 254, 253)"/>
</svg>
