<?xml version="1.0" encoding="UTF-8"?>
<!-- generated by Finnhub -->
<svg viewBox="0 0 55.5 55.5" xmlns="http://www.w3.org/2000/svg">
<path d="M 0,0 H 55.5 V 55.5 H 0 Z" fill="rgb(1, 161, 111)"/>
<path d="M 26.048,22.898 C 23.689,23.763 22.874,26.065 22.874,26.065 C 22.555,26.915 21.708,27 20.754,27 H 16.262 C 15.025,27 14,26.238 14,25 C 14,23.76 14.848,23 16.262,23 H 19.825 L 14.67,17.884 A 2.249,2.249 0 0,1 14.67,14.698 A 2.24,2.24 0 0,1 17.853,14.698 L 23,19.825 V 16.292 C 23,15.053 23.75,14.028 25.023,14.028 C 26.263,14.028 27,15.018 27,16.256 V 20.753 C 27,21.709 26.906,22.632 26.058,22.913 Z M 25,41.963 C 23.764,41.963 22.964,41.146 23,39.732 V 36 L 17.888,41.324 C 17.006,42.212 15.555,42.212 14.706,41.324 C 13.823,40.441 13.823,38.989 14.706,38.141 L 19.82,33.002 H 16.298 C 15.025,33.002 14.036,32.237 14.036,31 C 14.036,29.76 15.026,29 16.298,29 H 20.788 C 21.742,29 22.591,29.038 22.911,29.89 C 23.724,32.295 25.801,33.109 25.801,33.109 C 26.687,33.428 27,34.242 27,35.234 V 39.732 C 27,40.972 26.273,41.964 25,41.964 Z M 39.703,33 H 36.133 L 41.293,38.14 C 42.177,39.024 42.177,40.441 41.293,41.324 A 2.234,2.234 0 0,1 38.111,41.324 L 33,36.19 V 39.733 C 33,41.08 32.237,42 31,42 C 29.762,42 29,40.972 29,39.733 V 35.233 C 29,34.277 29.059,33.393 29.909,33.109 C 32.276,32.295 33.089,29.959 33.089,29.959 C 33.408,29.111 34.257,29 35.211,29 H 39.703 C 40.94,29 42,29.76 42,31 C 42,32.237 41.046,33 39.703,33 Z M 39.738,27 H 35.247 C 34.293,27 33.407,26.95 33.126,26.1 C 32.311,23.727 29.979,22.877 29.979,22.877 C 29.13,22.557 29,21.744 29,20.751 V 16.255 C 29,15.017 29.764,14.027 31.003,14.027 C 32.24,14.027 33,14.947 33,16.255 V 19.859 L 38.146,14.663 A 2.24,2.24 0 0,1 41.329,14.663 A 2.287,2.287 0 0,1 41.329,17.883 L 36.237,23 H 39.738 C 40.975,23 42,23.76 42,25 S 40.975,27 39.738,27 Z" fill="rgb(254, 254, 253)"/>
</svg>
