<?xml version="1.0" encoding="UTF-8"?>
<!-- generated by Finnhub -->
<svg viewBox="0 0 55.5 55.5" xmlns="http://www.w3.org/2000/svg">
<path d="M 0,0 H 55.5 V 55.5 H 0 Z" fill="rgb(3, 127, 200)"/>
<path d="M 21.598,12.985 H 24.529 S 21.608,16.181 20.361,19 H 15.431 L 21.608,13 Z M 26,13 H 27.454 L 27.421,19 H 21.452 C 23,15.796 26,13 26,13 Z M 28.546,13 H 30 S 32.5,14.795 34.477,19 H 28.538 L 28.546,13 Z M 31.467,13 H 34.284 L 40.464,19 H 35.554 C 34.284,15.72 31.467,13 31.467,13 Z M 14.392,20 H 19.99 S 18.89,23.084 18.835,27 H 13.011 L 13,21.702 L 14.392,20 Z M 21.073,20 H 27.454 L 27.465,27 H 19.841 C 19.841,22.5 21.073,20 21.073,20 Z M 28.557,20 H 34.919 S 36.081,23.011 36.163,27 H 28.557 V 20 Z M 36.003,20 H 41.582 L 42.992,21.702 L 43.004,27 H 37.184 C 37.172,23.185 36.003,20 36.003,20 Z M 13,28 H 18.81 S 18.81,31.338 20.008,34.985 H 14.355 L 13,33.647 V 28 Z M 19.83,28 H 27.454 V 35 H 21.081 C 19.83,31.338 19.83,28 19.83,28 Z M 28.546,28 H 36.133 S 36.163,31.838 34.9,35 H 28.546 V 28 Z M 37.172,28 H 43 V 33.613 L 41.608,35 H 35.955 C 37.183,31.838 37.172,28 37.172,28 Z M 15.43,36 H 20.378 S 22.5,40.5 24.723,42.004 H 21.743 L 15.43,36 Z M 21.487,36 H 27.427 L 27.49,42 H 26 C 23,39.5 21.487,36 21.487,36 Z M 28.54,36 H 34.427 S 32.5,40 30,42.004 L 28.592,42 L 28.54,36 Z M 35.545,36 H 40.5 L 34.297,42 H 31.36 C 33.86,39.5 35.545,36 35.545,36 Z" fill="rgb(254, 254, 253)"/>
</svg>
