<?xml version="1.0" encoding="UTF-8"?>
<!-- generated by Finnhub -->
<svg viewBox="0 0 55.5 55.5" xmlns="http://www.w3.org/2000/svg">
<path d="M 0,0 H 55.5 V 55.5 H 0 Z" fill="rgb(192, 25, 26)"/>
<path d="M 22.369999999999997,26.041999999999998 L 21.126,24.271 C 20.906,23.985 20.608,23.714 20.247,23.965 C 19.676,24.365 20.187,24.938 20.211,24.975 L 21.436,26.717 L 20.288,27.519 L 18.702,25.261 A 8.656,8.656 0 0,0 18.12,24.508 L 19.256,23.715 L 19.629,24.208 L 19.641,24.2 C 19.561,23.633 19.853,23.196 20.308,22.876 C 20.677,22.619 21.229,22.522 21.615,22.802 C 21.567,22.296 21.844,21.796 22.292,21.465 C 22.944,21.01 23.725,21.095 24.195,21.767 L 25.62,23.795 L 24.472,24.596 L 23.222,22.816 C 23.002,22.529 22.704,22.259 22.345,22.51 C 21.772,22.91 22.281,23.48 22.305,23.513 L 23.528,25.256 L 22.38,26.057 Z M 18.802,28.556 L 18.548,28.232 C 18.498,28.718 18.278,29.052 17.888,29.325 C 17.237,29.78 16.456,29.694 15.988,29.028 L 14.56,26.994 L 15.708,26.194 L 16.961,27.978 C 17.181,28.266 17.48,28.537 17.841,28.285 C 18.411,27.885 17.902,27.312 17.877,27.275 L 16.652,25.533 L 17.8,24.732 L 19.385,26.989 C 19.575,27.261 19.708,27.437 19.967,27.742 L 18.802,28.556 Z M 14.82,31.329 A 2.64,2.64 0 0,1 11.145,30.677 A 2.63,2.63 0 0,1 11.805,27.008 L 13.37,25.916 L 14.234,27.154 L 12.84,28.119 A 1.132,1.132 0 0,0 12.557,29.697 C 12.916,30.211 13.624,30.337 14.14,29.979 L 15.536,29.003 L 16.396,30.235 L 14.82,31.329 Z M 25.021,19.689 L 25.394,20.182 L 25.407,20.175 C 25.327,19.609 25.619,19.171 26.075,18.852 C 26.442,18.595 26.996,18.498 27.381,18.778 C 27.332,18.272 27.609,17.772 28.058,17.441 C 28.71,16.985 29.491,17.071 29.961,17.742 L 31.386,19.77 L 30.238,20.572 L 28.987,18.792 C 28.768,18.503 28.47,18.235 28.11,18.485 C 27.538,18.885 28.047,19.457 28.07,19.489 L 29.294,21.232 L 28.146,22.033 L 26.892,20.247 C 26.672,19.959 26.374,19.69 26.014,19.941 C 25.442,20.341 25.952,20.913 25.976,20.949 L 27.201,22.693 L 26.053,23.494 L 24.468,21.236 A 8.886,8.886 0 0,0 23.886,20.484 L 25.022,19.689 Z M 29.846,14.342 L 30.415,15.152 L 29.255,15.962 L 28.685,15.152 L 29.845,14.342 Z M 32.904,18.709 L 31.756,19.51 L 29.624,16.476 L 30.772,15.674 L 32.904,18.709 Z M 32.273,14.627 L 32.527,14.95 C 32.577,14.464 32.796,14.13 33.186,13.858 C 33.838,13.402 34.619,13.488 35.086,14.154 L 36.514,16.188 L 35.367,16.989 L 34.112,15.203 C 33.892,14.916 33.594,14.645 33.234,14.897 C 32.662,15.297 33.172,15.87 33.198,15.906 L 34.422,17.649 L 33.274,18.45 L 31.689,16.193 A 8.918,8.918 0 0,0 31.107,15.44 L 32.273,14.627 Z M 28.073,24 H 42 V 12.002 H 38.022 L 37.096,12.653 C 37.023,12.551 36.942,12.473 36.846,12.453 C 36.738,12.43 36.611,12.453 36.453,12.564 C 36.283,12.684 36.248,12.851 36.371,13.028 C 36.527,13.25 36.986,12.912 37.866,12.632 C 38.309,12.493 38.714,12.542 39.062,13.037 C 39.626,13.841 39.012,14.575 38.316,15.061 C 37.57,15.583 36.736,15.94 36.094,15.011 L 37.184,14.249 A 0.407,0.407 0 0,0 37.454,14.466 A 0.45,0.45 0 0,0 37.825,14.416 C 38.049,14.257 38.155,14.06 38.018,13.866 C 37.642,13.328 36.065,14.906 35.293,13.805 C 34.82,13.133 35.303,12.439 35.847,12 L 26.571,12.001 S 19.141,11.785 14.415,16.993 C 14.415,16.993 10,20.9 10,28.032 C 10,28.376 10.01,28.702 10.031,29.034 C 10.034,29.144 10.104,29.875 10.154,30.264 C 10.947,35.994 14.539,39.224 14.539,39.224 C 19.545,44.215 26.477,43.999 26.477,43.999 H 42 V 32 H 28.01 S 23,32.186 23,28 C 23,23.877 28.073,24 28.073,24 Z" fill="rgb(254, 254, 253)"/>
</svg>
