<?xml version="1.0" encoding="UTF-8"?>
<!-- generated by Finnhub -->
<svg viewBox="0 0 55.5 55.5" xmlns="http://www.w3.org/2000/svg">
<path d="M 0,0 H 55.5 V 55.5 H 0 Z" fill="rgb(239, 242, 248)"/>
<path d="M 24.406,21.985 C 15.121,22 8.337,22.293 3,23.422 C 7.667,22.53 15.634,22.195 23.128,22.251 C 39.47,22.348 48.094,25.289 48.094,28.161 C 48.094,30.627 45.307,32.592 20.327,34 L 26.204,33.986 C 44.414,33.136 51,31.115 51,28.035 C 50.987,24.94 40.719,22 24.416,22 Z" fill="rgb(144, 187, 78)"/>
<path d="M 19.593999999999998,25.985 H 17.434 C 15.607,26 15.541,28.454 16.764,28.454 H 17.804 C 18.186,28.454 18.16,29 17.766,29 H 15.199 L 15.804,26 H 14.778 L 13.267,28.621 L 13.543,26 H 12.543 L 10.966,29 H 9.48 C 8.389,29 8.612,27 9.927,27 H 11.623 L 12.07,26 H 10.02 C 7.495,26 7.193,30 9.217,30 H 11.478 L 12.648,27.636 L 12.374,30 H 13.294 L 14.661,27.651 L 14.2,30 H 17.608 C 19.225,30 19.278,27.576 18.042,27.576 H 17.15 C 16.73,27.576 16.835,27 17.295,27 H 19.209 L 19.604,26 Z M 28.464,26 L 27.019,28.94 L 26.4,26 H 25.545 L 23.994,29 H 22.352 C 21.905,29 21.695,28.773 21.682,28.349 H 23.783 L 24.217,27.454 H 21.92 C 22.117,27.136 22.42,27 22.801,27 H 24.469 L 24.982,26 H 22.957 C 20.472,26 19.947,30 21.918,30 H 24.468 L 25.771,27.288 L 26.323,30 H 27.309 L 29.333,26 H 28.466 Z" fill="rgb(55, 146, 204)"/>
<path d="M 30.724999999999998,26.985 C 30.354,27 30.15,27.138 29.953,27.458 H 32.238 L 31.804,28.355 H 29.716 C 29.73,28.781 29.926,29 30.386,29 H 31.791 L 31.371,30 H 29.951 C 27.978,30 28.504,26.013 30.989,26.013 H 35.551 C 37.089,26.013 36.603,28.446 35.538,28.446 H 35.091 L 35.998,30 H 34.972 S 34.236,28.69 34.092,28.416 C 33.947,28.142 34,27.686 34.394,27.686 H 35.183 C 35.748,27.686 35.728,27 35.228,27 H 34.268 L 32.816,30 H 31.804 L 33.27,27 H 30.735 Z" fill="rgb(55, 146, 204)"/>
<path d="M 45.139,25.985 H 43.899 L 42.191,27.697 L 41.178,26 H 38.864 C 36.274,26 35.735,30 37.721,30 H 39.43 L 40.626,27.546 H 38.312 L 37.878,28.409 H 39.258 L 38.943,29 H 38.163 C 37.098,29 37.479,27 38.663,27 H 40.771 L 41.612,28.333 L 40.784,30 H 41.77 L 42.453,28.576 L 45.15,26 Z" fill="rgb(55, 146, 204)"/>
</svg>
