<?xml version="1.0" encoding="UTF-8"?>
<!-- generated by Finnhub -->
<svg viewBox="0 0 55.5 55.5" xmlns="http://www.w3.org/2000/svg">
<path d="M 0,0 H 55.5 V 55.5 H 0 Z" fill="rgb(12, 92, 182)"/>
<path d="M 51.502,27.983 C 49.102,32.964 38.45,37.007 27.797,37.007 C 17.134,37.007 10.41,32.964 12.818,27.999 C 15.217,23.052 25.88,19 36.533,19 C 47.196,19 53.919,23.052 51.512,27.998 Z" fill="rgb(2, 42, 116)"/>
<path d="M 36.283,19.177 C 46.653,19.192 53.173,23.119 50.817,27.922 C 48.471,32.733 38.101,36.662 27.761,36.662 C 17.401,36.662 10.881,32.733 13.227,27.922 C 14.75,24.826 19.575,22.109 25.578,20.55 C 26.004,20.434 26.441,20.34 26.878,20.234 A 43.898,43.898 0 0,1 36.293,19.192 Z" fill="rgb(9, 9, 6)"/>
<path d="M 36.127,19.438 C 46.367,19.453 52.819,23.243 50.508,27.871 C 48.198,32.516 37.977,36.298 27.757,36.298 C 17.527,36.298 11.075,32.516 13.387,27.871 C 15.687,23.244 25.917,19.453 36.137,19.453 Z" fill="rgb(149, 152, 150)"/>
<path d="M 34.497,20.229 C 43.749,20.244 49.566,23.634 47.464,27.78 C 45.37,31.934 36.12,35.324 26.896,35.324 C 17.654,35.324 11.837,31.934 13.93,27.78 C 15.29,25.107 19.593,22.762 24.948,21.416 C 25.328,21.316 25.718,21.235 26.108,21.143 C 28.772,20.571 31.644,20.243 34.508,20.243 Z" fill="rgb(9, 9, 6)"/>
<path d="M 45.937000000000005,24.365 C 46.39,25.118 46.472,25.95 46.121,26.822 A 5.68,5.68 0 0,1 44.853,28.536 C 41.937,31.239 35.376,33.255 28.823,33.255 C 21.097,33.255 16.225,30.454 17.985,27.02 C 19.195,24.656 23.293,22.506 28.201,21.445 A 28.08,28.08 0 0,1 29.961,21.132 A 30.357,30.357 0 0,0 26.565,21.658 C 21.125,22.863 16.51,24.808 15.167,27.501 C 13.22,31.417 18.617,34.611 27.187,34.611 C 34.211,34.611 41.244,32.471 44.622,29.535 C 45.004,29.205 45.45,28.74 45.8,28.245 C 45.945,28.044 46.072,27.841 46.178,27.635 C 46.783,26.458 46.667,25.343 45.947,24.379 Z" fill="rgb(12, 92, 182)"/>
<path d="M 9.307,27.341 C 9.155,27.612 8.992,27.801 8.832,27.918 L 8.826,27.923 C 8.642,28.067 8.402,28.141 8.111,28.141 C 7.922,28.141 7.792,28.103 7.756,28.039 C 7.752,28.029 7.667,27.794 7.93,26.945 C 8.104,26.408 8.307,26.024 8.533,25.804 C 8.813,25.523 9.114,25.392 9.48,25.392 C 9.595,25.392 9.69,25.41 9.748,25.442 C 9.792,25.466 9.826,25.486 9.84,25.644 L 9.893,26.264 H 12.809 C 12.626,26.506 12.469,26.768 12.344,27.042 H 9.516 L 9.317,27.356 Z M 16.387,27.536 C 16.277,27.883 16.137,28.135 15.981,28.264 C 15.821,28.392 15.686,28.449 15.545,28.449 A 0.272,0.272 0 0,1 15.485,28.444 C 15.48,28.406 15.47,28.27 15.568,27.959 C 15.661,27.643 15.798,27.403 15.962,27.265 A 0.694,0.694 0 0,1 16.46,27.092 C 16.465,27.135 16.47,27.263 16.386,27.536 Z M 23.35,27.529 C 23.26,27.835 23.14,28.064 23.01,28.172 C 22.906,28.261 22.817,28.304 22.74,28.304 H 22.718 A 1.34,1.34 0 0,1 22.788,27.964 C 22.908,27.572 23.043,27.404 23.136,27.331 A 0.592,0.592 0 0,1 23.43,27.185 A 1.546,1.546 0 0,1 23.352,27.522 L 23.35,27.529 Z M 43.84,24.482 L 44.613,22 L 40.638,23.65 L 40.537,23.693 L 40.291,24.482 H 39.503 L 39.471,24.585 A 2.41,2.41 0 0,0 37.711,24.482 H 34.6 L 34.01,26.366 C 34.011,26.289 34.01,26.21 34.004,26.131 C 33.976,25.721 33.832,25.359 33.6,25.111 C 33.31,24.78 32.902,24.566 32.386,24.476 C 32.004,24.4 31.486,24.364 30.754,24.364 C 30.327,24.364 29.923,24.393 29.519,24.453 C 29.063,24.523 28.729,24.616 28.467,24.743 C 28.079,24.913 27.757,25.118 27.511,25.353 C 27.295,25.551 27.096,25.803 26.906,26.123 A 2.726,2.726 0 0,0 26.728,25.549 C 26.476,25.009 25.908,24.364 24.635,24.364 C 24.321,24.364 24.024,24.404 23.729,24.485 L 23.73,24.482 H 20.33 L 19.84,26.048 A 2.468,2.468 0 0,0 19.618,25.58 C 19.106,24.773 18.16,24.364 16.807,24.364 C 15.697,24.364 14.709,24.662 13.87,25.249 A 5.11,5.11 0 0,0 13.43,25.596 V 25.586 C 13.43,24.431 13.117,23.614 12.473,23.089 C 11.912,22.609 11.084,22.376 9.943,22.376 C 8.583,22.376 7.384,22.743 6.382,23.468 C 5.385,24.195 4.677,25.23 4.275,26.546 C 3.95,27.573 3.914,28.454 4.167,29.166 C 4.437,29.91 4.887,30.44 5.499,30.741 C 6.05,31.017 6.801,31.157 7.731,31.157 C 8.505,31.157 9.181,31.048 9.742,30.833 A 5.06,5.06 0 0,0 11.336,29.878 C 11.56,29.676 11.806,29.408 12.033,29.122 C 12.153,29.682 12.445,30.077 12.672,30.312 C 13.226,30.866 14.05,31.148 15.12,31.148 C 16.245,31.148 17.245,30.847 18.092,30.254 C 18.302,30.106 18.498,29.944 18.676,29.772 L 17.666,33 H 21.223 L 21.867,30.95 C 22.177,31.081 22.535,31.148 22.929,31.148 C 23.758,31.148 24.533,30.87 25.233,30.323 C 25.433,30.165 25.621,29.984 25.793,29.784 C 25.856,30.042 25.982,30.277 26.167,30.484 C 26.557,30.93 27.172,31.148 28.043,31.148 C 28.618,31.148 29.156,31.062 29.644,30.892 C 29.724,30.863 29.807,30.831 29.888,30.795 L 29.966,31.029 H 36.101 L 36.793,28.812 C 37.082,27.894 37.346,27.528 37.477,27.392 C 37.604,27.278 37.689,27.262 37.762,27.262 C 37.77,27.262 37.849,27.265 38.041,27.35 L 38.519,27.561 L 38.746,27.287 L 39.415,27.289 L 39.121,28.229 C 38.891,28.929 38.815,29.427 38.878,29.799 C 38.944,30.253 39.188,30.629 39.567,30.857 C 39.889,31.055 40.356,31.147 41.035,31.147 C 41.53,31.147 42.083,31.089 42.678,30.972 L 42.968,30.915 L 43.121,30.885 L 43.717,27.96 L 42.651,28.273 L 42.956,27.289 H 44.124 L 45,24.482 H 43.84 Z" fill="rgb(254, 254, 253)"/>
<path d="M 9.605,27.207 L 9.469,27.452 C 9.294,27.727 9.116,27.933 8.937,28.064 C 8.721,28.234 8.443,28.321 8.111,28.321 C 7.844,28.321 7.671,28.255 7.598,28.125 C 7.574,28.083 7.468,27.826 7.758,26.893 C 7.942,26.325 8.16,25.915 8.408,25.674 C 8.718,25.364 9.068,25.212 9.48,25.212 C 9.629,25.212 9.748,25.236 9.835,25.284 C 9.938,25.342 10,25.417 10.019,25.629 L 10.058,26.084 H 13.191 A 4.06,4.06 0 0,0 12.461,27.222 H 9.614 Z M 16.558,27.588 C 16.437,27.975 16.281,28.249 16.096,28.403 C 15.902,28.557 15.727,28.63 15.545,28.63 C 15.382,28.63 15.349,28.573 15.327,28.535 C 15.318,28.52 15.247,28.381 15.396,27.905 C 15.5,27.552 15.651,27.29 15.846,27.127 A 0.88,0.88 0 0,1 16.416,26.91 C 16.566,26.91 16.591,26.954 16.62,27.003 C 16.623,27.008 16.697,27.133 16.558,27.588 Z M 22.615,27.911 C 22.721,27.565 22.863,27.315 23.026,27.188 C 23.183,27.061 23.33,27.001 23.491,27.001 C 23.574,27.001 23.579,27.011 23.598,27.046 C 23.615,27.073 23.636,27.231 23.522,27.58 C 23.422,27.925 23.284,28.178 23.126,28.31 C 22.987,28.427 22.861,28.484 22.739,28.484 C 22.592,28.484 22.567,28.443 22.551,28.416 C 22.551,28.416 22.495,28.301 22.615,27.911 Z M 26.617,27.822 C 26.689,27.566 26.737,27.315 26.763,27.076 L 27.707,27.172 C 27.363,27.288 27.084,27.432 26.858,27.609 A 2.54,2.54 0 0,0 26.617,27.822 Z M 43.992,27.11 L 44.755,24.662 H 43.595 L 44.327,22.314 L 40.683,23.827 L 40.423,24.662 H 39.635 L 39.58,24.84 A 2.312,2.312 0 0,0 38.468,24.544 C 38.208,24.544 37.965,24.584 37.741,24.662 H 34.731 L 32.946,30.372 L 32.929,30.272 A 2.062,2.062 0 0,1 32.889,29.852 C 32.893,29.792 32.915,29.662 32.995,29.393 L 33.709,27.104 C 33.809,26.803 33.846,26.488 33.823,26.142 C 33.798,25.773 33.671,25.45 33.466,25.232 C 33.204,24.932 32.83,24.737 32.356,24.654 C 31.981,24.579 31.472,24.544 30.753,24.544 C 30.334,24.544 29.939,24.573 29.544,24.631 C 29.105,24.699 28.786,24.787 28.542,24.907 C 28.172,25.067 27.866,25.262 27.635,25.483 C 27.389,25.707 27.165,26.009 26.953,26.403 L 26.781,26.722 C 26.781,26.322 26.708,25.952 26.561,25.621 C 26.333,25.13 25.813,24.544 24.634,24.544 A 3.2,3.2 0 0,0 23.453,24.766 L 23.485,24.662 H 20.46 L 19.796,26.786 A 2.286,2.286 0 0,0 19.462,25.673 C 18.986,24.924 18.092,24.544 16.804,24.544 C 15.732,24.544 14.779,24.831 13.971,25.397 C 13.701,25.587 13.461,25.795 13.248,26.021 V 25.586 C 13.248,24.489 12.956,23.718 12.358,23.229 C 11.828,22.776 11.038,22.556 9.941,22.556 C 8.619,22.556 7.456,22.912 6.485,23.614 C 5.521,24.317 4.835,25.321 4.445,26.598 C 4.132,27.588 4.095,28.432 4.335,29.107 C 4.588,29.804 5.006,30.299 5.575,30.579 C 6.103,30.843 6.827,30.977 7.729,30.977 C 8.48,30.977 9.136,30.872 9.676,30.666 A 4.9,4.9 0 0,0 11.216,29.741 C 11.532,29.457 11.881,29.051 12.155,28.651 C 12.175,29.384 12.509,29.886 12.799,30.187 C 13.317,30.705 14.097,30.967 15.118,30.967 C 16.205,30.967 17.171,30.677 17.987,30.107 C 18.442,29.787 18.82,29.407 19.113,28.971 L 17.91,32.82 H 21.09 L 21.756,30.702 A 2.501,2.501 0 0,0 22.928,30.967 C 23.715,30.967 24.453,30.703 25.121,30.181 C 25.423,29.943 25.694,29.651 25.927,29.312 C 25.903,29.805 26.108,30.15 26.299,30.362 C 26.655,30.77 27.225,30.968 28.042,30.968 C 28.596,30.968 29.115,30.885 29.584,30.722 C 29.717,30.674 29.854,30.616 29.994,30.547 L 30.094,30.849 H 35.967 L 36.62,28.759 C 36.907,27.845 37.177,27.439 37.35,27.262 C 37.488,27.138 37.614,27.082 37.76,27.082 C 37.796,27.082 37.902,27.092 38.112,27.185 L 38.466,27.342 L 38.661,27.107 L 39.658,27.109 L 39.292,28.282 C 39.071,28.956 38.995,29.43 39.054,29.77 C 39.112,30.171 39.327,30.503 39.658,30.703 C 39.952,30.883 40.389,30.968 41.033,30.968 C 41.517,30.968 42.058,30.91 42.643,30.795 L 42.968,30.732 L 43.479,28.218 L 42.689,28.45 C 42.575,28.483 42.473,28.51 42.382,28.53 L 42.822,27.11 H 43.992 Z" fill="rgb(9, 9, 6)"/>
<path d="M 12.103,27.602 C 11.869,28.174 11.333,28.847 10.881,29.252 C 10.464,29.612 10.001,29.89 9.504,30.07 C 9.006,30.258 8.408,30.348 7.728,30.348 C 6.894,30.348 6.251,30.231 5.798,30.007 C 5.336,29.782 5.01,29.387 4.802,28.821 C 4.602,28.264 4.639,27.536 4.92,26.656 C 5.282,25.48 5.907,24.581 6.777,23.953 C 7.656,23.323 8.707,23 9.939,23 C 10.899,23 11.597,23.18 12.032,23.548 C 12.62,24.024 12.747,24.806 12.747,25.506 H 10.51 C 10.483,25.192 10.365,24.94 10.075,24.779 A 1.225,1.225 0 0,0 9.477,24.644 C 8.942,24.644 8.462,24.841 8.054,25.246 C 7.746,25.542 7.492,26.009 7.284,26.646 C 7.039,27.428 6.994,27.968 7.166,28.264 C 7.329,28.552 7.646,28.704 8.109,28.704 C 8.562,28.704 8.942,28.578 9.241,28.345 C 9.477,28.174 9.694,27.914 9.884,27.617 H 12.114 Z M 17.023,27.636 C 16.869,28.121 16.661,28.462 16.398,28.677 C 16.126,28.893 15.846,29.01 15.538,29.01 C 15.238,29.01 15.021,28.893 14.894,28.677 C 14.758,28.453 14.767,28.121 14.912,27.662 C 15.048,27.204 15.257,26.872 15.528,26.647 A 1.38,1.38 0 0,1 16.408,26.324 C 16.697,26.324 16.905,26.431 17.032,26.647 C 17.168,26.863 17.159,27.196 17.023,27.636 Z M 19.034,25.856 C 18.654,25.264 17.911,24.967 16.797,24.967 C 15.827,24.967 14.975,25.219 14.251,25.722 C 13.517,26.234 13.028,26.881 12.783,27.662 C 12.512,28.507 12.638,29.19 13.146,29.711 C 13.562,30.124 14.214,30.339 15.112,30.339 C 16.108,30.339 16.969,30.079 17.694,29.576 C 18.418,29.073 18.899,28.426 19.152,27.636 C 19.379,26.935 19.334,26.342 19.034,25.856 Z M 23.986,27.618 C 23.85,28.076 23.66,28.39 23.434,28.578 C 23.207,28.768 22.972,28.866 22.727,28.866 C 22.447,28.866 22.237,28.767 22.12,28.569 C 21.993,28.372 22.003,28.067 22.129,27.662 C 22.265,27.222 22.455,26.899 22.7,26.711 C 22.944,26.513 23.198,26.414 23.479,26.414 C 23.724,26.414 23.905,26.504 24.014,26.701 C 24.131,26.899 24.123,27.204 23.986,27.618 Z M 26.098,25.748 C 25.853,25.228 25.363,24.968 24.621,24.968 C 24.249,24.968 23.887,25.039 23.525,25.192 C 23.262,25.3 22.945,25.515 22.565,25.839 L 22.799,25.084 H 20.815 L 18.632,32 H 20.771 L 21.495,29.72 C 21.64,29.926 21.839,30.079 22.075,30.178 C 22.31,30.285 22.591,30.339 22.917,30.339 C 23.587,30.339 24.222,30.115 24.802,29.666 C 25.391,29.207 25.817,28.561 26.088,27.707 C 26.333,26.926 26.333,26.279 26.098,25.749 Z M 30.755,28.094 C 30.673,28.336 30.572,28.543 30.437,28.696 A 1.632,1.632 0 0,1 29.884,29.082 C 29.649,29.19 29.414,29.244 29.168,29.244 C 28.942,29.244 28.788,29.19 28.707,29.091 C 28.616,28.992 28.597,28.866 28.652,28.714 C 28.689,28.579 28.788,28.462 28.942,28.354 C 29.087,28.246 29.395,28.148 29.857,28.04 C 30.202,27.959 30.527,27.878 30.853,27.78 L 30.754,28.094 Z M 33.309,26.09 C 33.291,25.83 33.209,25.624 33.073,25.48 C 32.883,25.264 32.602,25.13 32.24,25.067 C 31.878,24.995 31.37,24.967 30.736,24.967 C 30.337,24.967 29.966,24.995 29.603,25.048 C 29.25,25.102 28.951,25.174 28.733,25.282 C 28.416,25.417 28.154,25.578 27.955,25.767 C 27.747,25.956 27.556,26.216 27.375,26.549 L 29.34,26.746 C 29.495,26.522 29.649,26.369 29.812,26.288 C 30.02,26.189 30.292,26.135 30.645,26.135 C 30.917,26.135 31.089,26.18 31.17,26.279 C 31.244,26.378 31.244,26.549 31.17,26.791 C 30.872,26.881 30.6,26.961 30.346,27.025 C 30.084,27.078 29.54,27.187 28.698,27.339 C 27.991,27.456 27.474,27.644 27.148,27.896 A 1.894,1.894 0 0,0 26.478,28.857 C 26.342,29.28 26.406,29.629 26.659,29.908 C 26.913,30.196 27.366,30.339 28.027,30.339 C 28.525,30.339 28.987,30.267 29.404,30.124 C 29.712,30.016 30.048,29.836 30.4,29.594 A 2.807,2.807 0 0,0 30.374,29.917 C 30.374,29.989 30.391,30.087 30.437,30.222 H 32.421 A 2.473,2.473 0 0,1 32.375,29.692 C 32.385,29.558 32.43,29.369 32.502,29.127 L 33.219,26.854 C 33.299,26.611 33.327,26.36 33.309,26.09 Z M 37.043,25.137 L 36.797,25.919 C 37.105,25.56 37.386,25.309 37.631,25.174 A 1.57,1.57 0 0,1 38.446,24.968 C 38.763,24.968 39.071,25.058 39.388,25.238 L 38.292,26.638 C 38.065,26.539 37.884,26.495 37.739,26.495 C 37.459,26.495 37.213,26.602 36.987,26.809 C 36.679,27.115 36.389,27.672 36.127,28.498 L 35.583,30.222 H 33.453 L 35.059,25.137 H 37.043 Z M 43.51,23.126 L 42.84,25.137 H 44 L 43.601,26.522 H 42.432 L 41.862,28.345 C 41.789,28.561 41.771,28.705 41.789,28.776 C 41.825,28.884 41.925,28.947 42.105,28.947 C 42.26,28.947 42.495,28.902 42.804,28.812 L 42.523,30.178 A 8.033,8.033 0 0,1 41.01,30.339 C 40.476,30.339 40.104,30.277 39.895,30.15 A 0.772,0.772 0 0,1 39.524,29.576 C 39.478,29.316 39.551,28.902 39.742,28.327 L 40.312,26.522 H 39.524 L 39.977,25.137 H 40.707 L 41.064,24.132 L 43.51,23.126 Z" fill="rgb(254, 254, 253)"/>
</svg>
