<?xml version="1.0" encoding="UTF-8"?>
<!-- generated by Finnhub -->
<svg viewBox="0 0 55.5 55.5" xmlns="http://www.w3.org/2000/svg">
<path d="M 0,0 H 55.5 V 55.5 H 0 Z" fill="rgb(254, 24, 2)"/>
<path d="M 21.625999999999998,12.004 C 21.669,12.053 21.968,12.225 22.3,12.431 C 25.058,14.183 27.118,16.484 28.347,19.164 C 28.713,19.988 29.145,21.294 29.311,22.152 C 30.009,25.725 28.481,29.882 24.859,34.347 C 23.729,35.756 22.001,37.473 20.539,38.71 C 18.247,40.6 14.99,42.626 12.299,43.828 C 12.099,43.931 12,43.966 12,44 C 12.1,44 13.661,43.485 14.625,43.141 C 19.045,41.561 22.998,39.328 26.055,36.649 C 26.952,35.859 28.315,34.416 28.979,33.557 C 30.673,31.393 31.67,29.263 32.102,26.927 C 32.268,26.034 32.302,24.454 32.202,23.527 C 31.637,19.233 28.647,15.557 23.696,12.98 C 22.832,12.534 21.37,11.881 21.636,12.019 Z" fill="rgb(254, 254, 253)"/>
<path d="M 42.835,17.049 C 39.761,17.336 36.609,18.084 33.965,19.136 C 32.982,19.544 31.22,20.325 31.085,20.461 C 31.016,20.495 30.915,20.596 30.779,20.631 C 30.677,20.698 30.508,20.766 30.406,20.834 C 30.305,20.902 30.169,20.97 30.101,21.004 C 30.034,21.038 29.661,21.276 29.288,21.514 C 25.221,24.23 23.288,27.728 24.238,30.751 C 24.408,31.261 24.78,32.144 24.848,32.109 C 24.916,32.075 25.898,30.547 26.238,30.004 C 26.508,29.528 26.508,29.528 26.508,28.985 C 26.508,28.035 26.712,27.185 27.153,26.268 C 28.441,23.653 31.355,21.242 35.524,19.408 C 37.829,18.388 40.744,17.574 43.387,17.166 C 43.726,17.098 43.997,17.064 43.997,17.064 C 44.031,16.962 43.76,16.996 42.845,17.064 Z M 29.728,34.487 C 29.491,34.758 29.186,35.098 29.017,35.302 C 28.677,35.675 28.644,35.642 29.457,35.982 C 30.169,36.287 31.05,36.592 31.864,36.83 L 32.508,37 L 33.118,36.355 C 33.457,35.981 33.728,35.675 33.762,35.642 C 33.762,35.608 33.457,35.472 33.084,35.37 C 32.236,35.064 31.321,34.657 30.711,34.317 C 30.441,34.181 30.237,34.045 30.203,34.045 C 30.135,34.011 29.932,34.215 29.728,34.487 Z" fill="rgb(254, 254, 253)"/>
</svg>
