<?xml version="1.0" encoding="UTF-8"?>
<!-- generated by Finnhub -->
<svg viewBox="0 0 55.5 55.5" xmlns="http://www.w3.org/2000/svg">
<path d="M 0,0 H 55.5 V 55.5 H 0 Z" fill="rgb(1, 70, 125)"/>
<path d="M 5.99,35.985 V 20 C 7.9,20 9.758,19.98 11.597,20 C 13.097,20.04 14.617,20.009 16.075,20.253 C 19.514,20.861 21.493,23.317 21.653,27.133 C 21.713,28.29 21.633,29.508 21.353,30.644 C 20.593,33.749 18.434,35.576 15.416,35.84 C 12.337,36.144 9.199,36 6,36 Z M 12,23.997 V 32 C 13.78,32.122 14.836,31.634 15.016,30.091 C 15.196,28.508 15.182,27.508 14.982,25.925 C 14.782,24.342 13.719,23.795 12,23.997 Z M 44,30 V 32 H 50 V 36 H 38 V 20 H 50 V 24 H 44 V 26 H 49 V 30 H 44 Z M 26,36 V 24 H 23 V 20 H 36 V 24 H 33 V 36 H 26 Z" fill="rgb(254, 254, 253)"/>
</svg>
