<?xml version="1.0" encoding="UTF-8"?>
<!-- generated by Finnhub -->
<svg viewBox="0 0 55.5 55.5" xmlns="http://www.w3.org/2000/svg">
<path d="M 0,0 H 55.5 V 55.5 H 0 Z" fill="rgb(254, 1, 2)"/>
<path d="M 11.68,25.596 L 12,24 H 5.574 L 4.723,28.431 L 4,32 H 10.607 L 10.942,30.302 H 7.278 L 7.613,28.575 H 10.71 L 11.045,26.964 H 7.948 L 8.206,25.611 H 11.69 Z M 16.873,28.635 H 19.074 C 19.152,28.173 19.297,27.484 19.327,26.923 C 19.362,26.266 19.106,25.783 18.543,25.466 C 17.737,25.016 16.549,25.039 15.659,25.006 C 14.439,24.962 12.988,25.121 12.219,26.207 C 11.823,26.767 11.599,27.637 11.512,28.315 C 11.404,29.144 10.989,30.535 11.738,31.215 C 12.295,31.722 13.541,31.891 14.265,31.881 C 15.002,31.871 15.718,31.821 16.443,31.675 L 18.34,34 H 21.3 L 16.873,28.635 Z M 16.544,28.686 C 16.302,29.788 15.973,30.714 14.698,30.704 C 13.418,30.694 13.843,29.313 13.964,28.507 C 14.137,27.363 14.574,26.163 15.887,26.259 C 17.215,26.356 16.747,27.77 16.544,28.686 Z M 28.684,25 L 28,28.486 L 27.316,32 H 29.9 L 31.294,25 H 28.684 Z M 37.63,26.389 L 37.936,25 H 32.284 L 30.916,32 H 33.526 L 34.109,28.996 H 36.669 L 36.77,28.486 L 36.922,27.692 H 34.388 L 34.641,26.389 H 37.631 Z" fill="rgb(254, 254, 253)"/>
<path d="M 20.362,24.985 H 23.008 L 22.019,29.745 C 21.899,30.325 22.407,30.627 22.844,30.667 C 23.405,30.719 23.909,30.344 24.047,29.717 L 25.086,25 H 27.696 L 26.656,30.016 C 26.212,31.324 25.181,31.837 24.044,31.966 C 24,32 22.5,32 22,32 L 19.586,28.877 L 20.372,25 Z M 43.485,25 H 46.805 L 47.819,26.814 L 49.465,25 H 52 L 48.68,28.259 L 50.86,32 H 47.616 L 46.551,29.874 L 44.727,32 H 40.849 L 40.697,30.47 H 38.011 L 37.073,32 H 35.248 L 39.658,25 H 42.826 L 43.434,30.668 L 45.538,28.514 L 43.485,25 Z M 38.873,29 L 40.292,26.587 L 40.545,29 H 38.873 Z" fill="rgb(254, 254, 253)" fill-rule="evenodd"/>
</svg>
