<?xml version="1.0" encoding="UTF-8"?>
<!-- generated by Finnhub -->
<svg viewBox="0 0 55.5 55.5" xmlns="http://www.w3.org/2000/svg">
<path d="M 0,0 H 55.5 V 55.5 H 0 Z" fill="rgb(236, 26, 45)"/>
<path d="M 45.548,24.985 H 48.948 L 50.038,29.229 H 50 V 25 H 52 V 31 H 48.67 L 47.52,26.65 H 47.502 V 31 H 45.558 V 25 Z M 40.154,31 L 41,28.726 V 26.433 H 42 V 28.726 L 42.857,31 H 45.2 L 43.095,25 H 39.976 L 37.906,31 H 40.154 Z M 29.08,25 H 32.428 L 33.198,28.284 H 33.215 L 33.975,25 H 37.314 V 31 H 35.268 V 26.29 H 35.234 L 34.077,31 H 32.19 L 31.036,26.29 H 31.033 L 31.037,31 H 29 V 25 H 29.08 Z M 28.665,27 H 26.718 V 31 H 24.453 V 27 H 22.505 V 25 H 28.665 V 27 Z M 22.074,26.687 A 5.424,5.424 0 0,0 20.324,26.397 C 19.969,26.397 19.352,26.405 19.352,26.779 C 19.352,27.535 22.455,26.82 22.455,29.055 C 22.455,30.61 20.89,31 19.58,31 C 18.709,31 17.99,30.917 17.145,30.726 V 29.22 C 17.754,29.47 18.498,29.603 19.174,29.603 C 19.707,29.603 20.188,29.495 20.188,29.204 C 20.188,28.423 17.086,29.129 17.086,26.877 C 17.086,25.282 18.776,24.999 20.121,24.999 C 20.755,24.999 21.456,25.074 22.073,25.199 V 26.686 Z M 4,25 H 9 V 26.444 H 6 V 27.294 H 9 V 28.739 H 6 V 29.555 H 9 V 31 H 4 V 25 Z M 11.81,31 L 12.634,28.726 V 26.433 H 13.622 V 28.726 L 14.514,31 H 16.857 L 14.752,25 H 11.633 L 9.562,31 H 11.81 Z" fill="rgb(254, 254, 253)"/>
</svg>
