<?xml version="1.0" encoding="UTF-8"?>
<!-- generated by Finnhub -->
<svg viewBox="0 0 55.5 55.5" xmlns="http://www.w3.org/2000/svg">
<path d="M 0,0 H 55.5 V 55.5 H 0 Z" fill="rgb(120, 35, 45)"/>
<path d="M 18.99,32.985 H 15.914 C 13.227,33 11.694,32.222 11.694,30.634 V 29.786 C 11.694,29.291 12.076,29.003 12.747,29.003 H 18.477 A 0.515,0.515 0 0,0 18.832,28.861 A 0.496,0.496 0 0,0 19,28.52 V 26.48 C 19,26.418 18.966,26.355 18.94,26.297 A 0.479,0.479 0 0,0 18.669,26.038 A 0.52,0.52 0 0,0 18.477,26.002 H 12.519 C 11.992,25.942 11.694,25.672 11.694,25.236 V 24.39 C 11.694,22.8 13.172,22 15.857,22 H 19 V 19 L 15.922,19.003 C 11.171,19.003 8,21.66 8,24.697 V 30.277 C 8,33.316 11.166,36 15.914,36 H 19 V 33 Z M 25,32.003 H 29 L 33.73,37 H 29.799 L 24.999,32.003 Z" fill="rgb(245, 247, 251)"/>
<path d="M 24.997999999999998,20.742 C 25.846,19.912 26.845,19.464 28,19.19 L 27.807,19.016 H 26.192 C 25.352,19.016 24.749,19.166 23.972,19.489 A 6.387,6.387 0 0,0 21.897,20.885 A 6.437,6.437 0 0,0 20.511,22.975 A 6.497,6.497 0 0,0 20.001,25.44 V 29.565 A 6.5,6.5 0 0,0 20.512,32.028 C 20.834,32.81 21.305,33.519 21.899,34.117 A 6.354,6.354 0 0,0 26.421,36 H 28.173 L 27.867,35.692 C 26.779,35.469 25.732,34.845 25.007,34.117 C 24.413,33.519 23.864,32.961 23.542,32.179 C 23.221,31.398 23,30.694 23,29.565 V 25.44 C 23,24.242 23.22,23.756 23.542,22.975 C 23.864,22.193 24.413,21.355 25.008,20.757 Z M 33.755,22.735 A 4.151,4.151 0 0,0 31.602,21.581 C 30.786,21.421 29.765,21.671 29,22 C 29.49,22.212 30.456,22.356 30.833,22.735 C 31.22,23.124 31.527,23.586 31.735,24.095 C 31.945,24.604 32.001,25.149 32,25.7 V 29.688 C 32.001,30.713 31.68,31.236 31,32 H 34.25 C 34.917,31.23 35.001,30.71 35,29.688 V 25.7 C 35,24.588 34.534,23.522 33.755,22.735 Z" fill="rgb(245, 247, 251)"/>
<path d="M 47.99,18.985 H 34 V 22.002 H 38.13 C 38.804,22.002 39.001,22.297 39.001,22.812 V 35.193 C 39.001,35.708 39.572,36 40.242,36 H 41.777 C 42.451,36 43,35.708 43,35.193 V 22.813 C 43,22.297 43.214,22.003 43.888,22.003 H 48 V 19 Z" fill="rgb(245, 247, 251)"/>
<path d="M 34.485,31.988 L 31.916,35.163 L 33.723,37 L 38,32 L 34.495,32.003 Z" fill="rgb(235, 157, 73)"/>
</svg>
