<?xml version="1.0" encoding="UTF-8"?>
<!-- generated by Finnhub -->
<svg viewBox="0 0 55.5 55.5" xmlns="http://www.w3.org/2000/svg">
<path d="M 0,0 H 55.5 V 55.5 H 0 Z" fill="rgb(1, 120, 191)"/>
<path d="M 15.99,8.985 H 40 V 44.946 C 40,45.151 39.753,45.202 39.654,45.1 L 36,42.738 V 36.884 L 37.926,35.497 C 38.173,35.343 38.272,35.137 38.272,34.933 C 38.272,34.83 38.172,34.624 37.926,34.47 L 29,28.616 V 23.686 L 30.666,21.786 C 30.815,21.581 30.864,21.479 30.864,21.376 C 30.864,21.273 30.864,21.17 30.716,21.067 L 29.976,20.503 L 29.086,18.757 L 26.469,16.857 L 25.432,17.011 V 11.825 C 25.531,11.722 25.581,11.619 25.581,11.516 C 25.581,11.311 25.431,11.156 25.185,11.156 C 25.037,11.156 24.839,11.311 24.839,11.516 C 24.839,11.619 24.901,11.722 25,11.825 V 17.062 L 22.716,17.422 L 19.506,21.376 L 19.466,21.431 C 19.349,21.591 19.308,21.647 19.308,21.786 C 19.308,21.889 19.358,22.094 19.507,22.197 L 21,23.276 V 27.21 L 16.444,32.57 C 16.247,32.776 16,32.725 16,32.416 V 9 Z" fill="rgb(254, 254, 252)"/>
<path d="M 20.631999999999998,21.669 C 20.592,21.734 20.592,21.786 20.642,21.838 L 20.939,22.094 C 20.955,22.094 20.966,22.1 20.977,22.106 C 20.999,22.117 21.021,22.129 21.087,22.094 L 22.322,20.606 L 26.222,19.886 L 29.087,21.941 C 29.137,21.992 29.234,21.992 29.284,21.941 L 29.63,21.529 C 29.68,21.479 29.68,21.427 29.63,21.376 L 29.284,21.067 L 28.396,19.424 L 26.42,18.038 L 23.013,18.603 C 22.938,18.629 22.901,18.641 22.883,18.667 C 22.865,18.693 22.865,18.731 22.865,18.807 C 22.865,18.911 22.963,18.911 23.062,18.911 L 25.976,18.448 C 26.074,18.448 26.173,18.5 26.173,18.758 C 26.173,19.013 26.173,19.064 25.926,19.116 L 22.173,19.784 L 20.643,21.684 Z M 20.774,47 H 26.009 C 26.305,47 26.404,46.949 26.404,46.743 C 26.404,46.64 26.305,46.538 26.108,46.383 L 20.725,42.789 H 20.724 C 20.576,42.686 20.428,42.584 20.281,42.584 C 20.181,42.584 20,42.635 20,42.943 V 46.383 C 20,46.794 20.33,47 20.774,47 Z M 27.71,27.98 L 27.153,27.518 C 27.054,27.466 27,27.415 27,27.21 V 23.05 C 27,22.588 27.07,22.28 27.464,22.28 C 27.859,22.28 28,22.588 28,23.05 V 27.826 C 28,28.031 27.81,28.031 27.71,27.98 Z M 37.234,46.743 L 23.26,37.346 L 23.228,37.324 C 23.098,37.234 23.001,37.177 23.001,36.987 V 35.754 C 23.001,35.344 23.181,35.332 23.458,35.497 L 39.803,46.487 C 39.951,46.589 40.001,46.692 40.001,46.743 C 40.001,46.949 39.852,47 39.507,47 H 37.927 C 37.679,47 37.532,46.949 37.235,46.743 Z M 30.37,37.295 L 28.543,37.808 C 28.395,37.86 28.297,37.86 28.149,37.86 C 27.951,37.86 27.654,37.654 27.457,37.346 C 27.21,36.986 26.914,36.525 26.914,35.959 C 26.914,35.445 27.21,34.829 28.099,34.829 C 29.284,34.829 30.024,35.651 30.469,36.267 C 30.716,36.627 30.766,36.781 30.766,36.935 C 30.766,37.14 30.617,37.243 30.37,37.295 Z" fill="rgb(254, 254, 252)"/>
<path d="M 22.41,29.628 L 16.346,37.089 C 16.197,37.294 16,37.243 16,36.986 V 35.086 C 16,34.83 16.05,34.726 16.149,34.624 L 22.667,26.562 C 22.864,26.305 23.013,26.254 23.16,26.254 C 23.309,26.254 23.506,26.357 23.753,26.51 L 36.197,34.573 C 36.345,34.676 36.494,34.83 36.494,34.984 C 36.494,35.189 36.444,35.241 36.246,35.394 L 35,36.32 V 37.398 C 35,37.707 34.716,37.758 34.568,37.655 L 23.21,30.208 C 22.963,30.054 22.963,29.951 22.963,29.746 V 29.592 C 22.963,29.387 22.913,29.284 22.766,29.284 C 22.688,29.284 22.641,29.347 22.528,29.5 L 22.42,29.643 Z" fill="rgb(254, 254, 252)"/>
<path d="M 35.299,46.985 H 28.642 C 28.296,47 28.198,46.949 27.902,46.743 L 20.741,41.916 C 20.611,41.836 20.55,41.796 20.521,41.741 C 20.494,41.691 20.494,41.627 20.494,41.505 V 41.3 C 20.494,41.146 20.444,41.094 20.346,41.094 C 20.247,41.094 20.099,41.3 19.951,41.505 L 16.494,45.768 C 16.47,45.793 16.445,45.822 16.421,45.85 C 16.347,45.937 16.272,46.024 16.198,46.024 C 16.05,46.024 16,45.974 16,45.717 V 43.149 C 16,43.015 16.037,42.959 16.111,42.846 L 16.127,42.822 L 16.148,42.789 L 20.494,37.397 V 36.987 C 20.494,36.679 20.642,36.627 20.89,36.781 L 35.407,46.487 C 35.703,46.64 35.703,47 35.309,47 Z M 26.002,26.35 V 22.402 C 26.002,21.992 25.602,21.582 25.002,21.582 S 24.002,21.992 24.002,22.402 V 25.376 C 24.002,25.734 24.068,25.837 24.202,25.888 L 25.602,26.555 C 25.735,26.606 26.002,26.606 26.002,26.35 Z M 22.998,25.33 V 23.378 C 22.998,23.07 22.888,22.762 22.499,22.762 C 22.109,22.762 21.999,23.07 21.999,23.378 V 26.151 C 21.999,26.357 22.166,26.46 22.332,26.254 L 22.887,25.689 C 22.998,25.587 22.998,25.535 22.998,25.329 Z" fill="rgb(254, 254, 252)"/>
</svg>
