<?xml version="1.0" encoding="UTF-8"?>
<!-- generated by Finnhub -->
<svg viewBox="0 0 55.5 55.5" xmlns="http://www.w3.org/2000/svg">
<path d="M 0,0 H 55.5 V 55.5 H 0 Z" fill="rgb(16, 116, 197)"/>
<path d="M 19.526999999999997,23.985 L 20.7,28 H 18.29 L 19.537,24 Z M 17.422,31 L 16.363,34 H 22.551 L 21.556,31 H 17.422 Z M 33.57,22 H 22 V 25 H 25 V 34 H 31.47 C 31.098,33.79 28.54,31.928 28.54,28.454 C 28.54,25.566 30.452,22.741 33.57,22 Z M 35.63,30.927 C 37.03,30.927 38.156,29.861 38.156,28.514 C 38.156,27.175 37.101,25.964 35.682,25.964 C 34.255,25.964 33.133,27.175 33.133,28.514 C 33.133,29.861 34.186,30.927 35.629,30.927 Z M 48,29 L 45,22 H 39 V 34 H 43 V 27 L 46,34 H 52 V 22 H 48 V 29 Z M 11.471,34 L 12.585,30 H 9 V 29 H 12.923 L 14,26 H 9 V 25 H 14.307 L 15.419,22 H 4 V 34 H 11.471 Z" fill="rgb(254, 254, 253)"/>
</svg>
