<?xml version="1.0" encoding="UTF-8"?>
<!-- generated by Finnhub -->
<svg viewBox="0 0 55.5 55.5" xmlns="http://www.w3.org/2000/svg">
<path d="M 0,0 H 55.5 V 55.5 H 0 Z" fill="rgb(238, 61, 64)"/>
<path d="M 38.872,39.985 C 38.159,40.678 37.377,41.461 36.537,42 H 31 V 44 H 25 V 42 H 19.463 C 18.623,41.461 17.841,40.678 17.118,40 H 25 V 42 H 31 V 40 H 38.882 Z M 42.105,36.06 C 41.499,37.197 40.777,38.042 39.937,39 H 38 V 37 H 31 V 39 H 25 V 37 H 18 V 39 H 16.044 C 15.204,38.042 14.481,37.197 13.876,36.06 H 18 V 34 H 25 V 36.06 H 31 V 34 H 38 V 36.06 H 42.105 Z M 43.961,30 C 43.863,31.436 43.59,32.683 43.16,34 H 38 V 32 H 31 V 34 H 25 V 32 H 18 V 34 H 12.82 C 12.39,32.683 12.117,31.416 12.04,30 H 18 V 28 H 25 V 30 H 31 V 28 H 38 V 30 H 43.96 Z M 12,28 C 12.137,19.102 19.248,12 28,12 C 36.752,12 43.863,19.102 44,28 H 38 V 27 H 31 V 28 H 25 V 27 H 18 V 28 H 12 Z" fill="rgb(254, 254, 253)"/>
</svg>
