<?xml version="1.0" encoding="UTF-8"?>
<!-- generated by Finnhub -->
<svg viewBox="0 0 55.5 55.5" xmlns="http://www.w3.org/2000/svg">
<path d="M 0,0 H 55.5 V 55.5 H 0 Z" fill="url(#a)"/>
<path d="M 11.253,16.779 C 10.656,16.085 11.167,15 12.108,15 H 21.205 C 21.531,15 21.84,15.142 22.05,15.387 L 30.462,25.207 C 31.069,25.915 30.558,27 29.616,27 H 20.52 C 20.195,27 19.886,26.858 19.675,26.613 L 11.265,16.793 Z" fill="rgb(148, 200, 59)"/>
<path d="M 27.528,16.779 C 26.931,16.085 27.442,15 28.384,15 H 37.481 C 37.806,15 38.115,15.142 38.326,15.387 L 46.736,25.207 C 47.344,25.915 46.833,27 45.892,27 H 36.795 C 36.469,27 36.16,26.858 35.95,26.613 L 27.538,16.793 Z" fill="rgb(48, 123, 190)"/>
<path d="M 46.727000000000004,30.779 C 47.344,30.085 46.833,29 45.892,29 H 36.795 C 36.469,29 36.16,29.142 35.95,29.387 L 27.538,39.207 C 26.931,39.915 27.442,41 28.384,41 H 37.481 C 37.806,41 38.115,40.858 38.326,40.613 L 46.736,30.793 Z" fill="rgb(6, 52, 80)"/>
<path d="M 30.451999999999998,30.779 C 31.069,30.085 30.558,29 29.616,29 H 20.52 C 20.195,29 19.886,29.142 19.675,29.387 L 11.265,39.207 C 10.657,39.915 11.168,41 12.109,41 H 21.206 C 21.532,41 21.841,40.858 22.051,40.613 L 30.463,30.793 Z" fill="rgb(171, 176, 184)"/>
<defs>
<linearGradient id="a" x1="10.418" x2="68.147" y1="9.712" y2="76.017" gradientUnits="userSpaceOnUse">
<stop stop-color="rgb(25, 29, 31)" offset="0"/>
<stop stop-color="rgb(5, 5, 8)" offset="1"/>
</linearGradient>
</defs>
</svg>
