<?xml version="1.0" encoding="UTF-8"?>
<!-- generated by Finnhub -->
<svg viewBox="0 0 55.5 55.5" xmlns="http://www.w3.org/2000/svg">
<path d="M 0,0 H 55.5 V 55.5 H 0 Z" fill="rgb(129, 121, 111)"/>
<path d="M 15.99,44.985 V 43 H 18.398 C 19,43 19,42.5 19,42.38 V 13.594 C 18.998,13.274 18.627,13.017 18.312,12.999 H 16 V 11 H 38 L 38.839,20 H 37.57 L 37,16.885 C 36.521,14.644 34.447,13 32.077,13 H 24 V 26 H 28.775 C 30.17,26 31.178,24.504 31.5,23 L 32,21 H 33 V 34 H 32 L 31.34,31.02 C 30.982,29.305 30.106,28 28.296,28 H 24 V 41.5 C 24,42.252 24.708,42.982 25.47,43 H 32.4 C 34.972,42.879 37,42 37.834,38.5 L 38.661,34 H 40 L 39.053,45 H 16 Z" fill="rgb(254, 254, 253)"/>
</svg>
