<?xml version="1.0" encoding="UTF-8"?>
<!-- generated by Finnhub -->
<svg viewBox="0 0 55.5 55.5" xmlns="http://www.w3.org/2000/svg">
<path d="M 0,0 H 55.5 V 55.5 H 0 Z" fill="rgb(239, 242, 248)"/>
<path d="M 11.197000000000001,33.076 C 11.082,33.152 10.987,33.205 10.845,33.285 C 10.845,33.285 10.307,34.047 9.71,34.995 C 9.159,35.871 8.561,36.905 8.181,37.647 L 8,38 C 8.998,37.278 10.217,36.876 11.845,36.68 C 13.843,36.44 16.171,36.48 18.557,36.582 C 20.651,36.672 22.881,36.811 25.118,36.922 C 28.906,37.112 33.808,35.185 36.458,32.561 C 36.458,32.561 36.344,32.627 36.308,32.65 C 31.377,35.5 26.914,34.879 22.916,34.151 C 19.902,33.602 16.866,32.465 14.179,32.465 C 13.127,32.465 12.129,32.639 11.207,33.091 Z" fill="url(#e)"/>
<path d="M 11.251,33.05 C 14.533,31.505 18.745,33.392 22.916,34.151 C 26.914,34.878 31.377,35.501 36.307,32.65 L 36.458,32.56 S 35.438,32.655 33.932,32.676 C 32.424,32.696 29.313,32.569 27.427,32.409 C 23.457,32.073 20.462,31.848 18.064,31.847 C 15.137,31.847 13.1,32.183 11.261,33.065 Z M 11.207,33.091 L 11.261,33.065 L 11.207,33.091 Z" fill="url(#d)"/>
<path d="M 44.143,19.305 C 42.157,19.56 39.827,19.52 37.443,19.418 C 35.348,19.328 33.118,19.189 30.881,19.078 C 27.093,18.888 22.191,20.814 19.541,23.439 L 19.691,23.351 C 24.621,20.501 29.084,21.121 33.083,21.849 C 37.277,22.612 41.513,24.517 44.793,22.909 C 44.918,22.848 45.012,22.795 45.154,22.715 C 45.154,22.715 45.692,21.953 46.29,21.005 C 46.84,20.129 47.438,19.095 47.818,18.353 C 47.868,18.253 47.999,18 47.999,18 C 47,18.722 45.783,19.124 44.153,19.32 Z" fill="url(#c)"/>
<path d="M 19.682,23.336 L 19.542,23.439 S 20.56,23.345 22.068,23.326 C 23.575,23.306 26.685,23.431 28.573,23.592 C 37.388,24.338 41.393,24.54 44.739,22.936 C 41.466,24.496 37.254,22.608 33.083,21.849 C 31.346,21.533 29.521,21.237 27.609,21.237 C 25.119,21.237 22.48,21.738 19.692,23.351 Z M 44.739,22.936 C 44.757,22.926 44.774,22.918 44.792,22.91 L 44.739,22.936 Z" fill="url(#b)"/>
<path d="M 29.156,25.855999999999998 C 25.087,25.555 20.906,25.238 17.13,25.783 A 59.526,59.526 0 0,0 12.758,30.712 C 16.575,29.325 21.611,29.728 26.812,30.132 C 30.896,30.448 35.08,30.765 38.861,30.216 C 39.797,29.34 42.551,26.211 43.226,25.29 C 39.406,26.679 34.368,26.275 29.166,25.871 Z" fill="url(#a)"/>
<defs>
<linearGradient id="e" x1="27.984" x2="15.54" y1="41.035" y2="28.591" gradientUnits="userSpaceOnUse">
<stop stop-color="rgb(173, 201, 34)" offset="0"/>
<stop stop-color="rgb(21, 141, 66)" offset="1"/>
</linearGradient>
<linearGradient id="d" x1="36.458" x2="11.207" y1="33.305" y2="33.305" gradientUnits="userSpaceOnUse">
<stop stop-color="rgb(173, 201, 34)" offset="0"/>
<stop stop-color="rgb(21, 141, 66)" offset=".59"/>
</linearGradient>
<linearGradient id="c" x1="29.474" x2="38.722" y1="16.424" y2="25.671" gradientUnits="userSpaceOnUse">
<stop stop-color="rgb(56, 146, 213)" offset="0"/>
<stop stop-color="rgb(38, 68, 154)" offset="1"/>
</linearGradient>
<linearGradient id="b" x1="19.541" x2="44.792" y1="22.695" y2="22.695" gradientUnits="userSpaceOnUse">
<stop stop-color="rgb(56, 146, 213)" offset="0"/>
<stop stop-color="rgb(38, 68, 154)" offset=".8"/>
</linearGradient>
<linearGradient id="a" x1="24.291" x2="33.265" y1="24.3" y2="33.273" gradientUnits="userSpaceOnUse">
<stop stop-color="rgb(239, 66, 28)" offset="0"/>
<stop stop-color="rgb(246, 142, 29)" offset=".9"/>
</linearGradient>
</defs>
</svg>
