<?xml version="1.0" encoding="UTF-8"?>
<!-- generated by Finnhub -->
<svg viewBox="0 0 55.5 55.5" xmlns="http://www.w3.org/2000/svg">
<path d="M 0,0 H 55.5 V 55.5 H 0 Z" fill="rgb(25, 99, 181)"/>
<path d="M 44.393,29.413999999999998 H 43.043 L 44.68,26.293 H 44.706 L 44.403,29.429 Z M 14.919,29.325 H 13.337 L 15.111,26.722 L 14.919,29.325 Z M 49.13,30.613 L 50.833,25 H 48.485 L 46.549,31.374 L 46.506,25 H 43.677 L 39.831,31.244 L 41.727,25 H 39.497 L 38.537,28.925 H 38.497 L 37.854,25 H 35.43 L 33.727,30.613 H 30.375 L 30.834,29 H 33.769 L 34.193,27.718 H 31.257 L 31.654,26.418 H 34.682 L 35.107,25 H 23.943 L 23.753,25.65 C 23.41,25.164 22.671,24.868 21.528,24.868 C 19.705,24.868 18.366,25.537 17.968,26.846 C 17.781,27.459 17.904,27.884 18.224,28.237 C 18.557,28.59 19.089,28.859 19.725,29.147 C 20.265,29.407 20.899,29.629 20.719,30.214 C 20.613,30.565 20.265,30.909 19.713,30.909 C 18.97,30.909 18.901,30.52 19.013,30.156 C 19.123,29.792 19.283,29.627 19.283,29.627 H 17.33 C 17.053,29.808 17.001,30.161 17.001,30.161 V 25 H 14.215 L 12.709,27.327 L 13.139,26 H 8.81 L 9.449,24 H 14.069 L 14.777,22 H 7.417 L 4,32 H 6.814 L 8.241,28 H 12.22 L 9.655,32 H 12.017 L 12.707,30.657 H 14.77 L 14.694,32 H 17 V 31.326 C 17.294,31.817 17.901,32.162 19.284,32.162 C 21.234,32.162 22.529,31.42 22.936,30.082 C 23.194,29.239 23.015,28.775 22.576,28.423 C 22.136,28.07 21.448,27.829 20.684,27.44 C 20.274,27.217 20.03,27.003 20.224,26.586 C 20.372,26.28 20.71,26.094 21.187,26.123 C 21.957,26.16 22.05,26.732 21.814,27 H 23.977 C 24.053,26.84 24.043,26.586 23.977,26.419 H 25.362 L 23.658,32.002 H 26.007 L 27.71,26.419 H 29.306 L 27.603,32.002 H 35.539 L 36.511,28.115 L 36.542,28.095 L 37.196,32.002 H 41.724 L 42.415,30.656 H 44.257 L 44.179,32.002 H 51.575 L 52,30.612 L 49.13,30.613 Z" fill="rgb(254, 254, 253)"/>
</svg>
