<?xml version="1.0" encoding="UTF-8"?>
<!-- generated by Finnhub -->
<svg viewBox="0 0 55.5 55.5" xmlns="http://www.w3.org/2000/svg">
<path d="M 0,0 H 55.5 V 55.5 H 0 Z" fill="rgb(2, 173, 237)"/>
<path d="M 28.99,24.985 V 31.1 C 29,31.589 28.498,32 28,32 S 27,31.614 27,31.1 V 25 H 22.272 C 20.752,24.974 19.75,25.931 19.75,27.423 C 19.75,28.914 20.751,29.949 22.272,30 H 23.95 C 24.58,30 24.936,30.54 24.936,31.028 C 24.936,31.517 24.636,32 23.95,32 H 22.272 C 19.808,31.949 17.789,29.866 17.789,27.423 S 19.781,23.026 22.246,23 H 30.346 C 30.87,23 31.237,23.486 31.237,24 C 31.237,24.489 30.844,25 30.347,25 H 29 Z M 6,31.113 C 6,31.594 5.498,32 5,32 C 4.502,31.975 4,31.594 4,31.113 V 23.883 A 0.89,0.89 0 0,1 4.891,22.996 H 9.138 C 9.636,22.996 10.056,23.518 10.056,24 S 9.636,25 9.138,25 H 6 V 31.113 Z M 7.273,26.482 C 6.801,26.482 6.46,26.811 6.46,27.242 C 6.46,27.672 6.827,28.002 7.246,28.002 H 9.06 C 9.505,28.002 9.846,27.672 9.846,27.242 C 9.846,26.811 9.506,26.482 9.06,26.482 H 7.273 Z M 14.093,29 C 14.539,29 14.906,29.344 14.906,29.775 C 14.906,30.206 14.539,30.535 14.093,30.535 H 12.993 C 12.546,30.535 12.18,30.206 12.18,29.775 C 12.18,29.345 12.547,28.975 12.992,29 H 14.093 Z M 11.891,25.104 L 9.086,30.752 A 0.868,0.868 0 0,0 9.506,31.918 C 9.951,32.121 10.502,31.943 10.711,31.513 L 13.516,25.864 L 16.321,31.512 C 16.531,31.943 17.081,32.121 17.527,31.918 A 0.868,0.868 0 0,0 17.947,30.752 L 15.168,25.104 L 14.303,23.406 S 14.119,23 13.516,23 C 12.94,23 12.73,23.406 12.73,23.406 L 11.891,25.104 Z M 37.765,29.744 C 37.765,30.988 36.743,32 35.485,32 H 32.313 C 31.814,32 31.395,31.493 31.395,31 S 31.809,30 32.313,30 H 35.029 C 35.465,30 35.754,29.57 35.344,29.303 L 32.155,26.968 C 31.945,26.787 31.395,26.45 31.395,25.386 A 2.393,2.393 0 0,1 33.807,23 H 36.428 C 36.926,23 37.346,23.481 37.346,24 C 37.346,24.493 36.926,25.026 36.428,25 H 34.003 C 33.496,25 33.368,25.366 33.636,25.697 L 36.926,28.135 C 37.451,28.499 37.766,28.991 37.766,29.743 Z M 44.233,26.728 C 44.678,26.728 45.019,27.062 45.019,27.499 C 45.019,27.937 44.679,28.307 44.233,28.307 H 42.214 A 0.796,0.796 0 0,1 41.428,27.5 C 41.428,27.062 41.768,26.728 42.24,26.728 H 44.233 Z M 39,23.875 C 39,23.387 39.398,22.975 39.897,23.001 H 51.109 C 51.633,23.001 51.999,23.486 51.999,24 C 51.999,24.488 51.607,25 51.109,25 H 49 V 31.1 C 49,31.589 48.498,32 48,32 S 47,31.614 47,31.1 V 25 H 41 V 30 H 43.742 C 44.24,30 44.659,30.512 44.659,31 S 44.24,32 43.742,32 H 39.897 A 0.902,0.902 0 0,1 39,31.1 V 23.875 Z" fill="rgb(245, 247, 251)"/>
</svg>
