<?xml version="1.0" encoding="UTF-8"?>
<!-- generated by Finnhub -->
<svg viewBox="0 0 55.5 55.5" xmlns="http://www.w3.org/2000/svg">
<path d="M 0,0 H 55.5 V 55.5 H 0 Z" fill="rgb(1, 58, 100)"/>
<path d="M 34.113,31.57 A 4.774,4.774 0 0,1 30.825,32.904 A 4.794,4.794 0 1,1 34.09,24.602 L 35.789,21.747 A 8.072,8.072 0 1,0 35.852,34.424 L 34.122,31.585 Z M 15,24 V 20 H 4 V 36.001 H 8 V 31.001 H 14 V 27.001 H 8 V 24.001 H 15 Z M 20.988,36 H 17 V 20 H 20.988 V 36 Z M 44.062,32.91 A 4.794,4.794 0 1,1 44.061,23.323 A 4.794,4.794 0 0,1 44.061,32.911 Z M 44.062,20.046 A 8.071,8.071 0 0,0 35.989,28.118 A 8.071,8.071 0 0,0 44.062,36.191 A 8.072,8.072 0 1,0 44.062,20.045 Z" fill="rgb(254, 254, 253)"/>
</svg>
