<?xml version="1.0" encoding="UTF-8"?>
<!-- generated by Finnhub -->
<svg viewBox="0 0 55.5 55.5" xmlns="http://www.w3.org/2000/svg">
<path d="M 0,0 H 55.5 V 55.5 H 0 Z" fill="rgb(27, 63, 146)"/>
<path d="M 23.99,14.985 V 21 H 12 V 15 H 24 Z M 25.128,27.834 C 24.494,25.754 22.513,24.38 20.365,24 H 12.271 C 15.724,25.172 16.527,28.1 16.527,28.1 C 17.361,32.203 12.628,33.004 12.628,33.004 H 21.438 C 23.928,32.678 25.928,30.462 25.128,27.834 Z M 40.126,32.152 C 42.281,31.756 44.648,29.812 43.816,27.347 C 43.243,25.467 41.312,24.017 39.292,24 H 31.794 C 35.007,25.056 35.602,27.582 35.602,27.582 S 36.794,31.215 31.912,32.152 C 33.604,32.573 35.148,34.264 35.602,35.904 C 36.435,39.656 31.912,41 31.912,41 H 39.172 C 41.434,41 44.485,38.354 43.935,35.904 C 43.697,34.614 42.983,33.912 42.505,33.443 C 41.673,32.739 40.125,32.152 40.125,32.152 Z M 25.722,41 L 32.865,15.003 H 31.198 L 24.175,41 H 25.722 Z" fill="rgb(254, 254, 253)"/>
</svg>
