<?xml version="1.0" encoding="UTF-8"?>
<!-- generated by Finnhub -->
<svg viewBox="0 0 55.5 55.5" xmlns="http://www.w3.org/2000/svg">
<path d="M 0,0 H 55.5 V 55.5 H 0 Z" fill="rgb(99, 189, 71)"/>
<path d="M 30.99,27.615 L 22,33 V 38.06 L 31,32.61 V 27.63 Z M 28,12 C 19.163,12 12,19.163 12,28 C 12,33.017 14.31,37.495 17.924,40.43 L 22,38.06 A 11.665,11.665 0 0,1 16.305,28 C 16.305,21.54 21.541,16.304 28.001,16.304 C 30.181,16.304 32.221,16.902 33.969,17.942 L 22,25 V 30 L 34,23 V 17.943 A 11.662,11.662 0 0,1 39.696,27.999 C 39.696,34.459 34.46,39.697 28,39.697 C 25.818,39.697 23.748,39.099 22,38.06 V 42.848 A 16.102,16.102 0 0,0 28,44 C 36.837,44 44,36.837 44,28 S 36.837,12 28,12 Z" fill="rgb(254, 254, 253)"/>
</svg>
