<?xml version="1.0" encoding="UTF-8"?>
<!-- generated by Finnhub -->
<svg viewBox="0 0 55.5 55.5" xmlns="http://www.w3.org/2000/svg">
<path d="M 0,0 H 55.5 V 55.5 H 0 Z" fill="rgb(239, 242, 248)"/>
<path d="M 35.89,38.615 A 14.17,14.17 0 0,0 38.55,35.13 C 39.05,34.11 39.15,33.26 38.89,32.53 A 3.54,3.54 0 0,0 37.95,31.34 A 9.07,9.07 0 0,0 35.95,30.02 C 35.14,29.6 34.25,29.26 33.35,29.04 C 32.41,28.79 31.52,28.66 30.71,28.66 C 29.85,28.66 29.09,28.79 28.49,29.04 A 1.9,1.9 0 0,1 27.64,29.21 C 27.13,29.21 26.62,29.04 26.24,28.66 L 24.31,26.91 A 1.98,1.98 0 0,1 23.76,26.01 C 23.68,25.68 23.68,25.34 23.8,25.04 C 23.89,24.7 24.1,24.44 24.31,24.23 C 24.57,23.97 24.91,23.85 25.29,23.76 C 25.38,23.76 25.42,23.76 25.51,23.72 C 26.49,23.59 27.51,23.42 28.49,22.65 C 29.77,21.67 30.83,19.8 31.6,17.07 C 31.98,15.75 32.24,14.13 32.41,12.64 C 31.01,12.26 29.51,12 27.98,12 C 23.63,12 19.67,13.75 16.78,16.56 C 17.2,16.73 17.58,17.03 17.92,17.33 C 18.39,17.79 18.86,18.6 18.52,19.88 C 18.39,20.48 18.09,21.08 17.75,21.72 C 17.11,23.04 16.69,23.97 17.11,24.74 C 17.37,25.17 18.14,26.19 20.52,27.94 A 51.1,51.1 0 0,0 24.44,30.49 C 24.83,30.75 25.17,31.09 25.34,31.52 C 25.51,31.94 25.55,32.41 25.46,32.88 C 25.29,33.56 25.16,34.28 25.34,34.84 C 25.42,35.05 25.59,35.74 27.08,36.24 C 27.64,36.42 28.06,36.84 28.23,37.4 C 28.45,37.9 28.4,38.5 28.15,39.01 C 27.68,39.91 26.7,41.78 25.59,43.83 C 26.36,43.96 27.13,44 27.94,44 C 28.36,44 28.79,44 29.17,43.96 C 31.17,42.72 33.86,40.76 35.9,38.63 Z M 43.79,25.33 A 15.74,15.74 0 0,0 39.74,17.24 V 17.37 A 7.93,7.93 0 0,0 40.72,21.97 A 10.6,10.6 0 0,0 43.79,25.34 Z" fill="rgb(45, 161, 77)"/>
<path d="M 43.99,27.285 A 12.54,12.54 0 0,1 39.4,22.7 A 9.77,9.77 0 0,1 38.2,17.24 C 38.25,16.81 38.29,16.39 38.38,15.96 A 16.18,16.18 0 0,0 33.86,13.24 A 28.02,28.02 0 0,1 33.05,17.58 C 30.96,24.78 27.6,25.04 25.51,25.34 C 25.25,25.38 25.12,25.72 25.34,25.89 L 27.25,27.64 C 27.34,27.72 27.51,27.77 27.64,27.77 C 27.72,27.77 27.81,27.77 27.85,27.72 A 6.62,6.62 0 0,1 30.66,27.22 C 34.58,27.22 39.36,29.6 40.29,32.02 C 41.66,35.69 36.76,40.25 32.67,43.4 A 16,16 0 0,0 44,28.1 V 27.3 Z M 26.62,37.82 C 23.29,36.62 23.63,34.28 24.02,32.67 A 0.6,0.6 0 0,0 23.72,31.94 C 22.18,31.04 17.12,27.89 15.88,25.64 C 14.38,22.91 18.22,19.88 16.9,18.56 A 2,2 0 0,0 15.66,17.96 A 16,16 0 0,0 24.1,43.66 C 25.3,41.44 26.4,39.36 26.87,38.46 A 0.46,0.46 0 0,0 26.62,37.82 Z" fill="rgb(1, 91, 140)"/>
</svg>
