<?xml version="1.0" encoding="UTF-8"?>
<!-- generated by Finnhub -->
<svg viewBox="0 0 55.5 55.5" xmlns="http://www.w3.org/2000/svg">
<path d="M 0,0 H 55.5 V 55.5 H 0 Z" fill="rgb(239, 242, 248)"/>
<path d="M 10.99,26.985 H 14 V 27.854 C 14,29.154 13.774,29.995 12.566,29.995 C 12.324,30.003 12.076,30.003 11.834,30.003 L 11.004,29.995 L 10.279,29.988 C 8.936,29.988 8.075,29.82 8.015,27.816 A 24.35,24.35 0 0,1 8,27.074 C 8,25.024 8.12,24.061 9.887,24.031 L 10.928,24.008 C 11.057,24 11.185,24 11.313,24 C 11.623,24 11.94,24.015 12.249,24.03 C 13.374,24.077 14,24.395 14,26 H 13.003 C 13.01,25.289 12.619,25 11.834,25 H 10.219 C 9.222,25 9,25.494 9,26.768 V 27.318 C 9,28.666 9.354,29 10.589,29 H 11.834 C 12.686,29 13.003,28.732 13.003,28 C 13.01,28.053 13.003,27.947 13.003,28 H 11 V 27 Z M 15.002,24 H 19.583 V 25 H 16 V 26.5 H 19.602 V 27.5 H 16 V 29 H 19.583 V 30.003 H 15.002 V 24 Z M 26.067,24 H 30.649 V 25 H 27.065 V 26.5 H 30.667 V 27.5 H 27.065 V 29 H 30.649 V 30.003 H 26.067 V 24 Z M 25.38,30.003 H 24.38 L 21,26 V 30.003 H 20 V 24 H 21 L 24.38,28 V 24 H 25.38 V 30.003 Z M 31,24 H 34.702 C 35.628,24 36,24.45 36,25.902 C 36,26.319 35.995,26.777 35.848,27.138 C 35.695,27.499 35.415,27.579 35.162,27.708 C 35.662,27.804 36,28.028 36,28.855 V 30.003 H 35.002 V 29.425 C 35.002,28.767 34.989,28 34.489,28 H 32 V 30.003 H 31 V 24 Z M 34,27.002 C 34.649,27.002 35.002,26.824 35.002,26 C 35.002,25.176 34.511,25 34,25 H 32 V 27.002 H 34 Z M 38.098,29 L 37.686,30.003 H 36.686 L 38.926,24 H 39.926 L 42.426,30.003 H 41.429 L 41.056,29 H 38.098 Z M 39.425,25.387 L 38.426,28.002 H 40.686 L 39.425,25.387 Z M 48,28 C 48,27.905 48,28.079 48,28 C 48,29.646 47.688,29.909 46.535,29.98 C 46.229,29.995 45.931,30.003 45.626,30.003 L 44.89,29.987 C 43.895,29.972 43.126,29.924 43.033,28.081 C 43.007,27.663 43,27.261 43,26.844 C 43,25.127 43.179,24.174 44.432,24.047 C 44.804,24 45.175,24 45.546,24 C 46.031,24 46.528,24 47.012,24.079 C 47.828,24.213 47.987,24.952 48,26 H 47 C 47.012,25.213 46.634,25.024 46.29,25 C 45.863,24.97 45.427,25 45,25 C 44.224,25.008 44,25.893 44,27.004 C 44,28.201 44.151,28.968 45,29 C 45.359,29.012 45.828,29 46.187,29 C 46.591,29 47.012,28.823 47,28 H 48 Z" fill="rgb(34, 23, 19)"/>
<path d="M 7.99,32.573 L 48,34 V 31 L 8,32.4 V 32.588 Z" fill="rgb(210, 93, 17)"/>
</svg>
