<?xml version="1.0" encoding="UTF-8"?>
<!-- generated by Finnhub -->
<svg viewBox="0 0 55.5 55.5" xmlns="http://www.w3.org/2000/svg">
<path d="M 0,0 H 55.5 V 55.5 H 0 Z" fill="url(#a)"/>
<path d="M 14.47,30.985 L 14,34 H 51.517 L 52,31 H 14.48 Z M 7.013,31 H 6.35 L 5.872,34 H 6.535 L 7.013,31 Z M 9.155,31 H 8.22 L 7.743,34 H 8.676 L 9.154,31 Z M 4.87,31 H 4.478 L 4,34 H 4.393 L 4.871,31 Z M 13.463,31 H 11.99 L 11.512,34 H 12.986 L 13.464,31 Z M 11.321,31 H 10.117 L 9.64,34 H 10.843 L 11.321,31 Z" fill="rgb(236, 26, 43)"/>
<path d="M 41.281,22.985 L 41.064,24.5 H 41.554 L 40.941,28.445 H 40.444 L 40.204,30 H 45.444 L 45.821,27.564 H 44.134 L 44.004,28.444 H 42.696 L 42.891,27.201 H 44.331 L 44.589,25.523 H 43.146 L 43.301,24.5 H 44.533 L 44.425,25 H 46.065 L 46.401,23 M 31.779,23 L 31.554,24.5 H 32.043 L 31.735,26.49 L 30.02,23 H 27.8 L 27.577,24.5 H 28.068 L 27.457,28.445 H 26.967 L 26.731,30 H 29.505 L 29.743,28.445 H 29.251 L 29.608,26.095 L 31.485,30 H 32.966 L 33.814,24.5 H 34.307 L 34.533,23 M 18.986,23 L 18.761,24.5 H 19.254 L 17.339,28.445 H 16.853 L 16.61,30 H 19.381 L 19.625,28.445 H 19.128 L 19.374,28 H 21.09 L 21.16,28.445 H 20.67 L 20.43,30 L 23.28,29.999 L 23.52,28.445 H 23.026 L 22.152,23 H 18.986 Z M 20.789,24.76 L 20.927,26.4 H 20.116 M 14.825,25.79 C 14.506,26.1 14.009,25.979 13.575,26 L 13.795,24.588 C 14.287,24.6 14.963,24.442 15.145,25.033 C 15.188,25.369 15.092,25.572 14.825,25.791 Z M 15.248,27.197 C 15.576,27.115 15.86,26.906 16.128,26.66 C 16.732,26.079 17.068,25.233 16.826,24.36 C 16.594,23.542 15.774,23.055 15.015,23 H 11.725 L 11.502,24.5 H 11.992 L 11.383,28.445 H 10.888 L 10.649,30 H 13.333 L 13.575,28.445 H 13.202 L 13.343,27.515 L 14.662,30 H 16.313 L 16.555,28.445 H 15.938 M 26.43,29.997 L 26.667,28.443 H 26.176 L 26.788,24.498 H 27.278 L 27.5,23 H 24.653 L 24.426,24.498 H 24.916 L 24.31,28.443 H 23.816 L 23.58,30 M 49.92,25.79 C 49.6,26.1 49.104,25.98 48.67,26 L 48.89,24.586 C 49.382,24.599 50.058,24.441 50.24,25.032 C 50.283,25.368 50.187,25.572 49.92,25.791 Z M 50.343,27.196 C 50.672,27.113 50.955,26.905 51.223,26.659 C 51.827,26.077 52.163,25.231 51.921,24.359 C 51.688,23.541 50.87,23.055 50.11,23 H 46.82 L 46.597,24.5 H 47.087 L 46.478,28.444 H 45.983 L 45.745,30 H 48.428 L 48.67,28.445 H 48.297 L 48.439,27.515 L 49.757,30 H 51.408 L 51.65,28.445 H 51.033 M 9.738,23 H 11.105 L 10.742,25.385 H 9.187 C 9.101,25.003 8.73,24.644 8.367,24.561 A 1.71,1.71 0 0,0 6.597,25.216 C 6.13,25.899 5.923,27.048 6.363,27.795 C 6.666,28.295 7.248,28.48 7.793,28.39 C 8.216,28.308 8.643,27.913 8.824,27.494 L 7.092,27.492 L 7.308,26 H 10.958 L 10.353,30.002 H 8.947 L 9.033,29.558 C 8.867,29.79 8.421,30.185 7.323,30.185 C 5.935,30.185 4.418,28.948 4.418,26.766 C 4.418,24.97 5.708,22.79 7.996,22.799 C 8.579,22.801 9.233,22.955 9.656,23.38" fill="rgb(254, 254, 253)"/>
<path d="M 39.281,22.985 H 40.659 L 40.296,25.385 H 38.74 C 38.654,25.003 38.282,24.644 37.92,24.561 A 1.71,1.71 0 0,0 36.15,25.216 C 35.683,25.899 35.475,27.048 35.915,27.795 C 36.218,28.295 36.801,28.48 37.345,28.39 C 37.769,28.308 38.195,27.913 38.377,27.494 L 36.644,27.492 L 36.861,26 H 40.511 L 39.906,30.002 H 38.5 L 38.586,29.558 C 38.421,29.79 37.976,30.185 36.876,30.185 C 35.489,30.185 33.972,28.948 33.972,26.766 C 33.972,24.97 35.262,22.79 37.55,22.799 C 38.133,22.801 38.787,22.955 39.21,23.38" fill="rgb(254, 254, 253)"/>
<defs>
<linearGradient id="a" x1="10.418" x2="68.147" y1="9.712" y2="76.017" gradientUnits="userSpaceOnUse">
<stop stop-color="rgb(25, 29, 31)" offset="0"/>
<stop stop-color="rgb(5, 5, 8)" offset="1"/>
</linearGradient>
</defs>
</svg>
