<?xml version="1.0" encoding="UTF-8"?>
<!-- generated by Finnhub -->
<svg viewBox="0 0 55.5 55.5" xmlns="http://www.w3.org/2000/svg">
<path d="M 0,0 H 55.5 V 55.5 H 0 Z" fill="rgb(55, 197, 242)"/>
<path d="M 37.7,9.102 C 37.862,9.48 38.45,10.737 38.379,11.094 C 38.352,11.232 38.289,11.593 38.239,11.681 C 38.223,11.716 38.123,11.889 38.017,11.879 C 37.797,11.861 37.781,11.203 37.711,10.999 C 37.616,10.733 37.441,10.53 37.226,10.288 C 37.16,10.214 36.999,10.095 36.922,10.031 C 36.439,9.605 35.832,8.726 35.134,8.564 C 35.131,8.562 35.126,8.561 35.121,8.57 C 35.118,8.577 35.126,8.597 35.138,8.61 C 35.163,8.635 35.328,8.759 35.663,9.103 C 35.853,9.301 36.115,9.554 36.27,9.775 C 36.454,10.037 36.913,10.448 37.072,10.682 C 37.181,10.842 37.334,11.105 37.361,11.348 C 37.379,11.507 37.379,11.555 37.286,11.575 C 37.228,11.593 36.831,11.442 36.225,11.395 C 36.171,11.395 35.662,11.35 35.606,11.35 C 34.839,11.264 34.887,11.297 34.235,11.093 C 33.799,10.955 33.267,10.766 32.793,10.669 C 32.735,10.659 32.108,10.442 32.068,10.489 C 32.04,10.519 32.251,10.649 32.295,10.669 C 32.48,10.751 33.016,10.949 33.222,11.047 C 33.482,11.175 33.716,11.277 33.949,11.367 C 34.309,11.508 34.65,11.637 35.084,11.737 C 35.044,12.257 34.942,13.125 34.734,13.499 A 8.52,8.52 0 0,1 33.142,15.54 C 33.013,15.662 32.89,15.84 32.715,15.997 C 32.566,16.134 32.37,16.357 32.228,16.391 C 32.139,16.41 32.016,16.383 31.912,16.405 C 31.769,16.435 31.656,16.515 31.532,16.497 C 31.409,16.476 31.367,16.367 31.26,16.313 A 2.26,2.26 0 0,0 30.711,16.177 C 30.577,16.162 30.522,16.177 30.545,16.056 C 30.545,16.051 30.555,16.044 30.559,15.967 C 30.589,15.571 30.594,15.201 30.591,14.921 C 30.574,13.777 29.853,12.868 29.424,12.094 C 29.319,11.904 29.098,11.474 28.925,11.277 C 28.733,11.062 28.848,11.432 28.878,11.552 C 28.914,11.689 29.035,11.844 29.075,11.959 C 29.105,12.024 29.129,12.12 29.152,12.185 C 29.379,12.86 29.959,13.772 30.045,14.588 C 30.049,14.639 30.061,14.705 30.058,14.741 C 30.005,15.275 29.927,15.947 29.422,16.056 A 0.402,0.402 0 0,1 29.317,16.073 C 28.521,16.068 27.833,14.98 27.481,14.41 A 7.69,7.69 0 0,1 26.63,12.563 C 26.523,12.22 26.48,11.219 26.445,10.857 C 26.44,10.797 26.434,10.423 26.431,10.374 C 26.431,10.353 26.423,10.325 26.408,10.325 C 26.367,10.325 26.304,10.665 26.282,10.752 C 26.209,11.04 26.189,11.67 26.189,11.927 C 26.189,12.642 26.401,13.359 26.692,13.985 C 26.866,14.365 27.248,15.121 27.462,15.483 C 27.526,15.59 27.686,15.797 27.675,15.876 C 27.652,16.06 27.302,16.056 27.19,16.089 C 26.64,16.17 25.906,16.099 25.261,15.921 C 24.639,15.748 24.061,15.546 23.547,15.226 C 23.492,15.182 23.431,15.146 23.395,15.093 C 22.71,14.553 22.298,13.323 22.15,12.383 A 4.655,4.655 0 0,1 22.117,11.985 C 22.18,11.969 22.233,11.953 22.289,11.941 C 23.012,11.758 23.986,11.129 24.529,10.791 C 24.715,10.678 24.898,10.559 25.065,10.419 C 25.085,10.402 25.091,10.393 25.085,10.386 C 25.083,10.381 25.068,10.383 25.048,10.391 C 24.263,10.636 23.216,11.283 22.484,11.471 C 22.431,11.485 22.227,11.539 22.093,11.562 C 22.093,11.491 22.097,11.352 22.098,11.32 C 22.1,11.235 22.096,11.156 22.096,11.084 C 22.179,11.028 22.263,10.94 22.379,10.851 C 23.006,10.358 23.424,8.945 23.854,8.248 C 23.859,8.242 23.873,8.218 23.868,8.214 C 23.862,8.209 23.851,8.216 23.834,8.224 C 23.079,8.58 22.721,10.134 22.047,10.578 C 21.497,10.941 20.807,11.218 20.435,11.73 C 20.393,11.79 20.299,12.013 20.223,12.034 C 20.193,12.041 20.083,12.139 20.026,12.107 C 19.825,11.986 19.644,11.601 19.506,11.384 C 19.308,11.068 19.362,10.147 19.403,9.805 C 19.467,9.278 19.903,8.597 20.158,8.162 C 20.163,8.152 20.167,8.148 20.163,8.144 C 20.16,8.14 20.153,8.145 20.143,8.149 C 20.041,8.189 19.793,8.413 19.752,8.458 C 19.397,8.863 18.94,9.538 18.903,10.098 C 18.866,10.627 19.011,11.803 19.357,12.15 C 19.417,12.225 19.481,12.289 19.557,12.345 C 19.979,12.723 20.175,13.285 20.391,13.831 C 20.459,14.011 20.533,14.151 20.651,14.314 C 21.036,14.892 21.769,15.204 22.424,15.529 C 23.046,15.836 23.775,16.154 24.474,16.375 C 24.914,16.515 25.496,16.657 26.022,16.753 C 26.222,16.792 26.398,16.829 26.498,16.913 C 26.569,16.973 26.614,17.223 26.655,17.346 C 26.705,17.505 26.765,17.659 26.808,17.779 C 26.924,18.102 26.995,18.412 27.116,18.647 C 27.286,18.96 27.69,19.095 28.062,19.233 C 28.11,19.241 28.338,19.31 28.605,19.295 C 28.775,19.289 28.798,19.492 28.789,19.589 C 28.781,19.727 28.801,19.819 28.798,19.956 C 28.791,20.311 28.821,20.312 28.776,20.616 C 28.766,20.685 28.684,20.898 28.628,21.073 C 28.616,21.1 28.6,21.127 28.595,21.152 C 28.558,21.322 28.538,21.639 28.482,21.812 C 28.432,21.992 28.21,22.545 28.154,23.387 C 28.131,23.727 28.005,24.049 27.851,24.375 C 27.778,24.529 27.791,24.613 27.735,24.785 C 27.676,24.966 27.643,25.105 27.582,25.2 A 1.376,1.376 0 0,1 27.395,25.434 A 7.18,7.18 0 0,0 26.558,26.166 C 26.446,26.277 26.328,26.558 26.223,26.616 C 26.153,26.655 25.753,26.907 25.658,26.936 C 25.061,27.114 24.922,27.213 24.446,27.508 C 23.419,28.143 16.308,28.112 16.44,33.082 C 16.44,33.138 16.425,33.253 16.41,33.373 A 2.9,2.9 0 0,0 16.432,34.213 C 16.544,34.918 16.74,35.567 17,36.107 C 17.444,37.025 17.857,37.557 18.513,38.148 C 18.679,38.298 18.87,38.421 19.033,38.58 C 19.36,38.9 19.532,39.514 19.781,39.934 C 19.808,39.962 19.771,40.808 19.771,40.817 C 19.765,40.841 19.755,40.987 19.737,41.154 C 17.136,41.584 14.444,41.814 12,42 V 44 H 35 V 37 C 34.844,37.037 33.666,37.346 33.017,37.588 A 3.669,3.669 0 0,0 33.139,37.29 C 33.277,36.872 33.364,36.42 33.516,36.097 C 33.616,35.887 33.866,35.234 33.866,35.234 C 34.086,34.533 34.177,34.074 34.256,33.614 C 34.269,33.514 34.606,33.095 34.606,33.095 C 34.706,32.965 34.786,32.789 34.897,32.629 C 34.897,32.629 35.44,31.502 35.427,30.526 C 35.421,30.346 35.477,29.539 35.471,28.838 C 35.475,28.798 35.481,28.762 35.481,28.716 A 2.966,2.966 0 0,0 35.451,28.303 C 35.447,28.276 35.448,28.247 35.446,28.221 C 35.418,28.041 35.458,27.686 35.449,27.526 C 35.437,27.314 35.363,27.337 35.347,27.119 C 35.336,26.971 35.287,26.857 35.25,26.718 C 35.222,26.616 35.164,26.525 35.116,26.434 A 1.114,1.114 0 0,1 35.102,26.314 C 35.129,25.559 34.624,24.66 34.612,24.628 C 34.372,24.078 34.399,24.058 34.439,23.384 C 34.412,22.56 34.275,22.114 34.192,21.904 C 34.158,21.885 33.902,21.337 33.819,21.158 A 0.351,0.351 0 0,1 33.797,20.93 C 33.853,20.695 34.263,20.626 34.429,20.514 C 34.535,20.444 34.653,20.263 34.702,20.132 A 0.109,0.109 0 0,0 34.71,20.091 V 19.839 C 34.71,19.819 34.696,19.805 34.693,19.787 C 34.686,19.749 34.698,19.691 34.695,19.649 C 34.695,19.635 34.695,19.623 34.698,19.612 C 34.843,19.167 34.992,18.775 34.568,18.552 C 34.394,18.459 34.158,18.42 34.168,18.244 C 34.174,18.111 34.345,18.062 34.446,17.997 C 34.715,17.822 34.898,17.659 35.05,17.411 C 35.114,17.301 35.114,17.012 35.192,16.937 C 35.245,16.884 35.394,16.838 35.494,16.786 C 35.816,16.62 36.133,16.512 36.42,16.346 C 37.198,15.903 38.037,15.052 38.635,14.439 C 38.93,14.138 39.404,13.594 39.621,13.201 C 39.795,12.884 39.95,12.108 39.971,11.689 C 39.976,11.589 40,11.255 40,11.239 C 39.999,11.223 39.998,11.205 39.99,11.205 C 39.983,11.203 39.974,11.211 39.971,11.22 C 39.764,11.723 39.566,12.639 39.243,13.064 C 39.003,13.376 38.279,14.181 37.923,14.409 L 37.875,14.439 C 37.885,14.412 37.902,14.374 37.91,14.349 A 0.563,0.563 0 0,0 37.94,14.226 C 38.022,13.718 38.259,13.359 38.259,12.499 C 38.259,12.416 38.415,12.266 38.455,12.198 C 38.729,11.734 38.761,11.103 38.683,10.628 C 38.632,10.315 38.173,9.506 38.003,9.314 C 37.988,9.295 37.723,8.973 37.685,9.013 C 37.668,9.025 37.697,9.091 37.711,9.117 Z M 20.981,11.804 C 21.154,11.59 21.553,11.356 21.71,11.259 A 0.633,0.633 0 0,0 21.762,11.223 C 21.741,11.406 21.729,11.573 21.716,11.652 C 21.629,11.685 21.477,11.737 21.321,11.794 C 21.227,11.827 21.105,11.902 20.966,11.94 C 20.859,11.967 20.936,11.861 20.981,11.804 Z M 21.438,14.301 A 1.108,1.108 0 0,1 21.271,14.135 C 21.085,13.966 20.941,13.662 20.861,13.361 C 20.706,12.775 20.546,12.893 20.907,12.531 C 20.996,12.437 21.139,12.343 21.301,12.257 C 21.402,12.207 21.543,12.135 21.638,12.11 C 21.667,12.102 21.679,12.097 21.728,12.087 C 21.733,12.15 21.74,12.241 21.742,12.347 C 21.802,13.312 21.961,14.059 22.363,14.771 A 8.678,8.678 0 0,1 21.438,14.301 Z M 28.636,17.146 C 28.594,17.111 28.421,17.082 28.465,16.944 C 28.48,16.901 28.577,16.87 28.605,16.868 C 28.891,16.814 29.363,16.951 29.208,17.223 C 29.208,17.223 28.959,17.392 28.946,17.393 C 28.946,17.393 28.831,17.346 28.807,17.332 C 28.737,17.286 28.68,17.178 28.636,17.146 Z M 22.01,40.75 C 22.084,40.52 22.21,40.276 22.449,40.038 C 22.511,39.977 23.041,39.428 23.104,39.344 C 23.311,39.074 23.347,39.016 23.59,38.469 A 1.18,1.18 0 0,1 23.85,38.099 C 24.527,37.779 25.2,38.049 25.535,37.96 C 25.785,37.894 25.741,37.703 25.791,37.473 C 25.891,37.467 25.997,37.463 26.109,37.462 C 26.349,37.46 26.604,37.394 26.829,37.363 L 27.292,37.299 C 27.877,37.216 28.034,37.096 28.034,37.096 C 28.449,36.989 28.871,36.849 29.052,36.71 C 29.242,36.734 29.344,37.17 29.48,37.398 C 29.615,37.628 29.63,37.712 29.754,37.872 C 29.766,37.887 29.927,38.231 30.094,38.615 C 28.238,39.371 25.291,40.125 22.01,40.75 Z M 31.911,35.919 C 31.895,36.08 31.873,37.525 31.851,38.016 C 31.637,38.092 31.491,38.14 31.381,38.172 C 31.267,37.752 31.122,36.709 31.083,36.619 C 30.95,36.315 30.945,36.079 30.907,35.672 C 31.247,35.666 31.592,35.64 31.899,35.574 C 31.912,35.674 31.923,35.762 31.921,35.787 C 31.921,35.812 31.914,35.893 31.911,35.919 Z M 37.353,14.639 C 37.113,15.236 36.286,15.732 35.6,15.966 C 35.409,16.03 34.996,16.268 34.87,16.18 C 34.82,16.142 35.084,15.923 35.144,15.874 C 35.74,15.396 36.52,15.036 37.114,14.584 C 37.258,14.471 37.386,14.372 37.414,14.343 C 37.408,14.403 37.407,14.51 37.354,14.639 Z M 37.345,13.651 C 36.755,14.381 35.515,14.756 34.843,15.226 C 34.67,15.345 34.53,15.504 34.282,15.664 C 34.207,15.709 33.961,15.862 33.794,15.938 C 33.777,15.945 33.694,16.015 33.674,15.98 C 33.634,15.927 33.904,15.623 33.932,15.588 C 34.615,14.712 35.239,13.857 35.372,12.532 A 4.9,4.9 0 0,0 35.398,11.77 C 35.456,11.77 35.528,11.773 35.6,11.776 C 36.439,11.815 37.552,11.896 37.665,12.726 C 37.718,13.117 37.515,13.439 37.345,13.651 Z" fill="rgb(148, 0, 59)"/>
<path d="M 29.145999999999997,21.373 C 29.266,21.308 29.196,20.728 29.196,20.711 C 29.196,20.699 29.117,20.792 29.083,20.845 C 29.048,20.899 29.081,21.136 29.081,21.143 C 29.081,21.152 29.083,21.177 29.085,21.187 C 29.088,21.194 29.081,21.203 29.071,21.207 C 29.062,21.21 29.026,21.257 28.95,21.317 C 28.95,21.317 28.86,21.607 29.156,21.388 Z M 34.468,20.067 C 34.333,19.941 34.387,20.112 34.288,20.157 C 34.148,20.237 34.023,20.197 33.803,20.157 C 33.457,19.852 32.973,20.36 32.531,20.122 C 32.491,20.062 32.555,20.015 32.589,19.971 C 32.982,19.939 32.719,20.059 33.131,19.973 C 33.131,19.973 33.311,19.953 33.295,19.903 C 33.281,19.858 32.985,19.982 32.652,19.821 C 32.3,19.782 32.532,20.121 32.275,20.202 C 32.177,20.233 32.258,20.395 32.34,20.353 C 32.421,20.311 32.509,20.194 32.84,20.277 C 33.016,20.462 33.1,20.047 33.23,20.431 C 33.257,20.509 33.307,20.423 33.307,20.423 C 33.295,20.341 33.331,20.31 33.367,20.268 C 33.409,20.315 33.441,20.398 33.526,20.4 L 33.586,20.209 C 33.672,20.319 33.834,20.376 33.993,20.375 C 34.18,20.283 34.487,20.326 34.468,20.067 Z M 32.557,18.076 C 32.642,18.161 32.81,18.157 32.899,18.098 C 32.993,18.034 33.039,18.106 33.139,18.09 C 33.241,18.073 32.94,17.86 32.919,17.95 C 32.906,18.026 32.851,17.971 32.779,18.004 C 32.681,18.018 32.637,17.902 32.569,17.859 C 32.566,17.804 32.597,17.768 32.637,17.729 L 32.675,17.696 C 32.757,17.62 32.769,17.566 32.7,17.471 C 32.625,17.564 32.562,17.543 32.459,17.543 C 32.334,17.547 32.281,17.597 32.279,17.725 C 32.316,17.791 32.425,17.823 32.394,17.902 C 32.341,18.015 32.18,17.972 32.112,17.932 C 31.902,17.982 31.685,18.012 31.571,18.223 C 31.647,18.253 31.689,18.246 31.746,18.189 L 31.796,18.143 C 31.814,18.125 31.831,18.116 31.853,18.116 C 32.107,18.026 32.369,18.288 32.557,18.076 Z M 30.252,18.316 C 30.168,18.302 30.132,18.272 30.059,18.275 C 29.977,18.278 30.202,18.483 30.227,18.492 C 30.287,18.513 30.5,18.545 30.531,18.545 C 30.709,18.523 30.744,18.364 30.814,18.275 C 30.704,18.353 30.442,18.345 30.252,18.315 Z M 30.472,17.884 C 30.336,17.694 30.097,17.896 29.948,17.972 C 30.038,18.276 30.274,17.869 30.472,17.884 Z M 32.97,18.795 C 32.942,18.958 32.892,19.098 32.99,19.251 C 33.046,19.287 33.295,19.497 33.674,19.425 C 34.067,19.476 33.838,18.898 34.372,19.027 C 34.526,19.065 34.42,18.923 34.545,18.841 C 34.545,18.841 34.597,18.789 34.539,18.773 C 34.481,18.757 34.439,18.744 34.351,18.867 C 34.03,18.873 33.671,18.563 33.437,18.908 C 33.561,18.98 33.73,18.756 33.865,18.928 A 0.297,0.297 0 0,1 33.595,19.255 A 0.696,0.696 0 0,1 33.221,19.185 C 32.996,19.107 33.127,18.951 33.111,18.825 C 33.216,18.628 33.445,18.697 33.595,18.582 C 33.369,18.532 33.062,18.558 32.969,18.795 Z M 30.096,20.372 C 30.111,20.365 30.13,20.362 30.148,20.355 A 0.343,0.343 0 0,0 30.05,20.27 L 29.67,20.098 C 29.668,20.095 29.667,20.095 29.667,20.09 A 0.364,0.364 0 0,1 29.595,20.044 A 0.328,0.328 0 0,0 29.573,19.974 C 29.563,19.954 29.549,19.939 29.536,19.919 C 29.534,19.909 29.533,19.902 29.53,19.894 C 29.526,19.893 29.521,19.893 29.519,19.891 C 29.513,19.884 29.511,19.876 29.503,19.869 L 29.5,19.8 C 29.59,19.827 29.758,19.91 29.828,19.973 L 29.878,19.97 C 29.828,19.851 29.675,19.793 29.595,19.694 C 29.54,19.624 29.513,19.536 29.452,19.468 L 29.448,19.435 A 0.51,0.51 0 0,1 29.658,19.543 L 29.709,19.54 A 1.946,1.946 0 0,0 29.481,19.232 C 29.491,19.21 29.507,19.19 29.511,19.168 C 29.521,19.084 29.451,18.904 29.401,18.828 A 1.59,1.59 0 0,0 29.165,19.053 L 29.17,19.062 C 29.2,19.172 29.195,19.299 29.156,19.414 C 29.173,20.008 29.648,20.323 30.012,20.47 C 30.082,20.487 30.152,20.505 30.222,20.513 C 30.248,20.513 30.274,20.52 30.301,20.525 C 30.281,20.499 30.263,20.477 30.243,20.449 C 30.193,20.427 30.16,20.394 30.096,20.371 Z" fill="rgb(254, 254, 253)"/>
<path d="M 31.133,17.502 L 30.991,17.405 C 30.848,17.303 30.728,17.271 30.53,17.226 C 30.097,17.169 29.846,17.325 29.595,17.621 L 29.644,17.648 C 29.745,17.486 29.851,17.468 30.02,17.392 C 30.117,17.38 30.391,17.312 30.47,17.44 C 30.3,17.477 30.023,17.517 29.952,17.708 C 30.052,17.629 30.255,17.588 30.383,17.623 C 30.465,17.663 30.554,17.73 30.644,17.792 C 30.665,17.808 30.69,17.818 30.713,17.833 C 30.698,17.839 30.676,17.848 30.671,17.857 C 30.581,18.058 30.886,18.061 30.879,17.905 A 0.355,0.355 0 0,0 31.185,17.875 C 31.325,17.753 31.201,17.593 31.143,17.517 Z M 28.789,17.764 C 28.773,17.748 28.776,17.694 28.761,17.67 C 28.66,17.545 28.529,17.507 28.405,17.425 C 28.307,17.362 28.218,17.258 28.108,17.177 C 27.814,16.945 27.483,16.648 27.102,16.558 C 27.027,16.542 26.845,16.535 26.823,16.558 C 26.761,16.636 26.93,17.011 26.946,17.084 C 26.963,17.142 26.946,17.204 26.963,17.27 C 27.029,17.55 27.243,17.981 27.334,18.244 C 27.397,18.422 27.394,18.547 27.473,18.628 C 27.588,18.744 27.978,18.845 28.218,18.878 C 28.277,18.882 28.453,18.906 28.48,18.89 C 28.518,18.875 28.634,18.615 28.59,18.552 C 28.516,18.447 28.186,18.576 28.029,18.567 C 27.797,18.557 27.871,18.455 27.799,18.244 C 27.717,18.004 27.51,17.833 27.412,17.578 C 27.386,17.507 27.385,17.406 27.352,17.3 C 27.34,17.273 27.23,17.118 27.302,17.069 C 27.342,17.039 27.52,17.245 27.552,17.311 C 27.568,17.346 27.62,17.696 27.676,17.687 C 27.736,17.675 27.724,17.295 27.814,17.345 C 27.852,17.367 27.784,17.692 27.858,17.748 C 27.903,17.782 27.988,17.733 28.018,17.654 C 28.054,17.63 28.011,17.525 28.062,17.517 C 28.165,17.53 28.11,17.981 28.282,17.917 C 28.355,17.891 28.28,17.704 28.341,17.687 C 28.401,17.67 28.477,17.952 28.481,17.981 C 28.483,18.001 28.475,18.101 28.481,18.104 C 28.599,18.186 28.582,17.86 28.623,17.839 C 28.634,17.834 28.886,18.053 28.883,18.043 C 28.893,18.119 28.704,18.189 28.699,18.211 C 28.657,18.338 28.834,18.464 28.869,18.458 C 28.951,18.448 28.988,18.232 29.037,18.211 C 29.073,18.194 29.112,18.101 29.071,18.057 C 29.026,17.857 28.895,17.867 28.789,17.764 Z M 21.755,34.648 C 21.656,34.605 21.664,34.728 21.572,34.758 L 21.515,34.769 C 21.405,34.799 21.409,34.81 21.47,34.963 C 21.675,35.07 21.773,34.965 21.837,34.75 C 21.837,34.75 21.855,34.687 21.755,34.648 Z M 21.049,35.022 C 20.945,35.07 20.939,35.148 20.947,35.245 L 20.952,35.315 C 21.015,35.373 21.061,35.385 21.125,35.35 L 21.161,35.323 L 21.195,35.302 C 21.247,35.26 21.192,35.296 21.293,35.238 C 21.395,35.181 21.346,35.136 21.233,35.082 C 21.18,35.056 21.111,35.045 21.049,35.022 Z M 22.627,34.803 L 22.589,34.851 L 22.549,34.897 A 0.876,0.876 0 0,1 22.463,34.997 L 22.586,35.105 C 22.762,35.016 22.852,34.888 22.861,34.71 L 22.845,34.711 A 0.329,0.329 0 0,0 22.627,34.803 Z M 24.878,34.096 C 24.682,34.126 24.514,34.049 24.392,34.24 L 24.464,34.301 C 24.638,34.398 24.794,34.299 24.944,34.241 C 24.967,34.169 24.944,34.147 24.878,34.096 Z M 24.185,34.659 C 24.148,34.727 24.164,34.769 24.2,34.84 L 24.235,34.81 C 24.334,34.734 24.555,34.836 24.567,34.595 C 24.461,34.564 24.386,34.506 24.263,34.545 A 0.443,0.443 0 0,0 24.185,34.659 Z M 24.149,35.053 C 24.034,35.045 23.904,35.116 23.96,35.205 C 24.044,35.345 24.192,35.274 24.322,35.265 L 24.341,35.215 C 24.3,35.19 24.285,35.187 24.244,35.164 A 0.24,0.24 0 0,1 24.149,35.054 Z M 23.518,34.273 A 0.337,0.337 0 0,1 23.311,34.46 L 23.247,34.493 C 23.167,34.533 23.137,34.547 23.14,34.605 C 23.14,34.618 23.141,34.629 23.145,34.649 L 23.19,34.676 L 23.228,34.702 A 0.126,0.126 0 0,1 23.333,34.649 H 23.401 C 23.407,34.649 23.413,34.649 23.419,34.651 L 23.476,34.643 C 23.539,34.52 23.71,34.5 23.696,34.4 A 0.191,0.191 0 0,0 23.681,34.342 C 23.663,34.296 23.566,34.275 23.518,34.272 Z M 19.262,34.98 C 19.39,34.983 19.465,34.736 19.603,34.684 C 19.753,34.643 19.887,34.57 20.02,34.506 A 0.204,0.204 0 0,1 20.209,34.394 C 20.32,34.394 20.443,34.449 20.569,34.447 C 20.613,34.447 20.657,34.437 20.711,34.417 A 1.101,1.101 0 0,0 21.001,34.385 L 21.046,34.37 L 21.025,34.416 A 0.385,0.385 0 0,1 20.844,34.614 A 0.208,0.208 0 0,1 20.707,34.656 C 20.619,34.656 20.517,34.626 20.441,34.626 C 20.353,34.749 20.119,34.751 20.132,34.912 C 20.134,34.932 20.138,34.954 20.144,34.974 C 20.164,35.016 20.202,35.031 20.252,35.031 C 20.272,35.031 20.293,35.029 20.314,35.021 C 20.459,34.703 21.007,35.027 21.202,34.618 C 21.327,34.26 21.805,34.001 21.942,33.952 C 21.948,33.947 21.948,33.942 21.948,33.934 C 21.949,33.904 21.881,33.847 21.874,33.778 A 0.098,0.098 0 0,1 21.913,33.696 L 21.979,33.644 L 21.991,33.65 C 22.105,33.71 22.195,33.787 22.305,33.82 A 0.62,0.62 0 0,0 22.424,33.832 C 22.586,33.829 22.649,33.747 22.648,33.688 C 22.645,33.641 22.604,33.596 22.499,33.596 C 22.491,33.596 22.479,33.596 22.458,33.599 C 22.397,33.578 22.315,33.575 22.248,33.555 C 22.223,33.545 22.203,33.551 22.193,33.515 C 22.191,33.496 22.2,33.491 22.216,33.475 C 22.297,33.442 22.379,33.419 22.464,33.383 C 22.925,33.203 22.681,33.083 22.839,32.943 A 0.237,0.237 0 0,1 22.994,32.895 C 23.066,32.895 23.145,32.908 23.22,32.908 C 23.31,32.904 23.396,32.886 23.466,32.798 C 23.498,32.758 23.53,32.718 23.526,32.674 A 0.122,0.122 0 0,0 23.501,32.603 C 23.487,32.593 23.476,32.58 23.464,32.566 L 23.458,32.556 V 32.547 C 23.491,32.34 23.559,32.272 23.552,32.121 C 23.549,32.071 23.474,32.053 23.45,31.976 C 23.294,32.056 23.283,32.103 23.164,32.203 C 23.174,32.334 23.198,32.363 23.236,32.485 L 23.244,32.513 L 23.216,32.511 H 23.195 C 23.159,32.515 23.156,32.515 23.117,32.552 L 23.151,32.682 L 23.114,32.673 A 0.35,0.35 0 0,0 22.985,32.653 C 22.82,32.653 22.717,32.769 22.622,32.886 C 22.509,33.032 22.417,33.178 22.191,33.18 H 22.16 C 22.128,33.259 22.089,33.294 22.01,33.334 L 21.944,33.366 C 21.864,33.4 21.777,33.443 21.75,33.539 L 21.746,33.553 H 21.732 C 21.462,33.581 21.556,33.79 21.474,33.969 L 21.468,33.979 L 21.455,33.982 C 21.425,33.984 21.395,33.99 21.371,33.993 L 21.254,34.078 C 21.062,34.118 20.808,34.203 20.577,34.208 A 0.749,0.749 0 0,1 20.344,34.172 C 20.334,34.189 20.31,34.229 20.266,34.232 A 0.065,0.065 0 0,1 20.236,34.225 L 20.186,34.203 A 0.223,0.223 0 0,0 20.106,34.18 A 0.183,0.183 0 0,0 20.03,34.203 C 19.852,34.212 19.87,34.333 19.773,34.446 C 19.715,34.509 19.673,34.541 19.629,34.541 C 19.56,34.539 19.522,34.477 19.462,34.416 C 19.393,34.357 19.341,34.331 19.275,34.331 A 0.393,0.393 0 0,0 19.176,34.346 C 19.073,34.516 18.913,34.513 18.817,34.629 C 18.817,34.631 18.782,34.702 18.787,34.745 C 18.79,34.769 18.79,34.774 18.818,34.775 A 0.304,0.304 0 0,0 18.897,34.757 A 0.66,0.66 0 0,1 19.165,34.637 L 19.175,34.635 L 19.183,34.64 C 19.204,34.656 19.217,34.677 19.217,34.698 C 19.215,34.773 19.14,34.857 19.14,34.925 C 19.19,34.966 19.23,34.98 19.262,34.98 Z M 20.57,31.112 C 20.402,31.117 20.277,31.188 20.283,31.304 A 0.246,0.246 0 0,0 20.307,31.397 L 20.359,31.37 L 20.364,31.368 A 0.35,0.35 0 0,0 20.478,31.353 C 20.61,31.181 20.975,31.059 21.034,30.969 C 21.028,30.936 21.024,30.893 21.013,30.869 L 21.011,30.866 C 20.993,30.816 20.977,30.804 20.927,30.8 C 20.902,30.86 20.734,31.114 20.642,31.123 A 0.144,0.144 0 0,1 20.599,31.112 H 20.57 Z M 20.383,30.712 C 20.316,30.762 20.278,30.803 20.203,30.848 L 20.205,30.852 C 20.225,30.894 20.315,30.915 20.353,30.912 H 20.355 C 20.446,30.904 20.576,30.724 20.586,30.675 A 0.235,0.235 0 0,0 20.508,30.66 C 20.468,30.66 20.432,30.675 20.383,30.712 Z" fill="rgb(254, 254, 253)"/>
<path d="M 18.630999999999997,33.929 C 18.641,33.952 18.644,33.96 18.641,33.964 C 18.682,34.001 18.711,34.026 18.751,34.024 C 18.772,34.024 18.801,34.017 18.833,34.001 C 18.846,33.993 18.86,33.983 18.876,33.983 C 18.896,33.983 18.911,33.993 18.93,34.003 A 0.347,0.347 0 0,0 19.14,34.07 C 19.215,34.07 19.283,34.046 19.346,34.035 C 19.413,34.012 19.551,34.007 19.726,33.983 L 19.824,33.958 A 0.373,0.373 0 0,0 20.087,33.835 A 0.378,0.378 0 0,1 20.287,33.78 C 20.428,33.78 20.561,33.831 20.694,33.844 C 20.861,33.804 21.114,33.657 21.101,33.464 A 0.333,0.333 0 0,0 21.081,33.383 L 21.076,33.369 L 21.086,33.359 C 21.126,33.317 21.161,33.255 21.2,33.207 L 21.238,33.159 C 21.276,33.117 21.318,33.09 21.372,33.089 A 0.393,0.393 0 0,1 21.467,33.103 C 21.63,33.105 21.884,32.789 22.04,32.758 C 22.181,32.73 22.193,32.663 22.236,32.58 L 22.272,32.541 C 22.305,32.469 22.369,32.455 22.45,32.451 C 22.476,32.322 22.526,32.296 22.654,32.242 C 22.795,32.174 22.852,32.149 22.894,32.008 C 22.867,31.911 22.818,31.707 22.73,31.717 C 22.713,31.717 22.695,31.724 22.68,31.727 C 22.648,31.8 22.652,31.875 22.637,31.946 C 22.597,32.076 22.549,32.151 22.402,32.163 C 22.144,32.393 21.916,32.518 21.697,32.769 L 21.687,32.778 L 21.676,32.775 A 0.67,0.67 0 0,0 21.599,32.769 C 21.325,32.769 21.107,33.093 20.863,33.16 L 20.855,33.163 L 20.848,33.159 C 20.825,33.144 20.825,33.124 20.822,33.099 C 20.825,33.093 20.822,33.085 20.82,33.079 V 33.059 A 0.45,0.45 0 0,0 20.816,32.999 C 20.836,32.943 20.872,32.901 20.926,32.887 L 20.975,32.858 C 21.076,32.818 21.103,32.778 21.109,32.674 C 21.101,32.658 21.102,32.656 21.077,32.656 C 21.016,32.653 20.826,32.738 20.321,33.051 L 20.31,33.058 L 20.3,33.051 C 20.263,33.023 20.259,32.983 20.239,32.938 A 0.128,0.128 0 0,0 20.187,32.886 C 20.124,32.907 20.068,32.916 20.034,32.952 L 20.024,32.96 L 20.013,32.955 A 0.462,0.462 0 0,0 19.843,32.912 C 19.621,32.903 19.663,33.256 19.381,33.271 A 0.32,0.32 0 0,1 19.279,33.256 C 19.218,33.228 19.194,33.183 19.191,33.141 C 19.189,33.074 19.224,33.01 19.221,32.974 C 19.22,32.952 19.212,32.937 19.11,32.937 L 19.062,32.938 C 19.024,32.94 19.026,32.947 18.985,32.968 L 18.903,33.009 A 0.28,0.28 0 0,0 18.773,33.167 C 18.668,33.269 18.448,33.226 18.461,33.4 C 18.461,33.412 18.464,33.428 18.466,33.441 C 18.484,33.479 18.513,33.487 18.564,33.487 H 18.603 C 18.643,33.465 18.706,33.414 18.773,33.412 C 18.813,33.412 18.857,33.435 18.87,33.475 L 18.94,33.497 L 19.038,33.487 A 0.22,0.22 0 0,1 19.206,33.405 C 19.323,33.405 19.436,33.475 19.536,33.475 C 19.6,33.473 19.659,33.449 19.716,33.356 L 19.728,33.338 L 19.745,33.352 C 19.78,33.377 19.808,33.383 19.831,33.383 C 19.896,33.385 19.951,33.303 19.997,33.239 A 0.163,0.163 0 0,1 20.079,33.172 C 20.334,33.215 20.625,33.144 20.86,33.346 L 20.868,33.352 V 33.366 C 20.868,33.529 20.606,33.55 20.509,33.6 L 20.494,33.607 L 20.482,33.591 C 20.443,33.528 20.402,33.513 20.358,33.513 A 0.22,0.22 0 0,0 20.275,33.533 L 20.218,33.558 C 20.192,33.563 20.17,33.568 20.151,33.568 C 20.116,33.568 20.088,33.556 20.053,33.528 C 19.863,33.561 19.877,33.648 19.739,33.766 A 0.372,0.372 0 0,1 19.652,33.776 C 19.475,33.778 19.397,33.663 19.224,33.666 C 19.187,33.666 19.147,33.672 19.11,33.676 C 19.045,33.757 18.972,33.785 18.876,33.826 L 18.864,33.829 C 18.745,33.867 18.63,33.873 18.641,33.944 Z M 18.432,34.866 C 18.429,34.796 18.382,34.68 18.358,34.605 L 18.11,34.769 C 18.079,34.884 17.992,34.94 18.126,35.046 L 18.175,35.002 C 18.199,35.001 18.224,35.022 18.24,35.031 C 18.351,35.016 18.435,34.974 18.432,34.866 Z M 18.177,34.296 L 18.228,34.33 C 18.303,34.386 18.364,34.396 18.446,34.337 C 18.446,34.259 18.412,34.217 18.348,34.167 L 18.302,34.131 C 18.213,34.078 18.189,34.051 18.214,33.958 C 18.074,33.931 18.044,33.985 17.951,34.051 A 0.314,0.314 0 0,1 17.877,34.086 C 17.843,34.243 17.796,34.321 17.85,34.481 L 18.024,34.32 C 18.074,34.243 18.107,34.251 18.177,34.296 Z M 18.037,33.574 C 18.127,33.574 18.171,33.64 18.215,33.646 C 18.248,33.599 18.282,33.571 18.282,33.577 C 18.281,33.552 18.255,33.56 18.241,33.518 C 18.221,33.461 18.208,33.425 18.208,33.385 C 18.206,33.36 18.382,33.18 18.168,33.265 C 18.144,33.275 18.012,33.308 18.012,33.308 C 17.789,33.369 17.777,33.439 17.637,33.604 L 17.634,33.607 C 17.622,33.62 17.618,33.629 17.618,33.629 C 17.618,33.633 17.628,33.649 17.668,33.666 H 17.717 C 17.74,33.666 17.757,33.665 17.774,33.656 L 17.797,33.649 S 18.027,33.572 18.037,33.574 Z M 18.145,32.73 L 18.139,32.738 L 18.123,32.74 A 0.514,0.514 0 0,0 17.84,32.876 L 17.756,32.955 C 17.776,33.009 17.782,33.032 17.8,33.075 L 17.802,33.076 C 17.817,33.135 17.822,33.17 17.918,33.116 C 17.983,33.079 17.975,33.051 17.975,33.051 S 18.085,32.973 18.181,32.973 C 18.217,32.973 18.291,32.941 18.291,32.941 C 18.335,32.894 18.345,32.926 18.361,32.851 L 18.377,32.778 C 18.38,32.751 18.429,32.66 18.385,32.66 L 18.265,32.665 C 18.215,32.665 18.171,32.682 18.145,32.73 Z M 18.376,32.158 L 18.348,32.109 C 18.298,32.034 18.256,32.004 18.195,32.002 C 18.175,32.002 17.932,32.275 17.807,32.397 H 17.802 A 0.518,0.518 0 0,0 17.683,32.522 A 0.186,0.186 0 0,1 17.633,32.555 L 17.573,32.58 C 17.498,32.624 17.493,32.645 17.487,32.707 L 17.703,32.665 C 17.929,32.46 18.283,32.462 18.376,32.158 Z M 20.908,31.268 C 20.782,31.35 20.713,31.576 20.518,31.645 L 20.648,31.74 C 20.903,31.684 21.201,31.683 21.307,31.438 L 21.437,31.268 L 21.452,31.265 C 21.456,31.265 21.47,31.262 21.485,31.262 L 21.493,31.26 C 21.526,31.26 21.523,31.27 21.533,31.288 L 21.569,31.298 C 21.621,31.273 21.609,31.256 21.609,31.228 C 21.609,31.21 21.604,31.188 21.597,31.151 V 31.113 A 0.348,0.348 0 0,0 21.389,31.039 C 21.261,31.039 21.053,31.279 21.031,31.438 L 21.028,31.454 L 21.011,31.459 A 0.108,0.108 0 0,1 20.971,31.466 C 20.926,31.466 20.974,31.406 20.945,31.392 L 20.94,31.387 L 20.938,31.267 H 20.908 V 31.268 Z M 20.15,30.446 L 20.16,30.438 C 20.287,30.364 20.491,30.321 20.497,30.236 A 0.199,0.199 0 0,0 20.36,30.186 C 20.247,30.186 20.132,30.274 20.137,30.388 C 20.137,30.403 20.14,30.418 20.144,30.431 L 20.15,30.446 Z M 17.871,31.733 A 0.178,0.178 0 0,1 17.861,31.789 C 17.826,31.878 17.786,31.97 17.785,32.012 C 17.835,31.994 17.986,31.888 18.003,31.839 L 18.028,31.785 A 0.186,0.186 0 0,1 18.158,31.667 H 18.17 L 18.21,31.668 A 0.389,0.389 0 0,0 18.41,31.602 L 18.474,31.557 C 18.554,31.499 18.629,31.454 18.726,31.453 H 18.764 L 18.769,31.459 C 18.813,31.495 18.853,31.51 18.887,31.509 C 18.919,31.509 18.951,31.495 18.987,31.463 L 19.042,31.404 C 19.088,31.352 19.128,31.312 19.189,31.312 C 19.226,31.312 19.262,31.326 19.309,31.357 A 0.567,0.567 0 0,0 19.589,31.15 L 19.644,31.053 L 19.656,31.051 C 19.665,31.047 19.673,31.047 19.682,31.047 C 19.736,31.045 19.749,31.101 19.751,31.13 V 31.18 C 19.756,31.23 19.761,31.268 19.807,31.293 C 19.825,31.299 19.84,31.302 19.854,31.302 C 19.884,31.302 19.909,31.288 19.934,31.254 C 19.973,31.21 19.978,31.204 20.02,31.17 C 20.002,31.152 19.98,31.132 19.976,31.095 C 19.976,31.065 19.992,31.033 20.023,31 C 20.062,30.967 20.07,30.942 20.069,30.908 A 0.128,0.128 0 0,0 20.063,30.87 A 0.639,0.639 0 0,0 19.834,30.824 C 19.767,30.826 19.709,30.844 19.678,30.894 L 19.673,30.902 L 19.664,30.904 C 19.444,30.967 19.291,31.232 19.024,31.25 L 19.02,31.253 L 19.01,31.25 A 0.578,0.578 0 0,0 18.723,31.167 C 18.589,31.167 18.486,31.235 18.385,31.315 L 18.265,31.416 A 0.755,0.755 0 0,1 18.137,31.507 C 18.065,31.555 17.979,31.559 17.904,31.564 C 17.879,31.564 17.855,31.56 17.834,31.562 H 17.824 C 17.774,31.564 17.756,31.575 17.755,31.578 V 31.581 C 17.74,31.598 17.855,31.626 17.871,31.733 Z M 18.051,31.206 L 18.142,31.16 C 18.332,30.948 18.593,30.893 18.82,30.783 L 18.833,30.778 L 18.845,30.784 A 0.186,0.186 0 0,0 18.955,30.807 C 19.045,30.802 19.112,30.737 19.21,30.723 C 19.252,30.717 19.298,30.733 19.342,30.77 C 19.377,30.78 19.41,30.782 19.44,30.778 C 19.555,30.766 19.627,30.69 19.71,30.588 L 19.746,30.536 C 19.766,30.513 19.793,30.498 19.788,30.456 L 19.787,30.452 C 19.757,30.452 19.683,30.503 19.627,30.512 A 0.06,0.06 0 0,1 19.579,30.496 A 0.063,0.063 0 0,1 19.557,30.452 C 19.554,30.394 19.603,30.359 19.677,30.325 C 19.821,30.27 19.993,30.173 19.973,30.128 C 19.971,30.118 19.955,30.11 19.904,30.116 C 19.849,30.124 19.778,30.172 19.709,30.177 C 19.676,30.182 19.659,30.239 19.627,30.231 L 19.579,30.248 H 19.571 A 0.176,0.176 0 0,0 19.501,30.241 C 19.365,30.245 19.394,30.386 19.327,30.508 L 19.316,30.527 L 19.299,30.52 L 19.259,30.508 H 19.256 C 19.229,30.51 19.196,30.511 19.183,30.513 C 18.718,30.855 18.277,30.423 17.923,31.097 C 17.917,31.103 17.917,31.109 17.917,31.116 C 17.917,31.144 17.987,31.194 18.051,31.206 Z M 19.998,31.499 A 0.106,0.106 0 0,0 19.948,31.49 A 0.083,0.083 0 0,0 19.892,31.506 L 19.882,31.511 L 19.876,31.515 L 19.861,31.523 C 19.848,31.531 19.839,31.538 19.816,31.541 L 19.806,31.538 A 0.079,0.079 0 0,1 19.758,31.501 L 19.568,31.687 H 19.559 C 19.454,31.699 19.327,31.771 19.201,31.776 A 0.235,0.235 0 0,1 19.041,31.719 A 0.5,0.5 0 0,0 18.932,31.706 C 18.76,31.706 18.671,31.848 18.487,31.915 C 18.499,31.983 18.512,32 18.557,32 C 18.577,32.002 18.601,31.994 18.635,31.986 L 18.717,31.956 L 18.727,31.973 A 0.138,0.138 0 0,1 18.755,32.036 C 18.755,32.085 18.726,32.118 18.692,32.161 L 18.646,32.204 C 18.602,32.252 18.576,32.295 18.578,32.346 C 18.578,32.351 18.581,32.361 18.581,32.37 A 0.094,0.094 0 0,0 18.628,32.387 C 18.659,32.387 18.701,32.347 18.742,32.304 L 18.802,32.247 A 0.08,0.08 0 0,1 18.862,32.211 C 19.048,32.177 19.145,32.088 19.323,32.028 A 0.46,0.46 0 0,1 19.317,31.97 C 19.315,31.928 19.32,31.892 19.343,31.865 C 19.367,31.84 19.405,31.831 19.451,31.829 C 19.475,31.829 19.501,31.831 19.533,31.835 L 19.651,31.851 A 0.53,0.53 0 0,0 19.766,31.861 A 0.243,0.243 0 0,0 19.936,31.805 L 19.953,31.79 L 19.971,31.807 A 0.21,0.21 0 0,0 20.107,31.853 C 20.143,31.853 20.177,31.844 20.213,31.829 A 0.556,0.556 0 0,1 20.478,31.789 C 20.432,31.716 20.382,31.684 20.262,31.68 C 20.235,31.699 20.213,31.71 20.192,31.71 C 20.128,31.705 20.115,31.65 20.092,31.61 C 20.072,31.563 20.048,31.52 19.998,31.499 Z M 24.06,33.505 C 24.032,33.522 24,33.551 23.972,33.574 C 23.919,33.608 23.903,33.599 23.844,33.59 C 23.859,33.69 23.883,33.75 23.999,33.76 C 24.067,33.771 24.112,33.766 24.183,33.788 A 0.32,0.32 0 0,1 24.271,33.691 C 24.29,33.658 24.321,33.627 24.315,33.577 C 24.237,33.459 24.161,33.433 24.06,33.505 Z M 24.482,32.327 V 32.323 C 24.455,32.213 24.43,32.205 24.329,32.203 L 24.212,32.221 C 24.189,32.221 24.026,32.323 24.002,32.327 L 23.942,32.42 A 0.383,0.383 0 0,0 23.878,32.608 C 23.881,32.634 23.888,32.659 23.904,32.688 L 23.912,32.698 L 23.905,32.717 C 23.85,32.782 23.77,32.747 23.725,32.81 A 0.206,0.206 0 0,0 23.722,32.846 C 23.724,32.882 23.742,32.903 23.784,32.938 L 23.857,32.996 L 23.837,33.016 C 23.776,33.086 23.687,33.086 23.62,33.095 C 23.572,33.112 23.569,33.125 23.569,33.138 C 23.566,33.171 23.624,33.234 23.66,33.269 A 0.302,0.302 0 0,1 23.82,33.214 C 23.85,33.214 23.883,33.218 23.913,33.236 C 24.075,33.201 24.14,33.151 24.133,33.086 C 24.133,33.054 24.117,33.015 24.08,32.962 C 24.037,32.898 23.987,32.84 23.984,32.767 C 23.98,32.722 24.001,32.674 24.049,32.627 C 24.051,32.594 24.074,32.554 24.125,32.554 L 24.198,32.499 C 24.255,32.485 24.482,32.381 24.482,32.327 Z" fill="rgb(254, 254, 253)"/>
<path d="M 20.247999999999998,32.296 L 20.238,32.326 L 20.078,32.142 C 20.049,32.138 20.02,32.105 19.992,32.106 C 19.828,32.109 19.687,32.176 19.62,32.3 L 19.61,32.32 L 19.593,32.31 A 0.191,0.191 0 0,0 19.542,32.3 C 19.482,32.3 19.431,32.349 19.363,32.379 L 19.352,32.381 L 19.342,32.375 A 0.17,0.17 0 0,0 19.242,32.341 C 19.181,32.341 19.127,32.394 19.072,32.455 C 19.036,32.495 19.008,32.511 18.975,32.511 A 0.25,0.25 0 0,1 18.899,32.498 C 18.951,32.648 19.048,32.654 19.262,32.688 C 19.396,32.665 19.593,32.618 19.665,32.513 L 19.669,32.507 L 19.679,32.505 C 19.687,32.503 19.693,32.503 19.701,32.503 C 19.819,32.503 19.936,32.591 20.041,32.589 A 0.18,0.18 0 0,0 20.17,32.532 L 20.178,32.523 H 20.188 A 0.229,0.229 0 0,0 20.235,32.53 A 0.444,0.444 0 0,0 20.414,32.476 L 20.479,32.434 A 0.287,0.287 0 0,1 20.597,32.388 C 20.643,32.387 20.687,32.412 20.733,32.455 A 0.362,0.362 0 0,0 20.867,32.475 A 0.842,0.842 0 0,0 21.196,32.383 L 21.249,32.345 C 21.307,32.275 21.356,32.205 21.396,32.124 L 21.401,32.117 L 21.411,32.113 L 21.45,32.11 C 21.533,32.109 21.688,32.069 21.775,32.065 A 0.27,0.27 0 0,0 21.828,32.06 C 22.02,32 22.244,31.778 22.286,31.66 C 22.286,31.66 22.161,31.671 22.085,31.67 C 22.01,31.672 21.372,31.83 20.985,32.178 A 0.363,0.363 0 0,1 20.772,32.245 C 20.676,32.248 20.583,32.224 20.493,32.227 A 0.34,0.34 0 0,0 20.258,32.311 Z M 24.557,32.755 L 24.482,32.74 C 24.398,32.722 24.418,32.725 24.33,32.788 A 0.173,0.173 0 0,0 24.314,32.872 C 24.316,32.916 24.341,32.948 24.428,32.986 L 24.438,32.991 L 24.444,33.001 C 24.444,33.004 24.452,33.023 24.452,33.047 A 0.165,0.165 0 0,1 24.372,33.197 C 24.4,33.299 24.439,33.322 24.49,33.322 C 24.535,33.324 24.561,33.297 24.624,33.258 C 24.653,33.234 24.62,33.218 24.651,33.201 C 24.659,33.151 24.679,33.113 24.678,33.082 C 24.672,32.938 24.721,32.784 24.557,32.755 Z M 22.306,31.402 C 22.486,31.309 22.799,31.417 22.78,31.091 C 22.548,30.931 22.298,31.081 22.199,31.268 C 22.16,31.338 22.197,31.397 22.257,31.423 L 22.306,31.403 Z M 21.915,31.132 C 22.106,31.074 22.177,30.806 22.116,30.739 C 21.962,30.736 21.951,30.752 21.847,30.85 L 21.809,30.883 C 21.759,30.916 21.765,30.876 21.718,30.94 L 21.691,31.02 L 21.718,31.072 C 21.755,31.143 21.818,31.177 21.915,31.132 Z M 21.081,30.618 C 21.084,30.708 21.149,30.7 21.275,30.74 A 0.132,0.132 0 0,1 21.356,30.8 A 0.733,0.733 0 0,1 21.624,30.523 L 21.619,30.52 A 0.241,0.241 0 0,0 21.482,30.479 C 21.356,30.483 21.206,30.553 21.082,30.574 V 30.618 Z M 21.26,30.153 V 30.137 C 21.258,30.117 21.248,30.102 21.22,30.082 L 21.18,30.052 C 21.176,30.049 21.165,30.044 21.15,30.03 C 21.143,30.029 21.135,30.029 21.13,30.026 C 21.118,30.026 21.11,30.03 21.093,30.044 L 21.07,30.054 L 21.06,30.06 L 21.049,30.055 C 21.032,30.049 21.015,30.048 21.002,30.046 C 20.899,30.042 20.714,30.361 20.673,30.469 L 20.751,30.472 C 20.9,30.47 21.156,30.254 21.26,30.153 Z M 21.898,30.356 C 21.93,30.361 21.968,30.368 22.004,30.376 C 22.091,30.332 22.099,30.256 22.096,30.172 L 22.095,30.121 C 22.106,30.067 22.029,30.007 21.971,30.031 C 21.877,30.06 21.816,30.163 21.787,30.243 L 21.764,30.316 L 21.751,30.364 C 21.809,30.352 21.834,30.346 21.898,30.356 Z M 24.952,33.4 C 24.941,33.47 24.895,33.498 24.851,33.516 C 24.904,33.553 24.961,33.584 24.999,33.591 C 25.05,33.595 25.071,33.586 25.091,33.492 A 0.4,0.4 0 0,0 25.093,33.456 C 25.1,33.4 25.096,33.342 25.102,33.289 A 0.222,0.222 0 0,1 25.206,33.127 L 25.124,33.028 C 24.99,33.043 24.951,33.075 24.94,33.142 A 0.338,0.338 0 0,0 24.944,33.246 L 24.947,33.316 C 24.954,33.34 24.958,33.362 24.954,33.382 L 24.951,33.395 C 24.953,33.397 24.951,33.4 24.951,33.4 Z M 24.521,33.715 L 24.493,33.745 L 24.462,33.795 C 24.424,33.863 24.421,33.907 24.35,33.922 C 24.371,33.956 24.382,33.958 24.435,33.96 H 24.452 L 24.482,33.958 C 24.61,33.903 24.758,33.861 24.747,33.754 A 0.151,0.151 0 0,0 24.734,33.694 A 0.223,0.223 0 0,0 24.638,33.665 C 24.594,33.666 24.559,33.656 24.521,33.715 Z M 22.497,30.606 C 22.566,30.561 22.626,30.517 22.621,30.426 C 22.545,30.326 22.447,30.33 22.357,30.398 A 0.517,0.517 0 0,0 22.174,30.616 L 22.301,30.683 C 22.369,30.658 22.43,30.645 22.497,30.606 Z M 22.922,30.934 C 22.934,31.067 22.974,31.169 23.142,31.194 C 23.182,31.076 23.167,31.101 23.282,31.056 L 23.359,31.046 A 0.47,0.47 0 0,0 23.469,31.006 C 23.527,30.963 23.556,30.857 23.556,30.791 C 23.317,30.692 23.083,30.733 22.922,30.934 Z M 23.049,31.875 L 23.126,31.813 C 23.212,31.724 23.434,31.793 23.462,31.555 C 23.282,31.367 23.025,31.522 22.975,31.69 C 23.084,31.775 22.989,31.823 23.049,31.875 Z M 24.15,33.997 C 24.004,33.804 23.784,33.942 23.707,34.074 C 23.715,34.167 23.744,34.226 23.855,34.231 C 23.926,34.131 24.092,34.202 24.151,33.997 Z M 23.692,33.577 V 33.575 C 23.692,33.564 23.681,33.535 23.67,33.492 C 23.597,33.4 23.455,33.462 23.336,33.419 C 23.277,33.455 22.923,33.633 22.939,33.878 C 22.942,33.92 22.907,33.92 22.935,33.96 L 22.942,33.975 L 22.934,33.985 C 22.863,34.089 22.749,34.115 22.642,34.153 H 22.633 L 22.625,34.148 A 0.371,0.371 0 0,0 22.465,34.104 C 22.35,34.104 22.281,34.198 22.217,34.285 L 22.187,34.33 L 22.163,34.371 C 22.118,34.419 22.091,34.442 22.056,34.442 C 21.993,34.437 22.026,34.39 21.961,34.342 C 21.935,34.352 21.837,34.393 21.842,34.449 V 34.459 L 21.9,34.493 C 21.92,34.539 21.969,34.666 22.062,34.661 C 22.07,34.662 22.082,34.661 22.102,34.659 C 22.132,34.669 22.159,34.671 22.181,34.671 C 22.321,34.675 22.331,34.499 22.425,34.393 L 22.434,34.386 L 22.442,34.389 H 22.499 C 22.789,34.386 22.869,34.196 23.177,34.139 L 23.255,34.069 C 23.228,33.976 23.242,33.936 23.189,33.877 L 23.185,33.869 L 23.187,33.861 C 23.205,33.747 23.333,33.744 23.395,33.714 H 23.398 A 0.176,0.176 0 0,0 23.475,33.653 C 23.475,33.605 23.502,33.574 23.541,33.574 H 23.561 L 23.611,33.573 L 23.681,33.576 H 23.692 M 24.468,28.952 S 24.47,28.952 24.471,28.95 A 0.496,0.496 0 0,1 24.596,28.847 L 24.604,28.845 C 24.626,28.84 24.647,28.831 24.675,28.823 C 24.839,28.778 24.915,28.743 24.97,28.573 C 24.944,28.529 24.95,28.529 24.943,28.532 L 24.935,28.533 C 24.929,28.533 24.926,28.53 24.925,28.532 C 24.912,28.53 24.898,28.53 24.881,28.53 C 24.718,28.627 24.475,28.764 24.443,28.932 C 24.443,28.939 24.45,28.94 24.45,28.941 C 24.46,28.947 24.467,28.955 24.468,28.952 Z M 25.256,29.883 C 25.309,29.789 25.307,29.769 25.326,29.666 L 25.323,29.596 C 25.288,29.57 25.257,29.558 25.239,29.558 C 25.228,29.558 25.224,29.558 25.217,29.566 A 0.567,0.567 0 0,0 25.042,30 C 25.046,30.113 25.045,30.088 25.075,30.177 L 25.132,30.119 C 25.141,29.974 25.192,30.009 25.256,29.883 Z M 24.071,31.99 C 24.097,31.956 24.077,31.933 24.136,31.899 C 24.189,31.866 24.208,31.829 24.268,31.809 C 24.248,31.794 24.231,31.779 24.209,31.764 L 24.171,31.729 C 24.137,31.706 24.111,31.686 24.071,31.686 C 23.964,31.714 23.905,31.773 23.841,31.858 C 23.801,31.905 23.803,31.914 23.795,31.933 C 23.783,31.951 23.77,31.963 23.737,31.98 C 23.816,32.043 23.883,32.085 23.935,32.085 C 23.975,32.085 24.015,32.063 24.071,31.99 Z M 23.581,31.416 L 23.62,31.469 C 23.636,31.489 23.652,31.512 23.672,31.536 C 23.758,31.623 23.756,31.57 23.865,31.576 C 23.865,31.576 23.833,31.506 23.877,31.43 C 23.913,31.37 23.934,31.32 23.975,31.268 L 23.944,31.228 C 23.875,31.126 23.819,31.089 23.714,31.14 C 23.662,31.243 23.524,31.263 23.581,31.416 Z M 22.85,30.41 C 22.813,30.466 22.845,30.505 22.896,30.528 L 22.942,30.508 C 23.102,30.44 23.379,30.517 23.366,30.271 C 23.162,30.151 22.936,30.27 22.849,30.41 Z M 23.098,29.807 C 23.179,29.759 23.245,29.713 23.242,29.614 C 23.154,29.507 23.044,29.512 22.942,29.584 A 0.617,0.617 0 0,0 22.733,29.822 L 22.879,29.892 C 22.956,29.863 23.022,29.848 23.099,29.807 Z M 23.79,30.276 C 23.815,30.204 23.803,30.22 23.878,30.192 L 23.927,30.186 C 23.942,30.182 23.983,30.172 23.994,30.162 C 24.032,30.137 24.051,30.075 24.051,30.034 C 23.901,29.974 23.754,29.999 23.651,30.119 C 23.658,30.199 23.683,30.261 23.789,30.276 Z M 25.159,30.818 C 25.203,30.785 25.224,30.705 25.225,30.654 C 25.042,30.579 24.863,30.611 24.739,30.762 C 24.749,30.865 24.78,30.942 24.909,30.963 C 24.94,30.871 24.926,30.892 25.015,30.858 L 25.075,30.848 A 0.243,0.243 0 0,0 25.159,30.818 Z M 23.928,30.476 C 23.883,30.554 23.764,30.574 23.811,30.692 L 23.845,30.734 C 23.859,30.75 23.872,30.767 23.891,30.784 C 23.964,30.853 23.964,30.812 24.057,30.816 C 24.057,30.816 24.028,30.759 24.065,30.705 C 24.097,30.655 24.115,30.617 24.15,30.576 L 24.124,30.545 C 24.065,30.465 24.018,30.434 23.928,30.475 Z M 24.509,31.14 L 24.489,30.988 C 24.494,30.906 24.41,30.908 24.364,30.925 C 24.364,30.99 24.351,31 24.277,31.01 L 24.237,31.018 C 24.223,31.023 24.207,31.023 24.191,31.03 C 24.152,31.052 24.136,31.08 24.129,31.123 C 24.237,31.22 24.394,31.18 24.509,31.14 Z M 24.4,31.626 L 24.439,31.623 C 24.485,31.57 24.778,31.649 24.699,31.468 C 24.621,31.369 24.495,31.441 24.384,31.45 C 24.338,31.49 24.349,31.586 24.4,31.626 Z M 26.309,28.371 C 26.284,28.409 26.269,28.441 26.225,28.447 C 25.963,28.597 25.854,28.634 25.854,28.634 C 25.855,28.654 25.816,28.757 25.811,28.777 L 25.728,28.853 A 0.297,0.297 0 0,0 25.696,28.977 C 25.697,28.999 25.654,28.975 25.664,29.007 V 29.015 C 25.658,29.092 25.573,29.104 25.54,29.135 L 25.442,29.194 C 25.376,29.25 25.326,29.304 25.326,29.304 L 25.388,29.356 S 25.646,29.252 25.837,29.196 C 25.903,29.188 25.93,29.096 26.013,29.049 L 26.021,29.044 H 26.031 C 26.062,29.06 26.053,29.07 26.059,29.079 L 26.072,29.113 L 26.087,29.173 L 26.091,29.182 L 26.088,29.188 C 26.096,29.263 26.373,29.364 26.448,29.371 A 0.638,0.638 0 0,0 26.59,29.385 C 26.778,29.383 26.904,29.288 26.982,29.104 A 0.348,0.348 0 0,0 26.866,29.084 A 0.261,0.261 0 0,0 26.748,29.114 C 26.693,29.139 26.653,29.171 26.593,29.171 A 0.216,0.216 0 0,1 26.476,29.134 L 26.451,29.122 L 26.463,29.097 C 26.579,28.865 26.633,28.86 26.898,28.792 C 27.038,28.776 27.041,28.664 27.044,28.54 A 0.366,0.366 0 0,0 26.928,28.519 C 26.73,28.519 26.625,28.729 26.434,28.839 A 0.076,0.076 0 0,1 26.404,28.845 C 26.348,28.84 26.234,28.813 26.217,28.723 C 26.217,28.713 26.217,28.705 26.22,28.698 C 26.24,28.637 26.34,28.57 26.438,28.484 C 26.538,28.404 26.631,28.309 26.627,28.281 V 28.276 C 26.627,28.266 26.618,28.256 26.599,28.246 C 26.582,28.24 26.562,28.236 26.559,28.234 A 0.381,0.381 0 0,0 26.5,28.228 C 26.442,28.228 26.401,28.265 26.355,28.316 L 26.309,28.371 Z" fill="rgb(254, 254, 253)"/>
<path d="M 24.927999999999997,28.177 L 24.944,28.187 H 25.026 C 25.036,28.187 25.026,28.187 25.046,28.183 C 25.074,28.187 25.033,28.241 25.082,28.273 C 25.087,28.279 25.094,28.282 25.104,28.279 C 25.161,28.285 25.277,28.166 25.377,28.091 A 0.127,0.127 0 0,1 25.443,28.067 C 25.503,28.067 25.533,28.113 25.55,28.124 L 25.567,28.136 L 25.561,28.157 C 25.511,28.315 25.505,28.417 25.314,28.48 L 25.249,28.549 C 25.248,28.584 25.238,28.645 25.204,28.709 C 25.204,28.709 25.14,28.762 25.036,28.877 C 24.932,28.985 24.828,29.122 24.836,29.158 L 24.838,29.165 H 24.846 C 24.906,29.17 25.066,29.072 25.204,28.995 L 25.208,28.99 H 25.214 C 25.511,28.944 25.437,28.609 25.608,28.431 L 25.624,28.412 L 25.927,28.142 A 0.11,0.11 0 0,1 25.961,28.082 C 26.008,28.041 26.054,28.014 26.084,27.946 A 0.052,0.052 0 0,0 26.087,27.92 C 26.087,27.848 26.096,27.701 26.014,27.567 L 26.008,27.56 L 26.011,27.548 C 26.024,27.505 26.065,27.493 26.101,27.493 L 26.191,27.443 A 0.138,0.138 0 0,0 26.314,27.37 C 26.354,27.32 26.378,27.312 26.374,27.273 C 26.371,27.215 26.33,27.167 26.178,27.16 H 26.096 A 0.258,0.258 0 0,1 26.052,27.2 A 0.333,0.333 0 0,1 25.937,27.326 L 25.931,27.33 H 25.923 C 25.916,27.33 25.907,27.328 25.902,27.33 C 25.843,27.33 25.862,27.42 25.838,27.43 C 25.776,27.47 25.776,27.453 25.773,27.493 C 25.776,27.56 25.748,27.599 25.741,27.605 L 25.808,27.76 C 25.796,27.792 25.773,27.84 25.718,27.854 C 25.68,27.855 25.516,27.73 25.502,27.784 C 25.426,28.019 25.175,28.008 24.968,28.033 C 24.76,28.067 24.638,28.063 24.652,28.402 V 28.405 H 24.656 C 24.838,28.402 24.819,28.312 24.938,28.192 Z M 25.612,33.59 C 25.551,33.543 25.453,33.627 25.453,33.627 C 25.27,33.733 25.085,33.633 25.122,33.93 C 25.298,34.016 25.377,33.847 25.511,33.787 L 25.552,33.821 C 25.606,33.858 25.647,33.847 25.704,33.826 L 25.694,33.735 S 25.675,33.633 25.612,33.59 Z M 24.874,34.544 L 24.827,34.547 C 24.865,34.637 24.896,34.675 25.007,34.679 C 25.085,34.689 25.098,34.682 25.144,34.733 L 25.172,34.714 C 25.248,34.656 25.262,34.542 25.255,34.464 C 25.085,34.4 25.018,34.538 24.875,34.544 Z M 19.74,35.268 C 19.787,35.181 19.805,35.168 19.915,35.211 C 20.093,35.115 19.995,35.011 20.038,34.901 L 19.962,34.866 C 19.836,35.16 19.431,34.958 19.255,35.261 A 0.677,0.677 0 0,0 19.309,35.771 L 19.44,35.811 C 19.567,35.652 19.41,35.468 19.51,35.378 C 19.653,35.422 19.708,35.331 19.74,35.268 Z M 18.478,35.3 L 18.442,35.334 C 18.416,35.368 18.385,35.392 18.35,35.424 C 18.416,35.474 18.459,35.495 18.52,35.443 C 18.548,35.423 18.58,35.391 18.621,35.393 C 18.689,35.361 18.745,35.359 18.713,35.26 C 18.606,35.189 18.543,35.23 18.478,35.3 Z M 20.197,35.501 L 20.247,35.494 L 20.297,35.511 C 20.359,35.556 20.339,35.584 20.329,35.614 L 20.481,35.606 C 20.54,35.574 20.551,35.526 20.546,35.473 L 20.543,35.415 L 20.533,35.378 L 20.536,35.35 A 1.33,1.33 0 0,1 20.421,35.31 L 20.338,35.28 A 0.636,0.636 0 0,0 20.105,35.233 L 20.069,35.435 C 20.095,35.487 20.137,35.505 20.197,35.501 Z M 19.912,35.587 C 19.674,35.735 19.748,35.915 19.69,36.139 C 19.835,36.212 19.895,36.192 19.92,36.049 L 19.93,35.98 C 19.935,35.963 19.943,35.948 19.95,35.93 C 19.975,35.875 20.006,35.865 20.055,35.85 C 20.037,35.748 20.023,35.645 19.912,35.587 Z M 30.809,23.457 C 30.819,23.467 30.822,23.471 30.831,23.477 A 0.085,0.085 0 0,0 30.851,23.48 H 30.867 V 23.479 H 30.874 C 30.901,23.471 30.886,23.471 30.891,23.466 C 30.893,23.462 30.893,23.457 30.901,23.439 C 30.901,23.422 30.904,23.4 30.907,23.379 C 30.913,23.335 31.003,23.226 31.003,23.194 C 31.003,23.19 31.008,23.19 30.995,23.179 A 0.272,0.272 0 0,0 30.932,23.131 A 0.353,0.353 0 0,0 30.798,23.174 C 30.761,23.204 30.76,23.33 30.758,23.331 V 23.335 L 30.749,23.36 V 23.364 C 30.752,23.388 30.788,23.42 30.79,23.428 C 30.798,23.439 30.803,23.453 30.809,23.458 Z M 28.946,22.706 C 28.906,22.708 28.886,22.727 28.856,22.752 C 28.823,22.784 28.819,22.918 28.818,22.92 L 28.811,22.95 V 22.952 C 28.813,22.979 28.85,23.012 28.851,23.021 C 28.856,23.034 28.866,23.046 28.869,23.051 L 28.893,23.075 C 28.907,23.078 28.907,23.078 28.915,23.078 H 28.935 C 28.964,23.068 28.949,23.065 28.955,23.064 L 28.961,23.034 C 28.964,23.016 28.965,22.992 28.968,22.966 C 28.976,22.922 29.064,22.806 29.064,22.772 C 29.064,22.769 29.018,22.768 29.009,22.755 C 29.005,22.752 28.957,22.706 28.947,22.706 Z M 32.328,23.734 C 32.336,23.783 32.334,23.906 32.343,23.938 C 32.345,23.942 32.343,23.942 32.353,23.954 A 0.651,0.651 0 0,0 32.453,23.994 C 32.479,23.984 32.488,23.963 32.501,23.936 C 32.518,23.895 32.488,23.761 32.488,23.761 V 23.758 L 32.486,23.728 V 23.724 C 32.479,23.699 32.4,23.67 32.396,23.662 A 0.153,0.153 0 0,0 32.377,23.633 A 0.09,0.09 0 0,0 32.356,23.619 L 32.342,23.617 L 32.338,23.619 H 32.331 L 32.327,23.621 C 32.309,23.633 32.319,23.631 32.317,23.636 V 23.668 C 32.322,23.686 32.327,23.71 32.328,23.734 Z M 30.418,23.038 C 30.426,23.052 30.438,23.064 30.448,23.073 C 30.461,23.082 30.467,23.078 30.472,23.082 H 30.503 C 30.523,23.074 30.518,23.072 30.523,23.071 C 30.525,23.063 30.523,23.064 30.523,23.063 C 30.526,23.052 30.523,22.968 30.537,22.865 C 30.561,22.722 30.653,22.515 30.655,22.453 C 30.653,22.449 30.655,22.445 30.648,22.437 A 0.035,0.035 0 0,0 30.615,22.425 C 30.585,22.425 30.568,22.436 30.547,22.451 A 0.232,0.232 0 0,0 30.485,22.506 A 0.631,0.631 0 0,0 30.401,22.658 C 30.388,22.687 30.378,22.711 30.367,22.731 C 30.364,22.743 30.361,22.749 30.358,22.755 C 30.355,22.757 30.355,22.759 30.355,22.762 C 30.355,22.762 30.355,22.764 30.353,22.764 H 30.351 A 0.518,0.518 0 0,1 30.342,22.826 V 22.832 C 30.342,22.876 30.392,22.952 30.396,22.972 C 30.403,22.998 30.414,23.025 30.418,23.038 Z M 29.507,23.135 A 0.593,0.593 0 0,0 29.552,23.081 C 29.555,23.075 29.562,23.001 29.568,22.915 C 29.572,22.833 29.546,22.587 29.547,22.568 C 29.547,22.55 29.53,22.516 29.502,22.538 C 29.472,22.558 29.422,22.665 29.417,22.673 C 29.415,22.683 29.405,22.724 29.401,22.749 L 29.379,22.881 C 29.374,22.901 29.331,23.016 29.297,23.088 C 29.262,23.158 29.073,23.304 29.094,23.328 C 29.112,23.354 29.186,23.368 29.228,23.348 C 29.274,23.328 29.441,23.205 29.462,23.188 A 0.275,0.275 0 0,0 29.507,23.135 Z M 29.172,22.1 C 29.202,22.07 29.227,21.997 29.249,21.977 C 29.254,21.967 29.265,21.913 29.269,21.909 C 29.273,21.907 29.274,21.906 29.274,21.902 C 29.284,21.906 29.296,21.906 29.309,21.906 H 29.329 C 29.356,21.902 29.399,21.868 29.425,21.859 C 29.471,21.845 29.475,21.802 29.475,21.769 C 29.472,21.748 29.475,21.689 29.475,21.642 C 29.475,21.627 29.451,21.639 29.465,21.604 C 29.503,21.524 29.315,21.6 29.315,21.6 C 29.29,21.678 29.27,21.721 29.162,21.85 C 29.105,21.917 29.014,21.978 28.975,22.023 A 0.635,0.635 0 0,1 28.925,22.081 C 28.915,22.098 28.91,22.104 28.909,22.121 C 28.906,22.126 28.907,22.135 28.909,22.141 C 28.909,22.181 28.917,22.237 28.923,22.285 C 28.928,22.315 28.943,22.36 28.955,22.397 C 28.959,22.414 28.965,22.43 28.97,22.446 C 28.976,22.451 28.977,22.458 28.98,22.459 C 28.981,22.462 28.983,22.467 28.986,22.468 C 28.988,22.47 28.993,22.478 29.012,22.478 C 29.015,22.478 29.017,22.475 29.02,22.475 L 29.028,22.47 C 29.047,22.454 29.047,22.437 29.047,22.414 V 22.404 C 29.047,22.403 29.044,22.403 29.044,22.401 C 29.043,22.369 29.051,22.345 29.064,22.261 A 0.466,0.466 0 0,1 29.172,22.1 Z M 29.793,23.656 A 0.406,0.406 0 0,1 29.849,23.551 C 29.851,23.54 29.873,23.549 29.891,23.566 C 29.909,23.584 29.931,23.576 29.931,23.545 A 1.75,1.75 0 0,1 29.985,23.368 C 30.001,23.33 30.053,23.216 30.023,23.164 A 0.425,0.425 0 0,1 29.977,22.998 C 29.981,22.971 30.014,22.895 30.014,22.893 C 30.014,22.89 30.019,22.887 30.023,22.885 C 30.023,22.885 30.055,22.859 30.088,22.825 C 30.124,22.796 30.112,22.651 30.102,22.597 A 1.323,1.323 0 0,1 30.122,22.315 C 30.13,22.273 30.202,22.159 30.192,22.13 C 30.182,22.101 30.145,22.098 30.102,22.125 C 30.059,22.149 29.93,22.291 29.917,22.351 C 29.906,22.411 29.861,22.471 29.869,22.476 C 29.874,22.476 29.899,22.592 29.906,22.596 C 29.914,22.604 29.914,22.616 29.906,22.623 C 29.9,22.632 29.865,22.585 29.83,22.635 A 0.606,0.606 0 0,0 29.776,22.884 C 29.779,22.923 29.816,23.069 29.826,23.11 C 29.836,23.15 29.891,23.336 29.878,23.392 C 29.861,23.45 29.652,23.535 29.647,23.539 H 29.637 C 29.634,23.539 29.629,23.535 29.624,23.535 A 0.316,0.316 0 0,0 29.591,23.542 A 0.315,0.315 0 0,0 29.528,23.63 C 29.52,23.655 29.491,23.73 29.484,23.759 C 29.474,23.785 29.422,23.873 29.406,23.894 C 29.406,23.894 29.254,24.358 29.406,24.262 C 29.448,24.232 29.547,24.11 29.551,24.108 L 29.56,24.106 H 29.564 L 29.594,24.099 C 29.609,24.094 29.632,24.03 29.642,24.004 A 0.978,0.978 0 0,0 29.704,23.836 C 29.716,23.802 29.783,23.685 29.793,23.656 Z M 30.45,25.282 C 30.498,25.259 30.485,25.202 30.526,25.146 C 30.563,25.088 30.751,25.131 30.753,25.136 C 30.753,25.136 30.818,25.066 30.846,25.011 C 30.878,24.957 30.948,24.761 30.99,24.683 C 31.034,24.602 31.04,24.553 31.03,24.543 C 31.008,24.51 30.971,24.523 30.956,24.545 C 30.941,24.57 30.849,24.753 30.82,24.783 C 30.798,24.813 30.704,24.911 30.687,24.928 C 30.666,24.945 30.655,24.936 30.659,24.911 A 0.906,0.906 0 0,1 30.703,24.744 C 30.733,24.679 30.826,24.51 30.857,24.466 A 0.59,0.59 0 0,0 30.897,24.244 C 30.896,24.212 30.883,23.957 30.887,23.938 C 30.892,23.917 30.887,23.844 30.904,23.836 C 30.916,23.828 30.94,23.795 30.94,23.795 S 30.956,23.779 30.958,23.779 C 30.958,23.779 30.962,23.778 30.962,23.776 L 30.952,23.753 C 30.945,23.743 30.918,23.72 30.896,23.735 A 0.73,0.73 0 0,0 30.8,23.894 C 30.786,23.939 30.745,24.061 30.733,24.113 C 30.717,24.161 30.676,24.313 30.665,24.352 A 0.635,0.635 0 0,1 30.615,24.471 C 30.615,24.474 30.612,24.474 30.611,24.474 C 30.605,24.478 30.575,24.51 30.541,24.541 C 30.506,24.579 30.407,24.667 30.373,24.697 C 30.336,24.731 30.202,24.744 30.187,24.744 A 0.254,0.254 0 0,1 30.124,24.732 C 30.105,24.732 30.136,24.656 30.216,24.576 A 0.533,0.533 0 0,0 30.358,24.349 C 30.355,24.334 30.359,24.27 30.361,24.233 C 30.365,24.201 30.412,24.093 30.417,24.076 A 1.03,1.03 0 0,0 30.417,23.976 C 30.417,23.958 30.393,23.917 30.39,23.916 C 30.39,23.909 30.386,23.904 30.387,23.898 C 30.387,23.898 30.397,23.87 30.405,23.839 C 30.417,23.81 30.499,23.759 30.515,23.734 C 30.53,23.706 30.505,23.609 30.505,23.607 A 0.058,0.058 0 0,0 30.497,23.585 C 30.495,23.582 30.495,23.571 30.497,23.57 C 30.498,23.565 30.509,23.522 30.526,23.472 C 30.538,23.426 30.549,23.299 30.549,23.294 C 30.549,23.288 30.487,23.262 30.449,23.326 C 30.415,23.389 30.309,23.571 30.315,23.576 C 30.329,23.579 30.358,23.597 30.367,23.6 C 30.375,23.607 30.367,23.63 30.352,23.651 A 1.094,1.094 0 0,0 30.281,23.767 A 0.79,0.79 0 0,0 30.244,23.946 V 23.978 C 30.244,23.99 30.234,23.997 30.226,23.997 C 30.215,23.997 30.226,24.042 30.186,24.057 C 30.146,24.071 30.163,24.199 30.148,24.244 C 30.136,24.294 30.073,24.386 30.073,24.401 C 30.073,24.417 30.078,24.451 30.079,24.456 A 0.025,0.025 0 0,1 30.073,24.478 L 29.93,24.624 S 29.813,24.758 29.85,24.794 C 29.886,24.825 30.037,24.839 30.058,24.845 C 30.078,24.853 30.001,24.917 29.888,24.985 C 29.772,25.055 29.694,25.135 29.704,25.137 C 29.716,25.14 29.781,25.192 29.808,25.187 C 29.834,25.184 29.926,25.137 29.946,25.132 C 29.965,25.129 30.026,25.063 30.058,25.038 C 30.094,25.016 30.221,24.896 30.261,24.86 A 0.464,0.464 0 0,1 30.439,24.79 C 30.447,24.79 30.474,24.797 30.487,24.799 C 30.5,24.802 30.506,24.817 30.5,24.826 A 5.158,5.158 0 0,1 30.274,25.116 A 3.686,3.686 0 0,0 30.03,25.466 C 30.03,25.468 29.983,25.542 29.992,25.547 C 30.02,25.574 30.052,25.547 30.084,25.545 C 30.12,25.542 30.226,25.428 30.274,25.435 C 30.323,25.434 30.405,25.307 30.451,25.282 Z M 32.554,24.268 C 32.544,24.216 32.434,24.232 32.43,24.258 L 32.41,24.338 C 32.408,24.346 32.413,24.48 32.41,24.512 C 32.405,24.549 32.415,24.698 32.402,24.751 C 32.392,24.805 32.331,24.979 32.319,25.014 C 32.31,25.031 32.305,25.051 32.272,25.054 C 32.24,25.051 32.235,25.028 32.229,25.01 C 32.221,24.976 32.21,24.912 32.199,24.868 A 1.649,1.649 0 0,1 32.203,24.563 A 4.06,4.06 0 0,0 32.221,24.261 V 24.256 A 0.85,0.85 0 0,0 32.186,24.107 A 1.537,1.537 0 0,0 32.084,23.901 S 32.061,23.706 32.053,23.689 C 32.041,23.673 31.97,23.65 31.965,23.701 C 31.971,23.772 31.983,23.938 31.991,23.995 C 32.001,24.062 32.031,24.261 32.033,24.307 C 32.038,24.347 32.043,24.439 32.044,24.455 V 24.457 H 32.043 L 32.045,24.46 A 0.297,0.297 0 0,0 32.04,24.495 L 32.038,24.508 H 32.036 C 32.033,24.51 32.033,24.511 32.033,24.515 A 0.077,0.077 0 0,1 32.027,24.541 A 0.535,0.535 0 0,0 32.002,24.628 C 31.983,24.694 31.904,24.767 31.882,24.838 C 31.842,24.93 31.658,25.031 31.624,25.045 L 31.573,25.105 C 31.545,25.1 31.588,25.027 31.588,25.021 C 31.588,25.015 31.608,24.961 31.612,24.951 C 31.62,24.941 31.619,24.985 31.652,24.845 C 31.68,24.709 31.594,24.618 31.594,24.529 A 0.25,0.25 0 0,0 31.586,24.449 C 31.565,24.387 31.561,24.149 31.546,24.093 C 31.537,24.056 31.53,23.963 31.519,23.956 C 31.515,23.949 31.505,23.945 31.503,23.932 C 31.503,23.927 31.499,23.912 31.495,23.895 V 23.845 C 31.495,23.814 31.495,23.775 31.499,23.745 C 31.501,23.721 31.501,23.669 31.501,23.62 C 31.501,23.588 31.501,23.554 31.499,23.545 A 0.115,0.115 0 0,0 31.476,23.49 A 0.048,0.048 0 0,1 31.465,23.464 L 31.445,23.328 A 0.583,0.583 0 0,0 31.425,23.235 C 31.391,23.208 31.348,23.235 31.346,23.255 C 31.339,23.331 31.258,23.491 31.236,23.552 H 31.247 C 31.257,23.556 31.267,23.56 31.277,23.562 C 31.297,23.565 31.301,23.581 31.305,23.588 C 31.305,23.598 31.309,23.607 31.309,23.617 C 31.309,23.629 31.306,23.637 31.305,23.65 C 31.301,23.68 31.292,23.722 31.288,23.744 V 23.779 C 31.288,23.819 31.289,23.872 31.294,23.904 A 2.309,2.309 0 0,0 31.348,24.107 C 31.348,24.125 31.335,24.377 31.335,24.477 C 31.335,24.524 31.338,24.571 31.344,24.597 C 31.361,24.691 31.351,24.832 31.356,24.842 C 31.361,24.85 31.361,24.857 31.361,24.864 C 31.361,24.866 31.361,24.874 31.357,24.879 L 31.348,24.89 C 31.348,24.894 31.343,24.899 31.338,24.902 C 31.326,24.915 31.314,24.93 31.295,24.949 C 31.262,24.984 31.279,25.039 31.23,25.093 C 31.14,25.186 30.932,25.579 30.932,25.733 C 30.932,25.733 30.907,25.864 30.907,25.821 C 30.914,25.924 30.974,26.04 30.974,26.127 C 30.974,26.124 31.062,26.207 31.064,26.105 C 31.064,26.031 31.05,25.947 31.091,25.821 C 31.175,25.573 31.32,25.311 31.597,25.282 C 31.613,25.273 31.615,25.272 31.63,25.267 H 31.638 C 31.66,25.269 31.665,25.285 31.665,25.292 C 31.669,25.299 31.669,25.307 31.669,25.312 C 31.669,25.381 31.602,25.562 31.549,25.778 C 31.505,25.973 31.473,26.07 31.455,26.15 C 31.463,26.145 31.5,26.211 31.505,26.208 C 31.625,26.238 31.647,26.093 31.66,26.076 C 31.66,26.076 31.665,26.072 31.665,26.07 C 31.669,26.064 31.671,26.056 31.675,26.044 A 1.38,1.38 0 0,0 31.735,25.728 C 31.746,25.55 31.808,25.222 31.832,25.148 C 31.852,25.081 31.94,25.016 31.992,24.981 C 32.01,24.97 32.018,24.964 32.032,24.961 C 32.033,24.959 32.04,24.958 32.044,24.958 C 32.071,24.958 32.09,24.979 32.09,25 V 25.006 C 32.09,25.03 32.164,25.364 32.213,25.746 V 25.756 S 32.183,25.994 32.183,26.266 C 32.183,26.295 32.183,26.322 32.187,26.351 C 32.199,26.599 32.139,26.88 32.221,26.896 C 32.231,26.889 32.263,26.906 32.264,26.876 A 0.5,0.5 0 0,0 32.347,26.618 V 26.598 A 0.151,0.151 0 0,1 32.342,26.568 C 32.344,26.469 32.402,26.343 32.402,26.294 C 32.404,26.224 32.432,26.144 32.432,26.119 C 32.434,26.087 32.434,26.054 32.434,26.032 V 26.019 C 32.434,26.005 32.475,25.763 32.467,25.683 C 32.46,25.603 32.417,25.479 32.417,25.406 H 32.378 A 0.748,0.748 0 0,1 32.425,25.205 V 25.199 C 32.425,25.172 32.475,25.089 32.475,25.051 C 32.477,25.004 32.535,24.746 32.557,24.588 C 32.574,24.473 32.541,24.46 32.547,24.414 C 32.547,24.414 32.579,24.338 32.577,24.338 L 32.554,24.268 Z M 33.652,25.103 C 33.657,25.095 33.626,24.947 33.645,24.848 C 33.661,24.75 33.648,24.514 33.617,24.47 C 33.583,24.43 33.666,24.389 33.665,24.385 C 33.655,24.38 33.652,24.37 33.655,24.36 C 33.657,24.354 33.63,24.261 33.639,24.212 C 33.641,24.162 33.634,24.143 33.633,24.119 C 33.63,24.099 33.637,24.097 33.63,24.068 C 33.623,24.034 33.633,24.028 33.64,24.008 C 33.654,23.981 33.658,23.96 33.661,23.96 C 33.666,23.96 33.681,23.926 33.701,23.893 C 33.705,23.883 33.676,23.696 33.666,23.602 C 33.658,23.507 33.603,23.508 33.603,23.502 C 33.603,23.496 33.551,23.512 33.543,23.701 C 33.54,23.774 33.523,23.871 33.523,23.875 L 33.519,23.887 C 33.515,23.89 33.493,23.895 33.491,23.924 C 33.484,23.982 33.491,24.08 33.493,24.091 C 33.496,24.139 33.496,24.22 33.493,24.236 C 33.491,24.252 33.487,24.203 33.487,24.206 C 33.485,24.211 33.48,24.214 33.477,24.218 C 33.475,24.22 33.468,24.263 33.457,24.319 A 8.072,8.072 0 0,1 33.364,24.639 C 33.342,24.699 33.364,24.903 33.404,25.095 C 33.448,25.285 33.452,25.337 33.416,25.351 C 33.365,25.378 33.216,25.229 33.191,25.157 C 33.168,25.087 33.07,24.933 33.051,24.867 A 4.997,4.997 0 0,1 33.016,24.743 L 33.014,24.738 L 33.011,24.705 C 33.011,24.695 33.016,24.599 33.021,24.555 L 33.064,24.243 C 33.073,24.174 33.089,24.077 33.094,24.021 A 1.164,1.164 0 0,0 33.074,23.758 C 33.064,23.718 33.041,23.721 33.038,23.726 C 32.908,23.721 32.956,23.924 32.945,23.949 C 32.926,23.973 32.989,24.097 32.978,24.113 C 32.968,24.132 32.967,24.177 32.964,24.183 A 0.03,0.03 0 0,0 32.958,24.199 C 32.958,24.202 32.956,24.209 32.953,24.21 C 32.95,24.212 32.833,24.298 32.818,24.348 A 1.182,1.182 0 0,0 32.78,24.504 C 32.78,24.521 32.789,24.731 32.798,24.812 C 32.808,24.892 32.86,25.065 32.855,25.108 C 32.847,25.152 32.833,25.215 32.825,25.25 C 32.822,25.254 32.822,25.259 32.822,25.259 S 32.779,25.472 32.775,25.714 C 32.774,25.818 32.871,25.834 32.887,25.938 C 32.919,26.146 33.007,26.508 33.038,26.568 C 33.073,26.63 33.087,26.668 33.1,26.668 C 33.113,26.667 33.148,26.704 33.165,26.741 C 33.209,26.83 33.231,26.828 33.272,26.857 C 33.311,26.881 33.311,26.814 33.312,26.806 C 33.315,26.796 33.148,26.309 33.083,25.942 C 33.02,25.575 33.053,25.366 33.053,25.351 C 33.053,25.339 33.06,25.299 33.073,25.303 C 33.087,25.307 33.203,25.33 33.228,25.4 C 33.248,25.472 33.338,25.8 33.382,25.974 C 33.424,26.146 33.41,26.233 33.425,26.247 C 33.442,26.262 33.554,26.364 33.589,26.383 C 33.623,26.402 33.657,26.419 33.659,26.419 C 33.661,26.419 33.678,26.289 33.583,26.019 C 33.485,25.754 33.466,25.503 33.487,25.498 C 33.571,25.473 33.803,25.691 33.927,25.962 C 34.05,26.232 34.098,26.34 34.117,26.318 C 34.166,26.263 34.095,26.141 34.07,25.985 C 34.045,25.829 33.873,25.529 33.773,25.422 C 33.67,25.314 33.655,25.122 33.653,25.119 A 0.024,0.024 0 0,1 33.652,25.103 Z M 34.055,24.802 S 34.091,24.795 34.086,24.782 C 34.065,24.711 34.132,24.736 34.14,24.736 C 34.146,24.736 34.16,24.743 34.164,24.747 C 34.166,24.753 34.294,24.951 34.382,25.064 C 34.454,25.154 34.484,25.166 34.495,25.158 C 34.507,25.152 34.422,25.028 34.433,24.943 C 34.448,24.862 34.374,24.774 34.349,24.765 C 34.326,24.754 34.2,24.629 34.184,24.567 C 34.167,24.504 34.094,24.212 34.061,24.134 C 34.025,24.052 34.074,24.006 34.068,24 C 34.061,23.995 34.06,23.982 34.066,23.977 C 34.072,23.97 34.052,23.928 34.056,23.924 A 0.726,0.726 0 0,0 34.07,23.749 C 34.07,23.69 34.049,23.675 34.041,23.683 C 34.034,23.695 33.933,23.968 33.885,24.083 C 33.837,24.198 33.91,24.573 33.975,24.672 C 34.038,24.767 34.052,24.802 34.055,24.802 Z M 27.52,34.37 C 27.569,34.371 27.608,34.362 27.633,34.334 C 27.649,34.282 27.662,34.282 27.66,34.248 A 0.113,0.113 0 0,0 27.599,34.153 C 27.567,34.243 27.512,34.295 27.439,34.295 C 27.381,34.295 27.316,34.264 27.245,34.213 A 0.183,0.183 0 0,1 27.177,34.239 C 27.114,34.273 27.065,34.302 27.069,34.367 V 34.371 L 27.071,34.385 L 27.065,34.392 A 0.096,0.096 0 0,0 27.035,34.459 C 27.035,34.518 27.135,34.589 27.205,34.619 L 27.217,34.495 C 27.243,34.427 27.311,34.409 27.371,34.409 C 27.424,34.409 27.473,34.374 27.521,34.37 Z M 27.415,34.81 C 27.39,34.868 27.399,34.865 27.427,34.926 L 27.456,34.897 C 27.526,34.835 27.699,35.011 27.709,34.802 C 27.626,34.772 27.569,34.724 27.479,34.754 C 27.456,34.786 27.428,34.773 27.415,34.81 Z M 26.776,28.127 C 26.813,28.034 26.797,28.05 26.896,28.014 L 26.966,28.006 A 0.446,0.446 0 0,0 27.06,27.974 C 27.11,27.939 27.135,27.855 27.137,27.801 C 26.93,27.722 26.73,27.756 26.587,27.917 C 26.597,28.024 26.631,28.107 26.776,28.127 Z M 29.707,22.131 A 0.269,0.269 0 0,0 29.765,22.071 C 29.792,22.031 29.78,21.963 29.762,21.928 C 29.575,21.958 29.432,22.063 29.381,22.227 C 29.427,22.295 29.488,22.334 29.605,22.289 C 29.597,22.211 29.594,22.231 29.657,22.166 L 29.707,22.131 Z M 27.453,28.74 C 27.353,28.766 27.299,28.82 27.24,28.899 C 27.202,28.944 27.205,28.947 27.195,28.967 C 27.186,28.984 27.174,28.995 27.144,29.011 C 27.217,29.067 27.277,29.106 27.327,29.105 C 27.363,29.105 27.401,29.085 27.452,29.018 C 27.476,28.988 27.457,28.967 27.512,28.933 C 27.558,28.903 27.578,28.873 27.636,28.852 C 27.614,28.838 27.599,28.822 27.579,28.81 L 27.544,28.778 C 27.512,28.757 27.487,28.738 27.453,28.74 Z M 27.272,30.075 C 27.235,30.119 27.238,30.127 27.228,30.145 C 27.218,30.162 27.206,30.172 27.178,30.187 C 27.248,30.243 27.309,30.288 27.358,30.285 C 27.396,30.285 27.433,30.262 27.483,30.197 C 27.509,30.167 27.49,30.145 27.543,30.111 C 27.593,30.08 27.611,30.049 27.668,30.03 L 27.611,29.988 L 27.577,29.955 C 27.544,29.935 27.521,29.915 27.484,29.917 C 27.387,29.94 27.333,29.999 27.272,30.075 Z M 27.157,28.388 L 27.203,28.403 C 27.223,28.406 27.242,28.413 27.262,28.418 C 27.358,28.432 27.352,28.405 27.46,28.374 C 27.46,28.374 27.418,28.349 27.454,28.298 C 27.484,28.255 27.499,28.227 27.534,28.188 L 27.499,28.176 C 27.416,28.149 27.359,28.149 27.261,28.209 C 27.218,28.276 27.084,28.331 27.157,28.388 Z M 25.969,31.304 A 1.748,1.748 0 0,0 25.963,31.231 A 0.427,0.427 0 0,1 25.971,31.123 L 25.973,31.109 L 25.988,31.103 C 25.999,31.1 26.014,31.089 26.032,31.079 L 26.084,31.049 C 26.11,31.017 26.151,31 26.204,31 C 26.33,30.954 26.515,30.872 26.504,30.77 A 0.222,0.222 0 0,0 26.456,30.665 L 26.445,30.655 L 26.448,30.642 C 26.505,30.42 26.769,30.25 26.938,30.116 A 0.29,0.29 0 0,1 26.907,29.999 C 26.902,29.917 26.947,29.855 27.005,29.78 L 27.061,29.746 C 27.1,29.698 27.123,29.65 27.121,29.601 A 0.154,0.154 0 0,0 27.095,29.526 C 27.06,29.492 27.027,29.476 27.01,29.476 C 26.99,29.476 26.976,29.483 26.957,29.528 L 26.938,29.556 C 26.924,29.596 26.901,29.579 26.871,29.586 A 0.332,0.332 0 0,1 26.659,29.675 C 26.512,29.672 26.405,29.57 26.296,29.576 C 26.281,29.579 26.263,29.579 26.248,29.584 L 26.234,29.586 L 26.224,29.58 C 26.186,29.55 26.163,29.543 26.15,29.543 C 26.11,29.533 26.088,29.645 26.008,29.698 C 25.729,29.836 25.583,30.305 25.593,30.44 C 25.593,30.445 25.594,30.45 25.596,30.451 C 25.684,30.449 26.078,30.133 26.079,30.096 C 26.084,30.089 26.084,30.086 26.084,30.079 C 26.087,30.059 26.043,30.044 26.031,29.989 C 26.031,29.958 26.056,29.943 26.083,29.935 L 26.139,29.915 C 26.196,29.895 26.247,29.868 26.269,29.819 L 26.279,29.803 L 26.302,29.807 C 26.402,29.836 26.589,29.935 26.67,29.995 L 26.69,30.009 L 26.68,30.032 A 0.362,0.362 0 0,1 26.569,30.159 C 26.397,30.279 26.194,30.354 26.206,30.532 C 26.208,30.564 26.216,30.602 26.234,30.646 L 26.237,30.654 L 26.235,30.664 C 26.205,30.804 26.12,30.854 26.016,30.854 C 25.978,30.854 25.939,30.849 25.896,30.846 L 25.767,30.826 A 0.623,0.623 0 0,0 25.656,30.819 A 0.318,0.318 0 0,0 25.403,30.931 C 25.435,30.963 25.453,30.993 25.453,31.026 C 25.455,31.046 25.453,31.064 25.446,31.084 L 25.665,30.962 L 25.68,30.972 C 25.769,31.032 25.783,31.108 25.785,31.177 V 31.317 C 25.788,31.369 25.797,31.406 25.837,31.477 C 25.971,31.417 25.971,31.374 25.969,31.304 Z M 27.673,31.941 C 27.648,32.199 27.39,32.103 27.276,32.261 A 0.356,0.356 0 0,0 27.195,32.496 A 0.23,0.23 0 0,0 27.205,32.561 L 27.218,32.551 C 27.326,32.476 27.404,32.354 27.518,32.266 L 27.522,32.26 H 27.525 L 27.562,32.258 H 27.569 C 27.578,32.258 27.582,32.258 27.594,32.256 H 27.599 C 27.629,32.255 27.606,32.318 27.616,32.335 C 27.696,32.309 27.754,32.252 27.75,32.172 A 0.1,0.1 0 0,0 27.747,32.154 L 27.757,32.138 L 27.758,32.128 A 0.343,0.343 0 0,0 27.894,32 L 27.926,31.948 C 27.968,31.878 27.925,31.898 27.988,31.898 C 28.012,31.898 28.034,31.855 28.064,31.863 C 28.11,31.817 28.16,31.815 28.15,31.786 C 28.15,31.778 28.057,31.766 28.046,31.746 C 27.796,31.762 27.884,31.829 27.673,31.941 Z M 26.91,32.59 A 0.336,0.336 0 0,0 26.846,32.599 C 26.698,32.689 26.634,32.753 26.476,32.755 C 26.441,32.755 26.401,32.753 26.359,32.749 C 26.139,32.955 26.129,33.103 26.129,33.261 L 26.311,33.29 L 26.297,33.185 C 26.287,33.001 26.552,32.943 26.552,32.943 C 26.794,32.843 26.91,32.829 27.058,32.647 A 0.198,0.198 0 0,0 26.91,32.589 Z M 27.58,32.716 C 27.5,32.715 27.559,32.781 27.488,32.837 L 27.478,32.846 L 27.462,32.843 C 27.436,32.838 27.415,32.882 27.393,32.882 C 27.241,32.872 26.949,33.082 26.945,33.09 C 26.838,33.25 26.801,33.388 26.618,33.527 C 26.658,33.555 26.686,33.571 26.715,33.572 C 26.743,33.573 26.778,33.562 26.826,33.523 C 26.868,33.487 26.898,33.431 26.983,33.427 C 27.042,33.201 27.197,33.131 27.446,33.078 V 33.076 L 27.551,32.888 C 27.781,32.833 27.77,32.837 27.862,32.685 A 0.674,0.674 0 0,1 27.712,32.712 L 27.579,32.716 Z M 27.38,33.794 A 0.308,0.308 0 0,1 27.463,33.622 A 0.546,0.546 0 0,1 27.536,33.558 L 27.59,33.518 L 27.556,33.4 L 27.547,33.402 C 27.416,33.426 27.381,33.492 27.334,33.555 L 27.306,33.606 A 0.459,0.459 0 0,1 27.146,33.746 A 0.212,0.212 0 0,1 27.022,33.773 C 26.939,33.778 26.852,33.752 26.785,33.738 C 26.751,33.761 26.748,33.782 26.748,33.816 C 26.748,33.828 26.75,33.842 26.755,33.856 L 26.765,33.926 C 26.765,33.95 26.765,33.963 26.763,33.984 A 0.12,0.12 0 0,0 26.797,33.994 A 0.08,0.08 0 0,0 26.84,33.969 L 26.874,33.921 L 26.886,33.923 L 26.922,33.921 C 26.936,33.923 26.951,33.923 26.963,33.923 C 27,33.921 27.019,33.942 27.033,33.958 C 27.16,33.923 27.319,33.899 27.379,33.794 Z M 26.87,32.018 C 26.888,31.935 26.972,31.89 27.056,31.888 C 27.093,31.888 27.127,31.898 27.159,31.913 L 27.183,31.888 L 27.203,31.751 L 27.211,31.746 C 27.356,31.628 27.356,31.712 27.541,31.687 A 0.293,0.293 0 0,1 27.526,31.597 C 27.516,31.313 27.709,31.235 27.718,30.967 C 27.675,30.926 27.641,30.901 27.599,30.901 C 27.593,30.904 27.585,30.904 27.579,30.904 C 27.541,30.983 27.499,31.059 27.504,31.138 V 31.151 L 27.509,31.171 L 27.49,31.178 C 27.257,31.275 27.442,31.271 27.318,31.464 L 27.308,31.479 L 27.29,31.473 A 0.268,0.268 0 0,0 27.215,31.463 C 27.121,31.463 27.071,31.527 27.021,31.593 L 26.975,31.653 C 26.902,31.743 26.778,31.783 26.769,31.829 C 26.741,32.019 26.66,32.008 26.509,32.151 A 0.196,0.196 0 0,1 26.379,32.211 C 26.322,32.211 26.288,32.179 26.275,32.168 A 0.069,0.069 0 0,1 26.267,32.144 C 26.269,32.114 26.288,32.097 26.291,32.092 C 26.335,32.028 26.387,31.957 26.381,31.892 A 0.13,0.13 0 0,0 26.371,31.842 L 26.364,31.827 L 26.374,31.815 C 26.506,31.666 26.604,31.506 26.664,31.325 A 0.408,0.408 0 0,1 26.99,31.097 L 27.004,31.095 L 27.014,31.109 C 27.032,31.129 27.054,31.139 27.074,31.149 L 27.109,31.167 A 0.113,0.113 0 0,1 27.157,31.2 C 27.203,31.177 27.208,31.17 27.208,31.123 V 31.083 A 0.232,0.232 0 0,1 27.118,30.913 C 27.112,30.786 27.205,30.664 27.258,30.559 A 0.364,0.364 0 0,0 27.116,30.505 C 27.069,30.505 27.041,30.541 27.024,30.651 L 27.014,30.743 C 27.004,30.811 26.989,30.916 26.899,30.953 H 26.89 A 0.223,0.223 0 0,0 26.862,30.952 C 26.611,30.948 26.559,31.236 26.351,31.361 L 26.358,31.533 L 26.353,31.541 C 26.306,31.601 26.234,31.637 26.175,31.681 C 26.153,31.693 26.135,31.715 26.11,31.741 C 26.14,31.774 26.16,31.807 26.163,31.847 C 26.165,31.888 26.148,31.924 26.113,31.969 C 26.029,32.066 25.914,32.089 25.922,32.172 A 0.126,0.126 0 0,1 25.924,32.195 L 25.996,32.241 C 26.126,32.26 26.29,32.412 26.446,32.426 C 26.627,32.322 26.804,32.216 26.871,32.018 Z M 34.102,25.071 C 34.077,25.064 34.119,25.251 34.093,25.245 C 34.154,25.359 34.212,25.501 34.388,25.481 C 34.364,25.35 34.227,25.264 34.154,25.134 L 34.102,25.071 Z M 20.977,35.78 L 21.017,35.77 C 21.071,35.74 21.112,35.712 21.105,35.645 C 21.015,35.582 20.961,35.503 20.871,35.465 C 20.815,35.441 20.78,35.45 20.728,35.475 C 20.793,35.629 20.765,35.695 20.658,35.816 L 20.596,35.886 C 20.496,35.991 20.473,36.051 20.494,36.2 A 0.943,0.943 0 0,0 20.975,35.877 C 20.948,35.831 20.915,35.802 20.977,35.779 Z M 21.63,36.825 C 21.588,36.825 21.546,36.851 21.507,36.878 L 21.484,36.888 L 21.478,36.896 L 21.475,36.906 L 21.468,36.962 L 21.464,36.987 H 21.486 L 21.49,36.982 C 21.526,36.982 21.581,37.022 21.639,37.025 H 21.642 C 21.68,37.025 21.716,37.001 21.742,36.941 L 21.746,36.931 L 21.741,36.924 C 21.711,36.854 21.672,36.825 21.631,36.825 Z M 21.11,36.726 C 20.975,36.694 20.837,36.69 20.701,36.686 L 20.789,36.987 L 20.929,36.982 C 20.931,36.909 20.919,36.877 21.019,36.872 C 21.125,36.872 21.181,36.886 21.257,36.804 L 21.204,36.74 L 21.111,36.726 Z M 20.323,36.179 C 20.178,36.198 20.173,36.273 20.183,36.398 C 20.189,36.442 20.198,36.488 20.195,36.533 C 20.198,36.579 20.216,36.578 20.2,36.61 C 20.2,36.61 20.211,36.659 20.238,36.678 C 20.263,36.701 20.38,36.608 20.38,36.608 C 20.452,36.538 20.436,36.452 20.376,36.339 L 20.323,36.179 Z M 21.468,36.045 C 21.061,35.922 21.211,36.388 21.107,36.505 L 21.143,36.541 A 0.486,0.486 0 0,0 21.413,36.259 C 21.544,36.134 21.709,36.174 21.843,35.996 C 21.687,35.861 21.574,35.913 21.468,36.046 Z M 34.6,17.285 C 34.438,17.422 34.234,17.691 34.012,17.733 C 33.89,17.754 33.552,17.72 33.53,17.654 C 33.51,17.593 33.921,17.3 34.012,17.254 C 34.113,17.199 34.202,17.194 34.339,17.146 C 34.411,17.119 34.587,17.016 34.629,17.021 C 34.709,17.032 34.75,17.082 34.723,17.176 C 34.709,17.23 34.658,17.235 34.6,17.286 Z" fill="rgb(254, 254, 253)"/>
</svg>
