<?xml version="1.0" encoding="UTF-8"?>
<!-- generated by Finnhub -->
<svg viewBox="0 0 55.5 55.5" xmlns="http://www.w3.org/2000/svg">
<path d="M 0,0 H 55.5 V 55.5 H 0 Z" fill="rgb(3, 82, 152)"/>
<path d="M 30.99,29.988 C 31,41.462 30.752,42.96 32,43 V 44 H 24 V 43 C 25.26,43 25,41.46 25,30.086 V 25.181 C 25,14.541 25.266,13.161 24,13.001 V 12 H 32 V 13 C 30.676,13 31,14.5 31,25.181 V 30.003 Z" fill="rgb(228, 180, 56)"/>
<path d="M 39.99,29.788999999999998 V 25.718 C 40,16.075 39.718,15 42,15 V 14 H 33 V 15 C 35.2,15 35,16.075 35,24.458 V 26.004 H 32 V 30 H 35 V 31.695 C 35,40.19 35.388,42 33,42 V 43 H 42 V 42 C 39.63,42 40,40.19 40,29.804 Z M 16,29.801 V 25.743 C 16,16.1 16.267,15.001 14,15.001 V 14 H 23 V 15 C 20.677,15 21,16.1 21,24.482 V 26.004 H 24 V 30 H 21 V 31.692 C 21,40.186 20.55,42 23,42 V 43 H 14 V 42 C 16.524,42 16,40.186 16,29.801 Z" fill="rgb(254, 254, 253)"/>
</svg>
