<?xml version="1.0" encoding="UTF-8"?>
<!-- generated by Finnhub -->
<svg viewBox="0 0 55.5 55.5" xmlns="http://www.w3.org/2000/svg">
<path d="M 0,0 H 55.5 V 55.5 H 0 Z" fill="url(#a)"/>
<path d="M 45.844,18.985 H 10.147 C 7.962,19 7,20.068 7,22.262 V 34.894 C 7,37.089 7.962,38 10.147,38 H 45.854 C 48.04,38 49,37.089 49,34.894 V 22.262 C 49,20.068 48.04,19 45.854,19 Z" fill="rgb(254, 220, 2)"/>
<path d="M 27.991,35.597 C 17.1,35.612 8.88,32.588 8.88,28.58 C 8.88,24.569 17.1,21.545 28.002,21.545 C 38.902,21.545 47.123,24.569 47.123,28.58 C 47.123,32.59 38.903,35.613 28.003,35.613 Z" fill="rgb(254, 254, 253)"/>
<path d="M 34.459,34.634 C 37.627,34.024 40.107,32.885 41.526,31.455 H 41.224 C 39.418,33.106 36.046,34.376 31.772,34.905 C 34.696,34.373 36.912,33.085 38.111,31.455 H 37.824 C 36.388,33.197 33.688,34.546 30.069,35.002 C 32.299,34.529 33.88,33.112 34.695,31.455 H 34.408 C 33.376,33.377 31.343,34.632 29.1,35.031 C 29.064,35.032 29.03,35.034 28.994,35.034 C 30.241,34.514 31.048,32.602 31.279,31.455 H 30.991 C 30.541,33.577 29.201,34.981 28.079,35.042 L 28.002,35.043 H 27.926 C 26.826,34.981 25.46,33.577 25.011,31.455 H 24.724 C 24.954,32.602 25.761,34.514 27.009,35.034 L 26.903,35.031 C 24.66,34.631 22.627,33.377 21.594,31.455 H 21.307 C 22.122,33.113 23.703,34.529 25.935,35.002 C 22.315,34.546 19.613,33.197 18.179,31.455 H 17.891 C 19.091,33.085 21.307,34.373 24.231,34.905 C 19.956,34.376 16.584,33.106 14.778,31.455 H 14.477 C 15.895,32.885 18.375,34.025 21.535,34.649 C 14.475,33.749 9.56,31.402 9.56,28.579 C 9.56,25.755 14.475,23.407 21.535,22.508 C 18.375,23.131 15.895,24.272 14.477,25.702 H 14.777 C 16.584,24.05 19.956,22.78 24.231,22.252 C 21.307,22.784 19.091,24.071 17.891,25.702 H 18.179 C 19.613,23.959 22.315,22.61 25.935,22.154 C 23.703,22.628 22.122,24.044 21.307,25.702 H 21.594 C 22.628,23.779 24.66,22.524 26.904,22.125 C 26.94,22.125 26.975,22.123 27.01,22.122 C 25.761,22.643 24.954,24.554 24.724,25.702 H 25.011 C 25.461,23.579 26.826,22.176 27.926,22.114 H 28.079 C 29.2,22.176 30.541,23.579 30.991,25.702 H 31.279 C 31.048,24.554 30.241,22.643 28.993,22.122 C 29.029,22.122 29.063,22.125 29.099,22.125 C 31.342,22.525 33.375,23.779 34.409,25.702 H 34.695 C 33.88,24.044 32.299,22.628 30.069,22.154 C 33.689,22.61 36.389,23.959 37.824,25.702 H 38.111 C 36.911,24.071 34.696,22.784 31.772,22.252 C 36.046,22.78 39.418,24.05 41.224,25.702 H 41.526 C 40.107,24.272 37.626,23.132 34.466,22.508 C 41.527,23.408 46.443,25.755 46.443,28.578 C 46.443,31.402 41.527,33.748 34.469,34.648 Z M 28.002,21.857 C 17.344,21.857 9.308,24.747 9.308,28.578 C 9.308,32.41 17.344,35.299 28.002,35.299 C 38.658,35.299 46.694,32.409 46.694,28.579 C 46.694,24.747 38.658,21.857 28.002,21.857 Z"/>
<path d="M 16.407,28.969 V 30.479 H 17.5 V 26.667 H 16.418 V 28.05 H 14.135 V 26.667 H 13.055 V 30.48 H 14.135 V 28.984 M 20.175,30.583 C 21.833,30.583 22.4,30.325 22.4,29.191 V 26.666 H 21.319 V 28.962 C 21.319,29.557 21.141,29.709 20.522,29.709 H 19.829 C 19.208,29.709 19.03,29.557 19.03,28.962 V 26.666 H 17.95 V 29.191 C 17.95,30.325 18.516,30.583 20.176,30.583 Z M 23.935,28.926 V 29.678 H 25.642 C 26.116,29.678 26.116,28.926 25.642,28.926 H 23.935 Z M 22.859,26.666 H 25.742 C 26.5,26.666 26.899,26.983 26.899,27.676 C 26.899,28.141 26.679,28.466 26.409,28.573 C 26.829,28.676 27.009,28.965 27.009,29.416 C 27.009,30.346 26.599,30.48 25.742,30.48 H 22.86 V 26.666 Z M 25.536,28.195 C 25.979,28.195 25.979,27.489 25.536,27.489 H 23.936 V 28.195 M 28.467,28.926 V 29.678 H 30.174 C 30.647,29.678 30.647,28.926 30.174,28.926 H 28.467 Z M 27.39,26.666 H 30.274 C 31.031,26.666 31.43,26.983 31.43,27.676 C 31.43,28.141 31.21,28.466 30.94,28.573 C 31.36,28.676 31.54,28.965 31.54,29.416 C 31.54,30.346 31.13,30.48 30.274,30.48 H 27.39 V 26.666 Z M 30.067,28.195 C 30.51,28.195 30.51,27.489 30.067,27.489 H 28.467 V 28.195 M 31.959,30.48 H 35.729 V 29.652 H 33.059 V 28.96 H 35.597 V 28.186 H 33.058 V 27.539 H 35.667 V 26.667 H 31.959 M 36.092,26.667 V 30.48 H 39.66 V 29.652 H 37.173 V 26.667 M 39.939,26.667 V 30.48 H 43.507 V 29.652 H 41.021 V 26.667"/>
<defs>
<linearGradient id="a" x1="10.418" x2="68.147" y1="9.712" y2="76.017" gradientUnits="userSpaceOnUse">
<stop stop-color="rgb(25, 29, 31)" offset="0"/>
<stop stop-color="rgb(5, 5, 8)" offset="1"/>
</linearGradient>
</defs>
</svg>
