<?xml version="1.0" encoding="UTF-8"?>
<!-- generated by Finnhub -->
<svg viewBox="0 0 55.5 55.5" xmlns="http://www.w3.org/2000/svg">
<path d="M 0,0 H 55.5 V 55.5 H 0 Z" fill="rgb(239, 242, 248)"/>
<path d="M 31.99,36.985 V 30 H 24 V 37 H 18.806 A 0.8,0.8 0 0,1 18.236,36.745 A 0.878,0.878 0 0,1 18,36.144 V 29 H 12 V 38.353 C 12,39.32 12.367,40.248 13.02,40.932 A 3.404,3.404 0 0,0 15.482,42 H 40.513 C 41.437,42 42.323,41.616 42.976,40.932 A 3.737,3.737 0 0,0 43.996,38.352 V 29 H 38 V 36.144 A 0.877,0.877 0 0,1 37.76,36.749 A 0.799,0.799 0 0,1 37.183,37 H 32 Z" fill="rgb(34, 30, 30)"/>
<path d="M 23.99,25.985 V 19 H 18.817 A 0.799,0.799 0 0,0 18.239,19.25 A 0.877,0.877 0 0,0 18,19.856 V 27 H 12 V 17.645 C 12,17.166 12.09,16.692 12.265,16.25 C 12.44,15.807 12.697,15.405 13.02,15.067 A 3.473,3.473 0 0,1 14.15,14.277 A 3.344,3.344 0 0,1 15.482,14 H 40.518 C 40.975,14 41.428,14.094 41.85,14.277 C 42.273,14.46 42.657,14.728 42.98,15.067 C 43.303,15.405 43.56,15.807 43.735,16.25 C 43.91,16.692 44,17.166 44,17.645 V 27 H 38 V 19.856 A 0.877,0.877 0 0,0 37.76,19.251 A 0.799,0.799 0 0,0 37.183,19 H 32 V 26 H 24 Z" fill="rgb(1, 170, 198)"/>
</svg>
