<?xml version="1.0" encoding="UTF-8"?>
<!-- generated by Finnhub -->
<svg viewBox="0 0 55.5 55.5" xmlns="http://www.w3.org/2000/svg">
<path d="M 0,0 H 55.5 V 55.5 H 0 Z" fill="rgb(53, 75, 113)"/>
<path d="M 11.99,11.985 H 44 V 32 H 39.993 V 16 H 15.999 V 40 H 21.997 V 44 H 12 V 12 Z" fill="rgb(153, 207, 228)"/>
<path d="M 24.99,34.985 H 27 V 44 H 25 V 35 Z M 35,35.536 V 37.228 C 33.608,36.485 31.724,36.202 30.39,37.362 A 3.124,3.124 0 0,0 30.39,41.574 C 31.58,42.889 33.595,42.611 35,41.861 V 43.449 A 6.086,6.086 0 0,1 33.736,43.862 A 6.635,6.635 0 0,1 32.353,44 C 31.021,44 29.962,43.594 29.177,42.783 C 28.392,41.972 28,40.878 28,39.5 C 28,38.102 28.395,37.003 29.185,36.202 C 29.98,35.4 31.068,35 32.448,35 C 32.896,35 33.333,35.046 33.76,35.138 C 34.186,35.225 34.6,35.358 35,35.536 Z" fill="rgb(254, 254, 253)"/>
<path d="M 43.993,39.985 V 39.14 C 44.003,37.865 43.738,36.857 43.06,36.117 C 42.388,35.373 41.471,35 40.311,35 C 39.018,35 37.989,35.413 37.224,36.24 C 36.464,37.061 36.084,38.173 36.084,39.577 C 36.084,40.934 36.484,42.01 37.285,42.807 C 38.091,43.602 39.182,44 40.558,44 C 41.108,44 41.648,43.944 42.182,43.832 C 42.716,43.719 43.057,43.594 43.565,43.38 V 41.783 C 43.062,42.049 42.735,42.209 42.221,42.343 A 6.227,6.227 0 0,1 40.643,42.541 C 39.11,42.541 37.666,41.621 37.563,40 H 44.003 Z M 42.021,37.114 C 42.447,37.573 42.489,38.015 42.489,38.492 H 37.779 C 37.872,37.939 37.969,37.534 38.44,37.091 C 38.918,36.647 39.552,36.425 40.342,36.425 C 41.04,36.425 41.6,36.655 42.021,37.114 Z" fill="rgb(254, 254, 253)"/>
</svg>
