<?xml version="1.0" encoding="UTF-8"?>
<!-- generated by Finnhub -->
<svg viewBox="0 0 55.5 55.5" xmlns="http://www.w3.org/2000/svg">
<path d="M 0,0 H 55.5 V 55.5 H 0 Z" fill="rgb(1, 124, 193)"/>
<path d="M 13.99,20.985 L 10.296,35 H 4 L 7.673,21 H 14 Z" fill="rgb(254, 254, 253)"/>
<path d="M 20.11,20.985 H 14.588 L 11,34.994 H 18.147 C 20.36,35.124 22.095,33.184 23.022,31.374 C 23.118,31.197 23.194,31.02 23.272,30.84 C 23.365,30.626 23.46,30.407 23.59,30.18 C 23.648,30.704 23.78,31.216 23.98,31.698 C 24.517,33.378 26.102,34.896 27.837,34.994 H 39.08 L 41.592,32.409 L 42.967,34.994 H 48.917 L 45.72,27.949 L 52,21 H 45.331 L 43.238,23.163 L 42.1,21 H 29.152 A 5.386,5.386 0 0,0 26.492,22.131 C 25.325,23.101 24.608,24.393 23.98,25.783 C 23.98,25.628 23.948,25.5 23.915,25.368 L 23.89,25.266 C 23.47,23.262 22.125,21.291 20.12,21 Z M 30.677,25.731 C 30.677,25.505 31.249,24.744 32.147,24.744 L 35.801,24.759 L 36.507,22.132 C 37.207,23.459 37.887,24.859 38.562,26.248 L 38.927,27 H 42.25 L 42,28 H 38.8 L 38.483,28.377 L 36.147,30.807 L 33.489,33.571 L 34.109,31.098 H 31.157 C 30.745,31.106 30.05,30.581 29.93,29.968 H 34.436 L 34.853,28.375 L 34.937,28 H 18 L 18.25,27 H 35.181 L 35.567,25.731 H 30.677 Z" fill="rgb(254, 254, 253)"/>
</svg>
