<?xml version="1.0" encoding="UTF-8"?>
<!-- generated by Finnhub -->
<svg viewBox="0 0 55.5 55.5" xmlns="http://www.w3.org/2000/svg">
<path d="M 0,0 H 55.5 V 55.5 H 0 Z" fill="rgb(0, 116, 204)"/>
<path d="M 27.947999999999997,22.525 C 27.383,23.336 27,24.905 27,26 H 32 V 31 H 27 V 40 H 22 V 26.013 C 22,24.137 22.226,21.69 23.71,19.636 C 25.291,17.444 28.442,16 32,16 V 21 C 30.05,21 28.572,21.562 27.958,22.54 Z M 41.958,22.54 C 41.383,23.336 41,24.905 41,26 H 46 V 31 H 41 V 40 H 36 V 26.013 C 36,24.137 36.226,21.69 37.71,19.636 C 39.291,17.444 42.442,16 46,16 V 21 C 44.05,21 42.572,21.562 41.958,22.54 Z" fill="rgb(254, 254, 253)"/>
<path d="M 12.996,25.985 C 13.049,24.91 13.377,23.633 14.024,22.84 C 14.608,22.125 15.805,21.423 18,21.423 V 17 H 12 V 40 H 18 V 26 H 13.006 Z" fill="rgb(254, 254, 253)"/>
</svg>
