<?xml version="1.0" encoding="UTF-8"?>
<!-- generated by Finnhub -->
<svg viewBox="0 0 55.5 55.5" xmlns="http://www.w3.org/2000/svg">
<path d="M 0,0 H 55.5 V 55.5 H 0 Z" fill="rgb(67, 144, 163)"/>
<path d="M 17.063,33.985 H 20.508 L 29.717,18.4 L 28,15.433 L 17.073,34 Z" fill="rgb(254, 254, 253)"/>
<path d="M 27.99,11.985 C 19.18,12 12,19.18 12,28 S 19.18,44 28,44 C 36.897,44 44,36.82 44,28 S 36.897,12 28,12 Z M 30,41.19 V 24.76 L 33.698,31 H 31 V 34 H 38.926 L 30.185,19.103 L 26,26.25 V 41.111 C 19.365,40.41 14.809,34.79 14.809,28 C 14.809,20.663 20.741,14.809 28,14.809 C 35.337,14.809 41.27,20.663 41.27,28 C 41.27,34.79 36.635,40.41 30,41.19 Z" fill="rgb(254, 254, 253)"/>
</svg>
