<?xml version="1.0" encoding="UTF-8"?>
<!-- generated by Finnhub -->
<svg viewBox="0 0 55.5 55.5" xmlns="http://www.w3.org/2000/svg">
<path d="M 0,0 H 55.5 V 55.5 H 0 Z" fill="rgb(245, 247, 251)"/>
<path d="M 31.99,21.271 A 7.158,7.158 0 0,0 30.254,20.036 C 29.163,19.423 27.878,19.061 26.464,19.009 A 5.359,5.359 0 0,0 26.191,19 L 25.644,19.001 H 17 V 38 H 22 V 34 H 26.306 C 27.55,34 28.716,33.634 29.746,33.152 A 9.566,9.566 0 0,1 28.608,28.623 C 28.608,25.701 29.923,23.076 32,21.286 Z M 25.874,29 C 25.954,29 25.797,29.002 25.874,29 H 22 V 24 H 25.761 C 27.24,24 28.766,24.318 28.766,26.437 C 28.766,28.507 27.304,29 25.874,29 Z" fill="rgb(130, 193, 234)"/>
<path d="M 38.476,38.373 A 9.916,9.916 0 0,1 29.726,33.151 C 32.245,31.967 33.941,29.501 33.941,26.586 C 33.941,26.535 33.938,26.485 33.937,26.434 V 26.431 V 26.405 A 8.643,8.643 0 0,0 33.928,26.14 C 33.863,23.897 33.055,22.344 31.972,21.276 A 9.925,9.925 0 0,1 38.486,18.851 A 9.92,9.92 0 0,1 45.399,21.641 L 41.455,25.001 L 41.435,24.989 A 4.726,4.726 0 0,0 38.485,23.962 C 35.885,23.962 33.769,26.051 33.769,28.618 C 33.769,31.188 35.885,33.277 38.486,33.277 C 40.011,33.277 41.754,32.532 42.228,31 H 39 V 27 H 48.254 L 48.286,27.258 C 48.322,27.509 48.346,27.765 48.361,28.022 C 48.374,28.219 48.384,28.422 48.384,28.609 C 48.384,28.699 48.379,28.817 48.37,28.956 A 9.6,9.6 0 0,1 47.594,32.433 A 6.946,6.946 0 0,1 47.24,33.177 L 47.239,33.166 A 9.919,9.919 0 0,1 38.486,38.388 Z" fill="rgb(19, 118, 196)"/>
<path d="M 33.940000000000005,26.570999999999998 L 33.947,26.433 V 26.431 L 33.946,26.405 C 33.946,26.316 33.943,26.228 33.938,26.14 C 33.873,23.895 33.065,22.342 31.982,21.272 C 29.912,23.065 28.602,25.694 28.602,28.62 C 28.602,30.256 29.014,31.798 29.736,33.155 C 32.254,31.971 33.95,29.504 33.95,26.586 Z" fill="rgb(10, 50, 92)"/>
<path d="M 8.99,18.985 V 38 H 14 V 19 H 9 Z" fill="rgb(130, 193, 234)"/>
</svg>
