<?xml version="1.0" encoding="UTF-8"?>
<!-- generated by Finnhub -->
<svg viewBox="0 0 55.5 55.5" xmlns="http://www.w3.org/2000/svg">
<rect width="56" height="56" fill="rgb(239, 242, 248)"/>
<rect x="17" y="17" width="29" height="3" rx="1.5" fill="rgb(1, 160, 221)"/>
<rect x="7" y="22" width="39" height="3" rx="1.5" fill="rgb(1, 160, 221)"/>
<rect x="5" y="27" width="41" height="3" rx="1.5" fill="rgb(1, 160, 221)"/>
<rect x="9" y="32" width="37" height="3" rx="1.5" fill="rgb(1, 160, 221)"/>
<rect x="13" y="37" width="33" height="3" rx="1.5" fill="rgb(1, 160, 221)"/>
<rect x="21" y="17" width="25" height="3" rx="1.5" fill="rgb(126, 168, 193)"/>
<rect x="13" y="22" width="33" height="3" rx="1.5" fill="rgb(126, 168, 193)"/>
<rect x="11" y="27" width="35" height="3" rx="1.5" fill="rgb(126, 168, 193)"/>
<rect x="14" y="32" width="32" height="3" rx="1.5" fill="rgb(126, 168, 193)"/>
<rect x="18" y="37" width="28" height="3" rx="1.5" fill="rgb(126, 168, 193)"/>
<path d="M 38.889,29.985 C 38.966,29.3427 39.0003,28.6755 39.0003,28 C 39.0003,27.6646 38.9918,27.3312 38.9751,27 H 44.5431 C 45.3479,27 46.0003,27.6716 46.0003,28.5 S 45.3479,30 44.5431,30 H 38.899 Z M 37.7043,35 C 38.0764,34.0362 38.3739,33.0337 38.5896,32 H 44.5431 C 45.3479,32 46.0003,32.6716 46.0003,33.5 S 45.3479,35 44.5431,35 H 37.7043 Z M 37.2853,20 C 36.8072,18.9437 36.2374,17.9401 35.5863,17 H 44.5431 C 45.3479,17 46.0003,17.6716 46.0003,18.5 S 45.3479,20 44.5431,20 H 37.2853 Z M 38.771,25 C 38.6119,23.9701 38.3723,22.9678 38.0589,22 H 44.5431 C 45.3479,22 46.0003,22.6716 46.0003,23.5 S 45.3479,25 44.5431,25 H 38.771 Z M 34.8443,40 C 35.5834,39.0692 36.2384,38.0651 36.7972,37 H 44.5431 C 45.3479,37 46.0003,37.6716 46.0003,38.5 S 45.3479,40 44.5431,40 H 34.8443 Z" fill="rgb(1, 83, 133)"/>
</svg>
