<?xml version="1.0" encoding="UTF-8"?>
<!-- generated by Finnhub -->
<svg viewBox="0 0 55.5 55.5" xmlns="http://www.w3.org/2000/svg">
<path d="M 0,0 H 55.5 V 55.5 H 0 Z" fill="rgb(212, 42, 28)"/>
<path d="M 47.86,22.085 C 46.619,15.704 36.71,13.16 25.735,16.419 A 36.362,36.362 0 0,0 19.375,19 H 20.718 C 22.286,18.146 23.998,17.4 25.82,16.86 C 34.932,14.154 43.292,16.949 44.496,23.102 C 45.186,26.629 43.37,30.493 39.979,33.66 L 39.659,35.237 C 45.349,31.452 48.719,26.447 47.869,22.1 Z M 35.278,37.004 A 26.317,26.317 0 0,1 30.176,39.139 C 21.066,41.845 12.706,39.051 11.503,32.899 C 10.813,29.365 12.634,25.494 16.037,22.325 L 16.355,20.753 C 10.656,24.541 7.28,29.552 8.13,33.901 C 9.38,40.297 19.29,42.839 30.264,39.581 A 36.42,36.42 0 0,0 36.624,37.004 H 35.278 Z M 31.016,26.354 L 31.718,23 C 33.522,23.019 34.956,22.832 34.63,24.435 C 34.21,26.508 33.509,26.315 31.016,26.355 Z M 22.782,35.995 H 29.062 L 30.312,30 C 32.691,29.92 33.498,30.027 33.244,31.278 L 32.289,35.995 H 38.544 L 39.591,30.815 C 39.731,30.127 40.074,28.437 37.334,27.672 C 40.119,26.885 40.723,25.231 40.955,24.083 C 41.497,21.403 39.383,20 36.127,20 H 26.02 L 22.782,35.995 Z M 17.47,20 H 24.135 L 20.897,35.995 H 14.232 L 17.47,20 Z" fill="rgb(254, 254, 253)"/>
</svg>
