<?xml version="1.0" encoding="UTF-8"?>
<!-- generated by Finnhub -->
<svg viewBox="0 0 55.5 55.5" xmlns="http://www.w3.org/2000/svg">
<path d="M 0,0 H 55.5 V 55.5 H 0 Z" fill="rgb(1, 50, 139)"/>
<path d="M 8.49,24.985 H 11 V 28.739 C 11,29.524 10.912,30.122 10.737,30.531 C 10.561,30.941 10.207,31.288 9.676,31.573 C 9.145,31.858 8.464,32 7.635,32 C 6.758,32 6.079,31.906 5.597,31.718 C 5.115,31.53 4.743,31.254 4.48,30.891 A 2.484,2.484 0 0,1 4.056,29.851 A 5.212,5.212 0 0,1 4,29.397 L 6.586,29.27 C 6.59,29.575 6.624,29.802 6.686,29.95 C 6.986,30.66 8.074,30.382 8.27,30.134 C 8.41,29.957 8.5,29.659 8.5,29.24 V 25 Z M 29.607,26.93 C 29.933,26.61 30.366,26.45 30.904,26.45 C 31.465,26.45 31.91,26.608 32.238,26.922 C 32.566,27.236 32.729,27.734 32.729,28.416 C 32.729,29.226 32.572,29.786 32.259,30.099 C 31.944,30.412 31.5,30.568 30.927,30.568 C 30.369,30.568 29.929,30.408 29.604,30.088 C 29.28,29.77 29.119,29.245 29.119,28.514 C 29.119,27.777 29.281,27.249 29.607,26.93 Z M 27.053,30.619 C 27.449,31.182 27.965,31.594 28.602,31.855 C 29.239,32.115 30.043,32.244 31.016,32.244 C 31.972,32.244 32.77,32.094 33.41,31.793 C 34.051,31.491 34.541,31.07 34.88,30.528 C 35.22,29.986 35.389,29.292 35.389,28.446 C 35.389,27.28 35.001,26.373 34.225,25.726 C 33.449,25.079 32.343,24.756 30.909,24.756 C 29.51,24.756 28.419,25.086 27.635,25.744 C 26.851,26.403 26.459,27.323 26.459,28.504 C 26.459,29.351 26.657,30.056 27.053,30.619 Z M 16.902,25 H 14.102 L 11,32 H 13.609 L 15.469,26.815 L 16.379,29.331 H 15.034 L 14.482,31 H 16.91 L 17.324,32 H 20 L 16.902,25 Z M 38.5,30.497 H 40.062 C 40.523,30.497 40.849,30.431 41.038,30.298 C 41.404,30.043 41.416,29.481 41.041,29.23 C 40.854,29.103 40.525,29 40.056,29 H 38.5 V 30.497 Z M 38.5,27.742 H 39.861 C 40.279,27.742 40.57,27.684 40.734,27.568 A 0.613,0.613 0 0,0 40.734,26.587 C 40.57,26.472 40.284,26.415 39.878,26.415 H 38.5 V 27.742 Z M 36,25 H 41.007 C 42.08,25 43.599,25.411 43.599,26.741 C 43.599,27.577 42.923,28.067 42.189,28.272 C 43.114,28.453 44,28.958 44,30.007 C 44,30.37 43.895,30.697 43.688,30.987 C 43.012,31.923 41.673,32 40.617,32 H 36 V 25 Z M 44.19,29.645 L 46.72,29.521 C 46.775,29.845 46.888,30.091 47.056,30.261 C 47.33,30.536 47.722,30.673 48.231,30.673 C 48.611,30.673 48.904,30.603 49.11,30.463 C 49.316,30.322 49.419,30.159 49.419,29.973 C 49.419,29.799 49.321,29.641 49.124,29.503 C 48.927,29.363 48.473,29.233 47.761,29.109 C 46.595,28.903 45.763,28.629 45.266,28.287 C 44.765,27.946 44.514,27.51 44.514,26.98 C 44.514,26.632 44.643,26.304 44.898,25.995 C 45.155,25.685 45.54,25.442 46.055,25.265 C 46.57,25.088 47.275,25 48.171,25 C 49.271,25 50.109,25.16 50.687,25.482 C 51.263,25.804 51.607,26.315 51.717,27.017 L 49.211,27.132 C 49.144,26.827 49.004,26.604 48.791,26.465 C 48.576,26.325 48.281,26.255 47.906,26.255 C 47.596,26.255 47.362,26.308 47.206,26.411 C 47.049,26.514 46.971,26.64 46.971,26.788 C 46.971,26.896 47.036,26.993 47.166,27.078 C 47.293,27.168 47.591,27.252 48.061,27.328 C 49.222,27.526 50.055,27.726 50.559,27.928 C 51.062,28.129 51.427,28.379 51.656,28.678 C 51.885,28.978 52,29.311 52,29.681 C 52,30.115 51.847,30.516 51.541,30.882 C 51.236,31.249 50.81,31.527 50.261,31.717 C 49.713,31.906 49.022,32 48.189,32 C 46.724,32 45.71,31.779 45.147,31.335 C 44.583,30.892 44.264,30.329 44.19,29.645 Z" fill="rgb(254, 254, 253)"/>
<path d="M 25.814,29.961 C 25.468,30.265 24.858,30.564 24.026,30.568 C 23.469,30.571 23.028,30.408 22.704,30.088 C 22.38,29.77 22.218,29.245 22.218,28.514 C 22.218,27.777 22.381,27.249 22.708,26.93 C 22.992,26.65 23.507,26.436 23.981,26.433 C 24.694,26.426 25.106,26.515 25.806,27.032 C 26.042,26.562 26.419,25.874 26.707,25.465 A 2.933,2.933 0 0,0 26.473,25.31 C 25.853,24.94 25.001,24.756 23.915,24.756 C 22.529,24.756 21.457,25.078 20.7,25.721 C 19.942,26.364 19.563,27.285 19.563,28.483 C 19.563,29.382 19.778,30.119 20.209,30.694 C 20.64,31.27 21.153,31.673 21.746,31.901 C 22.34,32.131 23.106,32.244 24.042,32.244 C 25.134,32.244 25.957,32.054 26.721,31.553 C 26.721,31.553 26.215,30.811 25.827,29.978 L 25.824,29.976 Z" fill="rgb(254, 254, 253)"/>
</svg>
