<?xml version="1.0" encoding="UTF-8"?>
<!-- generated by Finnhub -->
<svg viewBox="0 0 55.5 55.5" xmlns="http://www.w3.org/2000/svg">
<path d="M 0,0 H 55.5 V 55.5 H 0 Z" fill="url(#a)"/>
<path d="M 5.973,31.985 C 5.206,32 4.681,31.868 4.409,31.603 S 4,30.84 4,30.109 V 28.449 L 6,28.093 V 30 H 9 V 24 H 11 V 30.11 C 11,30.841 10.775,31.338 10.5,31.603 C 10.224,31.868 9.7,32 8.926,32 H 5.983 Z M 13.35,32 L 17.872,24 H 19.665 L 24.247,32 H 22.16 L 20.756,29.39 L 16.155,30.24 L 15.901,30.7 L 15.203,32 H 13.35 Z M 16.927,28.806 H 20.428 L 18.704,25.552 L 16.927,28.807 Z M 27,32 V 24 H 33.67 C 34.303,24 34.76,24.124 35.044,24.372 C 35.328,24.619 35.469,25.014 35.469,25.554 V 26.526 C 35.469,26.909 35.351,27.215 35.114,27.444 C 34.878,27.673 34.538,27.815 34.096,27.87 C 34.555,27.931 34.91,28.095 35.16,28.363 C 35.41,28.631 35.535,28.979 35.535,29.409 V 30.433 C 35.535,30.963 35.34,31.357 34.95,31.614 C 34.56,31.871 33.967,32 33.172,32 H 27 Z M 32.892,25.306 H 29 V 27.204 H 32.892 C 33.214,27.204 33.437,27.162 33.561,27.076 C 33.684,26.991 33.746,26.843 33.746,26.632 V 25.878 C 33.746,25.673 33.684,25.526 33.561,25.438 C 33.437,25.35 33.215,25.306 32.892,25.306 Z M 32.892,28.521 H 29 V 30.562 H 32.892 C 33.248,30.562 33.489,30.51 33.614,30.403 C 33.739,30.297 33.801,30.11 33.801,29.842 V 29.235 C 33.801,28.966 33.738,28.78 33.614,28.677 C 33.489,28.573 33.249,28.521 32.892,28.521 Z M 41,32 H 39 V 24 H 41 V 32 Z M 44,32 V 24 H 46.003 V 30 H 52.005 V 32 H 44 Z" fill="rgb(254, 254, 253)"/>
<path d="M 17.537,27.653 L 15.9,30.701 L 27.58,27.672 L 17.546,27.668 Z" fill="rgb(254, 254, 253)"/>
<defs>
<linearGradient id="a" x1="10.418" x2="68.147" y1="9.712" y2="76.017" gradientUnits="userSpaceOnUse">
<stop stop-color="rgb(25, 29, 31)" offset="0"/>
<stop stop-color="rgb(5, 5, 8)" offset="1"/>
</linearGradient>
</defs>
</svg>
