<?xml version="1.0" encoding="UTF-8"?>
<!-- generated by Finnhub -->
<svg viewBox="0 0 55.5 55.5" xmlns="http://www.w3.org/2000/svg">
<path d="M 0,0 H 55.5 V 55.5 H 0 Z" fill="rgb(25, 53, 102)"/>
<path d="M 45.79,33.985 C 46.57,29.76 47.34,25.481 48,22.96 C 46.13,22.578 44.26,22.272 41.84,22.272 C 37.366,22.272 34.213,24.946 33.626,28.919 C 33.186,31.708 34.543,33.999 37.366,33.999 C 38.576,33.999 39.749,33.579 40.85,32.892 C 40.776,33.274 40.703,33.694 40.593,34 H 45.8 Z M 42.17,26.36 C 41.986,27.62 41.4,30.142 39.75,30.142 C 38.943,30.142 38.686,29.34 38.796,28.576 C 38.98,27.238 40.116,26.246 41.4,26.246 C 41.656,26.246 41.913,26.283 42.17,26.36 Z M 26.89,19 C 26.484,20.618 26.044,22.235 25.79,23.78 A 6.664,6.664 0 0,1 29.969,22.346 C 32.975,22.346 33.781,23.779 33.489,25.544 C 33.376,26.426 32.462,30.728 31.909,34 H 26.596 C 26.963,32.346 27.403,30.287 27.657,28.633 C 27.804,27.86 27.989,26.5 26.963,26.5 C 25.863,26.5 25.277,27.64 24.983,28.522 C 24.392,30.177 24.138,32.346 23.771,34 H 18.38 C 19.553,29.478 20.545,24.809 21.498,19 H 26.89 Z M 19.734,19 C 19.587,19.662 19.33,20.824 19.074,22 H 14.05 C 14.27,20.97 14.417,19.956 14.563,19 H 19.733 Z M 19.037,23 C 18.23,26.713 17.57,30.287 16.837,35.103 C 16.47,37.345 15.59,39 11.85,39 C 10.53,39 9.247,38.89 8,38.67 V 34.809 C 8.44,34.956 9.1,35.066 9.577,35.066 C 10.86,35.066 11.447,34.515 11.813,33.228 C 12.4,31.096 12.95,27.926 13.72,23 H 19.037 Z" fill="rgb(254, 254, 253)"/>
</svg>
