<?xml version="1.0" encoding="UTF-8"?>
<!-- generated by Finnhub -->
<svg viewBox="0 0 55.5 55.5" xmlns="http://www.w3.org/2000/svg">
<path d="M 0,0 H 55.5 V 55.5 H 0 Z" fill="rgb(207, 30, 58)"/>
<path d="M 51.015,24.953 C 50.164,24.966 49.383,25.695 48.412,26.543 C 47.52,27.321 45.697,29.287 44.033,30.406 C 44.497,29.642 45.614,27.989 45.783,27.214 C 45.959,26.401 45.392,26.086 44.611,26.588 C 43.761,27.139 42.949,29.786 41.747,29.786 C 41.528,29.786 41.375,29.674 41.377,29.417 C 41.383,28.642 42.527,27.097 44.579,26.247 C 44.897,26.112 45.019,25.897 45.021,25.711 C 45.021,25.653 45.011,25.26 44.381,25.26 C 42.354,25.26 39.618,27.744 39.234,29.648 C 38.839,30.065 38.129,30.683 37.228,31.086 C 38.245,29.575 39.12,28.359 39.579,27.097 C 40.109,25.627 39.355,25.434 38.581,25.864 C 37.827,26.282 37.297,27.444 37.073,27.885 C 36.853,28.324 36.666,28.885 36.003,29.445 C 35.341,30.003 34.653,29.91 35.139,28.819 C 35.573,27.844 36.549,26.823 37.389,26.352 C 37.589,26.24 37.763,26.173 37.756,25.892 C 37.746,25.445 37.254,25.136 36.553,25.454 C 35.6,25.887 35.143,26.175 34.336,26.175 C 33.695,26.175 33.363,25.994 33.089,25.875 C 32.723,25.711 32.453,25.767 32.31,25.815 A 1.351,1.351 0 0,0 31.81,26.187 C 31.675,26.342 31.561,26.597 31.534,26.759 C 31.346,27.952 30.352,30.091 29.621,30.091 C 29.369,30.091 29.091,30.016 29.163,29.406 C 29.28,28.409 30.426,27.06 30.691,26.792 C 30.956,26.521 31.455,26.337 31.491,26.037 C 31.521,25.787 31.375,25.506 30.905,25.506 C 29.36,25.506 27.295,27.753 27.09,29.773 C 26.85,30.008 26.562,30.238 26.233,30.238 C 25.519,30.238 25.317,29.538 25.368,28.981 C 27.244,27.204 30.803,23.241 30.911,20.421 C 30.936,19.746 30.624,19.41 30.098,19.41 C 28.774,19.41 26.918,21.442 25.763,23.008 C 24.343,24.938 23.469,27.268 23.161,29.034 C 22.121,29.98 21.7,30.044 21.247,30.044 C 20.619,30.044 20.399,29.566 20.419,29.19 C 22.171,27.519 25.217,23.536 25.279,21.568 C 25.297,20.985 24.983,20.71 24.421,20.71 C 23.227,20.71 21.535,22.033 20.319,23.776 C 19.104,25.519 18.316,27.57 18.093,29.428 C 17.183,30.286 16.503,30.46 15.943,30.46 A 0.817,0.817 0 0,1 15.297,30.105 C 16.102,29.617 17.935,28.395 17.935,26.571 C 17.935,25.665 17.353,25.261 16.774,25.261 C 15.301,25.261 12.984,27.188 13,29.848 C 13,29.895 13.007,30.058 13.015,30.118 C 12.348,30.358 11.888,30.604 11.995,31.108 C 12.091,31.564 12.631,31.541 13.334,31.28 C 13.496,31.596 14.184,32.116 15.157,32.116 C 16.474,32.116 17.48,31.46 18.274,30.747 C 18.608,31.568 19.431,31.999 20.291,31.999 C 21.336,31.999 22.37,31.255 23.184,30.582 C 23.279,31.211 23.889,32.192 24.944,32.192 C 25.907,32.192 26.642,31.603 27.224,30.967 C 27.376,31.608 27.936,32.117 28.667,32.117 C 31.103,32.117 32.469,28.497 32.784,27.197 A 0.22,0.22 0 0,1 33.079,27.033 C 33.532,27.198 33.754,27.281 34.327,27.213 C 33.4,27.977 32.583,29.282 32.583,30.235 C 32.583,31.187 33.369,31.629 33.943,31.629 C 34.519,31.629 35.28,31.239 35.78,30.747 C 35.648,31.027 35.47,31.455 35.184,31.757 C 34.66,31.909 33.121,32.492 32.144,33.116 C 31.217,33.709 30.32,34.653 30.32,35.738 C 30.32,36.318 30.773,37 31.84,37 C 33.631,37 34.885,35.77 36.576,32.54 C 37.977,31.924 38.818,31.348 39.368,30.859 C 39.609,31.3 40.074,31.506 40.539,31.506 C 41.227,31.506 41.639,31.297 42.194,30.878 A 3.454,3.454 0 0,1 41.807,31.638 C 40.806,32.075 39.603,32.654 38.987,33.044 C 37.345,34.084 36.981,35.016 36.981,35.75 C 36.981,36.199 37.347,36.98 38.454,36.98 C 40.848,36.98 42.331,33.854 43.296,32.087 C 44.004,31.693 45.016,30.962 46.056,30.124 A 1.643,1.643 0 0,0 46.003,30.554 C 46.003,31.339 46.68,32.077 47.791,32.077 C 49.985,32.077 50.667,30.38 50.64,28.548 C 50.63,27.949 50.546,27.472 50.538,27.259 C 50.518,26.7 50.695,26.399 51.18,26.399 C 51.669,26.399 52,26.308 52,25.869 C 52,25.262 51.587,24.987 51.027,24.987 L 51.025,24.967 Z M 28.92,21.736 C 28.983,21.736 29.009,21.794 29.007,21.886 C 28.988,22.607 27.219,25.524 25.583,27.222 C 26.568,24.182 28.532,21.736 28.919,21.736 H 28.92 Z M 14.931,29.053 C 15.002,27.757 15.981,26.759 16.366,26.759 C 16.509,26.759 16.576,26.844 16.576,27.023 C 16.576,27.485 15.984,28.45 14.934,29.053 H 14.931 Z M 23.246,22.807 C 23.32,22.807 23.352,22.867 23.349,22.966 C 23.336,23.5 22.063,25.95 20.429,27.648 C 21.287,24.894 22.685,22.808 23.245,22.808 H 23.246 Z M 32.188,35.353 C 32.062,35.353 31.999,35.267 31.999,35.141 C 31.999,34.354 33.665,33.423 34.539,33.086 C 34.162,33.726 32.779,35.354 32.186,35.354 L 32.188,35.353 Z M 38.854,35.396 C 38.731,35.396 38.686,35.319 38.686,35.193 C 38.686,34.498 40.196,33.421 41.068,33.085 C 40.614,33.909 39.354,35.395 38.852,35.395 L 38.854,35.396 Z M 47.952,30.39 C 47.847,30.39 47.687,30.363 47.687,29.993 C 47.687,29.723 47.565,29.425 47.117,29.425 C 47.057,29.425 46.99,29.43 46.915,29.444 C 47.872,28.647 48.621,27.77 49.319,27.177 C 49.176,28.989 48.764,30.39 47.949,30.39" fill="rgb(254, 254, 253)"/>
<path d="M 47.101,24.617 C 47.079,24.95 46.741,25.092 46.712,25.377 C 46.695,25.543 46.807,25.652 47.003,25.65 C 47.505,25.644 48.853,24.828 48.969,23.559 C 49.029,22.919 48.647,22.363 47.983,22.363 C 47.311,22.363 46.703,23.025 46.646,23.581 C 46.591,24.125 47.142,24.322 47.111,24.631 Z M 12.111,33.584 C 11.679,33.56 11.477,33.02 11.477,32.364 C 11.477,31.644 11.92,30.084 12.096,29.346 C 12.274,28.601 12.35,27.396 11.709,26.706 C 14.149,25.675 17.759,22.166 18.223,21.399 C 18.687,20.632 18.778,19.656 18.137,19.169 C 17.5,18.681 16.456,19.317 15.839,20.249 C 14.143,22.816 13.119,24.069 11.963,25.125 C 11.062,25.949 10.623,25.962 10.191,26.025 C 10.191,26.025 11.856,23.163 12.478,22.303 C 13.224,21.276 12.304,20.892 11.413,21.541 A 31.47,31.47 0 0,1 8.116,23.621 C 5.075,25.268 4.343,26.027 4.343,27.015 C 4.343,27.454 4.633,28.005 5.244,28.005 C 6.436,28.005 7.614,25.77 8.192,25.213 C 8.416,24.993 8.937,24.518 9.139,24.518 C 9.206,24.518 9.251,24.561 9.251,24.694 C 9.251,25.122 8.461,26.336 7.234,27.726 C 5.456,29.742 4,30.555 4,31.843 C 4,32.683 4.601,33.138 5.251,33.138 C 6.621,33.138 7.538,31.218 8.086,30.266 C 8.305,29.886 9.514,27.521 9.768,27.01 C 10.033,27.158 10.196,27.466 10.11,28.093 C 9.947,29.221 8.99,30.588 8.99,32.493 C 8.99,34.05 10.36,34.538 10.91,34.539 C 11.418,34.539 12.09,34.333 12.257,33.799 C 12.277,33.719 12.252,33.584 12.117,33.574 L 12.11,33.584 Z" fill="rgb(254, 254, 253)"/>
</svg>
