<?xml version="1.0" encoding="UTF-8"?>
<!-- generated by Finnhub -->
<svg viewBox="0 0 55.5 55.5" xmlns="http://www.w3.org/2000/svg">
<path d="M 0,0 H 55.5 V 55.5 H 0 Z" fill="rgb(46, 39, 45)"/>
<path d="M 33.99,12.985 H 43 L 34.081,28.005 L 43,43 H 34 L 25.162,28.005 L 34,13 Z" fill="rgb(254, 254, 253)"/>
<path d="M 24.747,37.887 C 24.757,41.801 22.247,44 18.777,44 S 13,40.901 13,37.402 C 13,33.503 19.69,27.905 23.034,27.505 C 22.628,31.904 24.757,34.203 24.757,37.902 Z" fill="rgb(215, 1, 121)"/>
<path d="M 23.288999999999998,16.181 C 23.135,13.513 21.289,12.104 18.863,12.248 S 14.954,14.62 15.101,17.027 C 15.264,19.709 20.175,23.284 22.531,23.42 C 22.062,20.41 23.454,18.74 23.299,16.196 Z" fill="rgb(116, 246, 17)"/>
<ellipse cx="16.243" cy="24.606" rx="2.432" ry="2.399" fill="rgb(131, 53, 48)"/>
<ellipse cx="21.209" cy="25.706" rx="1.318" ry="1.3" fill="rgb(98, 254, 250)"/>
</svg>
