<?xml version="1.0" encoding="UTF-8"?>
<!-- generated by Finnhub -->
<svg viewBox="0 0 55.5 55.5" xmlns="http://www.w3.org/2000/svg">
<path d="M 0,0 H 55.5 V 55.5 H 0 Z" fill="rgb(1, 124, 162)"/>
<path d="M 3.99,22.985 H 7 V 30.732 H 10 V 33 H 4 V 23 Z M 16.9,31.692 C 16.9,32.084 16.998,32.645 17.172,33 H 14.518 C 14.421,32.738 14.383,32.271 14.383,32.01 L 14.363,31.99 C 14.033,32.738 13.317,33 12.503,33 C 10.993,33 10.353,32.234 10.353,30.757 C 10.353,29.075 11.167,28.607 12.233,28.364 L 13.55,28.065 C 14.13,27.935 14.344,27.766 14.344,27.28 C 14.344,26.907 14.111,26.682 13.801,26.682 C 13.201,26.682 13.123,27.112 13.123,27.561 H 10.644 C 10.644,25.86 11.574,25 13.821,25 C 16.397,25 16.921,26.01 16.921,27.187 L 16.901,31.692 Z M 14.344,29.131 C 14.169,29.243 13.956,29.318 13.647,29.43 C 13.182,29.598 13.104,29.953 13.104,30.402 C 13.104,30.85 13.278,31.168 13.666,31.168 C 14.228,31.168 14.344,30.682 14.344,30.234 V 29.13 Z M 17.424,23 H 20.252 V 26.056 H 20.291 C 20.561,25.382 21.278,25 22.034,25 C 24.01,25 24.32,26.88 24.32,28.974 C 24.32,30.724 24.32,33 21.86,33 C 20.64,33 20.349,32.308 20.232,31.962 H 20.213 V 32.818 H 17.423 V 23 Z M 20.852,27.153 C 20.291,27.153 20.213,27.681 20.213,29.066 C 20.213,30.468 20.31,30.996 20.853,30.996 C 21.414,30.996 21.491,30.468 21.491,29.066 C 21.491,27.681 21.395,27.153 20.852,27.153 Z M 29.027,25.94 C 29.027,25.527 29.027,24.756 28.427,24.756 C 27.671,24.756 27.632,25.24 27.632,27.982 C 27.632,30.796 27.709,31.208 28.426,31.208 C 28.891,31.208 29.085,30.778 29.085,29.578 V 29 H 31.913 V 29.452 C 31.913,31.71 30.944,33 28.387,33 C 24.649,33 24.649,31.064 24.649,28 C 24.649,25.025 24.649,23 28.387,23 C 31.487,23 31.855,24.56 31.855,26.047 V 26.727 H 29.027 V 25.939 Z M 39.254,28.99 C 39.254,31.135 38.924,33 35.806,33 S 32.358,31.154 32.358,28.99 C 32.358,26.865 32.688,25 35.806,25 C 38.925,25 39.254,26.865 39.254,28.99 Z M 35.806,31.228 C 36.31,31.228 36.426,30.762 36.426,28.991 C 36.426,27.219 36.31,26.753 35.806,26.753 C 35.303,26.753 35.186,27.219 35.186,28.991 C 35.186,30.762 35.303,31.228 35.806,31.228 Z M 39.7,25 H 42.45 V 26.359 H 42.47 C 42.74,25.612 43.38,25 44.155,25 C 44.465,25 44.542,25.02 44.639,25.038 V 27.584 A 1.76,1.76 0 0,0 44.29,27.546 C 44.155,27.526 44.039,27.526 43.748,27.526 C 42.78,27.526 42.548,28.024 42.548,28.962 V 33 H 39.7 V 25 Z M 45,25 H 48 V 26.066 H 47.913 C 48.01,25.692 48.3,25 49.54,25 C 52,25 52,27.32 52,29.133 C 52,31.265 51.67,33 49.714,33 C 48.959,33 48.223,32.63 47.971,31.939 H 48 V 35 H 45 V 25 Z M 48.64,27.02 C 48.077,27.02 48,27.562 48,29.002 C 48,30.424 48.097,30.966 48.64,30.966 C 49.201,30.966 49.278,30.424 49.278,29.002 C 49.298,27.562 49.201,27.02 48.639,27.02 Z" fill="rgb(254, 254, 253)"/>
</svg>
