<?xml version="1.0" encoding="UTF-8"?>
<!-- generated by Finnhub -->
<svg viewBox="0 0 55.5 55.5" xmlns="http://www.w3.org/2000/svg">
<path d="M 0,0 H 55.5 V 55.5 H 0 Z" fill="rgb(1, 84, 147)"/>
<path d="M 51.358000000000004,35.385 C 49.519,35.183 48.444,34.834 47.138,33.93 C 45.749,34.328 44.359,34.485 42.837,34.485 C 37.338,34.485 33.906,32.101 33.906,28.572 C 33.906,26.128 35.706,23.9 39.284,22.997 C 40.456,22.697 41.761,22.6 43.03,22.6 C 44.057,22.6 45.12,22.648 46.124,22.84 C 49.918,23.563 52.081,25.96 52.081,28.464 C 52.081,29.391 51.719,30.571 51.078,31.402 C 50.861,31.679 50.571,31.956 50.305,32.221 C 51.199,32.631 51.888,32.931 53,32.991 L 51.368,35.4 Z M 42.982,25.406 C 40.262,25.406 39.332,27.056 39.332,28.572 C 39.332,30.162 40.154,31.643 42.933,31.643 C 45.628,31.643 46.631,30.029 46.631,28.5 C 46.631,26.935 45.773,25.405 42.981,25.405 Z" fill="rgb(254, 254, 253)"/>
<path d="M 29.63,33.985 L 25.894,29.68 L 23,31.487 V 34 H 18 V 23 H 23 V 27.212 L 28.71,23 H 35.235 L 29.35,27.224 L 35.67,34 H 29.64 Z M 5,34 V 23 H 10 V 31 H 17 V 34 H 5 Z" fill="rgb(254, 254, 253)"/>
</svg>
