<?xml version="1.0" encoding="UTF-8"?>
<!-- generated by Finnhub -->
<svg viewBox="0 0 55.5 55.5" xmlns="http://www.w3.org/2000/svg">
<path d="M 0,0 H 55.5 V 55.5 H 0 Z" fill="rgb(1, 73, 150)"/>
<path d="M 5.87,24.224999999999998 C 5.804,23.652 5.509,23.234 4.896,23.016 L 4.796,22.984 L 4.706,22.956 L 4.618,22.933 L 4.538,22.917 L 4.469,22.901 L 4.37,22.882 L 4.332,22.878 V 22.681 H 7.952 L 10.176,28.211 L 11.163,30.651 L 12.096,28.211 L 14.238,22.681 H 17.609 V 22.878 L 17.579,22.882 L 17.499,22.894 L 17.381,22.914 L 17.232,22.944 C 16.952,23.016 16.732,23.079 16.512,23.28 L 16.455,23.335 L 16.409,23.391 L 16.367,23.445 L 16.329,23.497 L 16.303,23.544 L 16.276,23.591 L 16.242,23.671 L 16.222,23.733 L 16.215,23.773 L 16.211,23.784 V 33.176 L 16.401,32.837 L 16.413,32.814 L 16.44,32.758 L 16.486,32.668 L 16.539,32.554 L 16.596,32.416 C 16.795,31.944 17.021,31.491 17.233,31.026 C 18.556,28.224 19.699,25.322 20.897,22.461 L 21.004,22.213 L 21.072,22.055 L 21.096,22 L 23.728,28.213 C 24.358,29.715 25.961,35.423 28.989,32.968 L 29.047,32.916 L 29.1,32.865 L 29.153,32.81 L 29.206,32.75 L 29.256,32.688 L 29.306,32.621 L 29.351,32.554 L 29.389,32.491 L 29.424,32.431 L 29.454,32.365 L 29.484,32.298 L 29.514,32.223 L 29.542,32.152 L 29.568,32.073 C 29.85,31.072 29.693,30.154 28.875,29.497 L 28.776,29.418 L 28.681,29.351 L 28.589,29.288 L 28.502,29.233 L 28.426,29.19 L 28.338,29.143 L 28.243,29.096 L 28.14,29.044 L 27.911,28.938 L 27.656,28.82 L 27.382,28.686 L 27.096,28.544 L 26.948,28.464 L 26.799,28.386 L 26.651,28.299 L 26.502,28.213 L 26.315,28.099 L 26.133,27.976 L 26.041,27.913 L 25.953,27.846 L 25.866,27.779 L 25.778,27.709 L 25.694,27.638 L 25.61,27.568 L 25.53,27.492 C 24.923,26.893 24.519,26.181 24.59,25.286 L 24.609,25.14 L 24.631,24.998 L 24.666,24.852 L 24.7,24.71 L 24.746,24.572 C 24.933,24.051 25.202,23.612 25.591,23.225 L 25.698,23.126 L 25.808,23.032 L 25.922,22.945 L 26.041,22.863 L 26.162,22.788 L 26.288,22.718 L 26.418,22.65 L 26.551,22.595 L 26.688,22.544 L 26.828,22.501 L 26.97,22.461 L 27.118,22.434 L 27.267,22.414 L 27.416,22.402 L 27.568,22.398 H 27.667 L 27.762,22.402 L 27.85,22.41 L 27.934,22.418 L 28.018,22.43 L 28.094,22.441 L 28.17,22.456 L 28.239,22.472 L 28.372,22.507 L 28.497,22.547 L 28.611,22.59 L 28.718,22.637 L 28.917,22.724 L 29.107,22.803 L 29.206,22.833 L 29.306,22.858 C 29.75,22.929 30.095,22.781 30.417,22.472 L 30.463,22.42 L 30.497,22.373 L 30.543,22.306 L 30.558,22.282 L 30.89,25.316 H 30.558 L 30.551,25.288 L 30.528,25.206 L 30.486,25.079 L 30.426,24.918 L 30.386,24.823 L 30.342,24.725 L 30.292,24.618 L 30.234,24.508 L 30.174,24.394 L 30.104,24.279 L 30.029,24.161 L 29.949,24.039 L 29.861,23.922 L 29.766,23.803 L 29.663,23.685 L 29.553,23.571 L 29.434,23.461 L 29.309,23.358 L 29.176,23.256 L 29.031,23.161 L 28.882,23.078 L 28.722,23 L 28.555,22.933 L 28.375,22.874 L 28.189,22.827 L 27.99,22.792 L 27.785,22.772 L 27.568,22.764 L 27.415,22.768 L 27.27,22.784 L 27.133,22.804 L 27.008,22.835 L 26.89,22.871 L 26.78,22.914 L 26.68,22.962 L 26.585,23.016 L 26.501,23.076 L 26.421,23.138 L 26.349,23.205 L 26.284,23.276 C 25.991,23.636 25.869,24.086 25.869,24.552 V 24.662 L 25.872,24.769 L 25.888,24.872 L 25.911,24.97 L 25.938,25.068 L 25.975,25.163 L 26.017,25.253 C 26.43,26.011 27.327,26.381 28.067,26.691 L 28.337,26.797 L 28.611,26.907 L 28.761,26.967 L 28.905,27.03 L 29.046,27.097 L 29.183,27.164 L 29.317,27.239 L 29.446,27.314 L 29.576,27.392 L 29.698,27.475 L 29.819,27.558 L 29.938,27.645 L 30.048,27.731 L 30.158,27.822 L 30.265,27.917 L 30.368,28.015 L 30.468,28.11 C 31.538,29.314 31.762,30.709 30.837,32.105 L 30.787,32.183 L 30.734,32.258 L 30.68,32.333 L 30.623,32.408 L 30.566,32.479 L 30.506,32.554 L 30.386,32.672 L 30.266,32.79 L 30.201,32.85 L 30.132,32.904 L 30.067,32.959 L 29.995,33.015 L 29.922,33.065 L 29.85,33.117 L 29.774,33.169 L 29.698,33.216 L 29.618,33.263 L 29.538,33.31 L 29.454,33.354 L 29.37,33.397 L 29.282,33.437 L 29.195,33.476 L 29.103,33.511 L 29.012,33.547 C 28.019,33.889 27.039,33.811 26.052,33.504 L 25.892,33.452 L 25.735,33.401 L 25.655,33.381 L 25.579,33.361 C 25.079,33.233 24.585,33.254 24.196,33.629 L 24.143,33.693 L 24.097,33.752 L 24.055,33.807 L 24.021,33.858 L 23.994,33.905 L 23.96,33.972 L 23.948,34 L 23.373,32.554 L 22.081,29.147 H 18.49 L 17.693,30.963 L 17.675,31.006 L 17.632,31.116 L 17.602,31.196 L 17.572,31.286 L 17.537,31.392 L 17.503,31.502 L 17.473,31.625 L 17.446,31.751 L 17.423,31.881 C 17.367,32.287 17.371,32.675 17.644,33.004 L 17.69,33.051 L 17.74,33.094 L 17.793,33.134 L 17.846,33.174 L 17.9,33.204 L 17.957,33.236 L 18.014,33.264 L 18.067,33.287 L 18.124,33.311 L 18.181,33.331 L 18.296,33.362 L 18.406,33.382 L 18.513,33.397 L 18.608,33.405 L 18.699,33.41 L 18.775,33.413 L 18.885,33.41 L 18.927,33.405 V 33.772 H 12.809 V 33.405 L 12.839,33.413 L 12.923,33.429 C 13.879,33.553 14.351,32.713 14.351,31.703 L 14.375,28.213 V 23.36 L 12.535,28.214 L 10.863,32.555 L 10.393,33.773 L 9.903,32.555 L 8.119,28.215 L 6.204,23.562 V 31.09 C 6.238,32.104 6.41,33.238 7.574,33.45 L 7.628,33.454 L 7.704,33.462 H 7.734 V 33.773 H 4 V 33.462 L 4.042,33.466 H 4.152 L 4.229,33.462 L 4.316,33.454 L 4.412,33.438 C 5.668,33.169 5.881,32.107 5.881,31.074 V 24.242 Z M 34.235,33.116 L 34.357,33.179 L 34.479,33.243 L 34.597,33.298 L 34.719,33.353 L 34.837,33.404 L 34.955,33.447 L 35.073,33.49 L 35.188,33.534 C 37.316,34.196 39.915,33.427 40.765,31.182 C 40.871,30.896 40.941,30.514 40.601,30.347 L 40.575,30.339 L 40.559,30.399 A 5.016,5.016 0 0,1 40.369,30.945 L 40.3,31.104 L 40.258,31.19 C 39.345,32.985 37.011,34.327 35.149,32.829 L 35.05,32.742 L 34.955,32.652 C 33.272,30.756 33.375,27.218 34.178,24.922 L 34.269,24.702 L 34.368,24.482 L 34.475,24.272 L 34.597,24.068 L 34.727,23.874 L 34.867,23.689 L 35.024,23.516 L 35.188,23.354 L 35.367,23.208 L 35.557,23.078 L 35.763,22.964 L 35.98,22.866 L 36.216,22.787 L 36.464,22.732 L 36.727,22.693 L 37.008,22.681 L 37.26,22.689 L 37.496,22.709 L 37.725,22.749 L 37.942,22.795 L 38.147,22.855 L 38.342,22.929 L 38.525,23.008 L 38.7,23.098 L 38.864,23.201 C 39.376,23.536 39.764,23.987 40.076,24.521 L 40.136,24.639 L 40.194,24.749 L 40.244,24.855 L 40.285,24.954 L 40.354,25.127 L 40.404,25.257 L 40.43,25.344 L 40.438,25.375 H 40.655 L 40.465,22.196 L 40.445,22.22 L 40.389,22.287 L 40.35,22.33 L 40.3,22.381 L 40.244,22.436 L 40.174,22.491 C 39.847,22.741 39.47,22.924 39.054,22.83 L 39.001,22.819 L 38.948,22.803 L 38.841,22.763 L 38.731,22.716 L 38.617,22.669 L 38.491,22.614 L 38.361,22.563 L 38.217,22.511 L 38.137,22.484 L 38.057,22.46 L 37.969,22.44 L 37.878,22.417 L 37.782,22.401 L 37.683,22.381 L 37.577,22.37 L 37.462,22.358 L 37.344,22.346 L 37.222,22.342 L 37.089,22.338 H 36.952 L 36.803,22.346 L 36.639,22.361 L 36.468,22.385 L 36.285,22.413 L 36.095,22.448 L 35.896,22.495 L 35.69,22.55 L 35.48,22.614 L 35.267,22.689 L 35.047,22.771 L 34.829,22.866 L 34.609,22.972 L 34.387,23.09 L 34.167,23.22 L 33.949,23.362 L 33.736,23.519 C 30.836,25.862 30.846,31.201 34.235,33.116 Z M 43.668,31.753 L 43.599,31.639 L 43.535,31.521 L 43.474,31.399 L 43.413,31.272 L 43.355,31.147 L 43.302,31.013 L 43.249,30.879 L 43.199,30.745 L 43.154,30.603 L 43.112,30.461 L 43.07,30.315 C 42.676,28.797 42.717,27.165 43.1,25.651 L 43.173,25.419 L 43.249,25.189 L 43.333,24.969 L 43.424,24.757 L 43.524,24.552 L 43.63,24.355 L 43.744,24.166 L 43.863,23.985 L 43.988,23.815 L 44.122,23.655 C 45.352,22.307 47.312,22.223 48.622,23.505 L 48.754,23.655 L 48.884,23.815 L 49.002,23.985 L 49.116,24.166 L 49.223,24.355 L 49.323,24.552 L 49.413,24.757 L 49.501,24.969 L 49.577,25.189 L 49.65,25.419 L 49.714,25.651 C 50.069,27.143 50.108,28.816 49.692,30.303 L 49.65,30.449 L 49.604,30.591 L 49.554,30.733 L 49.504,30.871 L 49.452,31.005 L 49.394,31.135 L 49.337,31.265 L 49.277,31.391 L 49.212,31.513 L 49.147,31.635 L 49.078,31.749 C 47.732,33.869 45.011,33.917 43.668,31.753 Z M 42.768,32.553 L 42.86,32.623 L 42.956,32.695 L 43.055,32.765 A 5.8,5.8 0 0,0 49.284,32.947 L 49.379,32.888 L 49.474,32.825 L 49.57,32.758 L 49.665,32.691 L 49.756,32.624 L 49.848,32.554 L 49.966,32.454 L 50.081,32.352 L 50.191,32.25 L 50.301,32.144 L 50.404,32.034 L 50.511,31.923 L 50.61,31.809 L 50.705,31.69 L 50.801,31.568 L 50.892,31.446 L 50.98,31.32 L 51.064,31.194 L 51.147,31.064 L 51.223,30.93 L 51.3,30.796 L 51.372,30.658 L 51.437,30.52 L 51.502,30.379 L 51.562,30.233 C 52.158,28.718 52.13,27.108 51.574,25.58 L 51.46,25.32 L 51.338,25.068 L 51.2,24.828 L 51.056,24.596 L 50.9,24.375 L 50.732,24.162 L 50.553,23.962 L 50.37,23.772 L 50.176,23.592 L 49.97,23.422 L 49.76,23.264 L 49.54,23.119 L 49.311,22.985 L 49.079,22.858 L 48.839,22.744 L 48.591,22.642 C 47.068,22.101 45.461,22.122 43.981,22.796 L 43.741,22.914 L 43.505,23.047 L 43.276,23.193 L 43.056,23.351 L 42.842,23.516 L 42.64,23.693 L 42.442,23.879 L 42.255,24.075 L 42.08,24.28 L 41.912,24.497 L 41.756,24.717 L 41.611,24.954 L 41.474,25.194 L 41.349,25.443 L 41.238,25.703 A 6.787,6.787 0 0,0 41.139,30.3 L 41.196,30.442 L 41.257,30.584 L 41.318,30.721 L 41.387,30.859 L 41.456,30.989 L 41.528,31.119 L 41.608,31.249 L 41.688,31.372 L 41.772,31.494 L 41.859,31.616 L 41.947,31.73 L 42.042,31.844 L 42.138,31.954 L 42.236,32.061 L 42.336,32.164 L 42.442,32.266 L 42.549,32.365 L 42.659,32.459 L 42.769,32.553 Z M 21.724,28.212 L 21.945,28.779 H 18.6 L 18.817,28.212 L 20.326,24.635 L 21.724,28.212 Z" fill="rgb(254, 254, 253)" fill-rule="evenodd"/>
</svg>
