<?xml version="1.0" encoding="UTF-8"?>
<!-- generated by Finnhub -->
<svg viewBox="0 0 55.5 55.5" xmlns="http://www.w3.org/2000/svg">
<path d="M 0,0 H 55.5 V 55.5 H 0 Z" fill="rgb(239, 242, 248)"/>
<path d="M 23.061,42.985 A 27.293,27.293 0 0,1 22.735,38.735 C 22.735,32.721 24.697,27.453 28,23 C 24.535,18.33 19.59,14.585 13.879,13.051 C 12.929,12.796 12,13.537 12,14.54 V 41.463 C 12,42.311 12.675,42.999 13.507,42.999 H 23.071 Z" fill="rgb(34, 156, 222)"/>
<path d="M 27.99,22.985 C 31.304,27.453 33.264,32.72 33.264,38.736 C 33.264,40.187 33.149,41.611 32.929,43 H 42.494 C 43.326,43 44,42.312 44,41.462 V 14.54 C 44,13.537 43.072,12.795 42.121,13.05 C 36.41,14.587 31.465,18.33 28,23 Z" fill="rgb(152, 212, 54)"/>
<path d="M 27.99,22.985 C 24.696,27.453 22.736,32.72 22.736,38.736 C 22.736,40.187 22.779,41.611 23,43 H 33 C 33.22,41.61 33.264,40.187 33.264,38.736 C 33.264,32.721 31.304,27.453 28,23 Z" fill="rgb(20, 98, 167)"/>
</svg>
