<?xml version="1.0" encoding="UTF-8"?>
<!-- generated by Finnhub -->
<svg viewBox="0 0 55.5 55.5" xmlns="http://www.w3.org/2000/svg">
<path d="M 0,0 H 55.5 V 55.5 H 0 Z" fill="rgb(227, 28, 54)"/>
<path d="M 47.99,24.985 L 37.07,36.028 A 3.05,3.05 0 0,1 34.906,37 A 2.893,2.893 0 0,1 32.839,36.116 A 2.988,2.988 0 0,1 32,34.01 V 28.046 A 3.004,3.004 0 0,0 32.835,30.164 A 2.937,2.937 0 0,0 34.906,31.061 A 3.082,3.082 0 0,0 37.069,30.089 L 48,19 V 25 Z" fill="rgb(254, 254, 253)"/>
<path d="M 37.99,27.855999999999998 A 2.986,2.986 0 0,0 37.796,26.737 C 37.655,26.376 37.445,26.047 37.178,25.77 A 2.88,2.88 0 0,0 36.243,25.12 A 2.837,2.837 0 0,0 35.135,24.887 C 34.737,24.897 34.345,24.987 33.98,25.152 C 33.617,25.317 33.288,25.552 33.014,25.847 L 23.04,36.048 A 2.99,2.99 0 0,1 22.06,36.748 C 21.69,36.912 21.291,36.998 20.888,37 A 2.87,2.87 0 0,1 18.848,36.136 A 2.98,2.98 0 0,1 17.999,34.056 V 29 C 17.996,29.39 18.069,28.945 18.212,29.306 C 18.355,29.666 18.567,29.995 18.836,30.272 C 19.104,30.549 19.423,30.77 19.776,30.921 C 20.128,31.072 20.506,31.151 20.888,31.153 C 21.286,31.143 21.678,31.054 22.043,30.89 C 22.407,30.725 22.735,30.488 23.009,30.193 L 33.03,19.96 A 2.998,2.998 0 0,1 35.135,19 C 35.514,19.004 35.888,19.085 36.237,19.236 C 36.585,19.388 36.901,19.609 37.165,19.886 C 37.43,20.162 37.639,20.489 37.779,20.848 C 37.919,21.206 37.989,21.59 37.984,21.976 L 38,27.87 Z" fill="rgb(254, 254, 253)"/>
<path d="M 23.99,27.985 C 24.006,27.221 23.709,26.343 23.173,25.785 A 2.891,2.891 0 0,0 21.137,24.895 C 20.737,24.902 20.341,24.99 19.975,25.155 A 2.983,2.983 0 0,0 19.005,25.855 L 8,37 V 31 L 18.998,19.96 C 19.272,19.662 19.603,19.423 19.971,19.258 A 2.946,2.946 0 0,1 21.137,19 C 21.905,19.013 22.637,19.333 23.173,19.89 C 23.709,20.447 24.006,21.197 24,21.976 V 28 Z" fill="rgb(254, 254, 253)"/>
</svg>
