<?xml version="1.0" encoding="UTF-8"?>
<!-- generated by Finnhub -->
<svg viewBox="0 0 55.5 55.5" xmlns="http://www.w3.org/2000/svg">
<path d="M 0,0 H 55.5 V 55.5 H 0 Z" fill="rgb(98, 100, 103)"/>
<path d="M 30.936999999999998,17.154 L 28.014,20.531 L 20.785,11.162 A 0.412,0.412 0 0,0 20.462,11 H 17.412 A 0.417,0.417 0 0,0 17.044,11.224 A 0.402,0.402 0 0,0 17.082,11.65 L 28.017,26 L 34.651,17.66 A 0.402,0.402 0 0,0 34.537,17.071 A 0.424,0.424 0 0,0 34.321,17.004 H 31.281 A 0.426,0.426 0 0,0 31.095,17.051 A 0.412,0.412 0 0,0 30.947,17.169 Z M 41.604,38.351 L 33.552,28 L 43.933,14.655 A 0.398,0.398 0 0,0 43.823,14.069 A 0.426,0.426 0 0,0 43.606,14 H 40.598 A 0.426,0.426 0 0,0 40.418,14.051 A 0.409,0.409 0 0,0 40.276,14.167 L 29.458,28 L 37.891,38.839 A 0.411,0.411 0 0,0 38.219,39 H 41.274 A 0.418,0.418 0 0,0 41.646,38.777 A 0.397,0.397 0 0,0 41.604,38.351 Z M 15.087,18.654 L 22.007,28.006 L 11.599,41.383 A 0.4,0.4 0 0,0 11.709,41.961 C 11.772,42.001 11.845,41.998 11.92,42 H 14.928 C 14.991,42 15.053,42.01 15.11,41.983 A 0.414,0.414 0 0,0 15.255,41.867 L 26.1,28.002 L 18.8,18.169 A 0.413,0.413 0 0,0 18.655,18.05 A 0.43,0.43 0 0,0 18.471,18 H 15.416 A 0.425,0.425 0 0,0 15.199,18.068 A 0.407,0.407 0 0,0 15.005,18.448 A 0.399,0.399 0 0,0 15.085,18.654 Z M 25.178,38.846 L 28.013,35.537 L 35.21,44.839 A 0.409,0.409 0 0,0 35.54,44.999 H 38.574 A 0.417,0.417 0 0,0 38.942,44.777 A 0.398,0.398 0 0,0 38.904,44.355 L 28.005,30.108 L 21.485,38.358 A 0.4,0.4 0 0,0 21.599,38.943 C 21.664,38.983 21.739,39.003 21.815,39.003 H 24.85 A 0.415,0.415 0 0,0 25.178,38.846 Z" fill="rgb(254, 254, 253)"/>
</svg>
