<?xml version="1.0" encoding="UTF-8"?>
<!-- generated by Finnhub -->
<svg viewBox="0 0 55.5 55.5" xmlns="http://www.w3.org/2000/svg">
<path d="M 0,0 H 55.5 V 55.5 H 0 Z" fill="rgb(1, 158, 169)"/>
<path d="M 35.49,19.985 A 3.5,3.5 0 1,0 35.5,13 A 3.5,3.5 0 0,0 35.5,20 Z M 24.5,20 A 3.5,3.5 0 1,0 24.5,13 A 3.5,3.5 0 0,0 24.5,20 Z M 32,40 H 23 V 24.628 C 22.966,21.933 20,21 20,21 H 25.611 C 27.553,21 32,21.825 32,25.488 V 40 Z" fill="rgb(254, 254, 253)"/>
<path d="M 42.99,39.985 H 34 V 24.628 C 33.966,21.933 31,21 31,21 H 36.611 C 38.553,21 43,21.825 43,25.488 V 40 Z M 21,40 H 13 S 13.014,30.811 13,29.75 C 12.973,27.71 10.53,27 10.53,27 H 16.3 C 17.755,27 21,27.627 21,30.404 V 40 Z M 14.89,26.218 C 16.4,26.218 17.624,24.928 17.624,23.336 C 17.624,21.746 16.401,20.457 14.89,20.457 C 13.382,20.457 12.16,21.746 12.16,23.336 C 12.16,24.928 13.382,26.218 14.89,26.218 Z" fill="rgb(254, 254, 253)"/>
</svg>
