<?xml version="1.0" encoding="UTF-8"?>
<!-- generated by Finnhub -->
<svg viewBox="0 0 55.5 55.5" xmlns="http://www.w3.org/2000/svg">
<path d="M 0,0 H 55.5 V 55.5 H 0 Z" fill="url(#a)"/>
<path d="M 25.173,31.221 C 25.017,31.212 22.043,32.913 22.043,32.913 S 26.822,33.912 33.776,36.006 C 33.776,36.006 35.162,34.036 36.126,32.952 C 36.126,32.952 32.105,32.199 25.184,31.236 Z" fill="rgb(183, 74, 20)"/>
<path d="M 19.662999999999997,31.02 C 22.025,30.628 24.467,31.101 24.467,31.101 S 20.608,32.95 16.987,35.233 C 16.987,35.233 13.954,34.319 11.732,34.093 C 11.732,34.093 17.373,31.435 19.672,31.035 Z" fill="rgb(1, 88, 81)"/>
<path d="M 27.976,35.011 S 30.236,35.634 33.346,36.686 C 33.346,36.686 31.373,39.615 30.668,41 C 30.668,41 28.695,39.854 24.969,38.209 C 24.969,38.209 25.762,37.362 27.986,35.026 Z" fill="rgb(177, 186, 28)"/>
<path d="M 17.833,35.508 S 19.335,34.462 21.415,33.293 C 21.415,33.293 23.81,33.775 27.312,34.819 L 24.18,37.854 S 22.343,37.081 20.788,36.516 C 19.234,35.952 17.843,35.523 17.843,35.523 Z" fill="rgb(196, 168, 3)"/>
<path d="M 17.612,30.872 L 17.524,31 H 15.161 L 15.099,30.923 L 15.531,28.661 L 15.814,27.119 L 16.429,24.049 L 14.287,28.599 L 13.253,30.887 L 13.154,31 H 11.21 L 11.126,30.91 L 11.051,29.242 L 10.817,24.049 L 10.484,25.402 L 9.979,27.472 L 9.179,30.887 L 9.094,31 H 7.061 L 7,30.923 L 7.75,28.142 L 8.6,24.92 L 9.314,22.115 L 9.387,22.039 C 10.927,22.039 11.283,22.039 12.761,22 L 12.835,22.076 L 12.897,24.075 L 12.946,24.998 L 13.068,27.46 L 14.618,24.049 C 14.816,23.63 15.419,22.291 15.505,22.115 L 15.591,22.038 C 17.032,22.038 17.388,22.038 18.94,22 L 19,22.075 L 18.533,24.908 L 17.991,28.318 L 17.622,30.887 Z M 25.283,29.554 A 2.773,2.773 0 0,1 24.208,30.564 L 24.132,30.594 L 24.044,30.605 C 23.012,30.451 22.55,30.449 22.081,30.44 C 21.621,30.43 20.898,30.425 20.124,30.567 L 20.05,30.56 L 19.995,30.533 C 19.345,30.067 19,29.358 19,28.293 C 19,27.272 19.365,26.04 20.047,25.21 C 20.941,24.153 22.128,24 22.96,24 C 23.818,24 24.462,24.203 24.753,24.368 C 26,25.032 26,26.483 26,26.788 C 26,27.248 25.963,27.693 25.862,28.125 C 25.722,28.687 25.497,29.221 25.283,29.554 Z M 23.478,26.407 C 23.478,25.909 23.276,25.592 22.885,25.592 C 22.393,25.592 22.141,26.125 22.078,26.24 C 21.761,26.852 21.535,28.125 21.535,28.648 C 21.535,28.866 21.535,29.528 22.129,29.528 C 22.784,29.528 23.136,28.636 23.339,27.578 A 6.733,6.733 0 0,0 23.478,26.408 Z M 25.671,30.248 L 26.128,28.67 L 26.241,28.632 C 26.444,28.858 26.974,29.472 27.973,29.472 C 28.365,29.472 28.858,29.345 28.858,28.957 C 28.858,28.621 28.555,28.47 28.075,28.231 L 27.81,28.094 C 27.228,27.78 26.546,27.404 26.546,26.366 C 26.546,25.802 26.772,25.264 27.164,24.839 C 27.619,24.351 28.404,24 29.604,24 C 30.629,24 31.173,24.224 31.856,24.512 L 31.919,24.626 C 31.704,25.303 31.653,25.503 31.475,26.203 L 31.349,26.228 A 2.953,2.953 0 0,0 31.019,25.865 C 30.729,25.627 30.262,25.465 29.859,25.465 C 29.239,25.465 29.087,25.753 29.087,25.915 C 29.087,26.19 29.415,26.355 29.731,26.505 L 29.983,26.629 C 30.704,27.006 31.475,27.43 31.475,28.583 C 31.475,29.322 31.121,29.797 30.907,30.036 C 30.06,30.973 28.796,31 28.252,31 C 26.81,31 26.116,30.611 25.698,30.373 L 25.671,30.248 Z M 39.07,26.517 A 52.484,52.484 0 0,0 38.485,29.211 C 38.385,29.723 38.299,30.399 38.225,30.924 L 38.148,31 H 35.846 L 35.784,30.922 L 35.884,30.234 A 2.578,2.578 0 0,1 34.016,31 A 1.88,1.88 0 0,1 32.847,30.617 C 32.026,29.977 32,28.88 32,28.485 C 32,26.926 32.735,25.788 33.282,25.24 C 34.49,24.026 36.046,24.013 37.205,24 H 39.568 L 39.644,24.102 L 39.07,26.517 Z M 36.83,25.673 C 36.444,25.661 35.933,25.648 35.484,26.033 C 35.137,26.338 34.64,27.118 34.64,28.253 C 34.64,28.907 34.926,29.288 35.424,29.288 C 35.697,29.288 35.884,29.16 36.071,29.02 L 36.829,25.673 Z M 42.21,28.502 C 41.943,29.739 41.904,30.003 41.766,30.887 L 41.691,30.95 L 38.997,31 L 38.947,30.911 C 39.377,29.31 39.453,29.034 39.793,27.519 L 39.92,26.989 C 40.186,25.779 40.223,25.539 40.35,24.531 L 40.438,24.429 A 34.27,34.27 0 0,0 43.155,24 L 43.233,24.09 L 42.36,27.773 L 42.21,28.503 Z M 43.28,23.185 L 43.38,23.095 L 43.848,21.089 L 43.771,21 L 41.231,21.343 L 41.131,21.431 L 40.701,23.461 L 40.79,23.553 L 43.28,23.185 Z M 48.22,28.846 C 47.97,29.747 47.945,29.91 47.781,30.636 L 47.68,30.724 C 47.217,30.874 46.777,31 46.137,31 C 44.03,31 43,29.747 43,27.918 C 43,26.052 44.305,24 46.98,24 C 48.146,24 48.659,24.326 48.973,24.512 L 49,24.614 L 48.51,26.303 L 48.383,26.317 C 48.083,25.942 47.743,25.727 47.267,25.727 C 46.414,25.727 45.61,26.516 45.61,27.844 C 45.61,28.544 45.95,29.232 46.89,29.232 C 47.493,29.232 47.844,28.982 48.094,28.796 L 48.221,28.846 Z" fill="rgb(254, 254, 253)"/>
<defs>
<linearGradient id="a" x1="10.418" x2="68.147" y1="9.712" y2="76.017" gradientUnits="userSpaceOnUse">
<stop stop-color="rgb(25, 29, 31)" offset="0"/>
<stop stop-color="rgb(5, 5, 8)" offset="1"/>
</linearGradient>
</defs>
</svg>
