<?xml version="1.0" encoding="UTF-8"?>
<!-- generated by Finnhub -->
<svg viewBox="0 0 55.5 55.5" xmlns="http://www.w3.org/2000/svg">
<path d="M 0,0 H 55.5 V 55.5 H 0 Z" fill="rgb(27, 77, 253)"/>
<path d="M 42.986000000000004,24.622 V 26.434 C 42.996,26.774 43.258,27.023 43.578,27.023 H 49.212 C 49.982,27.023 50.679,27.383 51.183,27.919 A 3.04,3.04 0 0,1 52,30.014 V 32.032 C 52,33.67 50.749,35 49.207,35 H 31 V 32.012 H 47.431 C 47.751,32.012 48.001,31.754 48.001,31.414 L 48,30.632 C 48,30.292 47.752,30.014 47.431,30.014 H 41.784 C 40.255,30.014 39.004,29.121 39.004,27.497 V 23.955 C 39.004,22.33 40.254,21 41.784,21 L 49.43,21.044 C 50.89,21.044 51.996,22.29 51.996,23.747 V 24.02 H 43.578 C 43.258,24.02 42.996,24.298 42.996,24.637 Z M 23,23.704 V 35 H 19 V 25.027 L 16,25.028 L 15.99,35 H 12.003 V 25.028 L 8,25.027 L 7.979,35 H 4 V 24.016 C 4,22.553 5.167,21.044 6.593,21.044 H 20.434 C 21.861,21.044 23,22.241 23,23.704 Z" fill="rgb(254, 254, 253)"/>
<path d="M 32.99,26.381 C 33,26.736 32.73,27.023 32.389,27.023 H 28.997 V 24.03 H 32.389 C 32.729,24.03 33,24.249 33,24.588 V 26.396 Z M 34.736,21.044 H 26.334 C 25.35,21.044 24.999,21.84 24.999,22.821 V 35 H 28.997 V 30.014 H 34.736 C 36.376,30.014 37,28.666 37,27.027 V 24.031 C 37,22.393 36.376,21.044 34.736,21.044 Z" fill="rgb(254, 254, 253)"/>
</svg>
