<?xml version="1.0" encoding="UTF-8"?>
<!-- generated by Finnhub -->
<svg viewBox="0 0 55.5 55.5" xmlns="http://www.w3.org/2000/svg">
<path d="M 0,0 H 55.5 V 55.5 H 0 Z" fill="rgb(35, 74, 164)"/>
<path d="M 35.24,38.348 C 36.514,38.363 37,36.659 36.951,35.03 C 37.001,33.347 36.514,31.799 35.251,31.69 H 35 V 38.363 H 35.25 Z M 35.057,40 H 33 V 30 H 35.056 C 37.874,29.837 38.846,32.207 38.992,35.03 C 38.992,37.582 37.826,40.108 35.056,40 Z M 23.097,34.922 C 23.001,31.99 21.835,29.872 19.745,29.818 C 17.412,29.872 16.246,32.098 16.198,35.03 C 16.246,37.854 17.51,40.188 19.745,40.188 C 21.835,40.188 23.05,37.799 23.098,34.921 Z M 19.551,31.664 C 20.668,31.718 21.154,32.967 21.057,35.03 C 21.106,36.822 20.717,38.288 19.551,38.342 C 18.579,38.288 18.19,36.822 18.287,35.03 C 18.19,33.075 18.579,31.718 19.551,31.664 Z M 46.558,35.026 C 46.461,32.094 45.295,29.976 43.205,29.922 C 40.873,29.976 39.706,32.202 39.658,35.134 C 39.706,37.958 40.97,40.292 43.205,40.292 C 45.295,40.292 46.509,37.904 46.558,35.026 Z M 43.011,31.768 C 44.129,31.823 44.615,33.071 44.517,35.134 C 44.566,36.926 44.177,38.392 43.011,38.446 C 42.039,38.392 41.651,36.926 41.747,35.134 C 41.65,33.18 42.039,31.823 43.011,31.768 Z M 24,30 H 26 V 38 H 27.52 V 40 H 24 V 30 Z M 10.998,30 H 16 V 32 H 14.415 V 40 H 12.595 V 32 H 10.998 V 30 Z M 28,30 H 32 V 32 H 30 V 34 H 32 V 36 H 30 V 38 H 32 V 40 H 28 V 30 Z M 44,24.128 V 28 H 42 V 18 H 45.023 C 46.487,17.946 47.684,19.235 47.659,21.08 C 47.638,22.601 46.878,23.457 45.755,23.781 L 48,28 H 45.95 L 44,24.128 Z M 44.632,19.657 H 44 V 22.331 L 44.632,22.323 C 45.266,22.323 45.706,21.644 45.755,20.943 C 45.705,20.24 45.315,19.657 44.632,19.657 Z" fill="rgb(254, 254, 253)"/>
<path d="M 12.99,17.985 L 12.1,24.213 L 11,18 H 8 V 28 H 10 V 20.648 L 11,28 H 13 L 14,20.648 V 28 H 16 V 18 H 13 Z M 16.982,18 H 21 V 20 H 19 V 22 H 21 V 24 H 19 V 26 H 21 V 28 H 16.982 V 18 Z M 26.185,18 H 21.567 V 20 H 22.938 V 28 H 25 V 20 H 26.185 V 18 Z M 34,18 H 32 V 28 H 36 V 26 H 34 V 18 Z M 26.621,18 H 31.309 V 20 H 30 V 28 H 28 V 20 H 26.621 V 18 Z M 41,18 H 37 V 28 H 41 V 26 H 39 V 24 H 41 V 22 H 39 V 20 H 41 V 18 Z" fill="rgb(254, 254, 253)"/>
</svg>
