<?xml version="1.0" encoding="UTF-8"?>
<!-- generated by Finnhub -->
<svg viewBox="0 0 55.5 55.5" xmlns="http://www.w3.org/2000/svg">
<path d="M 0,0 H 55.5 V 55.5 H 0 Z" fill="rgb(0, 111, 187)"/>
<path d="M 13.47,31.985 H 13.278 L 15.062,24 H 17.609 L 18.454,28.704 L 19.503,24.001 H 21.41 L 19.627,32 H 17.133 L 16.297,27.02 L 15.187,32 H 13.48 Z M 23.231,27.558 C 23.084,27.822 22.973,28.261 22.847,28.852 C 22.696,29.557 22.619,30.035 22.619,30.332 C 22.619,30.552 22.662,30.655 22.702,30.695 C 22.739,30.737 22.812,30.767 22.97,30.767 C 23.233,30.756 23.336,30.718 23.504,30.447 C 23.663,30.171 23.816,29.649 24,28.783 C 24.107,28.287 24.179,27.897 24.177,27.633 C 24.145,27.263 24.131,27.225 23.807,27.196 C 23.517,27.204 23.384,27.296 23.231,27.558 Z M 22.751,32.118 C 22.006,32.118 21.484,31.961 21.146,31.641 C 20.81,31.321 20.694,30.866 20.695,30.353 C 20.695,29.91 20.777,29.413 20.894,28.873 C 21.209,27.31 21.81,25.831 24.026,25.845 C 24.79,25.845 25.315,26.014 25.649,26.337 C 25.984,26.661 26.094,27.112 26.093,27.599 C 26.093,28.015 26.015,28.471 25.914,28.943 C 25.556,30.721 24.926,32.118 22.787,32.118 H 22.752 Z M 28.593,26 H 28.796 L 28.723,26.345 C 29.126,26.003 29.61,25.885 30.101,25.889 H 30.302 L 29.932,27.641 L 29.791,27.632 A 2.315,2.315 0 0,0 29.598,27.625 C 28.508,27.641 28.418,28.243 28.286,28.78 L 27.606,31.996 H 25.697 L 26.965,26 H 28.593 Z M 32.307,27.626 C 32.157,27.936 32.05,28.409 31.924,28.976 C 31.786,29.592 31.705,30.051 31.706,30.351 C 31.737,30.749 31.764,30.773 32.012,30.795 C 32.221,30.79 32.344,30.712 32.511,30.411 C 32.666,30.112 32.807,29.614 32.966,28.906 C 33.089,28.358 33.191,27.893 33.19,27.589 C 33.16,27.251 33.146,27.209 32.892,27.188 C 32.608,27.195 32.467,27.314 32.307,27.626 Z M 32.359,31.994 L 32.422,31.702 C 32.052,31.983 31.622,32.1 31.145,32.1 H 31.121 C 30.594,32.102 30.209,31.932 29.984,31.644 C 29.759,31.358 29.692,30.991 29.691,30.609 C 29.691,30.038 29.845,29.413 29.956,28.917 C 30.086,28.347 30.235,27.608 30.579,26.993 C 30.917,26.38 31.495,25.878 32.402,25.883 C 32.88,25.874 33.277,25.997 33.55,26.296 L 34.107,24 H 36.124 L 34.294,31.994 H 32.359 Z M 42.874,27.627 C 42.724,27.887 42.609,28.317 42.48,28.896 C 42.322,29.589 42.242,30.056 42.246,30.347 C 42.242,30.562 42.288,30.665 42.329,30.703 C 42.366,30.745 42.442,30.773 42.607,30.773 C 42.875,30.763 42.981,30.726 43.152,30.46 C 43.315,30.19 43.472,29.677 43.662,28.828 C 43.771,28.343 43.844,27.96 43.843,27.701 C 43.81,27.338 43.794,27.301 43.464,27.272 C 43.164,27.28 43.032,27.37 42.874,27.627 Z M 42.38,32.1 C 41.616,32.1 41.082,31.946 40.735,31.632 C 40.39,31.318 40.271,30.872 40.271,30.37 C 40.271,29.936 40.358,29.448 40.475,28.918 C 40.8,27.385 41.415,25.935 43.687,25.948 C 44.472,25.948 45.009,26.114 45.354,26.431 C 45.696,26.749 45.809,27.191 45.808,27.669 C 45.808,28.079 45.728,28.524 45.625,28.986 C 45.256,30.73 44.612,32.1 42.415,32.1 H 42.38 Z M 48.317,32 L 49.237,27.884 C 49.27,27.734 49.291,27.598 49.291,27.491 C 49.261,27.246 49.273,27.212 48.982,27.188 C 48.572,27.189 48.451,27.449 48.325,27.953 L 47.419,32 H 45.401 L 46.743,26 H 48.763 L 48.703,26.263 C 48.826,26.175 48.953,26.105 49.083,26.053 A 2.29,2.29 0 0,1 50.004,25.881 C 50.754,25.883 51.417,26.283 51.418,27.013 C 51.418,27.11 51.407,27.209 51.385,27.315 L 50.338,32 H 48.317 Z M 39.864,26.312 C 39.509,26.092 39.048,26.001 38.554,26 C 37.474,25.998 36.038,26.372 35.732,27.69 C 35.704,27.81 35.692,27.927 35.692,28.037 C 35.696,28.827 36.372,29.189 36.95,29.452 C 37.549,29.717 38.035,29.942 38.021,30.252 C 38.024,30.268 38.023,30.284 38.023,30.302 C 38.023,30.545 37.769,30.742 37.458,30.742 C 37.151,30.742 36.896,30.545 36.896,30.302 C 36.896,30.302 36.886,30.202 36.986,30 H 35.249 A 1.872,1.872 0 0,0 35.094,30.758 C 35.087,31.275 35.333,31.651 35.73,31.846 C 36.125,32.043 36.639,32.097 37.239,32.099 C 38.651,32.099 39.737,31.332 39.973,30.276 C 40.002,30.151 40.013,30.031 40.013,29.917 C 40.011,29.112 39.34,28.704 38.753,28.422 A 7.44,7.44 0 0,1 37.931,28.005 C 37.781,27.925 37.649,27.789 37.649,27.626 C 37.649,27.384 37.899,27.188 38.212,27.188 C 38.259,27.188 38.33,27.198 38.412,27.218 C 38.758,27.321 38.798,27.718 38.687,28 H 40.329 C 40.502,27.41 40.456,26.675 39.864,26.312 Z" fill="rgb(254, 254, 253)"/>
<path d="M 38.625,16.423 A 58.218,58.218 0 0,0 31.047,15.945 C 16.094,15.945 3.974,21.425 3.974,28.185 C 3.974,29.554 4.48,30.77 5.398,32 H 10.331 C 9.404,30.773 8.896,29.557 8.896,28.184 C 8.896,21.694 20.136,16.434 34.001,16.434 C 35.571,16.434 37.103,16.505 38.593,16.634 L 38.635,16.438 Z" fill="rgb(254, 254, 253)"/>
</svg>
