<?xml version="1.0" encoding="UTF-8"?>
<!-- generated by Finnhub -->
<svg viewBox="0 0 55.5 55.5" xmlns="http://www.w3.org/2000/svg">
<path d="M 0,0 H 55.5 V 55.5 H 0 Z" fill="rgb(1, 98, 157)"/>
<path d="M 22.519,28.988 C 22.168,30.909 23.022,32.18 25.195,32.18 C 27.367,32.18 28.705,30.909 29.065,29.003 C 29.427,27.098 28.572,25.827 26.4,25.827 S 22.89,27.097 22.529,29.003 Z M 25.189,29.003 C 25.417,27.803 25.676,27.443 26.093,27.443 C 26.51,27.443 26.633,27.803 26.406,29.003 C 26.177,30.203 25.917,30.563 25.502,30.563 C 25.085,30.563 24.961,30.203 25.189,29.003 Z" fill="rgb(254, 254, 253)"/>
<path d="M 34.546,31.980999999999998 H 32.048 L 32.155,31.094 H 32.134 C 31.534,31.954 30.854,32.18 30.248,32.18 C 29.174,32.18 28.512,31.583 28.813,29.993 L 29.57,26 H 32.14 L 31.464,29.558 C 31.38,29.998 31.464,30.245 31.771,30.245 C 32.058,30.245 32.301,30.062 32.409,29.578 L 33.12,26 H 35.691 L 34.555,31.996 Z M 36.005,26.004 H 38.514 L 38.453,26.66 C 38.927,26.125 39.313,25.934 39.644,25.934 C 39.857,25.934 40.076,25.958 40.293,26.101 L 39.848,28.375 C 39.523,28.224 39.272,28.102 38.84,28.099 C 38.35,28.096 38.075,28.535 37.923,29.352 L 37.442,32 H 34.869 L 36.005,26.004 Z" fill="rgb(254, 254, 253)"/>
<path d="M 43.524,28.465 C 43.656,27.722 43.648,27.313 43.201,27.313 C 42.776,27.313 42.515,27.565 42.223,29.102 C 41.958,30.5 42.13,30.715 42.523,30.715 C 42.939,30.715 43.123,30.368 43.323,29.591 H 45.706 C 45.358,31.26 44.256,32.191 42.138,32.191 C 40.468,32.191 39.215,31.403 39.674,28.981 C 40.068,26.908 41.514,25.836 43.406,25.836 C 45.482,25.836 46.151,26.848 45.916,28.48 H 43.534 Z" fill="rgb(254, 254, 253)"/>
<path d="M 49.382000000000005,29.985 C 49.237,30.428 48.925,30.715 48.639,30.715 C 48.129,30.715 47.975,30.417 48.105,29.726 L 48.14,29.548 H 51.815 L 51.893,29.143 C 52.301,26.992 51.552,25.837 49.533,25.837 C 47.62,25.837 46.171,26.908 45.776,28.987 C 45.317,31.407 46.574,32.191 48.136,32.191 C 50.133,32.191 51.199,31.357 51.648,30 H 49.392 Z M 48.379,28.283 L 48.395,28.199 C 48.505,27.616 48.838,27.313 49.252,27.313 C 49.656,27.313 49.863,27.616 49.752,28.199 L 49.737,28.283 H 48.379 Z M 22.99,26.002 C 23.34,24.492 22.039,24 20.14,24 C 19.93,24 19.726,24.007 19.53,24.02 L 16.541,25.34 C 16.398,25.536 16.201,25.768 16.126,26 H 18.92 A 0.277,0.277 0 0,1 18.93,25.887 C 18.98,25.685 19.237,25.502 19.727,25.502 C 20.108,25.503 20.337,25.619 20.268,26.002 H 22.991 Z M 16.078,26.372 C 16.042,26.542 16.02,26.704 16.014,26.858 C 17.478,27.585 19.852,28.767 20.946,29.317 C 21.347,29.519 21.122,29.417 21.122,29.417 L 20.938,29.339 L 16.014,27.035 C 16.041,27.689 16.394,28.171 17.237,28.441 L 19.261,29.084 C 19.531,29.169 19.723,29.319 19.662,29.608 C 19.59,29.952 19.241,30.241 18.792,30.241 C 18.504,30.241 18.333,30.145 18.247,29.994 C 18.164,29.834 18.167,29.62 18.212,29.406 H 17.147 A 1267.64,1267.64 0 0,1 19.117,31.96 C 20.89,31.777 22.224,30.963 22.573,29.31 C 22.77,28.377 22.491,27.68 21.61,27.273 C 20.904,26.939 19.875,26.724 19.326,26.553 C 19.131,26.49 18.996,26.417 18.943,26.297 L 16.086,26.34 L 16.078,26.372 Z M 15.3,29.407 C 15.08,30.454 15.4,31.113 16.02,31.505 L 15.406,29.407 H 15.3 Z M 17.018,29.406 H 15.528 L 16.101,31.554 C 16.668,31.878 17.457,32 18.305,32 C 18.58,32 18.848,31.987 19.107,31.961 L 18.982,31.823 L 17.019,29.406 Z M 16.624,25.24 L 19.356,24.039 C 18.128,24.159 17.192,24.574 16.624,25.24 Z M 14.757,25.868 L 14.823,25.764 L 16.091,24.005 H 15.131 L 14.791,25.742 L 14.757,25.868 Z M 14.934,25.996 L 16.042,25.44 L 16.342,24.005 H 16.249 L 14.934,25.996 Z M 16.009,25.634 L 15.274,26 H 15.931 L 16.009,25.634 Z M 13.359,26 H 13.905 L 13.411,25.76 L 13.359,26 Z M 14.39,25.86 L 14.356,25.755 L 13.906,24.005 H 13.77 L 13.6,24.838 L 14.33,25.771 L 14.39,25.861 Z M 14.162,25.94 L 14.291,26.015 H 14.298 L 14.193,25.894 L 13.558,25.041 L 13.446,25.589 L 14.162,25.939 Z M 14.58,25.948 L 14.614,25.701 L 14.988,24 H 14.049 L 14.529,25.7 L 14.579,25.948 Z M 15.174,26.445 L 15.78,26.755 L 15.844,26.445 H 15.174 Z M 14.421,26.64 C 14.406,26.662 14.374,26.72 14.354,26.746 C 14.049,27.169 13.434,28.015 12.762,28.937 L 12.137,31.996 H 13.349 L 14.39,26.763 L 14.421,26.641 Z M 14.84,26.74 L 14.779,26.652 C 14.784,26.672 14.806,26.727 14.813,26.75 L 15.355,28.837 L 15.589,27.69 L 14.84,26.74 Z M 14.597,26.582 C 14.59,26.614 14.58,26.748 14.569,26.797 C 14.367,27.717 13.815,30.188 13.409,31.996 H 14.71 L 15.297,29.122 L 14.639,26.802 L 14.597,26.582 Z M 14.212,26.63 L 14.317,26.497 C 14.286,26.512 14.214,26.553 14.169,26.575 L 13.143,27.072 L 12.824,28.632 L 14.212,26.63 Z M 15.012,26.574 L 14.866,26.491 C 14.885,26.515 14.953,26.585 14.978,26.619 C 15.133,26.822 15.359,27.125 15.63,27.485 L 15.744,26.928 L 15.012,26.574 Z M 13.185,26.867 L 14.009,26.445 H 13.271 L 13.185,26.867 Z M 12.728,27.272 C 11.255,27.982 9.247,28.947 8.277,29.41 C 7.882,29.598 8.114,29.48 8.114,29.48 L 8.264,29.39 L 12.767,27.082 L 12.919,26.34 L 10.149,26.293 L 9.805,27.98 L 9.543,26.085 A 434.11,434.11 0 0,1 7.565,26.047 L 7.392,26.037 L 7.572,26.023 L 9.532,26.007 L 9.28,24.003 H 5.632 L 4,32 H 6.887 L 7.638,28.309 L 8.116,32 H 10.496 L 12.293,29.399 L 12.728,27.272 Z M 13.264,24.646 L 12.786,24.003 L 10.617,24.005 L 10.58,24.187 L 13.106,25.422 L 13.264,24.646 Z M 13.396,24.003 H 12.946 L 13.303,24.458 L 13.396,24.003 Z M 11.557,31.996 H 11.632 V 31.994 H 11.764 L 12.243,29.651 C 11.593,30.541 10.953,31.42 10.531,31.996 H 11.557 Z" fill="rgb(254, 254, 253)"/>
<path d="M 13.063,25.567999999999998 L 10.563,24.275 L 10.168,26 H 12.951 L 13.072,25.583 Z M 15.406,29.506 L 16.02,31.67 L 16.1,31.721 L 15.528,29.506 H 15.406 Z M 19.355,24.04 L 16.624,25.24 C 16.564,25.312 16.506,25.386 16.454,25.462 L 19.53,24.022 C 19.471,24.027 19.413,24.032 19.355,24.039 Z M 16.085,26.34 L 18.943,26.297 A 0.286,0.286 0 0,1 18.919,26.206 L 16.126,26.176 A 2.75,2.75 0 0,0 16.086,26.341 Z M 20.946,29.413 C 19.853,28.846 17.478,27.626 16.014,26.875 A 2.06,2.06 0 0,0 16.014,27.058 L 20.938,29.436 L 21.122,29.516 S 21.347,29.622 20.946,29.413 Z M 17.147,29.406 H 17.019 L 18.982,31.823 L 19.107,31.961 L 19.117,31.96 A 1272.67,1272.67 0 0,0 17.147,29.406 Z M 14.778,26.651 L 14.84,26.74 L 15.59,27.69 L 15.63,27.486 C 15.36,27.126 15.133,26.822 14.978,26.619 C 14.953,26.585 14.885,26.515 14.866,26.491 L 15.012,26.574 L 15.744,26.928 L 15.779,26.756 L 15.174,26.446 C 15.148,26.431 15.121,26.419 15.097,26.406 C 15.063,26.388 14.943,26.351 14.921,26.339 L 15.109,26.356 L 15.862,26.344 L 15.896,26.174 L 15.103,26.166 L 14.908,26.185 L 15.093,26.111 L 15.273,26.016 L 16.008,25.633 L 16.05,25.433 L 15.014,25.941 L 14.884,26.016 L 14.841,26.042 L 14.861,26.016 L 14.97,25.876 L 16.249,24.004 H 16.091 L 14.823,25.764 L 14.757,25.869 L 14.79,25.742 L 15.131,24.004 H 14.988 L 14.614,25.701 L 14.579,25.948 L 14.529,25.701 L 14.049,24.004 H 13.905 L 14.355,25.756 L 14.389,25.861 L 14.33,25.771 L 13.6,24.838 L 13.558,25.041 L 14.193,25.895 L 14.298,26.015 L 14.308,26.026 L 14.29,26.016 L 14.162,25.94 L 13.446,25.59 L 13.411,25.759 L 13.905,26.016 L 14.081,26.107 L 14.271,26.185 L 14.069,26.166 L 13.325,26.172 S 13.291,26.343 13.289,26.345 L 14.075,26.355 C 14.114,26.356 14.238,26.338 14.265,26.338 L 14.08,26.409 L 14.009,26.446 L 13.185,26.868 L 13.143,27.071 L 14.169,26.574 C 14.214,26.552 14.286,26.512 14.317,26.496 L 14.211,26.629 L 12.824,28.632 L 12.762,28.937 C 13.434,28.015 14.048,27.169 14.354,26.747 C 14.374,26.719 14.406,26.662 14.421,26.641 L 14.39,26.763 L 13.349,31.996 H 13.409 C 13.815,30.188 14.366,27.716 14.569,26.798 C 14.579,26.748 14.589,26.614 14.597,26.582 L 14.638,26.802 L 15.297,29.122 L 15.355,28.837 L 14.813,26.749 C 14.806,26.726 14.784,26.671 14.778,26.651 Z M 13.303,24.458 L 12.947,24.003 H 12.787 L 13.264,24.645 L 13.304,24.458 Z" fill="rgb(254, 254, 253)"/>
<path d="M 13.096,25.407 L 10.58,24.187 L 10.562,24.275 L 13.073,25.582 L 13.106,25.422 Z M 10.53,31.996 C 10.953,31.419 11.594,30.54 12.242,29.65 L 12.293,29.399 L 10.496,31.996 H 10.53 Z M 8.263,29.39 L 8.114,29.48 S 7.881,29.598 8.276,29.41 C 9.246,28.947 11.256,27.981 12.728,27.271 L 12.768,27.081 L 8.263,29.39 Z M 12.952,26.175 L 10.169,26.199 L 10.15,26.293 C 11.11,26.31 12.121,26.327 12.919,26.339 L 12.952,26.175 Z"/>
<path d="M 15.396,29.491 L 16.02,31.67 L 16.1,31.721 L 15.528,29.506 H 15.406 Z M 19.355,24.04 L 16.624,25.24 C 16.564,25.312 16.506,25.386 16.454,25.462 L 19.53,24.022 C 19.471,24.027 19.413,24.032 19.355,24.039 Z M 16.085,26.34 L 18.943,26.297 A 0.286,0.286 0 0,1 18.919,26.206 L 16.126,26.176 A 2.75,2.75 0 0,0 16.086,26.341 Z M 20.946,29.413 C 19.853,28.846 17.478,27.626 16.014,26.875 A 2.06,2.06 0 0,0 16.014,27.058 L 20.938,29.436 L 21.122,29.516 S 21.347,29.622 20.946,29.413 Z M 17.147,29.406 H 17.019 L 18.982,31.823 L 19.107,31.961 L 19.117,31.96 A 1272.67,1272.67 0 0,0 17.147,29.406 Z M 14.779,26.651 L 14.84,26.74 L 15.59,27.69 L 15.63,27.486 C 15.36,27.126 15.133,26.822 14.979,26.619 C 14.953,26.585 14.885,26.515 14.867,26.491 L 15.012,26.574 L 15.745,26.928 L 15.78,26.756 L 15.175,26.446 C 15.148,26.431 15.121,26.419 15.097,26.406 C 15.064,26.388 14.944,26.351 14.921,26.339 L 15.11,26.356 L 15.887,26.344 L 15.921,26.174 L 15.104,26.166 L 14.909,26.185 L 15.093,26.111 L 15.274,26.016 L 16.009,25.633 L 16.05,25.433 L 15.014,25.941 L 14.885,26.016 L 14.841,26.042 L 14.861,26.016 L 14.971,25.876 L 16.25,24.004 H 16.091 L 14.824,25.764 L 14.757,25.869 L 14.79,25.742 L 15.132,24.004 H 14.989 L 14.614,25.701 L 14.58,25.948 L 14.53,25.701 L 14.05,24.004 H 13.906 L 14.356,25.756 L 14.39,25.861 L 14.33,25.771 L 13.6,24.838 L 13.558,25.041 L 14.193,25.895 L 14.299,26.015 L 14.308,26.026 L 14.291,26.016 L 14.162,25.94 L 13.446,25.59 L 13.412,25.759 L 13.905,26.016 L 14.081,26.107 L 14.271,26.185 L 14.069,26.166 L 13.326,26.172 S 13.292,26.343 13.289,26.345 L 14.076,26.355 C 14.114,26.356 14.238,26.338 14.265,26.338 L 14.081,26.409 L 14.009,26.446 L 13.185,26.868 L 13.144,27.071 C 13.571,26.865 13.93,26.691 14.169,26.574 C 14.214,26.552 14.286,26.512 14.318,26.496 L 14.212,26.629 L 12.825,28.632 L 12.762,28.937 C 13.434,28.015 14.049,27.169 14.354,26.747 C 14.374,26.719 14.406,26.662 14.422,26.641 L 14.39,26.763 L 13.349,31.996 H 13.409 C 13.815,30.188 14.367,27.716 14.569,26.798 C 14.58,26.748 14.59,26.614 14.597,26.582 L 14.639,26.802 L 15.297,29.122 L 15.355,28.837 L 14.813,26.749 L 14.779,26.651 Z M 13.303,24.458 L 12.947,24.003 H 12.787 L 13.264,24.645 L 13.304,24.458 Z M 13.106,25.422 L 10.58,24.187 L 10.562,24.275 L 13.073,25.583 L 13.106,25.422 Z M 10.531,31.996 L 12.243,29.65 L 12.293,29.399 L 10.497,31.996 H 10.531 Z M 8.263,29.39 L 8.114,29.48 S 7.881,29.598 8.276,29.41 C 9.246,28.947 11.256,27.981 12.728,27.271 L 12.768,27.081 L 8.263,29.39 Z M 12.952,26.175 L 10.169,26.199 L 10.15,26.293 C 11.11,26.31 12.121,26.327 12.919,26.339 L 12.952,26.175 Z" fill="rgb(1, 98, 157)"/>
</svg>
