<?xml version="1.0" encoding="UTF-8"?>
<!-- generated by Finnhub -->
<svg viewBox="0 0 55.5 55.5" xmlns="http://www.w3.org/2000/svg">
<path d="M 0,0 H 55.5 V 55.5 H 0 Z" fill="url(#a)"/>
<path d="M 25.99,23.985 H 9 V 25 H 25.663 L 25.325,26 H 9 V 27 H 24.988 L 24.65,28 H 9 V 29 H 24.313 L 23.976,30 H 9 V 31 H 23.638 L 23.301,32 H 9 V 33 H 26.5 L 28.541,27.966 L 31.061,33 H 34.5 L 35.341,30.476 C 35.38,31.657 36.267,33 40.61,33 H 40.876 C 45.564,33 46.472,31.486 46.472,30.031 C 46.472,28.365 45.782,27.391 42.282,27.297 L 41.337,27.274 C 40.15,27.239 39.895,27.051 39.895,26.734 C 39.895,26.405 40.089,26.1 41.53,26.1 H 41.615 C 43.117,26.1 43.165,26.581 43.165,26.863 H 46.968 C 47.162,25.432 46.581,24 41.773,24 H 41.215 C 39.224,24 37.975,24.335 37.22,24.838 L 37.5,24 H 33.975 L 32.211,29 L 29.379,24 H 26 Z M 35.525,29.926 H 39.265 C 39.265,30.231 39.265,30.829 40.815,30.829 H 40.889 C 42.427,30.829 42.669,30.477 42.669,30.149 C 42.669,29.82 42.414,29.562 41.155,29.527 L 40.235,29.503 C 37.65,29.428 36.596,28.743 36.285,27.646 L 35.525,29.926 Z" fill="rgb(254, 254, 253)" fill-rule="evenodd"/>
<defs>
<linearGradient id="a" x1="10.418" x2="68.147" y1="9.712" y2="76.017" gradientUnits="userSpaceOnUse">
<stop stop-color="rgb(25, 29, 31)" offset="0"/>
<stop stop-color="rgb(5, 5, 8)" offset="1"/>
</linearGradient>
</defs>
</svg>
