<?xml version="1.0" encoding="UTF-8"?>
<!-- generated by Finnhub -->
<svg viewBox="0 0 55.5 55.5" xmlns="http://www.w3.org/2000/svg">
<path d="M 0,0 H 55.5 V 55.5 H 0 Z" fill="rgb(16, 87, 62)"/>
<path d="M 23.99,25.125 L 32.068,35 H 34.471 L 23.828,22 H 21 V 24 H 22 V 33 H 21 V 35 H 25 V 33 H 24 V 25.14 Z M 37,22 H 31 V 24 H 33 V 29.275 H 35 V 24 H 37 V 22 Z" fill="rgb(254, 254, 253)"/>
<path d="M 30.77,16.974999999999998 L 30.832,16.937 C 31.142,16.417 31.296,15.846 31.296,15.222 C 31.296,13.455 29.854,12 28.103,12 C 26.351,12 24.909,13.455 24.909,15.222 C 24.909,15.846 25.064,16.417 25.373,16.937 L 25.424,16.989 H 19 V 19 H 27 V 23 L 29,25.304 V 19 H 37 V 16.99 H 30.78 Z M 28.103,16.99 C 27.124,16.99 26.351,16.21 26.351,15.222 C 26.351,14.235 27.124,13.455 28.103,13.455 C 29.081,13.455 29.853,14.235 29.853,15.222 C 29.803,16.21 29.03,16.989 28.103,16.989 Z M 38.205,30.716 C 37.645,35.694 34.073,39.316 29,39.71 V 33.768 L 27,31.621 V 39.711 C 21.995,39.322 18.327,35.3 17.79,30.417 L 16,28.993 C 16,33.539 18.346,37.891 22.438,40.011 L 28,45 L 33.562,40.01 C 37.642,37.845 40,33.5 40,28.943 L 38.205,30.717 Z M 28.103,43.025 L 26.197,41.258 C 27.433,41.466 28.669,41.466 29.905,41.258 L 28.103,43.025 Z" fill="rgb(254, 254, 253)"/>
</svg>
