<?xml version="1.0" encoding="UTF-8"?>
<!-- generated by Finnhub -->
<svg viewBox="0 0 55.5 55.5" xmlns="http://www.w3.org/2000/svg">
<path d="M 0,0 H 55.5 V 55.5 H 0 Z" fill="rgb(133, 1, 54)"/>
<path d="M 10.151,19.985 C 8.415,20 7,21.393 7,23.111 V 33.89 C 7,35.607 8.415,37 10.161,37 H 45.84 C 47.585,37 49,35.607 49,33.889 V 23.11 C 49,21.393 47.585,20 45.839,20 H 10.16 Z M 46,21 H 10 V 36 H 46 V 21 Z" fill="rgb(254, 254, 253)" fill-rule="evenodd"/>
<path d="M 14.632,22.985 H 11.666 V 23.5 L 12,24 V 33 L 11.666,33.5 V 34 H 15.363 V 33.5 L 15,33 V 27.822 C 15.835,28.792 17.446,31.076 18.636,32.455 C 19.826,33.835 21.408,34.053 22,33.99 V 24 L 22.29,23.5 V 23 H 18.573 V 23.5 L 19,24 V 28.738 L 14.642,23 Z M 26.364,23 H 22.57 V 23.5 C 23.017,23.616 23.315,24.229 23.408,24.462 C 23.897,25.73 25.079,28.807 25.898,30.965 C 26.718,33.123 28.334,33.888 29.04,34 L 33.323,23.5 V 23 H 30 V 23.69 C 30.459,23.69 30.234,24.217 30.116,24.493 L 30.111,24.505 L 28.249,29.4 L 26.126,24 L 26.364,23.5 V 23 Z" fill="rgb(254, 254, 253)"/>
<path d="M 33.677,22.985 H 39.722 C 40.739,23 42.288,23.75 42.308,25.846 C 42.328,27.941 40.897,28.538 40.178,28.574 C 40.981,29.784 43.084,32.516 45.072,34 H 41.852 C 41.531,33.99 40.655,33.726 39.722,32.503 C 38.945,31.486 37.956,29.893 37.329,28.884 C 37.203,28.681 37.092,28.502 36.999,28.356 V 33 L 37.444,33.5 V 34 H 33.666 V 33.5 L 34,33 V 23.956 L 33.687,23.5 V 23 Z M 37,24.531 S 39.5,24.351 39.5,25.804 C 39.5,27.366 37.834,27.464 37,27.5 V 24.531 Z" fill="rgb(254, 254, 253)" fill-rule="evenodd"/>
</svg>
