<?xml version="1.0" encoding="UTF-8"?>
<!-- generated by Finnhub -->
<svg viewBox="0 0 55.5 55.5" xmlns="http://www.w3.org/2000/svg">
<path d="M 0,0 H 55.5 V 55.5 H 0 Z" fill="rgb(7, 8, 11)"/>
<path d="M 35.45,28.93 C 35.323,28.945 35.269,28.786 35.425,28.605 C 35.923,28.25 36.118,28.14 36.145,28.126 C 36.466,28.126 35.851,28.945 35.46,28.945 Z M 51.806,27.155 A 0.581,0.581 0 0,0 51.72,27.095 L 51.7,27.08 C 51.45,26.918 51.177,26.99 51.177,26.99 S 51.229,27.084 50.975,27.293 A 0.32,0.32 0 0,0 50.938,27.328 L 50.916,27.346 A 8.01,8.01 0 0,1 47.473,28.959 C 47.889,28.713 48.873,27.776 48.189,27.271 C 47.791,26.976 47.083,27.105 46.416,27.443 C 46.493,27.317 46.676,27.05 46.603,26.728 C 46.529,26.407 45.917,26.314 45.578,26.435 C 45.567,26.767 45.514,26.945 45.457,27.017 C 43.96,28.342 42.002,29.047 41.841,28.885 C 41.711,28.755 42.149,28.238 42.294,28.031 A 0.51,0.51 0 0,0 42.333,27.493 C 42.199,27.246 41.947,27.232 41.483,27.333 C 40.841,27.443 40.386,27.213 40.003,26.625 C 39.814,26.337 39.357,26.395 39.121,26.552 A 0.956,0.956 0 0,1 39.108,27.118 C 38.715,28.036 37.526,28.042 37.076,27.731 C 37.012,27.538 36.843,27.183 36.504,27.131 C 35.454,26.97 35.094,27.617 34.922,27.815 C 34.549,28.243 32.026,29.353 31.436,28.871 C 31.002,28.517 31.366,27.226 32.196,25.933 C 33.424,23.983 33.98,24.005 34.176,24.203 C 34.298,24.325 34.416,24.595 34.17,25.073 A 3.878,3.878 0 0,1 34.117,25.172 C 33.693,25.872 33.527,25.837 33.527,25.837 C 33.389,26.257 33.566,26.487 33.697,26.592 C 33.839,26.732 34.043,26.685 34.105,26.663 C 34.313,26.591 34.442,26.408 34.561,26.222 C 35.155,25.296 35.525,23.823 34.553,23.291 C 33.856,22.909 32.683,23.424 31.386,25.538 C 30.234,27.416 29.908,28.895 30.739,29.596 C 31.75,30.449 33.876,29.323 34.575,28.997 C 34.556,29.14 34.611,29.853 35.313,29.813 C 36.213,29.76 36.769,28.981 37.008,28.583 C 37.358,28.787 38.893,29.08 39.824,27.673 C 39.924,27.758 40.484,28.169 41.232,28.169 C 40.968,28.655 40.628,29.239 41.13,29.639 C 41.835,30.201 44.25,28.849 44.955,28.433 C 44.555,29.164 43.859,30.819 43.157,32.286 C 42.868,32.89 42.466,33.702 42.89,33.918 C 43.22,34.086 43.714,33.913 43.788,33.478 C 43.886,32.909 44.432,31.323 44.819,30.465 C 45.555,28.818 46.217,27.965 47.335,27.965 C 47.265,28.1 47.245,28.205 46.873,28.578 C 46.469,28.986 46.016,28.962 46.039,29.402 C 46.053,29.66 46.316,29.733 46.389,29.753 C 46.973,29.911 48.587,29.429 49.229,29.193 C 49.966,28.923 50.969,28.427 51.711,27.951 C 52.061,27.726 52.094,27.399 51.806,27.155 Z M 26.606,25.501 C 25.985,25.547 25.234,25.754 24.956,26.381 C 24.725,26.899 24.906,27.446 25.39,28.06 C 25.7,28.44 25.984,28.765 26.065,28.853 C 25.842,28.9 25.355,28.883 24.868,28.793 H 24.862 A 4.749,4.749 0 0,1 24.531,28.719 C 24.255,28.631 24.179,28.519 24.179,28.519 L 24.139,28.549 V 28.547 L 24.179,28.52 C 23.993,28.545 23.838,28.676 23.728,28.82 C 23.618,28.963 23.505,29.242 23.601,29.376 C 23.683,29.489 23.845,29.552 24.154,29.562 C 24.631,29.585 25.917,29.756 26.392,29.81 C 26.759,29.85 27.006,29.583 27.078,29.407 C 27.175,29.172 27.075,28.913 26.952,28.77 C 26.342,28.061 25.487,27.287 25.797,26.64 C 25.939,26.343 26.626,26.402 26.852,26.47 C 27.336,26.615 27.576,26.439 27.686,26.113 C 27.756,25.903 27.63,25.424 26.606,25.501 Z M 14.029,26.317 C 14.116,26.404 13.931,26.601 13.768,26.707 C 13.32,26.999 12.869,27.169 12.548,27.288 C 12.897,26.57 13.907,26.146 14.029,26.317 Z M 24.399,27.886 C 24.643,27.748 24.74,27.464 24.545,27.229 C 24.35,26.993 23.965,27.013 23.792,27.118 C 23.648,27.205 23.481,27.356 22.984,27.382 C 22.516,27.406 22.328,27.204 22.033,27.204 C 21.703,27.204 21.569,27.437 21.16,27.95 C 20.952,28.21 20.483,28.81 20.27,28.81 C 20.087,28.81 20.018,28.285 20.018,27.601 C 20.018,27.291 19.882,27.038 19.53,27.062 C 19.238,27.082 19.189,27.464 19.036,27.643 C 18.578,28.18 18.209,28.705 18.022,28.705 C 17.792,28.705 17.702,28.198 17.702,27.807 C 17.702,27.807 17.774,27.19 17.218,27.082 C 16.976,27.035 16.725,27.17 16.725,27.17 C 16.748,27.216 16.755,27.265 16.75,27.313 C 16.68,27.572 16.196,27.942 16.196,27.942 C 15.679,28.322 14.646,28.993 13.716,29.042 C 12.628,29.101 12.438,28.526 12.4,28.275 C 13.337,27.929 13.962,27.535 14.366,27.219 C 14.796,26.884 15.079,26.514 15.054,26.151 C 15.02,25.661 14.577,25.483 14.225,25.483 C 13.469,25.483 12.215,25.811 11.611,27.478 C 11.481,27.52 11.173,27.522 11.009,27.479 C 10.789,27.422 10.793,27.328 10.793,27.328 C 10.588,27.381 10.5,27.482 10.428,27.66 C 10.312,27.946 10.465,28.192 10.699,28.323 C 10.869,28.418 11.137,28.478 11.516,28.433 C 11.569,28.939 11.903,29.861 13.684,29.791 C 15.098,29.736 16.754,28.566 16.902,28.474 C 16.965,28.766 17.165,29.814 17.766,29.814 C 18.488,29.814 19.229,28.73 19.229,28.73 S 19.418,29.82 20.143,29.82 C 20.749,29.82 21.509,28.873 21.698,28.647 C 21.856,28.459 22.162,28.097 22.33,28.097 C 22.494,28.07 22.818,28.288 23.748,28.102 C 23.769,28.097 24.189,28.003 24.398,27.886 Z M 12.869,22.624 C 12.934,22.451 12.877,22.24 12.771,22.16 C 12.416,21.892 12.095,22.041 11.854,22.306 C 11.572,22.617 11.206,23.291 11.051,23.543 C 9.627,25.856 8.541,28.329 8.541,28.329 S 8.164,27.178 8.111,26.263 C 8.063,25.4 8.024,24.577 7.987,24.173 C 7.975,24.013 7.907,23.76 7.627,23.667 C 7.41,23.596 7.095,23.568 6.873,23.65 C 6.856,23.926 6.844,24.059 6.73,24.385 C 6.616,24.71 5.882,26.146 5.757,26.369 C 5.119,27.512 4.277,28.934 4.227,29.026 C 4.055,29.346 3.817,29.782 4.226,29.936 C 4.634,30.091 4.992,30.009 5.169,29.746 C 5.203,29.696 5.249,29.601 5.249,29.601 S 5.131,29.502 5.385,28.906 C 5.461,28.748 5.551,28.565 5.652,28.362 L 5.713,28.251 C 5.743,28.196 5.765,28.148 5.781,28.104 C 6.201,27.272 6.759,26.198 7.257,25.257 C 7.254,25.805 7.299,26.483 7.374,26.975 C 7.488,27.935 7.722,28.341 7.809,29.107 C 7.792,29.625 7.843,29.714 8.218,29.818 C 8.568,29.915 8.773,29.818 8.905,29.492 C 9.412,28.206 10.868,25.252 12.105,23.649 C 12.235,23.481 12.727,23 12.869,22.623 Z" fill="rgb(254, 254, 253)"/>
</svg>
