<?xml version="1.0" encoding="UTF-8"?>
<!-- generated by Finnhub -->
<svg viewBox="0 0 55.5 55.5" xmlns="http://www.w3.org/2000/svg">
<path d="M 0,0 H 55.5 V 55.5 H 0 Z" fill="rgb(239, 242, 248)"/>
<path d="M 33.99,19.985 H 33 L 29.5,25.335 L 26,20 H 25 V 36 H 26 L 29.5,30.69 L 33,36 H 34 V 20 Z" fill="rgb(108, 171, 220)"/>
<path d="M 24.99,19.985 H 20.01 L 25,28.012 L 20.01,36 H 25 V 20 Z" fill="rgb(146, 133, 69)"/>
<path d="M 38.99,19.985 H 34 V 36 H 39 L 34,28.012 L 39,20 Z" fill="rgb(108, 153, 67)"/>
<path d="M 45.822,19.985 H 39 L 34,28.012 L 39,36 V 32 H 47.198 C 50.894,32 52,29.238 52,26.861 V 25.486 C 52,22.359 50.8,20 45.832,20 Z M 47,25.969 C 47,26.916 46.663,28 45.439,28 H 39 V 24 H 44.992 C 46.569,24 47,24.605 47,25.683 V 25.969 Z" fill="rgb(190, 214, 46)"/>
<path d="M 24.99,27.998 L 20,20 L 20.006,29.679 L 11,20 H 6 V 36 L 11,35.999 V 26 L 20,36 L 25,28.013 Z" fill="rgb(251, 178, 20)"/>
</svg>
