<?xml version="1.0" encoding="UTF-8"?>
<!-- generated by Finnhub -->
<svg viewBox="0 0 55.5 55.5" xmlns="http://www.w3.org/2000/svg">
<path d="M 0,0 H 55.5 V 55.5 H 0 Z" fill="rgb(1, 173, 237)"/>
<path d="M 45.105000000000004,24.833 L 46.017,25.791 L 34.005,26.12 L 30.152,24.848 H 45.115 Z M 43.188,22.834 L 43.912,23.591 L 33.8,23.871 L 30.344,22.835 H 43.188 Z M 40.7,20.236 L 41.424,20.992 L 33.394,21.137 L 30.245,20.237 H 40.7 Z M 38.37,17.802 L 38.983,18.442 L 32.443,18.612 L 30.245,17.802 H 38.37 Z M 35.48,14.782 L 36.123,15.454 L 32.013,15.656 L 30.151,14.782 H 35.481 Z M 33.553,12.769 L 34.109,13.349 H 31.159 L 29.739,12.769 H 33.553 Z M 30.663,9.749 L 31.475,10.597 H 29.925 L 29.209,9.749 H 30.663 Z M 28.56,7.547 H 28.559 L 28.739,7.735 H 28 V 7 L 28.559,7.547 Z M 22.986,12.769 L 24.724,11.018 L 25.925,10.918 L 29.211,12.768 H 22.986 Z M 20.988,14.782 L 22.15,13.612 L 22.153,13.609 H 25.42 L 29.42,14.782 H 20.987 Z M 17.989,17.802 L 19.452,16.329 L 24.32,16.067 L 29.4,17.802 H 17.99 Z M 15.991,19.815 L 17.115,18.682 L 23.488,18.542 L 29,19.816 H 15.99 Z M 12.992,22.835 L 14.418,21.399 L 22.758,21.137 L 29.381,22.835 H 12.99 Z M 10.974,24.868 L 12.133,23.701 L 22.558,23.469 L 29.118,24.869 H 10.973 Z M 8.172,27.691 L 9.209,26.646 L 22.389,26.12 L 29.117,27.869 H 8 L 8.17,27.691 Z M 10.011,29.881 L 9.132,28.996 L 22.618,28.548 L 29.076,29.881 H 10.01 Z M 13.009,32.901 L 11.727,31.61 L 23.015,31.172 L 28.719,32.901 H 13.009 Z M 16.007,35.921 L 14.698,34.602 L 23.184,34.132 L 28.985,35.921 H 16.006 Z M 18.006,37.934 L 16.7,36.62 L 23.655,36.428 L 28.888,37.934 H 18.005 Z M 21.004,40.954 L 19.261,39.199 L 24.333,39.085 L 28.623,40.954 H 21.003 Z M 22.99,42.954 L 21.55,41.504 H 24.79 L 28.227,42.973 L 22.99,42.955 Z M 26,45.988 L 24.3,44.276 H 25.768 L 27.721,45.988 H 26 Z M 27.93,47.932 L 26.4,46.39 H 28 V 48 L 27.93,47.932 Z M 47.986,27.885 L 47.98,27.879 L 47.38,28.484 L 34.285,28.894 L 30.247,27.87 H 48 L 47.985,27.885 Z M 30,45.986 L 29.353,46.638 L 28.621,45.987 H 30.001 Z M 32.992,42.973 L 32.242,43.728 H 30.643 L 28.926,42.973 H 32.992 Z M 34.997,40.953 L 33.997,41.96 H 31.587 L 29.585,40.954 H 34.997 Z M 37.995,37.933 L 37.339,38.593 L 31.794,38.687 L 29.869,37.934 H 37.995 Z M 39.993,35.92 L 39.421,36.497 L 32.533,36.767 L 29.887,35.92 H 39.994 Z M 42.991,32.9 L 42.391,33.505 L 33.38,33.881 L 29.87,32.901 H 42.992 Z M 45.99,29.88 L 45.17,30.707 L 33.38,31.172 L 30.245,29.881 H 45.99 Z M 26,10 H 26.922 L 26.482,9.612 L 26,10 Z" fill="rgb(254, 254, 253)"/>
</svg>
