<?xml version="1.0" encoding="UTF-8"?>
<!-- generated by Finnhub -->
<svg viewBox="0 0 55.5 55.5" xmlns="http://www.w3.org/2000/svg">
<path d="M 0,0 H 55.5 V 55.5 H 0 Z" fill="rgb(60, 175, 71)"/>
<path d="M 21.99,23.675 C 22,23.088 22.399,22.688 23,22.688 S 24,23.088 24,23.689 V 33.207 C 24,33.808 23.601,34.212 23,34.212 S 22,33.808 22,33.207 V 23.69 Z" fill="rgb(254, 254, 253)"/>
<path d="M 11.99,27.985 C 12,19.17 19.17,12 28,12 S 44,19.159 44,28 C 44,36.842 36.842,44 28,44 C 19.159,44 12,36.83 12,28 Z M 23,36.207 C 24.902,36.207 26,34.737 26,33.207 V 23.69 C 26,22.16 24.913,20.69 23,20.69 C 21.098,20.69 20,22.16 20,23.69 V 33.208 C 20,34.738 21.087,36.208 23,36.208 Z M 34,36 H 36 V 21 H 34 V 29 L 31,21 H 29 V 36 H 31 V 28 L 34,36 Z" fill="rgb(254, 254, 253)"/>
</svg>
