<?xml version="1.0" encoding="UTF-8"?>
<!-- generated by Finnhub -->
<svg viewBox="0 0 55.5 55.5" xmlns="http://www.w3.org/2000/svg">
<path d="M 0,0 H 55.5 V 55.5 H 0 Z" fill="rgb(1, 156, 85)"/>
<path d="M 20.99,27.837 H 23.368 C 24.075,27.852 24.453,27.206 24.453,26.402 C 24.453,25.612 23.923,25 23.267,25 H 21 V 27.852 Z M 19.052,23 H 23.646 C 25.236,23 26.801,23.843 26.801,25.988 C 26.801,27.134 26.333,28.462 25.387,28.894 V 28.924 C 26.347,29.192 26.624,30.216 26.7,31.228 C 26.724,31.674 26.487,33.613 26.802,34 H 24.48 C 24.278,33.643 24.517,32.225 24.491,31.927 C 24.428,30.857 24.276,29.996 23.179,29.996 H 21 V 34 H 19.052 V 23 Z M 32.612,29 C 32.57,28.117 32.003,27.425 31.215,27.425 C 30.385,27.425 29.833,28.041 29.695,29 H 32.612 Z M 29.695,30.484 C 29.737,31.564 30.303,32.279 31.298,32.279 C 31.865,32.279 32.418,31.99 32.639,31.412 H 34.837 C 34.409,33.238 32.874,34.029 31.271,34.029 C 28.935,34.029 27.345,32.477 27.345,29.829 C 27.345,27.409 29.1,25.674 31.215,25.674 C 33.786,25.674 35.072,27.806 34.962,30.484 H 29.695 Z M 36,34 H 38 V 26.005 H 36 V 34 Z M 39,34 H 41 V 23 H 39 V 34 Z M 42,34 H 44 V 23 H 42 V 34 Z M 49.413,34.31 C 48.896,36.008 48.126,36.217 46.675,36.217 H 46 V 34 H 46.41 C 46.902,34 47.268,33.834 47.268,33.299 C 47.268,32.881 46.851,31.691 46.725,31.273 L 45.035,26 H 47.305 L 48.542,30.93 H 48.567 L 49.804,26 H 52 L 49.413,34.31 Z M 10.198,21.046 C 8.014,21.046 6.842,22.901 6.842,26.401 C 6.842,28.957 7.605,32.511 10.5,32.511 C 12.827,32.511 13.732,30.383 13.732,26.987 C 13.732,23.405 12.401,21.046 10.198,21.046 Z M 16.574,26.715 C 16.574,31.284 13.981,34.029 10.163,34.029 C 6.593,34.03 4,31.263 4,26.883 C 4,22.733 6.628,19.527 10.34,19.527 C 14.035,19.527 16.574,22.461 16.574,26.715 Z" fill="rgb(254, 254, 253)"/>
<path d="M 10.541,29.712 C 10.598,29.69 10.639,29.649 10.679,29.607 C 10.649,29.656 10.609,29.697 10.551,29.727 Z M 10.507,25.417 A 2.368,2.368 0 0,0 10.48,25.215 L 10.517,25.238 C 10.515,25.298 10.511,25.358 10.507,25.417 Z M 12.931,26.402 A 0.82,0.82 0 0,0 12.098,25.597 A 0.848,0.848 0 0,0 11.593,25.762 A 0.912,0.912 0 0,0 11.675,25.474 A 0.78,0.78 0 0,0 11.774,25.094 A 0.82,0.82 0 0,0 10.941,24.288 A 0.843,0.843 0 0,0 10.363,24.515 A 0.845,0.845 0 0,0 9.763,24.268 C 9.303,24.268 8.931,24.628 8.931,25.073 C 8.931,25.31 9.037,25.523 9.205,25.67 L 9.253,25.761 L 9.238,25.763 A 0.843,0.843 0 0,0 8.733,25.597 A 0.82,0.82 0 0,0 7.9,26.402 C 7.9,26.635 8.003,26.845 8.167,26.992 A 0.79,0.79 0 0,0 7.942,27.542 C 7.942,27.892 8.175,28.191 8.499,28.301 C 8.513,28.313 8.525,28.325 8.541,28.335 A 0.552,0.552 0 0,0 9.11,28.382 A 0.415,0.415 0 0,0 9.384,28.265 L 9.389,28.26 A 0.598,0.598 0 0,0 9.591,28.156 L 9.549,28.186 A 0.628,0.628 0 0,0 9.731,28.076 C 9.843,28.051 9.958,28.036 10.064,27.994 L 10.017,28.012 C 10.08,28.009 10.143,28.01 10.207,28.005 C 10.21,28.242 10.215,28.48 10.198,28.719 C 10.195,28.769 10.174,28.819 10.162,28.871 L 10.167,28.844 C 10.12,28.945 10.079,29.048 10.027,29.147 A 0.293,0.293 0 0,1 10.074,29.108 C 10.055,29.124 10.038,29.141 10.021,29.158 L 9.998,29.201 A 0.092,0.092 0 0,1 10.014,29.163 A 0.544,0.544 0 0,0 9.87,29.403 V 29.378 A 0.422,0.422 0 1,0 10.628,29.745 L 10.648,29.707 C 10.856,29.482 10.959,29.173 11.018,28.867 C 11.071,28.59 11.053,28.326 11.046,28.058 C 11.368,28.281 11.744,28.324 12.117,28.302 L 12.16,28.301 H 12.182 A 0.418,0.418 0 0,0 12.54,28.096 A 0.785,0.785 0 0,0 12.745,26.909 A 0.784,0.784 0 0,0 12.931,26.403 Z" fill="rgb(254, 254, 253)"/>
<path d="M 9.982000000000001,28.964 L 9.976,29.001 A 0.682,0.682 0 0,0 9.985,28.992 L 9.992,28.979 Z M 35.678,23.866 C 35.678,23.134 36.27,22.54 37,22.54 C 37.73,22.54 38.322,23.134 38.322,23.866 C 38.322,24.598 37.73,25.192 37,25.192 C 36.27,25.192 35.678,24.598 35.678,23.866 Z M 19.373,20.323 C 19.373,19.593 18.782,19 18.053,19 A 1.322,1.322 0 0,0 16.745,20.492 A 0.9,0.9 0 0,0 16.831,20.824 C 16.843,20.854 16.858,20.883 16.872,20.912 C 16.872,20.915 16.875,20.918 16.876,20.92 L 16.911,20.986 C 17.034,21.212 17.243,21.51 17.599,21.896 L 17.104,22.268 L 17.599,23.095 S 19.152,22.083 19.349,20.575 C 19.364,20.495 19.373,20.41 19.373,20.323 Z" fill="rgb(254, 254, 253)"/>
</svg>
