<?xml version="1.0" encoding="UTF-8"?>
<!-- generated by Finnhub -->
<svg viewBox="0 0 55.5 55.5" xmlns="http://www.w3.org/2000/svg">
<path d="M 0,0 H 55.5 V 55.5 H 0 Z" fill="rgb(27, 100, 195)"/>
<path d="M 6.99,27.985 V 25.5 H 8.016 C 8.646,25.5 9.157,26.07 9.157,26.78 C 9.157,27.492 8.647,28 8.017,28 H 7 Z M 4,23 V 33 H 7 V 30.593 L 8.84,30.591 C 10.693,30.591 12.196,28.896 12.196,26.805 C 12.196,24.715 10.693,23 8.84,23 H 4 Z M 14.89,23 L 10.003,33 H 13.314 L 14.511,30.567 H 17 V 33 H 20 V 23 H 14.89 Z M 17,28 H 15.732 L 17,24.89 V 28 Z M 37.35,23 L 34.427,29 C 34.121,29.647 33.517,30.087 32.822,30.087 C 31.818,30.087 31.004,29.169 31.004,28.035 C 31.004,26.903 31.818,25.985 32.822,25.985 C 33.6,25.985 34.264,26.536 34.523,27.312 L 36.083,24.113 C 35.231,23.211 34.083,22.657 32.822,22.657 C 31.295,22.657 29.935,23.467 29.063,24.727 A 5.566,5.566 0 0,0 28.642,25.448 L 27.38,28.035 L 26.91,29 C 26.603,29.647 26,30.087 25.305,30.087 C 24.301,30.087 23.486,29.169 23.486,28.035 C 23.486,26.903 24.301,25.985 25.305,25.985 C 26.083,25.985 26.747,26.536 27.005,27.312 L 28.565,24.114 C 27.713,23.211 26.566,22.657 25.305,22.657 C 22.672,22.657 20.539,25.065 20.539,28.035 S 22.672,33.413 25.305,33.413 C 26.831,33.413 28.191,32.603 29.063,31.343 C 29.935,32.603 31.295,33.413 32.822,33.413 C 34.643,33.413 36.225,32.261 37.028,30.567 H 40 V 33 H 43 V 23 H 37.35 Z M 40,28 H 38.222 L 40,24.889 V 27.999 Z M 47,28 V 25.494 H 48.017 C 48.647,25.494 49.157,26.071 49.157,26.781 C 49.157,27.492 48.647,28 48.017,28 H 47 Z M 52.414,33 L 50.691,29.494 C 51.489,28.844 52.008,27.788 52.008,26.594 C 52.008,24.619 50.59,23 48.841,23 H 44 V 33 H 47 V 30.593 L 47.916,30.592 L 49.102,33 H 52.414 Z" fill="rgb(254, 254, 253)"/>
</svg>
