<?xml version="1.0" encoding="UTF-8"?>
<!-- generated by Finnhub -->
<svg viewBox="0 0 55.5 55.5" xmlns="http://www.w3.org/2000/svg">
<path d="M 0,0 H 55.5 V 55.5 H 0 Z" fill="rgb(1, 136, 194)"/>
<path d="M 24.663999999999998,39.985 H 36 V 8 L 24.674,40 Z" fill="rgb(254, 254, 253)"/>
<path d="M 29.84,32.953 C 29.136,31.665 28.94,30.498 29.284,29.466 C 29.742,28.236 30.854,28 31.89,28 C 33.408,28.063 33.94,29.038 34,30.633 V 30.997 H 32 V 30.497 C 32,29.857 30.98,29.789 30.98,30.633 C 30.98,32.058 33,34.651 33,34.651 V 32.996 H 35 V 39.483 C 35,39.876 34.833,39.999 34.423,39.999 H 31.35 C 27.69,40.081 27.057,35.294 29.85,32.968 Z M 33,37.991 C 31.588,37.991 29.689,38.066 30.126,35.629 C 30.224,35.139 30.396,34.871 30.593,34.651 L 33,37.991 Z" fill="rgb(252, 183, 17)" fill-rule="evenodd"/>
<path d="M 17.99,27.669999999999998 C 18,25.368 19.13,23.997 22.314,24 C 24.512,24.003 26,25.032 26,27.08 V 29 H 23 V 27.76 C 23,27.305 22.745,26.784 22,26.784 C 21.365,26.784 21,27.189 21,27.761 V 36.453 C 21,37.028 21.399,37.386 22,37.386 S 23,37.115 23,36.423 V 34 H 22 V 31 H 26 V 36.423 L 24.798,40 H 20.31 C 18.817,40 18,38.318 18,36.423 V 27.685 Z" fill="rgb(254, 254, 253)"/>
<path d="M 11.99,33.985 V 40 H 9 V 24 H 12.241 C 13.771,24 15.686,24.47 16.41,26.065 C 17.44,28.005 17.462,34 13.2,34 H 12 Z M 12,27 C 12.78,26.85 13.93,27.13 14.14,28.062 C 14.35,28.994 14.14,29.817 14.14,29.817 C 13.997,30.935 12.9,31 12,31 V 27 Z M 40,33 H 44 V 30 H 40 V 27 H 44 V 24 H 37 V 40 H 44 V 37 H 40 V 33 Z" fill="rgb(254, 254, 253)" fill-rule="evenodd"/>
</svg>
