<?xml version="1.0" encoding="UTF-8"?>
<!-- generated by Finnhub -->
<svg viewBox="0 0 55.5 55.5" xmlns="http://www.w3.org/2000/svg">
<path d="M 0,0 H 55.5 V 55.5 H 0 Z" fill="rgb(242, 93, 23)"/>
<path d="M 11.99,27.985 C 12,19.165 19.166,12 28,12 C 36.834,12 44,19.165 44,28 S 36.834,44 28,44 S 12,36.835 12,28 Z" fill="rgb(254, 254, 253)"/>
<path d="M 25.823999999999998,23.927 L 19.744,15.658 L 22.343,21.117 L 17.499,17.504 L 24.443,25.082 L 15.662,19.757 L 20.137,23.798 L 14.284,22.327 L 23.59,26.669 L 13.43,25.11 L 19.127,27.13 L 13.155,28.007 L 23.419,28.457 L 13.444,30.902 L 19.468,30.595 L 14.284,33.69 L 23.944,30.173 L 15.649,36.253 L 21.109,33.658 L 17.512,38.502 L 25.086,31.558 L 19.756,40.346 L 23.799,35.869 L 22.317,41.722 L 26.661,32.41 L 25.099,42.563 L 27.068,36.877 L 28,42.85 V 32.605 L 30.887,42.566 L 30.585,36.538 L 33.683,41.718 L 30.166,32.068 L 36.243,40.348 L 33.643,34.896 L 38.487,38.502 L 31.557,30.928 L 40.337,36.256 L 35.862,32.215 L 41.716,33.693 L 32.41,29.347 L 42.556,30.909 L 36.873,28.887 L 42.845,28.01 L 32.594,27.558 L 42.556,25.117 L 36.531,25.424 L 41.716,22.326 L 32.069,25.836 L 40.351,19.766 L 34.891,22.352 L 38.501,17.511 L 30.927,24.445 L 36.256,15.664 L 32.213,20.138 L 33.683,14.282 L 29.34,23.6 L 30.9,13.443 L 28.878,19.13 L 27.998,13.155 L 27.553,23.418 L 25.111,13.437 L 25.413,19.466 L 22.315,14.282" fill="rgb(242, 93, 23)"/>
</svg>
