<?xml version="1.0" encoding="UTF-8"?>
<!-- generated by Finnhub -->
<svg viewBox="0 0 55.5 55.5" xmlns="http://www.w3.org/2000/svg">
<path d="M 0,0 H 55.5 V 55.5 H 0 Z" fill="url(#a)"/>
<path d="M 12.99,26.774 C 13,36.755 20.869,45.076 31,46 V 33.298 C 26.254,32.862 22.934,29.452 22.934,24.904 C 22.934,20.498 25.949,17.306 30.099,17.306 C 33.904,17.306 36.475,19.63 36.475,23.066 C 36.475,26.113 34.558,28.076 31,28.606 V 33.298 C 38.313,33.106 43,28.775 43,22.238 C 43,15.177 37.366,10 29.657,10 C 20.168,10 13,17.255 13,26.789 Z" fill="rgb(254, 254, 253)"/>
<defs>
<linearGradient id="a" x1="9.31" x2="33.067" y1="47.793" y2="-2.643" gradientUnits="userSpaceOnUse">
<stop stop-color="rgb(1, 114, 190)" offset="0"/>
<stop stop-color="rgb(1, 121, 193)" offset=".1"/>
<stop stop-color="rgb(32, 142, 205)" offset=".4"/>
<stop stop-color="rgb(44, 150, 209)" offset=".5"/>
<stop stop-color="rgb(45, 160, 211)" offset=".6"/>
<stop stop-color="rgb(47, 170, 212)" offset=".7"/>
<stop stop-color="rgb(49, 179, 213)" offset=".8"/>
<stop stop-color="rgb(52, 189, 213)" offset=".9"/>
<stop stop-color="rgb(54, 198, 214)" offset="1"/>
</linearGradient>
</defs>
</svg>
