<?xml version="1.0" encoding="UTF-8"?>
<!-- generated by Finnhub -->
<svg viewBox="0 0 55.5 55.5" xmlns="http://www.w3.org/2000/svg">
<path d="M 0,0 H 55.5 V 55.5 H 0 Z" fill="url(#a)"/>
<path d="M 47.99,27.985 H 49 V 26 H 47.986 C 47.071,25.974 46.412,26.01 45.728,26.436 C 45.262,26.738 45,27.016 44.959,27.562 L 44.954,33 H 48 V 28 Z M 41,30 H 44 V 28.403 V 27.991 C 43.985,27.52 43.88,27.071 43.518,26.72 L 43.243,26.5 C 41.97,25.72 40.794,25.734 39.383,26.172 C 38.7,26.432 38.136,27.088 38.082,27.828 C 37.932,28.937 37.945,30.157 38.068,31.279 C 38.275,32.211 39.234,32.861 40.122,32.999 H 44 V 30.666 H 40.546 V 28.176 H 41 V 30 Z" fill="rgb(254, 254, 253)"/>
<path d="M 33.99,30.73 L 34.975,33 H 38.026 L 36.276,29.37 L 38.01,26 H 35.002 L 34,28.169 V 22.999 H 30.99 V 32.999 H 34 V 30.745 Z M 29,28 H 30 V 25.94 S 28.26,25.804 27.355,26.079 C 26.725,26.31 25.96,26.817 25.96,27.569 C 25.93,29.323 25.96,32.999 25.96,32.999 H 29 V 27.999 Z M 20.444,33 H 25 V 28.04 C 24.986,27.617 24.966,27.234 24.773,26.89 A 1.746,1.746 0 0,0 23.308,26 H 20 V 28 H 22.45 V 30.845 H 22 V 28.918 S 19.803,28.714 19.05,29.658 C 18.624,30.315 18.706,31.222 18.979,31.917 C 19.254,32.494 19.858,32.877 20.444,33 Z M 14.011,33 V 30.974 C 15.574,31.001 17.424,30.614 18.369,29.329 C 19.274,27.891 19.165,25.685 18.41,24.219 C 17.727,23.043 16.48,22.563 15.164,22.59 L 10,22.625 V 25 H 14.984 V 29 H 10.004 V 33 H 14.011 Z" fill="rgb(254, 254, 253)"/>
<path d="M 13.99,25.985 H 4 V 28 H 14 V 26 Z" fill="rgb(254, 254, 253)"/>
<defs>
<linearGradient id="a" x1="10.418" x2="68.147" y1="9.712" y2="76.017" gradientUnits="userSpaceOnUse">
<stop stop-color="rgb(25, 29, 31)" offset="0"/>
<stop stop-color="rgb(5, 5, 8)" offset="1"/>
</linearGradient>
</defs>
</svg>
