<?xml version="1.0" encoding="UTF-8"?>
<!-- generated by Finnhub -->
<svg viewBox="0 0 55.5 55.5" xmlns="http://www.w3.org/2000/svg">
<path d="M 0,0 H 55.5 V 55.5 H 0 Z" fill="rgb(1, 43, 112)"/>
<path d="M 8.99,19.985 V 36 H 14 V 31 H 17.03 C 18.818,31 20.42,30.747 21.49,29.482 C 22.2,33.145 25.489,36 29.37,36 H 37.736 L 39.884,32.81 L 42,31.213 V 36 H 46 V 27.834 L 49,25.68 V 25.517 L 36.003,34.293 L 49,24.679 V 24.509 L 36.98,32.617 L 49,23.662 V 23.492 L 37.963,30.948 L 49,22.639 V 22.476 L 38.978,29.235 L 49,21.629 V 21.466 L 46,23.492 V 20 H 42.033 L 35.175,32 H 28.657 C 26.665,32 25.048,29.94 25.048,27.985 C 25.048,25.998 26.665,24 28.657,24 H 37 V 20 H 29.371 A 8.057,8.057 0 0,0 22.513,23.841 A 5.84,5.84 0 0,0 17.03,20 H 9 Z M 14,27 V 24 H 17 C 17.773,24 18.428,24.732 18.428,25.5 C 18.428,26.26 17.773,27 17,27 H 14 Z" fill="rgb(254, 254, 253)"/>
</svg>
