<?xml version="1.0" encoding="UTF-8"?>
<!-- generated by Finnhub -->
<svg viewBox="0 0 55.5 55.5" xmlns="http://www.w3.org/2000/svg">
<path d="M 0,0 H 55.5 V 55.5 H 0 Z" fill="rgb(1, 110, 120)"/>
<path d="M 27.543999999999997,14.985 L 21.856,20.65 L 27.554,26.302 L 33.252,20.651 L 27.554,15 Z M 33.99,21.42 L 28.292,27.07 L 33.99,32.721 L 39.688,27.071 L 33.99,21.419 Z M 14.698,27.698 L 9,33.35 L 14.698,39 L 20.396,33.35 L 14.698,27.698 Z M 27.554,27.698 L 21.856,33.349 L 27.554,39 L 33.252,33.35 L 27.554,27.698 Z M 34.604,33.349 L 40.302,27.699 L 46,33.348 L 40.302,39 L 34.604,33.35 Z M 15.419,27.07 L 21.118,21.42 L 26.816,27.07 L 21.118,32.721 L 15.419,27.071 Z" fill="url(#a)"/>
<defs>
<linearGradient id="a" x1="27.5" x2="27.642" y1="26.125" y2="9.114" gradientUnits="userSpaceOnUse">
<stop stop-color="rgb(254, 254, 253)" offset="0"/>
<stop stop-color="rgb(254, 254, 253)" stop-opacity="0" offset="1"/>
</linearGradient>
</defs>
</svg>
