<?xml version="1.0" encoding="UTF-8"?>
<!-- generated by Finnhub -->
<svg viewBox="0 0 55.5 55.5" xmlns="http://www.w3.org/2000/svg">
<path d="M 0,0 H 55.5 V 55.5 H 0 Z" fill="rgb(10, 30, 141)"/>
<path d="M 3.99,32.988 V 31.997 H 6 V 22.001 H 4 V 21 H 8.998 V 22 H 7 V 31.997 H 9 V 33.003 H 4 Z M 11,33.003 H 10.011 V 25.128 L 11,25.004 V 26.324 V 25.874 C 11.09,25.816 12.202,25.419 12.34,25.356 C 12.48,25.292 12.634,25.236 12.802,25.187 C 12.976,25.133 13.162,25.089 13.361,25.055 C 13.559,25.021 13.761,25.004 13.964,25.004 C 14.356,25.004 14.657,25.06 14.925,25.187 C 15.198,25.309 15.362,25.497 15.531,25.732 C 15.7,25.967 15.819,26.25 15.888,26.582 C 15.963,26.915 16,27.286 16,27.697 V 33.003 L 15,33 V 27 C 14.965,26.81 14.896,26.587 14.801,26.465 C 14.712,26.337 14.422,26.188 14.269,26.13 C 14.115,26.07 13.669,26.025 13.361,26.091 A 5.99,5.99 0 0,0 12.802,26.236 A 2.995,2.995 0 0,0 12.289,26.434 L 11.747,26.648 C 11.593,26.746 11.129,26.912 11,27.005 V 33.003 Z M 22.501,26.352 A 3.003,3.003 0 0,0 22.181,26.22 A 4.456,4.456 0 0,0 21.794,26.102 A 3.782,3.782 0 0,0 21.384,26.022 A 2.64,2.64 0 0,0 20.997,26 C 20.471,26 19.897,26.126 19.679,26.282 C 19.46,26.434 19.351,26.663 19.351,26.972 C 19.351,27.176 19.408,27.482 19.552,27.618 C 19.696,27.75 20.029,27.897 20.258,28.004 C 20.486,28.111 20.734,28.212 21.012,28.31 C 21.295,28.403 21.609,28.509 21.877,28.64 C 22.071,28.733 22.302,28.836 22.501,28.963 S 22.999,29.393 22.999,29.393 S 23.177,29.686 23.277,29.901 C 23.376,30.116 23.426,30.358 23.426,30.627 C 23.426,30.627 23.426,31.134 23.179,31.537 C 23.009,31.878 22.779,32.157 22.486,32.372 C 22.198,32.582 21.991,32.758 21.599,32.855 A 5.07,5.07 0 0,1 20.355,33.002 C 20.186,33.002 19.995,32.985 19.782,32.951 A 5.928,5.928 0 0,1 19.142,32.826 A 5.584,5.584 0 0,1 18.531,32.621 A 2.571,2.571 0 0,1 18.047,32.371 L 18.531,31.558 C 18.65,31.617 18.791,31.673 18.955,31.727 A 7.667,7.667 0 0,0 19.975,31.954 C 20.149,31.974 20.303,32 20.437,32 C 20.665,32 20.884,31.961 21.092,31.917 C 21.306,31.868 21.469,31.847 21.677,31.727 C 21.847,31.629 21.993,31.517 22.062,31.407 C 22.143,31.277 22.179,31.03 22.188,30.877 A 0.808,0.808 0 0,0 22.069,30.4 A 1.134,1.134 0 0,0 21.756,30.04 A 2.403,2.403 0 0,0 21.302,29.747 A 7.158,7.158 0 0,0 20.751,29.498 A 35.517,35.517 0 0,0 20.155,29.249 A 5.538,5.538 0 0,1 19.068,28.641 C 18.909,28.523 18.768,28.391 18.644,28.245 A 1.84,1.84 0 0,1 18.346,27.754 A 1.681,1.681 0 0,1 18.234,27.124 C 18.234,26.752 18.301,26.434 18.435,26.17 C 18.569,25.902 18.758,25.684 19.001,25.518 A 2.55,2.55 0 0,1 19.88,25.151 A 4.981,4.981 0 0,1 21,25.034 C 21.189,25.034 21.387,25.049 21.57,25.078 C 21.754,25.108 21.93,25.147 22.099,25.195 A 2.826,2.826 0 0,1 22.919,25.547 L 22.501,26.352 Z M 31,25.151 L 32,25.005 V 33.004 H 31 V 32.279 L 30.729,32.43 C 30.639,32.49 30.321,32.612 30.197,32.676 C 30.078,32.739 29.952,32.806 29.798,32.86 C 29.645,32.909 29.415,32.945 29.231,32.98 C 29.047,33.014 28.529,33.004 28.326,33.004 C 27.929,33.004 27.296,32.931 27.008,32.789 C 26.725,32.648 26.47,32.462 26.337,32.279 C 26.136,32 26,31.917 26,31.29 V 25.165 L 27,25.004 V 30.106 C 27,30.633 26.986,31.223 27.2,31.522 C 27.418,31.815 27.863,31.862 28.326,31.898 C 28.874,31.939 29.158,31.911 29.551,31.836 C 29.861,31.776 30.091,31.691 30.244,31.608 A 1.79,1.79 0 0,0 30.729,31.212 C 30.832,31.086 30.963,30.907 31,30.72 V 25.15 Z M 36,30.12 C 36,30.442 36.025,31.001 36.06,31.22 C 36.1,31.436 36.154,31.612 36.224,31.749 A 0.724,0.724 0 0,0 36.492,32.035 C 36.601,32.088 36.725,32.115 36.864,32.115 C 36.974,32.115 37.073,32.11 37.162,32.1 A 1.84,1.84 0 0,0 37.392,32.05 C 37.467,32.03 37.534,32.024 37.594,32 L 38.21,32.584 A 0.9,0.9 0 0,1 38.016,32.716 A 2.659,2.659 0 0,1 37.301,32.958 C 37.152,32.988 36.991,33.002 36.817,33.002 C 36.37,33.002 36.177,33.009 35.9,32.848 C 35.622,32.687 35.425,32.538 35.271,32.26 C 35.117,31.982 35.061,31.82 35,31.156 V 21.376 L 36,21.001 V 30.12 Z M 45,31.912 C 44.846,32.069 44.677,32.212 44.494,32.345 A 3.338,3.338 0 0,1 43.883,32.689 A 3.581,3.581 0 0,1 43.138,32.902 C 42.87,32.956 42.566,33.002 42.05,33.002 C 41.032,32.902 40.754,32.618 40.485,32.486 C 40.215,32.354 39.751,31.795 39.643,31.62 A 5.568,5.568 0 0,1 39.113,30.408 C 38.979,29.91 39,29.41 39,28.868 C 39,28.325 39.067,27.998 39.067,27.998 C 39.132,27.656 39.227,27.306 39.355,26.998 C 39.485,26.69 39.699,26.355 39.699,26.355 C 39.92,26 40.227,25.758 40.485,25.568 C 40.743,25.377 40.975,25.244 41.297,25.136 C 41.625,25.024 41.834,25 42.226,25 C 42.762,25 42.899,25.07 43.291,25.242 C 43.683,25.413 44.087,25.746 44.266,25.96 C 44.446,26.175 44.466,26.175 44.709,26.597 C 44.821,26.793 44.937,27.11 44.962,27.427 C 44.986,27.743 45,28.467 45,28.467 V 28.997 H 39.998 C 39.998,29.363 40.021,29.921 40.12,30.239 C 40.224,30.556 40.368,30.835 40.552,31.074 C 40.736,31.309 40.983,31.509 40.983,31.509 S 41.485,31.924 41.965,31.988 C 42.445,32.051 42.605,32.033 42.827,31.988 C 43.138,31.924 43.239,31.877 43.407,31.813 C 43.577,31.744 43.705,31.689 43.809,31.62 C 43.919,31.552 43.941,31.548 44.001,31.51 L 45,31.912 Z M 44,27.998 S 44.02,27.482 43.956,27.248 C 43.891,27.013 43.831,26.848 43.696,26.676 C 43.568,26.501 43.426,26.319 43.222,26.221 C 43.019,26.124 42.654,26.001 42.376,26.001 C 42.043,26.001 41.49,26.067 41.252,26.175 C 41.018,26.277 40.795,26.479 40.632,26.645 C 40.472,26.806 40.302,27.16 40.302,27.16 S 40.168,27.497 40.09,27.744 L 40.047,27.998 H 44 Z M 49,30.137 V 31.023 C 49,31.357 49.036,31.535 49.11,31.673 C 49.183,31.811 49.259,31.925 49.363,31.983 C 49.473,32.037 49.683,32.115 49.822,32.115 C 49.931,32.115 50.03,32.11 50.119,32.1 C 50.209,32.086 50.286,32.069 50.35,32.05 C 50.425,32.03 50.492,32.008 50.551,31.983 L 51.107,32.599 A 0.903,0.903 0 0,1 50.913,32.732 A 2.678,2.678 0 0,1 50.199,32.973 C 50.049,33.003 49.885,33 49.711,33 C 49.351,32.973 48.989,32.92 48.813,32.788 C 48.663,32.675 48.433,32.513 48.278,32.235 C 48.125,31.956 48.052,31.813 48.002,31.255 V 26 H 47 V 25 H 48.002 V 23 L 49,22.484 V 25 L 52,25 L 51.851,26 L 49,26.002 V 30.137 Z" fill="rgb(254, 254, 253)"/>
</svg>
