<?xml version="1.0" encoding="UTF-8"?>
<!-- generated by Finnhub -->
<svg viewBox="0 0 55.5 55.5" xmlns="http://www.w3.org/2000/svg">
<path d="M 0,0 H 55.5 V 55.5 H 0 Z" fill="rgb(239, 242, 248)"/>
<path d="M 47.99,13.985 H 12.574 L 11,21.97 C 11.98,21.828 12.958,21.792 14.008,21.863 C 20.058,22.291 23.415,27.557 29.885,26.952 C 35.69,26.312 40.166,22.504 46.111,22.504 M 45,32.696 C 41.706,33.793 38.553,35.354 34.874,35.72 C 28.427,36.318 25.028,31.433 19.002,31.035 C 15.498,30.802 12.555,31.765 9.682,33.228 L 8,42 H 43.213"/>
<path d="M 45.99,24.89 C 40.982,25.626 36.834,29.16 31.677,29.808 C 25.264,30.53 22.023,24.508 16.029,24.04 C 14.217,23.896 12.544,24.148 10.976,24.653 L 10,29.845 C 12.927,28.005 15.994,27.429 19.27,28.258 C 25.822,29.881 28.575,33.63 35.022,32.909 C 38.716,32.44 41.888,30.529 45.199,29.159" fill="rgb(1, 82, 153)"/>
</svg>
