<?xml version="1.0" encoding="UTF-8"?>
<!-- generated by Finnhub -->
<svg viewBox="0 0 55.5 55.5" xmlns="http://www.w3.org/2000/svg">
<path d="M 0,0 H 55.5 V 55.5 H 0 Z" fill="rgb(44, 67, 143)"/>
<path d="M 22.99,25.985 H 20 V 38 H 23 V 34.241 C 23.267,34.488 23.925,35.181 25.228,35.181 C 27.116,35.181 28.654,33.664 28.654,30.714 C 28.654,29.197 28.236,27.617 27.752,27.007 A 3.187,3.187 0 0,0 25.212,25.771 C 23.858,25.771 23.268,26.48 23,26.727 V 26 Z M 25.913,30.346 C 25.93,30.775 25.913,32.032 25.496,32.642 C 25.379,32.791 25.078,33.202 24.41,33.202 C 23.256,33.202 22.956,31.682 22.956,30.478 C 22.956,29.291 23.256,27.832 24.41,27.832 C 25.83,27.832 25.896,29.852 25.913,30.346 Z M 13,26 H 10 V 38 H 13 V 34.241 C 13.267,34.488 13.97,35.181 15.273,35.181 C 17.161,35.181 18.698,33.664 18.698,30.714 C 18.698,29.197 18.28,27.617 17.796,27.007 A 3.186,3.186 0 0,0 15.256,25.771 C 13.903,25.771 13.269,26.48 13.001,26.727 V 26 Z M 15.956,30.346 C 15.973,30.775 15.956,32.032 15.539,32.642 C 15.422,32.791 15.121,33.202 14.453,33.202 C 13.3,33.202 12.999,31.682 12.999,30.478 C 12.999,29.291 13.299,27.832 14.453,27.832 C 15.873,27.832 15.94,29.852 15.956,30.346 Z M 30,23 V 35 H 33 V 21.42 L 30,23 Z" fill="rgb(254, 254, 253)"/>
<path d="M 40.054,37.702 L 38.703,36.554 C 39.044,36.253 39.367,35.931 39.67,35.589 L 40.834,36.949 A 12.75,12.75 0 0,1 40.064,37.717 Z M 42.097,39.454 L 40.679,38.244 C 40.914,38.024 41.141,37.797 41.36,37.563 L 42.573,38.979 C 42.418,39.141 42.259,39.299 42.097,39.454 Z M 43.983,41.066 L 42.915,40.154 C 43.036,40.036 43.155,39.917 43.273,39.796 L 44.187,40.863 A 20.48,20.48 0 0,1 43.984,41.066 Z M 39.998,34.1 L 38.448,33.36 L 39.317,31.859 L 40.734,32.829 A 10.26,10.26 0 0,1 39.998,34.1 Z M 42.212,35.157 L 40.595,34.385 C 40.847,34.007 41.075,33.612 41.279,33.204 L 42.757,34.216 C 42.588,34.538 42.407,34.852 42.212,35.156 Z M 44.627,36.309 L 42.942,35.506 C 43.112,35.235 43.273,34.956 43.425,34.673 L 44.964,35.727 C 44.855,35.924 44.743,36.118 44.627,36.309 Z M 46.867,37.379 L 45.598,36.773 C 45.685,36.629 45.769,36.483 45.851,36.336 L 47.011,37.13 L 46.867,37.378 Z M 41.211,31.681 L 39.521,31.366 L 39.971,29.691 L 41.591,30.263 C 41.497,30.748 41.37,31.221 41.211,31.681 Z M 43.623,32.129 L 41.862,31.801 C 42.006,31.373 42.124,30.933 42.215,30.482 L 43.905,31.078 C 43.825,31.435 43.731,31.785 43.623,32.128 Z M 46.255,32.618 L 44.419,32.277 C 44.513,31.972 44.596,31.662 44.669,31.348 L 46.429,31.969 C 46.375,32.187 46.317,32.403 46.255,32.618 Z M 48.695,33.072 L 47.313,32.815 C 47.359,32.653 47.403,32.491 47.444,32.327 L 48.769,32.795 C 48.745,32.888 48.721,32.98 48.695,33.072 Z M 41.752,29.03 L 40.04,29.163 V 27.428 L 41.752,27.561 A 10.548,10.548 0 0,1 41.752,29.03 Z M 44.197,28.84 L 42.411,28.978 A 11.106,11.106 0 0,0 42.411,27.613 L 44.197,27.752 A 13.056,13.056 0 0,1 44.197,28.839 Z M 46.865,28.632 L 45.005,28.776 A 13.971,13.971 0 0,0 45.005,27.815 L 46.865,27.96 A 14.975,14.975 0 0,1 46.865,28.632 Z M 49.339,28.439 L 47.939,28.548 A 15.157,15.157 0 0,0 47.939,28.043 L 49.339,28.152 L 49.34,28.295 V 28.439 Z M 41.59,26.329 L 39.97,26.899 L 39.521,25.225 L 41.211,24.911 C 41.37,25.369 41.497,25.843 41.591,26.329 Z M 43.904,25.512 L 42.215,26.108 C 42.125,25.658 42.005,25.218 41.862,24.79 L 43.623,24.462 C 43.731,24.806 43.826,25.156 43.904,25.512 Z M 46.428,24.622 L 44.668,25.242 A 13.406,13.406 0 0,0 44.419,24.314 L 46.255,23.973 C 46.317,24.188 46.375,24.403 46.428,24.622 Z M 48.769,23.796 L 47.444,24.264 A 17.345,17.345 0 0,0 47.314,23.776 L 48.695,23.519 C 48.721,23.611 48.745,23.703 48.769,23.796 Z M 40.734,23.761 L 39.317,24.732 L 38.449,23.23 L 39.998,22.491 C 40.272,22.895 40.518,23.319 40.734,23.761 Z M 42.757,22.375 L 41.28,23.39 A 10.963,10.963 0 0,0 40.595,22.208 L 42.212,21.436 C 42.406,21.741 42.589,22.056 42.757,22.377 Z M 44.964,20.863 L 43.424,21.918 A 13.416,13.416 0 0,0 42.942,21.085 L 44.627,20.281 C 44.743,20.473 44.855,20.667 44.964,20.863 Z M 47.011,19.461 L 45.851,20.255 A 15.364,15.364 0 0,0 45.598,19.818 L 46.867,19.212 L 47.011,19.46 Z M 39.239,21.505 L 38.124,22.807 L 36.896,21.581 L 38.2,20.467 C 38.57,20.787 38.918,21.135 39.24,21.505 Z M 40.834,19.643 L 39.67,21.003 A 11.198,11.198 0 0,0 38.703,20.037 L 40.064,18.874 C 40.331,19.12 40.588,19.376 40.834,19.644 Z M 42.574,17.613 L 41.36,19.03 A 13.279,13.279 0 0,0 40.679,18.35 L 42.097,17.138 C 42.259,17.293 42.418,17.452 42.573,17.614 Z M 44.187,15.729 L 43.273,16.796 C 43.156,16.675 43.036,16.556 42.915,16.438 L 43.984,15.526 L 44.187,15.729 Z M 37.213,19.709 L 36.473,21.257 L 34.968,20.389 L 35.94,18.974 C 36.383,19.19 36.808,19.436 37.213,19.709 Z M 38.271,17.499 L 37.498,19.113 C 37.12,18.861 36.724,18.633 36.315,18.429 L 37.329,16.954 C 37.651,17.123 37.965,17.304 38.271,17.498 Z M 39.425,15.087 L 38.62,16.769 C 38.349,16.599 38.07,16.439 37.787,16.287 L 38.843,14.75 C 39.039,14.858 39.233,14.97 39.425,15.087 Z M 40.495,12.85 L 39.889,14.116 A 16.37,16.37 0 0,0 39.452,13.864 L 40.247,12.706 L 40.496,12.85 Z M 34.79,18.498 L 34.475,20.185 L 32.798,19.737 L 33.37,18.119 C 33.856,18.212 34.33,18.339 34.79,18.498 Z M 35.239,16.088 L 34.911,17.848 C 34.482,17.704 34.041,17.586 33.591,17.495 L 34.188,15.808 C 34.544,15.887 34.895,15.981 35.238,16.088 Z M 35.729,13.461 L 35.387,15.294 A 13.468,13.468 0 0,0 34.457,15.046 L 35.079,13.288 C 35.298,13.341 35.514,13.398 35.729,13.461 Z M 36.183,11.024 L 35.926,12.404 C 35.764,12.358 35.601,12.314 35.438,12.274 L 35.906,10.949 C 35.999,10.973 36.091,10.999 36.183,11.024 Z M 24.6,20.468 L 25.904,21.582 L 24.676,22.808 L 23.56,21.506 C 23.882,21.136 24.23,20.789 24.6,20.468 Z M 22.736,18.875 L 24.096,20.038 C 23.756,20.34 23.432,20.663 23.13,21.004 L 21.966,19.644 C 22.211,19.377 22.468,19.121 22.736,18.875 Z M 20.702,17.139 L 22.121,18.35 C 21.886,18.568 21.659,18.795 21.44,19.03 L 20.226,17.614 C 20.382,17.452 20.54,17.294 20.702,17.138 Z M 18.816,15.527 L 19.884,16.439 C 19.764,16.556 19.644,16.676 19.526,16.797 L 18.613,15.73 L 18.816,15.527 Z M 26.859,18.975 L 27.831,20.39 L 26.327,21.258 L 25.587,19.71 C 25.991,19.437 26.417,19.19 26.859,18.975 Z M 25.471,16.955 L 26.485,18.43 C 26.075,18.634 25.68,18.862 25.301,19.114 L 24.529,17.499 C 24.834,17.305 25.149,17.123 25.471,16.955 Z M 23.957,14.751 L 25.013,16.288 C 24.729,16.439 24.451,16.6 24.179,16.77 L 23.375,15.088 C 23.566,14.972 23.761,14.859 23.957,14.751 Z M 22.553,12.707 L 23.348,13.865 A 16.37,16.37 0 0,0 22.91,14.117 L 22.304,12.851 C 22.386,12.802 22.469,12.755 22.552,12.707 Z M 29.43,18.12 L 30.002,19.738 L 28.325,20.186 L 28.01,18.499 C 28.47,18.34 28.944,18.213 29.43,18.12 Z M 28.612,15.809 L 29.209,17.496 C 28.759,17.587 28.318,17.706 27.889,17.849 L 27.561,16.089 C 27.906,15.982 28.256,15.888 28.612,15.809 Z M 27.721,13.289 L 28.343,15.046 C 28.029,15.118 27.718,15.201 27.413,15.295 L 27.071,13.462 C 27.286,13.399 27.502,13.342 27.721,13.289 Z M 26.894,10.951 L 27.362,12.274 C 27.199,12.315 27.036,12.359 26.874,12.404 L 26.617,11.024 C 26.709,10.999 26.801,10.974 26.894,10.951 Z M 32.134,17.959 L 32.268,19.668 H 30.531 L 30.664,17.958 A 10.58,10.58 0 0,1 32.134,17.958 Z M 31.944,15.517 L 32.083,17.3 A 11.06,11.06 0 0,0 30.716,17.3 L 30.856,15.516 A 13.085,13.085 0 0,1 31.944,15.516 Z M 31.736,12.853 L 31.881,14.711 A 14.003,14.003 0 0,0 30.918,14.711 L 31.063,12.853 A 15.097,15.097 0 0,1 31.736,12.853 Z M 31.543,10.381 L 31.653,11.781 C 31.568,11.779 31.484,11.778 31.399,11.778 L 31.147,11.78 L 31.256,10.381 H 31.543 Z M 38.2,36.125 L 36.896,35.011 L 38.124,33.784 L 39.239,35.087 C 38.917,35.457 38.57,35.804 38.199,36.125 Z" fill="rgb(48, 200, 253)"/>
</svg>
