<?xml version="1.0" encoding="UTF-8"?>
<!-- generated by Finnhub -->
<svg viewBox="0 0 55.5 55.5" xmlns="http://www.w3.org/2000/svg">
<path d="M 0,0 H 55.5 V 55.5 H 0 Z" fill="url(#a)"/>
<path d="M 6.99,27.985 L 27.868,17 L 49,28 L 27.868,39 L 7,28 Z" fill="rgb(197, 73, 74)"/>
<path d="M 24.38,30.985 H 27.467 V 29.838 H 25.567 V 25 H 24.39 V 31 Z M 27.89,31 H 31 V 29.838 H 29 V 25 H 27.89 V 31 Z M 31.388,31 H 32.609 V 25 H 31.388 V 31 Z M 33.484,31 H 34.675 L 34.57,26.92 L 36.575,31 H 38 V 25 H 36.68 L 36.787,29.096 L 34.78,25 H 33.483 V 31 Z M 39.29,29.145 L 38.34,29.775 C 38.792,30.549 39.592,30.984 40.677,30.984 C 42.14,30.984 43,30.177 43,29.016 C 43,28.29 42.728,27.887 42.11,27.596 C 41.914,27.5 41.522,27.436 40.903,27.339 C 40.21,27.226 39.863,27.129 39.863,26.726 C 39.863,26.371 40.164,26.113 40.662,26.113 C 41.175,26.113 41.598,26.339 42.004,26.823 L 42.924,26.065 C 42.381,25.355 41.612,25 40.632,25 C 39.38,25 38.566,25.774 38.566,26.904 C 38.566,27.807 39.063,28.29 40.164,28.484 C 41.16,28.661 41.657,28.661 41.657,29.21 C 41.657,29.58 41.296,29.871 40.707,29.871 C 40.104,29.871 39.622,29.629 39.29,29.145 Z M 14,28.742 V 31 H 15.252 V 28.838 H 16.082 L 17.091,31 H 18.493 L 17.407,28.742 L 17.317,28.564 C 18.01,28.29 18.387,27.742 18.387,26.919 C 18.387,25.709 17.663,25 16.216,25 H 14 V 28.742 Z M 20.063,28.742 A 3.66,3.66 0 0,1 19.987,28.016 C 19.987,26.871 20.485,26.209 21.254,26.209 C 22.038,26.209 22.521,26.871 22.521,28.016 C 22.521,28.274 22.491,28.532 22.445,28.742 C 22.279,29.419 21.857,29.79 21.254,29.79 C 20.666,29.79 20.244,29.419 20.063,28.742 Z M 23.743,28.742 C 23.773,28.516 23.803,28.258 23.803,28.016 C 23.803,27.016 23.516,26.226 22.958,25.677 A 2.386,2.386 0 0,0 21.254,25 A 2.35,2.35 0 0,0 19.564,25.677 C 19.007,26.226 18.721,27.016 18.721,28.016 C 18.721,28.258 18.736,28.516 18.766,28.742 C 19.006,30.145 19.942,31 21.254,31 C 22.581,31 23.501,30.145 23.742,28.742 Z M 15.252,26.193 H 16.142 C 16.82,26.193 17.122,26.354 17.122,26.999 C 17.122,27.596 16.805,27.789 16.142,27.789 H 15.252 V 26.193 Z" fill="rgb(254, 254, 253)"/>
<defs>
<linearGradient id="a" x1="10.418" x2="68.147" y1="9.712" y2="76.017" gradientUnits="userSpaceOnUse">
<stop stop-color="rgb(25, 29, 31)" offset="0"/>
<stop stop-color="rgb(5, 5, 8)" offset="1"/>
</linearGradient>
</defs>
</svg>
