<?xml version="1.0" encoding="UTF-8"?>
<!-- generated by Finnhub -->
<svg fill="none" viewBox="0 0 55.5 55.5" xmlns="http://www.w3.org/2000/svg">
<path d="M 0,0 H 55.5 V 55.5 H 0 Z" fill="rgb(1, 114, 174)"/>
<path d="M 24.99,24.985 H 27 V 38 H 25 Z" fill="rgb(254, 254, 253)"/>
<path d="M 11.99,24.985 V 31.004 H 14 V 27.008 H 16.293 C 16.793,27.008 16.842,27.468 16.6,27.64 L 15.111,28.724 L 16.449,31.004 H 18.816 L 17.399,28.724 H 17.379 L 17.792,28.37 L 17.798,28.365 C 18.3,28.023 18.554,27.675 18.554,27.109 V 27.009 C 18.554,26.065 17.685,25.007 16.611,25 H 12 Z M 38,25 V 31.004 H 40 V 27.008 H 42.293 C 42.793,27.008 42.842,27.468 42.6,27.64 L 41.111,28.724 L 42.449,31.004 H 44.816 L 43.399,28.724 H 43.379 L 43.792,28.37 L 43.798,28.365 C 44.3,28.023 44.554,27.675 44.554,27.109 V 27.009 C 44.554,26.065 43.685,25.007 42.611,25 H 38 Z" fill="rgb(254, 254, 253)"/>
<circle cx="28.726" cy="28.258" r="2.507" stroke="rgb(254, 254, 253)" stroke-width="1.7"/>
<circle cx="21.787" cy="28.143" r="2.507" stroke="rgb(254, 254, 253)" stroke-width="1.7"/>
<path d="M 34.99,29.9 C 35.649,29.915 36.21,29.543 36.483,29 H 38.275 A 3.358,3.358 0 1,1 38.115,27 H 36.08 A 1.657,1.657 0 0,0 33.532,27.488 H 36 V 29 H 33.518 C 33.79,29.543 34.352,29.915 35,29.915 Z" fill="rgb(254, 254, 253)"/>
<rect x="7" y="19" width="42" height="18" rx="3" stroke="rgb(254, 254, 253)" stroke-width="2"/>
</svg>
