<?xml version="1.0" encoding="UTF-8"?>
<!-- generated by Finnhub -->
<svg viewBox="0 0 55.5 55.5" xmlns="http://www.w3.org/2000/svg">
<path d="M 0,0 H 55.5 V 55.5 H 0 Z" fill="rgb(209, 49, 80)"/>
<path d="M 32.281,16.218 C 32.078,15.58 31.541,13.823 31.047,13.344 C 30.311,12.631 29.145,12.523 27.024,12.523 C 25.521,12.523 24.527,13.057 23.987,13.668 C 23.544,14.163 23.338,15.001 23.107,15.72 L 20.597,23 H 24.189 L 25.844,18.52 L 27.5,23 H 31.096 L 29.789,19.544 C 29.65,19.089 29.213,17.994 28.866,18 C 28.818,17.991 29.646,17.995 30.393,18 C 31.086,18.002 31.786,18.005 31.931,17.991 C 32.445,17.933 32.776,17.697 32.292,16.233 Z M 28.213,18 C 27.389,18.004 26.029,18 26.029,18 L 27.634,13.021 S 28.677,16.314 28.865,16.863 C 29.075,17.473 28.925,17.995 28.213,18 Z" fill="rgb(254, 254, 253)"/>
<path d="M 41.598,28.258 C 42.186,27.876 43.437,26.94 43.754,26.339 C 44.228,25.442 43.979,24.339 43.325,22.395 C 42.858,21.012 42.02,20.535 41.253,20.228 C 40.628,19.978 39.743,20 38.958,20 H 31.01 L 32.112,23 H 37.36 L 33.112,26.078 L 34.222,29.378 L 37.573,27 C 37.743,26.886 38.196,26.567 38.435,26.31 C 38.677,26.053 38.658,25.807 38.653,25.713 C 38.647,25.663 38.897,26.427 39.125,27.113 C 39.335,27.756 39.544,28.392 39.606,28.525 C 39.822,28.979 40.316,29.165 41.608,28.272 Z M 38.616,25.074 A 118.36,118.36 0 0,1 37.94,23 H 43.02 S 40.411,24.982 39.93,25.323 C 39.396,25.703 38.842,25.727 38.617,25.074 Z" fill="rgb(254, 254, 253)"/>
<path d="M 32.276,40.626 C 32.856,41.049 34.166,41.906 34.856,42.014 C 35.885,42.169 36.896,41.602 38.611,40.399 C 39.831,39.545 40.303,38.546 40.371,37.745 C 40.426,37.092 40.081,36.3 39.831,35.589 L 37.43,28.275 L 34.52,30.305 L 36.108,35.135 L 31.822,32.165 L 28.918,34.202 L 32.293,36.547 C 32.461,36.667 32.912,36.978 33.238,37.123 A 0.783,0.783 0 0,0 33.892,37.136 C 33.94,37.118 33.264,37.586 32.658,38.004 C 32.095,38.394 31.529,38.786 31.419,38.882 C 31.037,39.222 31.007,39.732 32.286,40.642 Z M 34.516,36.909 C 35.176,36.436 36.279,35.668 36.279,35.668 L 37.815,40.338 S 35.158,38.524 34.673,38.185 C 34.131,37.815 33.94,37.317 34.516,36.909 Z" fill="rgb(254, 254, 253)"/>
<path d="M 17.205,35.908 C 16.987,36.573 16.546,38.037 16.657,38.704 C 16.82,39.7 17.691,40.45 19.407,41.65 C 20.627,42.51 21.758,42.634 22.567,42.447 C 23.227,42.299 23.901,41.737 24.527,41.287 L 30.992,36.824 L 28.09,34.78 L 23.822,37.73 L 25.425,32.876 L 22.517,30.842 L 21.255,34.663 C 21.185,34.853 21.017,35.367 20.977,35.713 C 20.935,36.056 21.102,36.244 21.164,36.315 C 21.198,36.351 20.531,35.878 19.93,35.449 C 19.37,35.055 18.81,34.654 18.678,34.584 C 18.228,34.339 17.718,34.466 17.215,35.924 Z M 21.583,36.813 C 22.253,37.277 23.349,38.052 23.349,38.052 L 19.223,40.902 S 20.189,37.902 20.367,37.357 C 20.571,36.747 21.002,36.411 21.583,36.814 Z" fill="rgb(254, 254, 253)"/>
<path d="M 17.22,20.625 C 16.52,20.632 14.937,20.68 14.316,20.987 C 13.386,21.446 12.915,22.479 12.259,24.424 C 11.792,25.806 12.018,26.882 12.451,27.565 C 12.804,28.127 13.563,28.571 14.204,29.006 L 20.599,33.558 L 21.719,30.268 L 17.492,27 H 22.765 L 23.875,24 H 19.717 C 19.51,24 18.949,24.048 18.601,24.117 C 18.249,24.187 18.116,24.304 18.065,24.384 C 18.04,24.429 18.299,23.668 18.533,22.984 C 18.753,22.349 18.973,21.71 19.003,21.573 C 19.103,21.08 18.821,20.651 17.23,20.639 Z M 17.7,24.924 C 17.451,25.682 17.05,26.839 17.05,26.839 L 12.94,24 S 16.194,24.004 16.791,24 C 17.457,23.995 17.917,24.266 17.701,24.924 Z" fill="rgb(254, 254, 253)"/>
</svg>
