<?xml version="1.0" encoding="UTF-8"?>
<!-- generated by Finnhub -->
<svg viewBox="0 0 55.5 55.5" xmlns="http://www.w3.org/2000/svg">
<path d="M 0,0 H 55.5 V 55.5 H 0 Z" fill="rgb(1, 102, 175)"/>
<path d="M 12.386000000000001,19.985 C 11.05,20 9.478,20.555 9.478,22.12 C 9.478,23.14 10.256,23.532 11.008,23.91 C 11.624,24.22 12.205,24.513 12.205,25.133 C 12.205,25.95 11.409,26.315 10.62,26.315 C 9.92,26.315 9.265,26.074 8.699,25.84 L 8.325,26.953 C 9.11,27.205 9.852,27.337 10.528,27.337 C 11.498,27.337 13.755,27.108 13.755,24.989 C 13.755,23.884 12.9,23.43 12.145,23.029 C 11.57,22.724 11.028,22.436 11.028,21.904 C 11.028,21.294 11.732,21.022 12.43,21.022 C 12.96,21.022 13.544,21.155 14.05,21.377 C 14.083,21.277 14.363,20.397 14.393,20.302 C 13.827,20.104 13.158,20 12.396,20 Z M 15.293,21.998 H 16.548 L 16.02,24 H 18.55 L 19.078,21.998 H 20.334 L 19.024,27.019 H 17.769 L 18.342,25 H 15.813 L 15.239,27.02 H 13.983 L 15.293,21.998 Z M 21.403,21.998 H 25.089 L 24.782,23 H 22.451 L 22.128,24 H 24.317 L 24.029,25 H 21.922 L 21.596,26 H 24.029 L 23.693,27.02 H 20.083 L 21.402,21.998 Z M 26.884,24 H 27.342 C 28.014,24 28.814,24.09 28.814,23.428 C 28.814,22.903 28.265,23 27.754,23 H 27.234 L 26.884,24 Z M 26.167,21.998 H 27.647 C 28.804,21.998 30.14,21.984 30.14,23.185 C 30.14,24.048 29.332,24.508 28.31,24.523 V 24.537 C 28.651,24.551 28.866,24.724 28.948,24.997 L 29.548,27.019 H 28.229 L 27.925,25.839 C 27.781,25.307 27.817,25 27.135,25 H 26.66 L 26.113,27.02 H 24.858 L 26.168,21.998 Z M 30.861,21.998 H 32.117 L 32.305,25.846 H 32.323 L 34.403,21.998 H 36.09 L 36.116,25.846 H 36.135 L 38.349,21.998 H 39.65 L 36.663,27.019 H 35.093 L 35.031,23.005 H 35.014 L 32.807,27.019 H 31.256 L 30.861,21.998 Z M 40.34,21.998 H 41.65 L 40.332,27.019 H 39.022 L 40.341,21.998 Z M 42.807,21.998 H 44.395 L 45.731,25.811 H 45.749 L 46.772,21.998 H 47.956 L 46.6,27.019 H 44.986 L 43.676,23.171 H 43.658 L 42.663,27.019 H 41.461 L 42.806,21.998 Z M 14.267,34.326 L 14.151,34.308 L 14.12,29 H 12.196 L 9.732,34.325 L 9.616,34.31 L 9.394,29 H 8 L 8.464,36 H 10.231 L 12.843,30.215 L 12.959,30.232 L 13.033,36 H 14.819 C 14.845,35.948 18.267,29.124 18.328,29 H 16.889 L 14.267,34.326 Z M 18.32,31 H 19.539 L 18.311,36 H 17.091 L 18.319,31 Z M 20.622,31 H 21.792 L 20.748,35 H 23.035 L 22.755,36 H 19.386 L 20.622,31 Z M 24.798,31 H 25.968 L 24.924,35 H 27.212 L 26.96,36 H 23.562 L 24.798,31 Z M 28.915,31 H 30.134 L 28.906,36 H 27.688 L 28.915,31 Z M 32.07,34.007 H 33.874 L 33.507,31.859 H 33.473 L 32.07,34.007 Z M 33.048,31 H 34.342 L 35.402,36 H 34.234 L 34.033,35 H 31.553 L 30.81,36 H 29.515 L 33.048,31 Z M 37.267,31 H 39.197 L 39.589,34.537 H 39.606 L 41.902,31 H 43.848 L 42.604,36 H 41.367 L 42.469,31.83 H 42.453 L 39.814,36 H 38.695 L 38.228,31.83 H 38.211 L 37.143,36 H 36.03 L 37.266,31 Z M 47.725,31.93 A 3.174,3.174 0 0,0 46.514,31.675 C 46.097,31.675 45.537,31.816 45.537,32.24 C 45.537,33.032 47.524,32.982 47.524,34.354 C 47.524,35.562 46.405,36 45.127,36 A 5.736,5.736 0 0,1 43.467,35.725 L 43.767,34.883 C 44.217,35.06 44.693,35.223 45.194,35.223 C 45.754,35.223 46.305,34.983 46.305,34.453 C 46.305,33.562 44.318,33.703 44.318,32.388 C 44.318,31.35 45.37,30.898 46.488,30.898 C 46.998,30.898 47.524,30.954 48,31.117 L 47.725,31.929 Z" fill="rgb(254, 254, 253)"/>
</svg>
