<?xml version="1.0" encoding="UTF-8"?>
<!-- generated by Finnhub -->
<svg viewBox="0 0 55.5 55.5" xmlns="http://www.w3.org/2000/svg">
<path d="M 0,0 H 55.5 V 55.5 H 0 Z" fill="rgb(236, 31, 34)"/>
<path d="M 25.294999999999998,32.788 L 28.932,26.895 A 2.88,2.88 0 0,0 29.189,26.348 A 0.946,0.946 0 0,0 29.242,26 H 31.38 C 31.823,26 31.537,26.163 31.696,26.241 C 32.025,25.989 32.266,26.001 32.766,26.001 H 34.526 C 35.924,26.001 35.499,26.943 34.964,27.826 L 33.751,29.826 C 32.856,31.303 31.34,31 29.874,31 C 29.633,31 29.464,30.944 29.394,30.848 C 29.225,30.619 28.967,30.916 28.869,31.129 C 28.658,31.587 28.047,32.358 27.953,32.63 A 1.112,1.112 0 0,0 27.896,32.998 H 25.364 C 25.254,32.99 25.234,32.922 25.305,32.804 Z M 32.335,27 H 31.771 A 0.874,0.874 0 0,0 31.328,27.109 C 31.231,27.165 31.128,27.285 31.015,27.471 L 29.928,29.316 C 29.828,29.481 29.758,29.616 29.721,29.723 C 29.648,29.933 29.766,30.001 30.076,30.001 H 30.661 C 30.866,30.001 31.017,30.003 31.115,29.927 C 31.214,29.852 31.351,29.667 31.526,29.376 L 32.523,27.687 C 32.557,27.631 32.593,27.572 32.629,27.516 C 32.685,27.428 32.724,27.358 32.742,27.304 C 32.778,27.201 32.765,27.128 32.704,27.087 C 32.643,27.044 32.521,27 32.335,27 Z M 24.198,28.683 L 23.472,28.702 C 23.272,28.707 23.13,28.726 23.05,28.772 C 22.97,28.819 22.873,28.93 22.767,29.109 L 22.587,29.412 A 1.592,1.592 0 0,0 22.474,29.622 C 22.434,29.738 22.443,29.814 22.498,29.856 C 22.555,29.898 22.676,29.92 22.86,29.92 H 23.47 C 23.688,29.92 23.833,29.902 23.903,29.865 C 23.973,29.828 24.063,29.729 24.16,29.558 L 24.47,29.006 C 24.625,28.737 24.497,28.675 24.198,28.683 Z M 22.434,26.005 H 27.059 C 27.277,26.005 27.442,26.025 27.558,26.065 A 0.723,0.723 0 0,1 27.86,26.281 C 27.96,26.401 28.02,26.552 28.042,26.734 C 28.064,26.914 28.042,27.094 27.982,27.271 A 3.812,3.812 0 0,1 27.631,27.965 L 26.311,30.143 C 26.21,30.309 26.124,30.493 26.055,30.69 A 0.865,0.865 0 0,0 25.995,31 H 23.55 A 0.939,0.939 0 0,1 23.62,30.675 L 23.662,30.555 C 23.501,30.737 23.332,30.864 23.155,30.939 C 22.977,31.015 22.761,30.999 22.507,30.999 H 21.044 C 20.581,30.999 20.257,30.948 20.074,30.74 C 19.856,30.496 19.811,30.19 19.939,29.82 C 19.986,29.683 20.064,29.527 20.171,29.353 L 20.466,28.864 C 20.736,28.416 21.02,28.105 21.318,27.934 C 21.615,27.764 22.018,27.678 22.526,27.678 H 24.89 C 25.075,27.678 25.201,27.656 25.266,27.613 A 0.65,0.65 0 0,0 25.529,27.261 C 25.566,27.155 25.553,27.081 25.489,27.043 C 25.425,27.003 25.291,26.985 25.086,26.985 H 22.625 C 22.145,26.981 21.765,27.047 21.483,27.18 L 22.434,26.005 Z M 16.879,26.005 C 17.203,26.006 17.017,26.245 17.479,26.091 C 17.605,26.048 17.789,26.005 18.045,26.005 H 19.709 C 20.176,26.005 20.487,26.139 20.644,26.406 C 20.788,26.662 20.799,26.962 20.68,27.308 C 20.603,27.528 20.47,27.797 20.281,28.111 L 19.045,30.148 C 18.945,30.314 18.859,30.496 18.792,30.69 A 0.844,0.844 0 0,0 18.732,31 H 15.817 C 16.02,30.805 16.177,30.685 16.294,30.534 C 16.41,30.384 16.554,30.165 16.727,29.88 L 18.081,27.644 C 18.217,27.416 18.292,27.284 18.305,27.246 C 18.349,27.119 18.304,27.036 18.168,27 A 1.203,1.203 0 0,0 17.912,26.985 H 17.317 C 17.119,26.985 16.968,27.017 16.867,27.081 C 16.766,27.144 16.657,27.273 16.54,27.467 L 14.915,30.148 C 14.814,30.314 14.728,30.498 14.66,30.695 A 0.833,0.833 0 0,0 14.6,31 H 11.686 C 11.885,30.806 12.043,30.686 12.16,30.535 C 12.278,30.385 12.424,30.166 12.597,29.881 L 14.395,26.915 C 14.498,26.742 14.584,26.56 14.648,26.373 C 14.688,26.262 14.705,26.14 14.705,26.006 H 16.878 Z M 48.12,26 C 48.443,26.002 48.257,26.193 48.718,26.039 C 48.845,25.997 49.028,26 49.285,26 H 50.949 C 51.416,26 51.727,26.087 51.884,26.355 C 52.028,26.61 52.039,26.911 51.92,27.255 A 4.42,4.42 0 0,1 51.52,28.059 L 50.285,30.096 C 50.185,30.263 50.099,30.445 50.032,30.639 C 49.993,30.75 49.974,30.869 49.972,30.999 H 47.056 C 47.259,30.805 47.418,30.634 47.534,30.483 C 47.649,30.332 47.794,30.113 47.967,29.829 L 49.321,27.592 C 49.41,27.444 49.747,27.106 49.408,27.016 A 1.212,1.212 0 0,0 49.152,27 H 48.556 C 48.359,27 48.208,27.033 48.106,27.096 C 48.006,27.16 47.897,27.222 47.78,27.416 L 46.154,30.096 C 46.054,30.263 45.968,30.446 45.899,30.644 A 1.136,1.136 0 0,0 45.841,30.999 H 42.927 C 43.125,30.805 43.283,30.634 43.401,30.483 C 43.519,30.332 43.665,30.113 43.838,29.829 L 45.636,26.863 C 45.739,26.689 45.825,26.508 45.889,26.32 A 0.85,0.85 0 0,0 45.946,26 H 48.119 Z M 40.516,26 H 43.573 C 44.794,26 44.874,27.019 44.32,27.913 L 43.18,29.755 C 42.552,30.772 41.85,30.999 40.695,30.999 H 37.653 C 36.813,30.999 36.051,30.853 36.428,29.806 C 36.472,29.684 36.546,29.542 36.648,29.38 L 36.655,29.367 C 37.413,29.377 38.092,29.384 38.932,29.373 C 39.244,29.377 39.087,29.683 39.048,29.791 C 38.968,30.012 39.364,30.001 39.489,30.003 H 40.051 C 40.401,30.009 40.584,29.96 40.769,29.66 L 41.979,27.708 C 42.193,27.36 42.335,27 41.779,27 H 41.158 C 40.763,27 40.516,27.116 40.304,27.453 C 40.214,27.637 40.11,27.606 39.694,27.643 L 37.712,27.654 L 38.01,27.172 C 38.578,26.264 39.485,26 40.516,26 Z" fill="rgb(254, 254, 253)"/>
<path d="M 35.333000000000006,28.352999999999998 C 35.234,28.501 35.125,28.711 35.015,28.844 C 34.964,28.934 35.041,28.992 35.247,28.997 C 36.5,29.007 37.754,28.987 39.007,28.997 C 39.265,28.997 39.528,28.989 39.625,28.828 L 39.895,28.304 C 40.008,28.116 40.106,28 39.76,28 L 36.558,28.016 C 36.079,28.016 35.579,28.08 35.343,28.368 Z M 15.502,23 L 14.416,25.259 C 14.225,25.064 13.489,24.999 13.16,24.999 H 9.917 C 9.737,24.999 9.602,25.02 9.516,25.051 C 9.296,25.131 9.155,25.361 9.042,25.552 C 8.878,25.831 9.113,25.999 9.415,25.999 H 11.909 C 12.314,25.999 12.878,25.987 13.035,26.109 C 13.275,26.296 13.493,26.779 13.387,27.106 C 13.053,28.131 12.255,29.376 11.558,30.194 C 10.895,30.973 9.886,31.007 8.942,30.999 H 4 L 5.162,28.893 C 5.803,29.401 7.595,29.111 8.378,29.111 C 8.812,29.111 8.886,29.696 9.811,29.81 C 10.271,29.866 10.451,29.724 10.464,29.59 C 10.488,29.348 9.831,29.423 9.759,29.277 C 9.5,28.75 9.684,28.223 9.917,28.061 C 10.217,27.853 10.861,28.184 10.921,28.115 C 11.146,27.857 9.877,27.122 9.525,27.434 L 9.042,27.863 C 8.862,28.022 7.787,28.02 7.245,28.037 C 6.295,28.067 5.94,27.667 6.181,26.927 C 6.474,26.026 7.125,25.122 7.591,24.294 C 8.153,23.293 9.07,23 10.148,23 H 15.502 Z" fill="rgb(254, 254, 253)"/>
</svg>
