<?xml version="1.0" encoding="UTF-8"?>
<!-- generated by Finnhub -->
<svg viewBox="0 0 55.5 55.5" xmlns="http://www.w3.org/2000/svg">
<path d="M 0,0 H 55.5 V 55.5 H 0 Z" fill="rgb(222, 18, 74)"/>
<path d="M 38.907000000000004,6.985 A 12.643,12.643 0 0,1 38.841,18.549 A 7.932,7.932 0 0,0 40.814,14.287 C 41.029,14.737 41.18,15.215 41.262,15.708 A 6.839,6.839 0 0,0 41.202,10.892 S 43.467,14.416 41.002,17.534 A 7.514,7.514 0 0,0 40.842,16.659 C 40.142,17.859 39.226,18.917 38.141,19.781 C 40.941,18.978 42.206,17.614 42.762,15.788 C 44.162,11.15 38.917,7 38.917,7 Z" fill="rgb(1, 69, 146)"/>
<path d="M 42.444,18.462 A 0.108,0.108 0 0,0 42.306,18.477 C 42.242,18.537 39.053,21.952 32.919,21.133 A 43.258,43.258 0 0,1 27.801,20.066 C 28.245,19.159 28.565,17.867 27.249,17.12 C 25.359,16.053 22.795,17.899 22.647,18.144 C 22.591,18.24 22.667,18.292 22.747,18.3 C 23.079,18.332 25.612,18.264 26.697,19.801 C 24.007,19.135 23.683,20.287 24.079,21.475 A 14.8,14.8 0 0,0 25.8,24.78 A 0.133,0.133 0 0,1 25.8,24.932 A 0.265,0.265 0 0,1 25.668,25.017 C 21.435,26.441 18.278,30.675 16.261,34.287 A 13.573,13.573 0 0,1 14.736,28.027 A 13.789,13.789 0 0,1 20.396,16.977 A 13.705,13.705 0 0,1 32.623,14.989 V 14.956 A 14.435,14.435 0 0,0 16.275,19.313 A 14.535,14.535 0 0,0 15.233,36.245 A 34.932,34.932 0 0,0 13.632,40.085 C 13.444,40.647 13.396,41.108 13.756,41.265 C 14.116,41.422 14.328,41.225 14.82,40.543 C 16.389,38.376 23.051,28.464 27.68,31.598 C 29.982,33.158 30.706,34.604 29.365,35.952 C 28.657,36.662 26.965,37.665 25.948,38.147 C 24.372,38.893 23.519,39.042 23.651,39.6 C 23.783,40.157 24.451,40.11 27.085,39.423 C 30.129,38.62 37.048,36.827 33.487,30.948 C 31.87,28.299 30.202,26.293 29.109,24.656 A 0.11,0.11 0 0,1 29.109,24.519 C 29.145,24.463 29.245,24.471 29.245,24.471 C 41.005,23.588 42.418,18.817 42.462,18.636 C 42.462,18.604 42.51,18.504 42.462,18.456 L 42.454,18.476 Z" fill="rgb(238, 246, 249)"/>
<path d="M 40.815000000000005,33.907 A 13.773,13.773 0 0,1 30.653,41.502 A 13.744,13.744 0 0,1 18.613,37.534 C 18.213,38.04 17.813,38.534 17.469,38.991 A 14.433,14.433 0 0,0 30.499,42.674 A 14.472,14.472 0 0,0 40.857,33.934 H 40.825 V 33.922 Z" fill="rgb(238, 246, 249)"/>
</svg>
