<?xml version="1.0" encoding="UTF-8"?>
<!-- generated by Finnhub -->
<svg viewBox="0 0 55.5 55.5" xmlns="http://www.w3.org/2000/svg">
<path d="M 0,0 H 55.5 V 55.5 H 0 Z" fill="rgb(76, 136, 192)"/>
<path d="M 23.647,18.806 C 22.677,19.374 21.567,20.001 19.739,20.001 H 12 V 18.001 H 19.74 C 21.03,18.001 21.733,17.606 22.7,17.065 L 22.936,16.933 C 24.097,16.288 25.486,15.619 27.994,15.633 C 30.474,15.648 32.058,16.302 33.279,16.941 C 33.531,17.073 33.744,17.191 33.937,17.297 C 34.234,17.46 34.484,17.598 34.76,17.725 C 35.165,17.91 35.492,18 35.836,18 H 44 V 20 H 35.836 C 35.106,20 34.484,19.798 33.928,19.543 A 17.104,17.104 0 0,1 32.873,18.994 C 32.691,18.895 32.515,18.798 32.351,18.713 C 31.325,18.175 30.057,17.645 27.982,17.633 C 25.933,17.622 24.887,18.137 23.908,18.681 L 23.658,18.821 Z" fill="rgb(254, 254, 253)"/>
<path d="M 21.991999999999997,22.922 C 21.017,23.448 19.954,24 18.264,24 H 12 V 22 H 18.264 C 19.441,22 20.073,21.676 21.029,21.186 C 21.21,21.093 21.403,20.994 21.614,20.89 C 22.971,20.22 24.708,19.573 27.988,19.573 C 31.019,19.573 32.908,20.221 34.318,20.881 C 34.646,21.034 34.945,21.187 35.212,21.324 L 35.247,21.341 C 35.53,21.486 35.768,21.607 35.995,21.708 C 36.442,21.908 36.775,22 37.112,22 H 44 V 24 H 37.112 C 36.376,24 35.748,23.789 35.178,23.534 C 34.897,23.408 34.613,23.264 34.338,23.123 L 34.311,23.109 A 26.865,26.865 0 0,0 33.47,22.692 C 32.288,22.139 30.687,21.572 27.988,21.572 C 25.038,21.572 23.602,22.139 22.498,22.683 C 22.333,22.765 22.168,22.85 22.002,22.937 Z" fill="rgb(254, 254, 253)"/>
<path d="M 19.904,27.543 C 19.201,27.833 18.381,28 17.234,28 H 12 V 26 H 17.234 C 18.168,26 18.74,25.867 19.192,25.692 C 19.528,25.562 19.784,25.422 20.108,25.245 C 20.288,25.146 20.489,25.035 20.737,24.909 C 22.082,24.222 23.894,23.599 27.987,23.599 C 31.908,23.599 33.927,24.222 35.357,24.895 C 35.766,25.087 36.087,25.257 36.363,25.402 C 37.093,25.787 37.497,26 38.319,26 H 44 V 28 H 38.319 C 36.961,28 36.035,27.506 35.184,27.052 C 34.955,26.93 34.731,26.811 34.506,26.705 C 33.385,26.177 31.666,25.599 27.988,25.599 C 24.135,25.599 22.651,26.177 21.647,26.69 C 21.51,26.76 21.362,26.841 21.205,26.926 C 20.815,27.139 20.373,27.381 19.914,27.558 Z" fill="rgb(254, 254, 253)"/>
<path d="M 19.249,31.53 C 18.597,31.835 17.826,32 16.684,32 H 12 V 30 H 16.684 C 17.616,30 18.102,29.869 18.456,29.713 C 18.648,29.629 18.826,29.528 19.049,29.393 L 19.162,29.323 C 19.355,29.207 19.584,29.067 19.84,28.93 C 21.162,28.226 23.14,27.625 27.988,27.625 C 32.253,27.625 34.365,28.237 35.868,28.897 C 36.238,29.06 36.545,29.209 36.818,29.341 C 37.661,29.751 38.174,30.001 39.243,30.001 H 44 V 32.001 H 39.243 C 37.677,32.001 36.704,31.522 35.774,31.065 C 35.538,30.949 35.304,30.834 35.064,30.728 C 33.863,30.201 32.035,29.625 27.988,29.625 C 23.287,29.625 21.688,30.212 20.781,30.695 C 20.58,30.803 20.408,30.907 20.217,31.023 L 20.083,31.105 A 6.967,6.967 0 0,1 19.259,31.545 Z" fill="rgb(254, 254, 253)"/>
<path d="M 18.337999999999997,35.579 C 17.454,35.851 16.273,36 14.421,36 H 12 V 34 H 14.42 C 16.18,34 17.154,33.856 17.797,33.672 C 18.302,33.527 18.616,33.36 19.035,33.137 C 19.151,33.074 19.275,33.008 19.415,32.937 C 20.759,32.245 22.529,31.652 27.988,31.652 C 32.978,31.652 34.908,32.252 36.378,32.914 C 36.571,33.001 36.742,33.082 36.901,33.157 C 37.343,33.365 37.696,33.531 38.18,33.674 C 38.807,33.86 39.663,34 41.095,34 H 44 V 36 H 41.095 C 39.531,36 38.474,35.847 37.612,35.592 C 36.969,35.402 36.434,35.15 35.959,34.925 C 35.82,34.859 35.686,34.796 35.556,34.738 C 34.42,34.226 32.792,33.652 27.988,33.652 C 22.669,33.652 21.267,34.232 20.328,34.715 L 20.041,34.867 C 19.6,35.105 19.075,35.387 18.348,35.594 Z" fill="rgb(254, 254, 253)"/>
<path d="M 17.570999999999998,39.56 C 16.748,39.849 15.609,40 13.724,40 H 12 V 38 H 13.723 C 15.533,38 16.423,37.85 16.955,37.675 C 17.329,37.552 17.52,37.431 17.808,37.248 C 17.947,37.16 18.108,37.058 18.323,36.934 C 19.611,36.191 21.566,35.6 27.988,35.6 C 34.148,35.6 36.226,36.2 37.637,36.906 C 37.886,37.031 38.078,37.136 38.247,37.23 C 38.577,37.412 38.819,37.545 39.217,37.673 C 39.776,37.853 40.627,38 42.257,38 H 44 V 40 H 42.257 C 40.524,40 39.44,39.847 38.604,39.577 C 38.016,39.387 37.53,39.121 37.129,38.901 C 36.989,38.825 36.86,38.754 36.741,38.694 C 35.757,38.201 34.062,37.6 27.988,37.6 C 21.598,37.6 20.116,38.209 19.322,38.666 C 19.235,38.716 19.14,38.776 19.034,38.844 C 18.679,39.07 18.207,39.368 17.581,39.574 Z" fill="rgb(254, 254, 253)"/>
</svg>
