<?xml version="1.0" encoding="UTF-8"?>
<!-- generated by Finnhub -->
<svg viewBox="0 0 55.5 55.5" xmlns="http://www.w3.org/2000/svg">
<path d="M 0,0 H 55.5 V 55.5 H 0 Z" fill="rgb(190, 46, 53)"/>
<path d="M 32.109,43.985 L 48,28 L 32.061,12 H 21 L 36.939,28 L 21.058,44 H 32.118 Z" fill="rgb(245, 247, 251)"/>
<path d="M 12.822000000000001,33.199 L 14.765,31.28 L 15.467,31.981 C 15.758,32.273 16.027,32.437 16.273,32.474 C 16.518,32.514 16.75,32.426 16.963,32.212 C 17.162,32.013 17.253,31.792 17.243,31.544 C 17.228,31.296 17.12,31.069 16.911,30.861 A 1.447,1.447 0 0,0 16.204,30.485 C 15.913,30.416 15.566,30.404 15.163,30.45 C 14.983,30.468 14.718,30.499 14.373,30.546 C 13.251,30.689 12.443,30.756 11.947,30.746 A 3.2,3.2 0 0,1 10.637,30.454 A 4.037,4.037 0 0,1 9.464,29.623 C 8.741,28.899 8.401,28.113 8.441,27.265 C 8.481,26.415 8.901,25.591 9.701,24.791 C 10.5,23.992 11.283,23.577 12.055,23.539 C 12.826,23.501 13.578,23.851 14.314,24.586 L 15.024,25.296 L 13.175,27.146 L 12.58,26.55 C 12.303,26.273 12.051,26.119 11.82,26.086 C 11.592,26.056 11.373,26.146 11.162,26.356 A 0.751,0.751 0 0,0 10.922,26.946 C 10.93,27.167 11.032,27.374 11.225,27.566 C 11.549,27.891 12.489,27.976 14.051,27.821 C 14.094,27.817 14.125,27.815 14.139,27.815 L 14.419,27.788 C 15.804,27.662 16.706,27.662 17.127,27.788 C 17.41,27.872 17.685,28 17.957,28.168 C 18.227,28.337 18.485,28.546 18.735,28.795 C 19.48,29.54 19.829,30.35 19.785,31.229 C 19.738,32.107 19.299,32.963 18.465,33.796 C 17.64,34.622 16.802,35.039 15.955,35.048 C 15.105,35.059 14.279,34.662 13.479,33.861 L 12.832,33.214 Z M 16.171,21.514 L 15.923,21.76 L 21.611,27.449 L 21.859,27.201 C 22.237,26.823 22.426,26.523 22.424,26.305 C 22.422,26.084 22.262,25.815 21.947,25.501 L 17.877,21.43 C 17.56,21.113 17.292,20.953 17.071,20.952 C 16.849,20.946 16.549,21.135 16.171,21.513 Z M 12.492,22.241 L 14.912,19.821 C 15.955,18.778 16.826,18.242 17.526,18.216 C 18.224,18.186 19.019,18.619 19.908,19.507 L 23.881,23.481 C 24.356,23.956 24.678,24.389 24.849,24.779 C 25.019,25.172 25.081,25.598 25.036,26.057 C 24.993,26.437 24.856,26.812 24.624,27.185 C 24.392,27.557 23.921,28.1 23.207,28.815 L 22.927,29.093 L 21.136,30.885 L 12.492,22.241 Z M 26.552,25.469 L 17.908,16.826 L 19.863,14.87 L 28.507,23.514 L 26.552,25.469 Z" fill="rgb(34, 30, 30)"/>
</svg>
