<?xml version="1.0" encoding="UTF-8"?>
<!-- generated by Finnhub -->
<svg viewBox="0 0 55.5 55.5" xmlns="http://www.w3.org/2000/svg">
<path d="M 0,0 H 55.5 V 55.5 H 0 Z" fill="rgb(11, 68, 131)"/>
<path d="M 51.844,26.977999999999998 C 51.748,26.517 51.521,26.302 50.759,26.302 H 50.405 V 30.07 C 50.405,30.671 50.57,30.854 51.125,30.854 V 31 H 48.818 V 30.854 C 49.358,30.854 49.527,30.671 49.527,30.07 V 26.302 H 49.172 C 48.414,26.302 48.262,26.517 48.159,26.993 H 48.004 V 26 H 52 V 26.993 H 51.854 Z M 44,31 V 30.854 C 44.54,30.854 44.595,30.671 44.595,30.07 V 26.922 C 44.595,26.315 44.54,26.135 44,26.135 V 26 H 47.59 V 27 H 47.441 C 47.336,26.524 47.118,26.302 46.358,26.302 H 45.918 C 45.535,26.302 45.451,26.502 45.451,26.94 V 28.256 H 46.251 C 46.669,28.256 46.802,28.036 46.856,27.724 H 47 V 29.202 H 46.855 C 46.801,28.898 46.667,28.652 46.25,28.652 H 45.45 V 30.12 C 45.45,30.644 45.51,30.686 45.917,30.686 H 46.787 C 47.402,30.686 47.798,30.406 47.857,30 H 48.003 V 31 H 44 Z M 38.514,31 L 36.937,28.434 C 37.649,28.4 38.295,28.067 38.295,27.345 C 38.295,26.585 37.815,26.302 37.189,26.302 C 36.749,26.302 36.647,26.364 36.647,26.819 V 30.053 C 36.647,30.653 36.823,30.853 37.366,30.853 V 31 H 35.06 V 30.854 C 35.602,30.854 35.78,30.653 35.78,30.054 V 26.91 C 35.78,26.502 35.77,26.134 35.217,26.134 V 26 H 37.188 C 38.201,26 39.18,26.23 39.18,27.263 C 39.18,28.16 38.41,28.501 37.948,28.591 L 38.981,30.135 C 39.273,30.605 39.388,30.854 39.795,30.854 C 40.275,30.854 40.391,30.598 40.391,30.06 V 26.92 C 40.391,26.314 40.211,26.134 39.668,26.134 V 26 H 43.395 V 27 H 43.235 C 43.134,26.524 42.925,26.302 42.155,26.302 H 41.715 C 41.325,26.302 41.245,26.502 41.245,26.94 V 28.255 H 42.245 C 42.664,28.255 42.799,28.036 42.863,27.724 H 42.998 V 29.202 H 42.863 C 42.812,28.898 42.663,28.651 42.244,28.651 H 41.245 V 30.12 C 41.245,30.644 41.309,30.686 41.715,30.686 H 42.424 C 43.037,30.686 43.359,30.406 43.436,30 H 43.582 V 31 H 38.512 Z M 34.885,27 C 34.777,26.524 34.56,26.302 33.799,26.302 H 33.444 V 30.062 C 33.444,30.663 33.612,30.846 34.152,30.846 V 31.004 H 31.85 V 30.846 C 32.4,30.846 32.57,30.663 32.57,30.062 V 26.302 H 32.213 C 31.453,26.302 31.221,26.524 31.118,27 H 31 V 26 H 35 V 27 H 34.885 Z M 28.638,31.315 C 27.884,31.315 27.336,31.098 27,30.975 V 29.753 H 27.168 C 27.319,30.329 27.561,30.875 28.691,30.875 C 29.511,30.875 30.086,30.432 30.066,29.753 C 30.043,29.033 29.535,28.66 28.47,28.15 C 27.3,27.588 26.926,27.034 26.935,26.35 C 26.935,25.244 27.822,24.685 29.124,24.685 C 29.762,24.685 30.324,24.815 30.627,24.911 V 25.98 H 30.48 C 30.397,25.462 29.959,25.107 29.124,25.117 C 28.364,25.126 27.862,25.474 27.834,26.076 C 27.8,26.633 28.167,26.94 28.824,27.253 C 30.346,27.971 30.898,28.434 30.963,29.368 C 31.035,30.537 30.178,31.315 28.638,31.315 Z M 21,31.002 V 30.844 C 21.543,30.844 21.648,30.661 21.648,30.06 V 26.922 C 21.648,26.315 21.543,26.135 21,26.135 V 25.98 H 24.64 V 26.993 H 24.485 C 24.387,26.517 24.17,26.302 23.411,26.302 H 22.961 C 22.588,26.302 22.491,26.502 22.491,26.94 V 28.256 H 23.247 C 23.664,28.256 23.812,28.036 23.867,27.724 H 24 V 29.202 H 23.866 C 23.812,28.898 23.678,28.652 23.247,28.652 H 22.491 V 30.11 C 22.491,30.634 22.553,30.676 22.961,30.676 H 23.866 C 24.48,30.676 24.805,30.374 24.868,29.967 H 25 V 31.002 H 21 Z M 20.572,27 C 20.48,26.524 20.251,26.302 19.487,26.302 H 19.136 V 30.06 C 19.136,30.661 19.299,30.844 19.842,30.844 V 31.002 H 17.537 V 30.844 C 18.09,30.844 18.257,30.661 18.257,30.06 V 26.302 H 17.9 C 17.14,26.302 16.912,26.524 16.804,27 H 16.664 V 26 H 20.729 V 27 H 20.571 Z M 15.18,31.002 V 30.844 C 15.48,30.844 15.711,30.769 15.711,30.534 A 0.878,0.878 0 0,0 15.637,30.194 L 15.379,29.426 H 13.43 L 13.166,30.102 C 13.126,30.216 13.071,30.374 13.071,30.496 C 13.071,30.721 13.166,30.844 13.563,30.844 V 31.002 H 11.955 V 30.844 C 12.364,30.844 12.497,30.56 12.715,29.967 L 14.243,26 H 14.961 L 16.517,30.09 C 16.724,30.643 16.806,30.821 17.298,30.844 V 31.002 H 15.18 Z M 12.418,27 C 12.31,26.524 12.092,26.302 11.331,26.302 H 11 V 30.06 C 11,30.661 11.143,30.844 11.688,30.844 V 31.002 H 9.38 V 30.844 C 9.921,30.844 9.999,30.661 9.999,30.06 V 26.302 H 9.745 C 8.971,26.302 8.753,26.524 8.649,27 H 8.492 V 26 H 12.57 V 27 H 12.417 Z M 6.166,31.315 C 5.416,31.315 4.779,31.098 4.446,30.975 V 29.753 H 4.606 C 4.759,30.329 5.093,30.875 6.222,30.875 C 7.044,30.875 7.617,30.432 7.597,29.753 C 7.576,29.033 7.065,28.66 6.001,28.15 C 4.831,27.588 4.458,27.034 4.466,26.35 C 4.466,25.244 5.355,24.685 6.659,24.685 C 7.297,24.685 7.697,24.815 8.001,24.911 V 25.98 H 7.853 C 7.771,25.462 7.493,25.107 6.659,25.117 C 5.897,25.126 5.396,25.474 5.366,26.076 C 5.33,26.633 5.696,26.94 6.357,27.253 C 7.88,27.971 8.433,28.434 8.493,29.368 C 8.568,30.537 7.713,31.315 6.166,31.315 Z M 14.41,26.836 L 13.588,28.997 H 15.225 L 14.409,26.836 Z" fill="rgb(254, 254, 253)"/>
</svg>
