<?xml version="1.0" encoding="UTF-8"?>
<!-- generated by Finnhub -->
<svg viewBox="0 0 55.5 55.5" xmlns="http://www.w3.org/2000/svg">
<path d="M 0,0 H 55.5 V 55.5 H 0 Z" fill="rgb(1, 43, 106)"/>
<path d="M 16.212999999999997,42.985 C 16.76,38.443 18.394,33.945 20.953,30.136 C 22.942,27.174 25.516,24.59 28.442,22.528 A 31.875,31.875 0 0,1 35.931,18.724 C 35.711,18.869 35.492,19.007 35.273,19.145 C 35.053,19.283 34.833,19.421 34.614,19.566 C 31.543,21.57 28.764,24.126 26.686,27.116 C 26.043,27.929 25.516,28.858 25.019,29.759 C 22.776,33.778 21.577,38.43 21.45,43 H 16.222 Z M 12,36.873 S 10.5,40 10,43 H 14.088 A 28.583,28.583 0 0,1 18.407,31.181 A 31.906,31.906 0 0,1 26.013,23.08 A 31.263,31.263 0 0,0 17.851,28.8 C 15.452,31.152 13.5,33.5 12,36.873 Z M 42.538,19.931 C 43.113,20.192 43.691,20.454 44.268,20.728 A 157.835,157.835 0 0,1 42.074,16.982 L 42.822,16.199 C 43.548,15.441 44.282,14.674 45,13.875 C 43.935,14.073 42.853,14.305 41.793,14.531 C 41.455,14.604 41.12,14.676 40.787,14.746 C 40.3,13.894 39.838,13.068 39.377,12.242 L 38.68,11 A 190.969,190.969 0 0,1 38.212,15.269 C 38.043,15.299 37.875,15.331 37.706,15.363 C 36.465,15.593 35.209,15.826 33.999,16.082 L 34.827,16.457 C 35.848,16.92 36.884,17.39 37.919,17.824 A 186.326,186.326 0 0,1 37.474,21.644 L 37.422,22.064 C 37.724,21.734 38.03,21.405 38.335,21.076 C 38.946,20.418 39.558,19.76 40.143,19.102 C 40.191,19.09 40.229,19.053 40.265,19.018 C 40.318,18.968 40.366,18.922 40.435,18.956 C 41.129,19.293 41.831,19.611 42.537,19.931 Z" fill="rgb(254, 254, 253)"/>
</svg>
