<?xml version="1.0" encoding="UTF-8"?>
<!-- generated by Finnhub -->
<svg viewBox="0 0 55.5 55.5" xmlns="http://www.w3.org/2000/svg">
<path d="M 0,0 H 55.5 V 55.5 H 0 Z" fill="url(#a)"/>
<path d="M 33.986000000000004,23.989 V 35.996 A 6.009,6.009 0 0,0 40.004,42.004 H 46 V 35.996 H 40.005 V 24.004 H 46 V 17.996 H 40.005 V 14 H 33.995 V 17.996 H 19.5 A 7.504,7.504 0 1,0 19.5,33.004 H 23.5 A 1.496,1.496 0 1,1 23.5,35.996 H 10 V 42.004 H 23.5 A 7.504,7.504 0 1,0 23.5,26.996 H 19.5 A 1.496,1.496 0 1,1 19.5,24.004 H 33.996 Z" fill="rgb(254, 254, 253)"/>
<defs>
<linearGradient id="a" x1="10.418" x2="68.147" y1="9.712" y2="76.017" gradientUnits="userSpaceOnUse">
<stop stop-color="rgb(25, 29, 31)" offset="0"/>
<stop stop-color="rgb(5, 5, 8)" offset="1"/>
</linearGradient>
</defs>
</svg>
