<?xml version="1.0" encoding="UTF-8"?>
<!-- generated by Finnhub -->
<svg viewBox="0 0 55.5 55.5" xmlns="http://www.w3.org/2000/svg">
<path d="M 0,0 H 55.5 V 55.5 H 0 Z" fill="rgb(9, 23, 49)"/>
<path d="M 41.370000000000005,29.395 A 12.85,12.85 0 1,0 18.55,31.21 A 7.96,7.96 0 0,1 32.5,37 A 12.84,12.84 0 0,0 41.38,29.42 Z" fill="rgb(247, 175, 2)"/>
<path d="M 18.54,31.205 A 7.94,7.94 0 1,0 32.49,36.99 A 12.8,12.8 0 0,1 18.55,31.22 Z" fill="rgb(70, 137, 200)"/>
<path d="M 27.59,29.064999999999998 A 7.96,7.96 0 0,0 18.55,31.22 A 12.8,12.8 0 0,0 32.5,36.99 A 7.95,7.95 0 0,0 27.6,29.08 Z" fill="rgb(234, 103, 33)"/>
<path d="M 34.660000000000004,12.024999999999999 C 31.34,10.65 27.67,10.65 24.34,12.04 A 13.52,13.52 0 0,0 16,24.12 V 36.27 A 8.55,8.55 0 0,0 30.67,42.45 L 39.22,33.85 A 13.44,13.44 0 0,0 34.67,12.04 Z M 31.87,36.48 C 29.5,36.95 27.08,36.71 24.83,35.78 A 12.13,12.13 0 0,1 19.35,31.29 A 7.3,7.3 0 0,1 31.88,36.48 Z M 27.37,43.18 C 25.57,43.92 23.57,43.92 21.77,43.18 A 7.26,7.26 0 0,1 17.25,36.46 C 17.25,34.9 17.73,33.45 18.51,32.32 A 13.4,13.4 0 0,0 24.34,36.96 A 13.4,13.4 0 0,0 31.74,37.79 A 7.27,7.27 0 0,1 27.36,43.17 Z M 40.8,29.16 A 12.26,12.26 0 0,1 33.15,36.14 A 8.57,8.57 0 0,0 18.68,30.15 C 17.02,26.96 16.83,23.15 18.22,19.81 A 12.13,12.13 0 0,1 24.83,13.21 A 12.22,12.22 0 0,1 40.8,29.17 Z" fill="rgb(224, 229, 230)"/>
</svg>
