<?xml version="1.0" encoding="UTF-8"?>
<!-- generated by Finnhub -->
<svg viewBox="0 0 55.5 55.5" xmlns="http://www.w3.org/2000/svg">
<path d="M 0,0 H 55.5 V 55.5 H 0 Z" fill="rgb(37, 66, 83)"/>
<path d="M 4.205,24.985 H 9.203 L 8.987,25.999 H 7.147 L 6.063,31 H 4.738 L 5.831,25.999 H 4 L 4.215,25 Z M 9.58,31 H 8.256 L 9.565,25 H 12.182 C 13.236,25.008 14.245,25.338 13.983,26.562 C 13.813,27.342 13.183,27.862 12.39,28.019 V 28.034 C 13.383,28.139 13.252,28.747 13.175,29.581 C 13.152,29.964 13.052,30.67 13.221,31 H 11.766 C 11.774,30.467 11.828,29.926 11.889,29.386 C 11.928,29.056 11.943,28.597 11.512,28.582 H 10.112 L 9.58,31 Z M 10.327,27.59 H 11.435 C 12.02,27.583 12.421,27.298 12.536,26.765 C 12.652,26.231 12.359,26.006 11.782,25.999 H 10.673 L 10.327,27.591 Z M 13.244,31 L 16.777,25 H 18.347 L 19.179,31 H 17.847 L 17.697,30 H 15.134 L 14.499,31 H 13.244 Z M 17.567,29 L 17.277,26.172 H 17.262 L 15.676,29 H 17.567 Z M 23.02,31 L 21.68,25.99 L 21.657,26.013 L 20.572,31 H 19.34 L 20.649,25 H 22.604 L 23.92,29.722 L 23.943,29.707 L 24.967,25 H 26.207 L 24.897,31 H 23.02 Z M 29.809,26.693 C 29.893,26.081 29.624,25.779 28.985,25.779 C 28.5,25.779 27.953,26.029 27.838,26.557 C 27.699,27.207 28.277,27.282 28.778,27.411 C 29.662,27.645 30.986,27.901 30.725,29.118 C 30.401,30.614 28.955,31.135 27.638,31.135 C 26.229,31.135 25.352,30.518 25.721,29 H 27.068 C 26.868,29.672 27.168,30.198 27.853,30.198 C 28.385,30.198 29.116,30.04 29.254,29.398 C 29.408,28.688 28.538,28.634 28.038,28.506 C 27.222,28.295 26.129,27.909 26.36,26.844 C 26.66,25.462 28.084,24.857 29.347,24.857 C 30.54,24.857 31.333,25.492 31.071,26.708 H 29.809" fill="rgb(254, 254, 253)"/>
<path d="M 32.138000000000005,24.985 H 34.196 C 34.766,25.015 35.358,25.06 35.789,25.367 C 36.567,25.922 36.767,26.86 36.521,28 C 36.274,29.14 35.658,30.078 34.642,30.633 C 34.08,30.94 33.465,30.978 32.895,31 H 30.848 L 32.148,25 Z M 31.848,30.28 H 33.095 C 33.957,30.28 34.489,29.942 34.805,29.597 C 35.281,29.08 35.505,28.555 35.62,27.992 C 35.743,27.437 35.759,26.905 35.505,26.387 C 35.343,26.05 34.95,25.705 34.095,25.705 H 32.85 L 31.85,30.28 Z M 36.482,31 L 37.791,25 H 38.637 L 37.337,31 H 36.482 Z M 43.44,26.482 C 43.44,25.764 42.848,25.567 42.186,25.567 C 40.677,25.567 39.853,26.867 39.638,27.992 C 39.368,29.541 39.668,30.387 41.424,30.417 A 4.66,4.66 0 0,0 42.694,30.228 L 43.004,28.718 H 41.604 L 41.757,28 H 44.005 L 43.417,30.787 C 42.663,30.999 41.924,31.142 41.224,31.142 C 40.354,31.142 39.669,31.037 39.122,30.448 C 38.568,29.858 38.545,28.854 38.73,28 C 38.868,27.373 39.23,26.686 39.661,26.142 C 40.4,25.22 41.378,24.857 42.432,24.857 C 43.472,24.857 44.526,25.326 44.318,26.489 H 43.44 M 51.015,25.6 H 50.999 L 47.851,31 H 47.051 L 46.258,25.6 H 46.242 L 45.066,31 H 44.211 L 45.52,25 H 47.044 L 47.744,29.949 H 47.76 L 50.576,25 H 52 L 50.692,31 H 49.837 L 51.015,25.6 Z" fill="rgb(185, 185, 184)"/>
</svg>
