<?xml version="1.0" encoding="UTF-8"?>
<!-- generated by Finnhub -->
<svg viewBox="0 0 55.5 55.5" xmlns="http://www.w3.org/2000/svg">
<path d="M 0,0 H 55.5 V 55.5 H 0 Z" fill="rgb(239, 242, 248)"/>
<ellipse cx="28" cy="28" rx="13" ry="9" fill="rgb(244, 244, 243)"/>
<path d="M 31.9,19.395 C 31.38,19.3 30.83,19.21 30.28,19.14 L 28.49,27.05 C 28.16,28.55 27.89,29.68 27.84,29.95 C 27.96,29.21 28.68,22.25 28.98,19.02 A 19.06,19.06 0 0,0 27.08,19.02 L 27.41,29.93 C 27.34,29.13 26.46,23.41 25.94,19.98 L 25.81,19.13 C 25.23,19.2 24.66,19.29 24.11,19.41 C 24.98,22.7 26.72,28.99 26.98,29.89 C 26.78,29.33 25.74,26.77 24.68,24.19 L 22.87,19.73 C 22.27,19.91 21.71,20.11 21.17,20.35 C 21.97,21.81 23.17,23.91 24.22,25.77 C 25.53,28.1 26.63,30.04 26.52,29.89 C 26.34,29.67 24,26.44 21.99,23.65 L 20,20.9 C 19.52,21.16 19.06,21.45 18.63,21.75 C 20.51,24.1 24.43,28.2 25.76,29.6 L 26.22,30.08 L 25.49,29.46 C 23.79,28.03 19.59,24.47 17.64,22.56 C 17.26,22.9 16.92,23.26 16.62,23.64 C 18.79,25.69 23.81,29.01 25.39,30.06 L 25.87,30.39 L 25.55,30.22 C 24.1,29.47 18.32,26.48 15.89,24.72 C 15.59,25.24 15.36,25.79 15.21,26.36 C 17.9,27.81 23.47,29.88 25.22,30.54 C 25.62,30.68 25.82,30.76 25.75,30.74 L 25.15,30.58 C 23.34,30.12 17.82,28.72 15.01,27.66 A 6.37,6.37 0 0,0 15.59,30.67 C 18.72,30.97 23.52,30.89 25.19,30.87 H 25.79 L 25.44,30.91 C 24.12,31.07 19.48,31.65 16.22,31.8 C 16.54,32.27 16.92,32.72 17.34,33.14 C 20.46,32.66 24.6,31.71 26.15,31.31 L 24.49,31.88 C 22.76,32.48 20.34,33.31 18.25,33.94 C 20.63,35.81 24.12,36.99 28.01,36.99 C 33.16,36.99 37.61,34.92 39.72,31.92 L 33.84,31.74 L 30.08,31.63 C 30.82,31.61 36.78,31.11 40.38,30.8 A 6.6,6.6 0 0,0 40.99,28.67 L 33.83,30.25 L 29.93,31.11 C 30.73,30.89 37.65,28.54 41,27.4 A 6.5,6.5 0 0,0 40.59,25.66 C 37.19,27.21 30.51,30.26 29.69,30.66 C 30.36,30.29 34.88,27.59 38.12,25.66 L 40.02,24.52 A 8.71,8.71 0 0,0 38.72,22.86 L 29.42,30.14 C 29.98,29.64 33.61,26.08 36.25,23.48 L 36.26,23.47 L 36.27,23.46 L 37.74,22.01 C 37.26,21.64 36.73,21.29 36.16,20.97 L 30.86,27.47 L 28.83,29.96 C 29.3,29.32 33.17,23.29 35,20.4 C 34.41,20.14 33.78,19.9 33.13,19.71 L 28.42,29.93 C 28.73,29.13 30.83,22.72 31.92,19.4 Z M 28.39,30.01 Z M 28.79,30.01 Z M 29.36,30.2 Z M 29.61,30.7 Z M 29.86,31.14 Z M 30.02,31.64 Z M 26.77,31.14 C 26.84,31.14 26.6,31.2 26.15,31.32 C 26.5,31.2 26.71,31.14 26.77,31.14 Z M 27.01,29.98 Z M 27.41,30.01 Z M 27.83,30.01 Z" fill="rgb(228, 226, 226)"/>
<path d="M 27.99,44.485 C 39.47,44.5 48.5,37.07 48.5,28 S 39.47,11.5 28,11.5 S 7.5,18.93 7.5,28 S 16.53,44.5 28,44.5 Z M 28,45 C 39.6,45 49,37.39 49,28 S 39.6,11 28,11 S 7,18.61 7,28 S 16.4,45 28,45 Z" fill="rgb(104, 95, 89)" fill-rule="evenodd"/>
<path d="M 27.99,42.985 C 38.7,43 47,36 47,28 S 38.7,13 28,13 S 9,20 9,28 S 17.3,43 28,43 Z M 28,44 C 39.05,44 48,36.84 48,28 S 39.05,12 28,12 S 8,19.16 8,28 C 8,36.84 16.95,44 28,44 Z" fill="rgb(116, 39, 55)" fill-rule="evenodd"/>
<path d="M 29.16,31.585 C 29.59,31.83 29.84,32.2 30.41,32.3 C 30.68,32.33 30.89,32.15 31.11,32.12 C 31.24,32.09 31.39,32 31.54,32 C 31.67,32 31.77,32.06 31.92,32.12 C 32.12,32.19 32.32,32.45 32.46,32.52 C 32.72,32.66 32.94,32.77 33.3,32.77 C 33.54,32.77 33.67,32.67 33.81,32.56 C 33.98,32.43 34.26,32 34.66,32 C 35.39,32 36.65,32.77 36.65,32.77 L 38.06,32 H 39.66 C 39.23,32.6 39.03,32.8 38.76,33.08 H 26.32 L 28.4,34.58 L 23.17,35.33 V 35.91 L 20.62,35.67 C 19.6,35.17 18.73,34.61 18.04,34.07 A 7.9,7.9 0 0,1 16.47,32.47 L 20.62,28.75 L 24.38,31.07 S 24.51,32.05 24.98,32.29 L 25.1,32.35 C 25.36,32.5 25.44,32.45 26.32,32.29 C 27.21,32.13 27.08,32.01 27.36,31.89 C 27.65,31.76 27.93,31.16 28.4,31 C 28.56,31.06 28.98,31.51 29.17,31.6 Z" fill="rgb(123, 116, 99)"/>
<path d="M 28.29,36.985 C 33.82,37 37.32,34.6 38.84,33 H 26.2 L 28.3,34.5 L 23,35.23 L 22.77,35.73 L 20.51,35.61 C 22.55,36.55 25.16,37 28.31,37 Z" fill="rgb(166, 160, 123)"/>
<path d="M 15.44,26.985 L 15,27.64 V 29.02 A 8.79,8.79 0 0,0 16.94,33.09 C 17.16,33.32 17.98,34.09 18.8,34.62 L 20.73,35 L 21.34,33.91 L 20,32.34 V 29.54 L 21.34,31.5 H 21.86 L 22.41,30.83 L 23.54,30.99 L 23,30.07 V 27.05 L 22.25,26.65 L 21.35,25.86 L 20.44,25 L 19.72,25.72 H 19.34 L 18.88,26 H 17.98 L 16.94,27 H 15.45 Z" fill="rgb(68, 66, 68)"/>
<path d="M 21.27,27.195 L 20.4,25 L 21.27,25.81 L 23,27.05 L 22.86,29.4 L 22.67,27.9 L 22.25,27.64 L 21.8,27.04 L 21.5,29.4 H 21.28 V 27.21 Z M 16.17,29.6 L 15.45,30.66 L 16.17,30 H 18.53 V 29.39 L 18.27,27.05 H 18.53 V 26 H 17.98 L 17.38,26.6 L 17.68,27.53 V 29.59 H 16.17 Z" fill="rgb(123, 116, 99)"/>
<path d="M 24.889999999999997,33.985 C 25.04,34.42 25.3,35.34 25.33,35.5 H 26.17 L 28.73,34.79 L 28.4,34.36 L 26.17,34 H 24.91 Z" fill="rgb(74, 89, 157)"/>
<path d="M 22.99,33.985 C 23.13,34.42 23.4,35.34 23.42,35.5 H 24.26 L 26.82,34.79 L 26.5,34.36 L 24.26,34 H 23 Z" fill="rgb(74, 89, 157)"/>
<path d="M 26.959999999999997,30.185 A 1,1 0 0,1 26.26,30.97 V 32.41 H 25.76 V 30.97 A 1,1 0 0,1 26,29 A 1,1 0 0,1 26.98,29.82 H 28 V 30.2 H 26.97 Z M 25.99,30.5 A 0.5,0.5 0 0,0 26.49,30 A 0.5,0.5 0 0,0 25.99,29.5 A 0.5,0.5 0 0,0 25.5,30 C 25.5,30.28 25.72,30.5 26,30.5 Z" fill="url(#a)"/>
<circle cx="26" cy="30" r=".25"/>
<path d="M 25.68,32.385 H 27 V 33 H 26.36 L 25.69,32.4 Z M 28.7,32.4 H 27.2 V 33 H 28.7 V 32.4 Z M 29,32.4 H 30.6 V 33 H 29 V 32.4 Z M 33,32.4 H 31 V 33 H 33 V 32.4 Z" fill="rgb(3, 1, 2)"/>
<path d="M 30.99,20.985 L 31.45,22.53 H 33 L 31.77,23.44 L 32.24,25 L 31,24.02 L 29.76,25 L 30.23,23.44 L 29,22.53 H 30.5 L 31,21 Z" fill="rgb(89, 44, 24)"/>
<path d="M 30.34,23.395 L 29.87,24.84 L 31,23.16 L 29.23,22.59 L 30.36,23.41 Z M 31,23.15 V 21.17 L 30.58,22.61 L 31,23.15 Z M 31,23.15 L 32.81,22.6 H 31.36 L 31,23.15 Z M 31,23.16 L 32.14,24.86 L 31,23.86 V 23.16 Z" fill="rgb(254, 254, 253)"/>
<path d="M 29.439999999999998,34.985 L 29,34 L 29.45,34.32 L 29.62,34.18 L 29.9,34.32 L 30.3,34 L 29.9,35 H 29.45 Z" fill="rgb(121, 134, 88)"/>
<path d="M 27.31,15.905 L 27.31,16.48 C 27.3,16.85 27.28,17.06 27.27,17.16 C 27.25,17.26 27.22,17.33 27.17,17.34 H 27.07 C 27.03,17.34 27,17.34 27,17.36 S 27.02,17.4 27.07,17.4 H 27.98 C 28.02,17.4 28.04,17.4 28.04,17.38 S 28.03,17.35 27.99,17.35 C 27.94,17.35 27.89,17.35 27.83,17.33 C 27.76,17.33 27.76,17.26 27.76,17.18 V 15.16 A 0.4,0.4 0 0,1 27.88,15.15 C 28,15.15 28.12,15.19 28.2,15.28 A 0.6,0.6 0 0,1 28.39,15.75 A 0.55,0.55 0 0,1 28.1,16.23 A 0.4,0.4 0 0,1 27.94,16.27 C 27.88,16.27 27.85,16.29 27.85,16.3 C 27.85,16.32 27.86,16.33 27.89,16.33 H 27.96 A 0.81,0.81 0 0,0 28.54,16.12 A 0.74,0.74 0 0,0 28.77,15.57 A 0.49,0.49 0 0,0 28.62,15.19 A 0.87,0.87 0 0,0 28.02,15 H 27.07 C 27.02,15 27,15.01 27,15.03 C 27,15.05 27.02,15.06 27.05,15.06 H 27.18 C 27.22,15.08 27.26,15.1 27.28,15.14 C 27.31,15.17 27.32,15.21 27.32,15.25 V 15.92 Z M 24.72,17.74 C 24.57,17.77 24.42,17.76 24.27,17.73 A 19.64,19.64 0 0,1 23.57,17.89 H 23.47 S 23.47,17.86 23.5,17.85 C 23.54,17.84 23.54,17.8 23.52,17.77 L 23.11,17.14 A 0.03,0.03 0 0,0 23.07,17.13 L 22.37,17.29 L 22.35,17.32 L 22.29,17.82 A 0.68,0.68 0 0,0 22.29,18.02 C 22.3,18.08 22.35,18.1 22.43,18.09 L 22.48,18.08 H 22.53 C 22.53,18.1 22.53,18.13 22.49,18.13 L 22.32,18.17 L 22.15,18.2 L 22.03,18.23 L 21.51,18.41 C 21.44,18.43 21.41,18.43 21.4,18.41 C 21.39,18.38 21.4,18.37 21.43,18.36 C 21.46,18.34 21.45,18.32 21.41,18.28 L 20.65,17.61 L 20.45,18.51 A 0.22,0.22 0 0,0 20.45,18.65 C 20.46,18.68 20.5,18.69 20.55,18.68 C 20.6,18.66 20.63,18.66 20.64,18.68 C 20.64,18.68 20.63,18.71 20.59,18.73 L 20.53,18.74 L 20.41,18.78 L 20.24,18.83 L 20.11,18.88 L 19.99,18.93 L 19.94,18.95 H 19.92 A 0.1,0.1 0 0,1 19.9,19 A 17.74,17.74 0 0,1 19.28,19.3 L 19.15,19.35 A 4.7,4.7 0 0,0 18.95,19.45 C 18.92,19.45 18.88,19.48 18.82,19.51 L 18.62,19.61 C 18.58,19.63 18.55,19.63 18.55,19.61 C 18.54,19.59 18.55,19.58 18.6,19.56 L 18.68,19.51 C 18.72,19.47 18.72,19.41 18.68,19.31 L 18.64,19.2 C 18.6,19.09 18.54,18.91 18.42,18.66 L 18.19,18.14 L 17.89,17.52 A 0.18,0.18 0 0,0 17.81,17.42 A 0.17,0.17 0 0,0 17.68,17.41 A 0.57,0.57 0 0,0 17.56,17.45 C 17.53,17.47 17.51,17.47 17.5,17.45 C 17.5,17.45 17.5,17.42 17.55,17.4 L 17.79,17.29 L 17.98,17.21 A 22.81,22.81 0 0,0 18.82,16.78 L 18.86,16.75 C 18.87,16.75 18.88,16.75 18.89,16.77 V 16.79 L 18.91,16.83 L 18.93,16.89 L 18.96,16.97 L 19.03,17.17 C 19.03,17.2 19.03,17.21 19.01,17.22 C 19,17.22 18.99,17.22 18.98,17.2 L 18.94,17.14 A 0.22,0.22 0 0,0 18.9,17.09 C 18.85,17.05 18.77,17.04 18.66,17.08 L 18.23,17.26 V 17.3 L 18.57,18.05 C 18.58,18.07 18.6,18.08 18.61,18.07 L 18.7,18.03 C 18.91,17.93 19.04,17.87 19.07,17.84 A 0.66,0.66 0 0,0 19.15,17.8 A 0.14,0.14 0 0,0 19.19,17.73 L 19.22,17.67 A 0.02,0.02 0 0,1 19.25,17.67 V 17.69 L 19.27,17.75 L 19.3,17.83 L 19.33,17.91 L 19.41,18.11 C 19.42,18.14 19.43,18.18 19.41,18.18 C 19.39,18.19 19.38,18.18 19.37,18.17 A 0.57,0.57 0 0,0 19.31,18.07 A 0.17,0.17 0 0,0 19.1,18.03 L 18.67,18.23 V 18.26 L 18.99,18.95 C 19.04,19.05 19.09,19.11 19.15,19.12 A 0.6,0.6 0 0,0 19.45,19.03 C 19.55,18.99 19.64,18.93 19.71,18.87 A 0.3,0.3 0 0,0 19.74,18.58 L 19.75,18.53 C 19.77,18.53 19.78,18.53 19.8,18.57 C 19.85,18.67 19.89,18.78 19.91,18.9 A 0.55,0.55 0 0,0 20.02,18.84 A 0.6,0.6 0 0,0 20.2,18.52 L 20.5,17.48 L 19.69,16.78 A 0.5,0.5 0 0,0 19.36,16.64 A 0.37,0.37 0 0,0 19.21,16.67 A 0.03,0.03 0 0,1 19.18,16.65 C 19.18,16.63 19.19,16.61 19.23,16.6 L 19.45,16.53 L 19.52,16.51 L 19.7,16.45 L 19.84,16.4 L 20.03,16.33 C 20.07,16.31 20.09,16.31 20.1,16.33 C 20.1,16.35 20.1,16.36 20.06,16.37 A 0.3,0.3 0 0,0 19.98,16.41 A 0.05,0.05 0 0,0 19.96,16.48 L 20.02,16.55 L 20.64,17.1 L 20.84,16.3 A 0.28,0.28 0 0,0 20.84,16.18 C 20.82,16.15 20.8,16.14 20.76,16.14 L 20.68,16.16 H 20.61 C 20.61,16.14 20.63,16.11 20.67,16.1 L 20.84,16.05 L 20.97,16.02 L 21.1,15.97 L 21.26,15.91 H 21.32 C 21.34,15.91 21.32,15.94 21.27,15.97 L 21.19,16.01 C 21.11,16.11 21.06,16.21 21.04,16.33 L 20.79,17.23 L 21.82,18.08 C 21.86,18.11 21.9,18.13 21.95,18.14 A 0.27,0.27 0 0,0 21.99,18.09 A 0.82,0.82 0 0,0 22.05,17.87 L 22.39,15.7 C 22.4,15.6 22.42,15.56 22.45,15.55 C 22.47,15.55 22.51,15.58 22.55,15.64 L 23.76,17.41 C 23.9,17.61 24.01,17.7 24.11,17.69 H 24.19 A 8.3,8.3 0 0,1 24.13,17.19 C 24.13,17.13 24.13,17.09 24.16,17.09 C 24.18,17.09 24.19,17.11 24.19,17.15 L 24.25,17.31 C 24.28,17.41 24.35,17.49 24.45,17.53 C 24.54,17.58 24.65,17.6 24.75,17.57 A 0.45,0.45 0 0,0 25.05,17.41 A 0.34,0.34 0 0,0 25.12,17.15 A 0.7,0.7 0 0,0 24.74,16.67 L 24.58,16.57 C 24.23,16.37 24.04,16.14 24.01,15.87 A 0.56,0.56 0 0,1 24.15,15.41 A 0.82,0.82 0 0,1 24.66,15.16 H 25.09 C 25.12,15.16 25.14,15.18 25.14,15.2 V 15.3 C 25.14,15.36 25.14,15.42 25.16,15.5 V 15.57 L 25.15,15.67 C 25.12,15.68 25.11,15.67 25.11,15.62 A 0.34,0.34 0 0,0 25,15.42 A 0.43,0.43 0 0,0 24.63,15.31 A 0.4,0.4 0 0,0 24.36,15.44 A 0.31,0.31 0 0,0 24.29,15.69 C 24.3,15.77 24.34,15.84 24.39,15.89 C 24.49,15.99 24.59,16.06 24.69,16.12 L 24.79,16.17 C 24.96,16.26 25.12,16.37 25.25,16.52 C 25.35,16.63 25.4,16.77 25.42,16.92 A 0.64,0.64 0 0,1 25.21,17.53 A 0.91,0.91 0 0,1 24.71,17.73 Z M 22.98,16.98 L 22.4,17.11 S 22.38,17.11 22.39,17.1 L 22.5,16.25 L 22.51,16.21 S 22.53,16.22 22.53,16.24 L 22.99,16.95 L 22.98,16.98 Z M 16.21,18.38 L 16.91,19.5 C 17.11,19.81 17.21,20.02 17.25,20.12 C 17.3,20.22 17.29,20.3 17.26,20.32 L 17.24,20.34 A 0.27,0.27 0 0,1 17.19,20.38 C 17.14,20.41 17.14,20.43 17.14,20.44 C 17.16,20.47 17.18,20.47 17.22,20.44 L 17.4,20.32 L 17.55,20.22 L 17.73,20.11 L 17.99,19.95 C 18.02,19.93 18.03,19.91 18.02,19.89 C 18.02,19.87 17.99,19.87 17.96,19.89 L 17.82,19.97 C 17.75,20 17.68,19.97 17.62,19.89 A 8.2,8.2 0 0,1 17.24,19.31 L 16.54,18.17 L 16.89,17.95 C 17.09,17.83 17.24,17.81 17.31,17.9 L 17.33,17.93 C 17.35,17.97 17.38,17.98 17.39,17.97 A 5.6,5.6 0 0,0 17.29,17.74 L 17.21,17.59 C 17.18,17.54 17.16,17.53 17.15,17.54 L 17.08,17.6 C 17.03,17.65 16.97,17.7 16.9,17.74 L 15.83,18.42 A 3.6,3.6 0 0,1 15.47,18.61 H 15.41 V 18.69 L 15.55,19.05 C 15.57,19.08 15.59,19.08 15.6,19.08 C 15.62,19.07 15.62,19.05 15.62,19.02 A 0.37,0.37 0 0,1 15.6,18.9 C 15.6,18.83 15.67,18.74 15.82,18.65 L 16.22,18.38 Z M 30.29,16.78 L 29.57,16.7 C 29.56,16.7 29.55,16.7 29.54,16.72 L 29.32,17.17 A 0.64,0.64 0 0,0 29.25,17.37 C 29.25,17.43 29.28,17.47 29.37,17.47 H 29.42 C 29.45,17.47 29.47,17.49 29.46,17.51 C 29.46,17.53 29.44,17.54 29.41,17.53 C 29.37,17.53 29.31,17.53 29.23,17.51 L 29.06,17.49 L 28.68,17.46 C 28.64,17.46 28.62,17.44 28.62,17.42 S 28.64,17.39 28.66,17.39 H 28.76 C 28.83,17.39 28.89,17.37 28.94,17.32 A 0.8,0.8 0 0,0 29.07,17.12 L 30.11,15.14 C 30.15,15.06 30.19,15.02 30.21,15.02 C 30.24,15.02 30.26,15.06 30.28,15.13 L 30.29,15.16 L 30.87,17.25 C 30.94,17.47 31.02,17.6 31.12,17.64 L 31.25,17.67 C 31.28,17.67 31.29,17.67 31.29,17.7 C 31.29,17.71 31.28,17.72 31.25,17.72 H 31.14 A 13.72,13.72 0 0,1 30.44,17.61 C 30.44,17.59 30.45,17.58 30.48,17.58 S 30.53,17.55 30.52,17.51 L 30.33,16.78 A 0.03,0.03 0 0,0 30.29,16.78 Z M 29.65,16.54 L 30.25,16.61 C 30.27,16.61 30.27,16.61 30.27,16.59 L 30.07,15.75 C 30.07,15.73 30.07,15.72 30.05,15.71 C 30.05,15.71 30.03,15.71 30.03,15.74 L 29.64,16.52 L 29.65,16.54 Z M 31.5,17.51 C 31.76,17.83 32.12,18.04 32.52,18.11 C 32.72,18.16 32.92,18.17 33.11,18.16 A 0.14,0.14 0 0,0 33.21,18.08 L 33.31,17.86 L 33.32,17.83 L 33.37,17.67 C 33.38,17.64 33.37,17.62 33.35,17.62 S 33.32,17.63 33.3,17.67 A 0.44,0.44 0 0,1 33.15,17.87 C 33.05,17.93 32.95,17.97 32.85,17.96 C 32.74,17.96 32.63,17.94 32.52,17.91 A 0.95,0.95 0 0,1 31.92,17.47 A 1.17,1.17 0 0,1 31.76,16.53 A 1.11,1.11 0 0,1 32.24,15.76 C 32.44,15.66 32.67,15.63 32.89,15.69 C 33.02,15.72 33.15,15.77 33.27,15.84 C 33.36,15.88 33.43,15.95 33.49,16.04 C 33.55,16.14 33.57,16.24 33.55,16.36 C 33.54,16.41 33.55,16.44 33.56,16.44 C 33.59,16.44 33.6,16.42 33.62,16.37 A 7,7 0 0,0 33.68,16.14 C 33.68,16.1 33.7,16.06 33.71,16.03 A 0.87,0.87 0 0,1 33.75,15.91 L 33.77,15.85 C 33.77,15.83 33.76,15.8 33.72,15.8 L 33.42,15.68 C 33.27,15.62 33.12,15.58 32.96,15.54 C 32.6,15.44 32.21,15.48 31.87,15.66 A 1.16,1.16 0 0,0 31.31,16.46 A 1.26,1.26 0 0,0 31.51,17.51 Z M 34,17.51 L 34.17,16.96 L 34.37,16.3 C 34.39,16.24 34.37,16.13 34.32,16.08 A 0.43,0.43 0 0,0 34.22,16.03 C 34.18,16.03 34.17,16 34.17,15.98 C 34.18,15.96 34.21,15.97 34.26,15.98 L 34.47,16.06 L 34.67,16.12 L 34.84,16.17 L 35.04,16.24 C 35.09,16.25 35.11,16.26 35.1,16.28 C 35.1,16.3 35.08,16.31 35.05,16.3 A 0.58,0.58 0 0,0 34.95,16.28 C 34.88,16.27 34.82,16.32 34.78,16.42 L 34.61,16.93 L 34.56,17.08 L 34.39,17.64 C 34.27,18.02 34.2,18.24 34.19,18.34 A 0.15,0.15 0 0,0 34.26,18.53 C 34.31,18.55 34.36,18.58 34.42,18.59 C 34.45,18.59 34.46,18.62 34.46,18.63 C 34.46,18.65 34.43,18.66 34.39,18.65 L 34.1,18.55 L 33.9,18.48 L 33.73,18.43 L 33.51,18.37 C 33.47,18.35 33.45,18.34 33.46,18.31 C 33.46,18.31 33.49,18.3 33.53,18.31 L 33.63,18.34 C 33.68,18.34 33.73,18.3 33.77,18.21 C 33.81,18.11 33.89,17.89 34,17.51 Z M 35.65,18.11 L 35.75,17.86 A 7.16,7.16 0 0,1 36.23,18.04 A 0.19,0.19 0 0,1 36.33,18.22 V 18.24 L 36.32,18.3 C 36.31,18.34 36.3,18.36 36.32,18.37 C 36.34,18.38 36.35,18.39 36.37,18.32 L 36.47,18.1 L 36.54,17.99 L 36.58,17.93 V 17.89 L 36.52,17.9 A 0.19,0.19 0 0,1 36.38,17.9 L 36.23,17.85 L 35.84,17.69 V 17.65 L 36.14,16.89 C 36.15,16.86 36.17,16.86 36.18,16.86 L 36.65,17.06 C 36.75,17.11 36.81,17.16 36.81,17.23 C 36.81,17.28 36.81,17.32 36.78,17.36 C 36.78,17.39 36.78,17.41 36.8,17.42 C 36.81,17.42 36.83,17.42 36.84,17.39 L 36.96,17.15 L 37,17.06 A 0.2,0.2 0 0,0 37.02,17.02 V 17 S 37.01,17 37.02,17 H 36.96 A 38.48,38.48 0 0,1 36.03,16.63 L 35.84,16.54 L 35.6,16.44 C 35.55,16.42 35.52,16.42 35.52,16.44 C 35.51,16.45 35.52,16.47 35.56,16.48 L 35.67,16.54 A 0.18,0.18 0 0,1 35.73,16.76 C 35.71,16.84 35.63,17.06 35.48,17.42 L 35.26,17.96 A 8.3,8.3 0 0,1 34.98,18.61 C 34.93,18.71 34.88,18.74 34.83,18.74 L 34.73,18.72 C 34.69,18.7 34.67,18.7 34.66,18.72 C 34.65,18.74 34.66,18.75 34.71,18.77 L 34.79,18.8 L 34.93,18.85 L 35.1,18.92 L 35.29,19.01 L 35.56,19.12 C 35.6,19.15 35.63,19.14 35.64,19.12 C 35.64,19.11 35.64,19.09 35.6,19.08 A 1.2,1.2 0 0,1 35.45,19 C 35.39,18.96 35.37,18.88 35.4,18.78 S 35.5,18.46 35.65,18.12 Z M 37.01,18.73 L 37.27,18.21 L 37.58,17.59 C 37.61,17.52 37.62,17.42 37.57,17.37 A 0.65,0.65 0 0,0 37.47,17.3 C 37.44,17.28 37.43,17.26 37.44,17.25 C 37.44,17.23 37.47,17.23 37.52,17.26 L 37.72,17.36 L 37.89,17.46 L 38.06,17.55 L 38.25,17.65 C 38.29,17.66 38.31,17.68 38.3,17.7 C 38.3,17.71 38.27,17.72 38.24,17.7 A 0.48,0.48 0 0,0 38.14,17.66 C 38.08,17.64 38.01,17.67 37.96,17.77 L 37.63,18.39 L 37.37,18.91 L 37.05,19.56 A 0.15,0.15 0 0,0 37.1,19.76 L 37.23,19.86 C 37.26,19.86 37.28,19.88 37.27,19.9 C 37.27,19.91 37.24,19.92 37.2,19.9 L 36.93,19.75 L 36.75,19.65 L 36.59,19.57 L 36.39,19.47 C 36.34,19.45 36.33,19.43 36.34,19.41 C 36.34,19.39 36.37,19.4 36.4,19.41 H 36.42 L 36.51,19.45 C 36.56,19.46 36.61,19.43 36.67,19.35 L 37.01,18.73 Z M 37.91,19.83 C 38.03,20.21 38.28,20.53 38.62,20.73 A 1.69,1.69 0 0,0 39.17,21 A 0.13,0.13 0 0,0 39.25,20.96 A 1.74,1.74 0 0,0 39.47,20.74 L 39.55,20.65 V 20.59 C 39.53,20.59 39.51,20.59 39.48,20.62 A 0.42,0.42 0 0,1 39.26,20.74 C 39.16,20.76 39.06,20.76 38.96,20.71 C 38.86,20.67 38.77,20.62 38.69,20.56 A 0.93,0.93 0 0,1 38.29,19.96 A 1.13,1.13 0 0,1 38.49,19.06 A 1.06,1.06 0 0,1 39.19,18.54 C 39.4,18.52 39.62,18.58 39.79,18.71 C 39.9,18.79 40,18.88 40.09,18.98 C 40.15,19.05 40.19,19.14 40.22,19.24 C 40.24,19.34 40.22,19.46 40.15,19.55 C 40.13,19.59 40.12,19.62 40.15,19.63 C 40.16,19.63 40.18,19.63 40.22,19.59 L 40.41,19.33 L 40.43,19.31 L 40.5,19.21 A 0.31,0.31 0 0,0 40.54,19.18 C 40.55,19.16 40.54,19.14 40.52,19.12 L 40.29,18.89 C 40.17,18.79 40.05,18.69 39.93,18.61 C 39.63,18.38 39.27,18.28 38.9,18.32 A 1.11,1.11 0 0,0 38.11,18.84 A 1.19,1.19 0 0,0 37.91,19.84 Z" fill="rgb(116, 103, 96)" fill-rule="evenodd"/>
<path d="M 20.24,37.644999999999996 L 19.98,38.13 L 19.88,38.31 L 19.77,38.54 A 0.34,0.34 0 0,0 19.71,38.75 C 19.74,38.82 19.83,38.9 20.01,39 C 20.11,39.08 20.23,39.11 20.36,39.1 A 0.33,0.33 0 0,0 20.52,38.98 C 20.54,38.95 20.56,38.94 20.57,38.95 C 20.59,38.96 20.59,38.98 20.57,39.01 C 20.52,39.11 20.44,39.21 20.37,39.31 A 0.1,0.1 0 0,1 20.26,39.33 A 15.17,15.17 0 0,1 19.38,38.81 L 19.23,38.73 A 3.9,3.9 0 0,1 19.06,38.63 H 19.04 C 19,38.6 19,38.59 19,38.57 H 19.07 L 19.16,38.61 C 19.2,38.63 19.26,38.59 19.32,38.51 S 19.48,38.25 19.65,37.94 L 19.92,37.46 A 13.9,13.9 0 0,0 20.26,36.8 L 20.25,36.71 A 0.3,0.3 0 0,0 20.12,36.61 C 20.09,36.58 20.08,36.57 20.09,36.55 C 20.09,36.53 20.12,36.54 20.16,36.56 L 20.27,36.63 L 20.37,36.68 L 20.53,36.78 L 20.7,36.88 L 20.9,36.98 C 20.94,37 20.96,37.02 20.95,37.04 H 20.89 A 0.63,0.63 0 0,0 20.78,36.99 C 20.71,36.96 20.65,36.99 20.59,37.09 C 20.53,37.14 20.43,37.33 20.25,37.66 Z M 22,39.17 L 21.4,38.93 H 21.37 L 21.36,38.94 L 21.06,39.3 A 0.6,0.6 0 0,0 20.96,39.46 C 20.93,39.52 20.96,39.56 21.03,39.59 L 21.07,39.61 C 21.1,39.62 21.11,39.63 21.11,39.65 S 21.08,39.67 21.05,39.65 L 20.9,39.59 L 20.76,39.52 L 20.43,39.4 C 20.38,39.38 20.38,39.37 20.39,39.36 C 20.39,39.33 20.41,39.33 20.43,39.34 L 20.52,39.37 C 20.58,39.39 20.64,39.37 20.69,39.35 A 0.68,0.68 0 0,0 20.85,39.2 L 22.19,37.65 C 22.25,37.59 22.29,37.55 22.31,37.57 C 22.33,37.57 22.34,37.61 22.34,37.69 L 22.39,39.75 C 22.39,39.98 22.44,40.12 22.52,40.17 L 22.6,40.22 H 22.68 L 22.78,40.24 A 0.13,0.13 0 0,0 22.88,40.16 L 22.96,39.88 L 23.37,38.08 C 23.39,38.01 23.41,37.98 23.44,37.98 C 23.46,37.99 23.48,38.03 23.52,38.1 A 51.53,51.53 0 0,0 24.64,39.94 L 24.76,40.14 H 24.77 L 25.04,38.76 L 25.06,38.6 A 0.17,0.17 0 0,0 24.99,38.46 A 0.5,0.5 0 0,0 24.84,38.41 C 24.81,38.41 24.79,38.39 24.8,38.37 C 24.8,38.35 24.83,38.35 24.88,38.37 L 25.08,38.42 L 25.23,38.46 L 25.33,38.48 A 2.74,2.74 0 0,1 25.57,38.53 C 25.57,38.51 25.6,38.51 25.64,38.51 L 25.89,38.53 L 26.09,38.56 H 26.29 L 26.56,38.58 C 26.76,38.59 26.97,38.63 27.17,38.68 C 27.4,38.73 27.6,38.85 27.75,39.03 A 1.1,1.1 0 0,1 28,39.76 C 28,39.96 27.96,40.14 27.88,40.31 A 1.2,1.2 0 0,1 27.6,40.69 A 1.37,1.37 0 0,1 26.71,41 C 26.57,41 26.43,40.97 26.29,40.95 L 26.19,40.93 A 4.24,4.24 0 0,0 25.89,40.89 H 25.72 L 25.52,40.87 C 25.48,40.87 25.46,40.86 25.46,40.84 C 25.46,40.81 25.48,40.81 25.53,40.81 H 25.63 C 25.67,40.81 25.7,40.75 25.73,40.65 L 25.76,40.25 L 25.77,39.98 L 25.81,39.43 L 25.86,38.77 C 25.86,38.73 25.86,38.69 25.83,38.66 A 0.17,0.17 0 0,0 25.74,38.58 A 0.8,0.8 0 0,0 25.59,38.56 C 25.59,38.57 25.56,38.58 25.53,38.57 C 25.43,38.55 25.36,38.57 25.33,38.63 A 0.89,0.89 0 0,0 25.27,38.79 L 24.83,40.71 C 24.81,40.77 24.79,40.81 24.77,40.8 C 24.74,40.79 24.72,40.76 24.68,40.7 L 23.98,39.61 L 23.63,39.03 L 23.43,38.69 V 38.67 L 23.19,39.96 C 23.15,40.16 23.16,40.29 23.22,40.32 L 23.34,40.36 L 23.42,40.41 C 23.42,40.43 23.39,40.44 23.34,40.43 L 23.11,40.37 L 22.97,40.34 L 22.86,40.32 A 2.64,2.64 0 0,1 22.66,40.27 H 22.62 A 43.97,43.97 0 0,1 22.07,40.05 L 22,40.03 C 21.94,40 21.92,39.98 21.92,39.97 C 21.92,39.96 21.95,39.95 21.97,39.96 C 22,39.96 22,39.92 22,39.87 V 39.19 Z M 21.5,38.8 L 21.98,39 H 22 V 38.14 L 21.98,38.16 L 21.5,38.77 V 38.8 Z M 26.2,39.41 L 26.17,39.81 A 19.54,19.54 0 0,0 26.14,40.67 C 26.19,40.75 26.32,40.81 26.53,40.82 C 26.78,40.86 27.03,40.8 27.25,40.65 C 27.43,40.52 27.54,40.26 27.57,39.9 A 1.06,1.06 0 0,0 27.33,39.1 A 1.22,1.22 0 0,0 26.48,38.72 A 0.56,0.56 0 0,0 26.28,38.72 A 0.07,0.07 0 0,0 26.23,38.79 C 26.24,38.88 26.23,39.08 26.2,39.39 V 39.41 Z M 29.05,40.71 C 29.36,40.93 29.74,41 30.12,41 C 30.32,41 30.5,40.93 30.68,40.87 A 0.14,0.14 0 0,0 30.75,40.77 A 2.06,2.06 0 0,0 30.79,40.35 C 30.79,40.32 30.78,40.31 30.76,40.31 C 30.74,40.31 30.72,40.33 30.72,40.37 A 0.47,0.47 0 0,1 30.38,40.75 C 30.28,40.77 30.18,40.79 30.08,40.79 A 0.9,0.9 0 0,1 29.43,40.56 A 1.1,1.1 0 0,1 29.04,39.76 A 1.05,1.05 0 0,1 29.27,38.93 A 0.81,0.81 0 0,1 29.84,38.7 C 29.96,38.69 30.09,38.7 30.22,38.72 C 30.32,38.74 30.4,38.79 30.47,38.84 C 30.55,38.91 30.6,39.01 30.61,39.12 C 30.61,39.17 30.62,39.19 30.64,39.19 C 30.67,39.19 30.68,39.16 30.68,39.11 L 30.67,38.78 V 38.6 C 30.67,38.57 30.65,38.56 30.62,38.56 A 3.29,3.29 0 0,0 29.86,38.54 C 29.5,38.54 29.16,38.68 28.91,38.93 A 1.1,1.1 0 0,0 28.61,39.81 A 1.18,1.18 0 0,0 29.05,40.7 Z M 32.23,40.71 A 1.2,1.2 0 0,1 31,40.21 A 1.25,1.25 0 0,1 30.95,38.86 A 1.23,1.23 0 0,1 31.85,38.29 C 32.17,38.21 32.51,38.27 32.79,38.44 A 1.1,1.1 0 0,1 33.27,39.22 A 1.25,1.25 0 0,1 32.7,40.53 C 32.56,40.62 32.4,40.67 32.23,40.7 Z M 32.33,40.53 C 32.49,40.51 32.63,40.43 32.73,40.29 A 1.1,1.1 0 0,0 32.87,39.41 C 32.83,39.11 32.69,38.84 32.47,38.64 A 0.8,0.8 0 0,0 31.52,38.54 A 0.7,0.7 0 0,0 31.32,38.74 A 1.07,1.07 0 0,0 31.21,39.54 C 31.25,39.84 31.38,40.11 31.6,40.31 A 0.83,0.83 0 0,0 32.33,40.53 Z M 33.57,38.9 L 33.73,39.42 C 33.83,39.76 33.86,39.95 33.88,40.05 C 33.9,40.16 33.88,40.22 33.84,40.25 L 33.76,40.28 C 33.72,40.3 33.7,40.32 33.7,40.33 C 33.7,40.34 33.73,40.35 33.77,40.34 L 33.97,40.28 L 34.13,40.22 L 34.3,40.18 L 34.56,40.1 C 34.6,40.09 34.62,40.07 34.61,40.05 C 34.61,40.04 34.61,40.03 34.57,40.05 L 34.42,40.07 C 34.36,40.09 34.3,40.02 34.26,39.94 C 34.22,39.87 34.16,39.66 34.06,39.32 V 39.28 L 34.07,39.25 L 34.33,39.17 A 0.07,0.07 0 0,1 34.39,39.17 L 34.8,39.5 C 34.96,39.63 35.14,39.74 35.34,39.81 C 35.45,39.83 35.56,39.81 35.67,39.77 L 35.95,39.69 C 35.99,39.68 36,39.65 36,39.64 L 35.94,39.63 L 35.87,39.64 A 0.65,0.65 0 0,1 35.48,39.54 A 2.45,2.45 0 0,1 35.18,39.34 L 35.09,39.29 L 35.02,39.24 L 34.61,38.95 A 0.94,0.94 0 0,0 34.8,38.16 A 0.53,0.53 0 0,0 34.65,37.93 A 0.5,0.5 0 0,0 34.48,37.81 A 1,1 0 0,0 33.9,37.85 L 33.7,37.92 L 33.49,37.99 L 33.32,38.03 L 33.08,38.1 C 33.04,38.11 33.02,38.13 33.03,38.15 C 33.03,38.15 33.05,38.17 33.09,38.15 A 0.45,0.45 0 0,1 33.2,38.13 C 33.24,38.13 33.28,38.14 33.31,38.16 C 33.35,38.19 33.37,38.22 33.38,38.26 L 33.58,38.9 Z M 33.99,39.02 L 33.72,38.12 A 0.04,0.04 0 0,1 33.73,38.08 C 33.78,38.04 33.83,38.02 33.9,38.01 C 34,37.97 34.12,37.98 34.22,38.03 A 0.57,0.57 0 0,1 34.51,38.42 A 0.55,0.55 0 0,1 34.47,38.92 A 0.36,0.36 0 0,1 34.27,39.03 A 0.7,0.7 0 0,1 34.03,39.07 A 0.05,0.05 0 0,1 33.99,39.02 Z M 35.99,38.69 L 35.77,38.19 L 35.51,37.59 A 0.17,0.17 0 0,0 35.44,37.49 A 0.16,0.16 0 0,0 35.32,37.47 A 0.47,0.47 0 0,0 35.21,37.51 C 35.17,37.53 35.16,37.52 35.15,37.51 C 35.14,37.51 35.15,37.48 35.2,37.46 L 35.43,37.36 L 35.53,37.33 L 35.61,37.29 L 35.81,37.2 L 36.01,37.1 C 36.13,37.05 36.26,37 36.39,37 A 0.8,0.8 0 0,1 36.6,37.04 H 36.61 A 0.48,0.48 0 0,1 36.89,37.32 A 0.73,0.73 0 0,1 36.74,38.15 A 0.73,0.73 0 0,1 36.43,38.35 C 36.41,38.35 36.39,38.35 36.38,38.33 C 36.38,38.32 36.4,38.29 36.45,38.26 A 0.36,0.36 0 0,0 36.65,38.03 A 0.54,0.54 0 0,0 36.65,37.63 A 0.6,0.6 0 0,0 36.3,37.27 A 0.44,0.44 0 0,0 35.97,37.27 A 0.43,0.43 0 0,0 35.87,37.33 C 35.85,37.35 35.85,37.37 35.87,37.4 L 36.35,38.55 C 36.48,38.87 36.57,39.07 36.62,39.15 C 36.66,39.23 36.72,39.28 36.8,39.26 L 36.94,39.21 H 37 C 37.02,39.21 37.01,39.25 36.97,39.26 L 36.75,39.36 L 36.7,39.37 L 36.52,39.44 L 36.37,39.52 L 36.17,39.61 C 36.13,39.62 36.1,39.62 36.1,39.61 C 36.09,39.6 36.1,39.58 36.15,39.56 L 36.23,39.51 C 36.27,39.48 36.27,39.41 36.24,39.31 A 8.5,8.5 0 0,0 36,38.69 Z M 37.49,38.9 C 37.52,38.9 37.54,38.9 37.57,38.88 A 0.18,0.18 0 0,0 37.67,38.76 A 0.21,0.21 0 0,0 37.6,38.56 A 0.17,0.17 0 0,0 37.54,38.52 A 0.19,0.19 0 0,0 37.4,38.54 A 0.18,0.18 0 0,0 37.3,38.66 C 37.29,38.71 37.3,38.76 37.32,38.79 A 0.2,0.2 0 0,0 37.49,38.9 Z" fill="rgb(116, 103, 96)"/>
<path d="M 31.79,34.985 V 30 H 32 V 35 H 31.8 Z M 32.74,35 V 28.92 H 33 V 35 H 32.74 Z M 32.72,28.72 S 31.96,29.87 30.24,30.27 C 30.24,30.27 30.68,29.74 31.44,29.23 C 32.2,28.73 32.72,28.72 32.72,28.72 Z" fill="rgb(254, 254, 253)"/>
<path d="M 32.79,28.755 L 32.72,28.72 V 28.62 L 32.92,28.61 L 32.81,28.77 Z M 30.24,30.27 L 30.16,30.2 L 30.18,30.18 A 3.56,3.56 0 0,1 30.48,29.87 C 30.69,29.67 31,29.41 31.38,29.15 A 3.64,3.64 0 0,1 32.69,28.62 H 32.72 V 28.72 L 32.81,28.77 L 32.8,28.79 A 1.68,1.68 0 0,1 32.65,28.97 A 4.6,4.6 0 0,1 30.25,30.37 L 30,30.43 L 30.16,30.2 L 30.24,30.27 Z M 30.55,30.07 A 4.36,4.36 0 0,0 32.48,28.86 L 32.4,28.88 C 32.18,28.95 31.87,29.08 31.5,29.32 A 6.29,6.29 0 0,0 30.55,30.08 Z" fill="rgb(143, 144, 150)"/>
<path d="M 33.010000000000005,28.755 S 33.9,28.74 34.74,29.49 C 34.74,29.49 34.3,29.46 33.76,29.25 C 33.22,29.03 33.02,28.77 33.02,28.77 Z" fill="rgb(254, 254, 253)"/>
<path d="M 33.010000000000005,28.655 V 28.77 L 32.94,28.83 L 32.82,28.67 H 33.02 Z M 34.73,29.59 H 34.71 A 2.13,2.13 0 0,1 34.44,29.55 C 34.25,29.51 34,29.45 33.73,29.35 A 2.36,2.36 0 0,1 32.95,28.85 V 28.84 L 32.94,28.83 L 33.02,28.77 V 28.67 H 33.18 A 2.96,2.96 0 0,1 34.81,29.41 L 35.03,29.61 L 34.73,29.59 Z M 34.37,29.33 A 2.7,2.7 0 0,0 33.31,28.89 C 33.42,28.97 33.58,29.07 33.8,29.15 C 34.01,29.24 34.21,29.29 34.37,29.33 Z" fill="rgb(143, 144, 150)"/>
<path d="M 32.82,28.314999999999998 S 32.3,27.05 32.91,25.37 C 32.91,25.37 33.11,26.03 33.11,26.96 C 33.11,27.88 32.83,28.33 32.83,28.33 Z" fill="rgb(239, 240, 240)"/>
<path d="M 32.730000000000004,28.355 L 32.83,28.33 L 32.92,28.38 L 32.82,28.55 L 32.74,28.37 Z M 33.01,25.29 V 25.32 A 3.51,3.51 0 0,1 33.11,25.74 C 33.16,26.03 33.21,26.49 33.21,26.96 A 3.77,3.77 0 0,1 32.93,28.36 L 32.92,28.38 L 32.83,28.33 L 32.73,28.37 V 28.35 A 1.8,1.8 0 0,1 32.66,28.13 A 5,5 0 0,1 32.82,25.28 L 32.92,25 L 33.01,25.29 Z M 32.9,25.69 A 4.8,4.8 0 0,0 32.84,28.05 L 32.87,27.96 C 32.94,27.74 33,27.41 33.01,26.96 A 7.21,7.21 0 0,0 32.9,25.69 Z" fill="rgb(143, 144, 150)"/>
<path d="M 32.870000000000005,27.985 L 33.45,29 H 32.3 L 32.87,28 Z" fill="rgb(254, 254, 253)"/>
<path d="M 32.870000000000005,27.985 L 32.31,29 H 33.45 L 32.88,28 Z M 32.88,28.14 L 32.42,28.94 H 33.32 L 32.88,28.14 Z" fill-rule="evenodd"/>
<path d="M 41.79,23.105 C 41.97,23.37 42.2,23.58 42.47,23.72 C 42.47,23.72 41.41,21.18 41.52,22.27 C 41.54,22.57 41.64,22.87 41.8,23.12 Z M 42.86,24.64 A 6.8,6.8 0 0,0 42.5,23.74 S 44.16,26.02 43.43,30.04 A 5.75,5.75 0 0,1 41.78,33.07 C 42.01,33.01 42.24,32.99 42.48,33.01 C 43.08,33.06 43.67,33.38 43.31,33.5 C 43.22,33.52 43.13,33.56 43.04,33.6 C 42.74,33.74 42.41,33.88 42.04,33.7 A 2.05,2.05 0 0,1 41.56,33.28 C 40.5,34.26 39.41,34.72 39.41,34.72 L 39,34.56 A 8.3,8.3 0 0,0 41.27,33.16 C 41.05,33.01 40.52,32.53 40.44,31.97 C 40.38,31.63 40.82,31.91 41.08,32.34 C 41.21,32.58 41.29,32.84 41.33,33.11 C 41.53,32.93 41.71,32.75 41.87,32.56 C 41.63,32.38 41.16,31.92 41.08,31.4 C 41.03,31.06 41.47,31.34 41.73,31.77 C 41.84,31.98 41.93,32.21 41.96,32.45 A 7.06,7.06 0 0,0 43.41,27.15 C 43.14,27.09 42.33,26.78 42.03,26.25 C 41.85,25.92 42.45,26.05 42.88,26.39 C 43.08,26.57 43.26,26.77 43.39,26.99 C 43.29,26.15 43.11,25.39 42.92,24.81 C 42.65,24.76 41.69,24.47 41.34,23.93 C 41.13,23.61 41.81,23.73 42.3,24.06 C 42.52,24.22 42.71,24.42 42.86,24.64 Z M 43.16,24.85 S 42.74,24.2 43.24,23.22 C 43.74,22.25 43.15,24.85 43.15,24.85 Z M 43.67,26.12 S 43.2,25.42 43.68,24.44 C 44.17,23.44 43.67,26.12 43.67,26.12 Z M 43.75,27.3 A 1.64,1.64 0 0,1 44.41,25.64 C 44.94,25.25 43.75,27.3 43.75,27.3 Z M 43.83,28.54 S 43.83,27.26 44.7,26.97 C 45.34,26.75 43.83,28.54 43.83,28.54 Z M 43.73,29.71 S 43.93,28.38 44.85,28.27 C 45.52,28.19 43.73,29.71 43.73,29.71 Z M 44.85,29.68 C 44.55,30.31 43.56,30.69 43.42,30.71 C 43.55,30.41 43.73,30.13 43.97,29.91 C 44.4,29.53 45.01,29.34 44.85,29.68 Z M 42.9,31.68 C 43.06,31.68 44.2,31.53 44.63,30.99 C 44.87,30.7 44.19,30.75 43.66,31.01 C 43.36,31.17 43.1,31.4 42.9,31.67 Z M 43,32.79 A 2.2,2.2 0 0,1 42.31,32.64 C 42.55,32.39 42.83,32.19 43.15,32.07 C 43.7,31.87 44.39,31.9 44.12,32.16 L 44,32.26 C 43.76,32.51 43.48,32.79 43,32.79 Z M 41.38,34.52 C 41.25,34.29 41.18,34.04 41.16,33.78 C 41.5,33.83 41.82,33.94 42.11,34.12 C 42.6,34.46 42.97,35.02 42.59,34.95 C 42.5,34.93 42.4,34.93 42.3,34.92 C 41.98,34.89 41.61,34.86 41.38,34.52 Z M 40.73,34.1 C 40.67,34.24 40.46,35.34 40.84,35.92 C 41.05,36.23 41.22,35.59 41.14,35.02 C 41.07,34.68 40.94,34.37 40.74,34.1 Z M 43.21,25.88 C 43.07,25.88 42.1,25.57 41.76,24.97 C 41.58,24.64 42.16,24.77 42.61,25.12 C 42.86,25.33 43.06,25.59 43.21,25.88 Z M 43.43,28.55 C 43.31,28.51 42.44,27.97 42.27,27.31 C 42.18,26.95 42.72,27.22 43.05,27.66 C 43.25,27.93 43.37,28.23 43.43,28.56 Z M 42.3,28.58 C 42.4,29.22 43.1,29.77 43.2,29.81 C 43.17,29.51 43.09,29.21 42.94,28.94 C 42.68,28.51 42.24,28.23 42.3,28.58 Z M 42.9,30.88 C 42.8,30.85 42.1,30.3 42,29.66 C 41.94,29.31 42.38,29.59 42.64,30.02 C 42.78,30.29 42.87,30.59 42.9,30.89 Z M 41.54,30.49 C 41.64,31.14 42.34,31.69 42.44,31.73 A 2.3,2.3 0 0,0 42.19,30.86 C 41.93,30.43 41.49,30.15 41.54,30.49 Z M 14.2,23.12 C 14.03,23.37 13.8,23.58 13.53,23.72 C 13.53,23.72 14.59,21.18 14.48,22.27 C 14.46,22.57 14.36,22.87 14.2,23.12 Z M 13.14,24.64 C 13.28,24.2 13.42,23.89 13.5,23.74 C 13.5,23.74 11.84,26.02 12.57,30.04 A 5.75,5.75 0 0,0 14.22,33.07 A 2.4,2.4 0 0,0 13.52,33.01 C 12.92,33.06 12.33,33.38 12.69,33.5 C 12.78,33.52 12.87,33.56 12.96,33.6 C 13.26,33.74 13.59,33.88 13.96,33.7 C 14.14,33.58 14.3,33.44 14.44,33.28 A 8.27,8.27 0 0,0 16.59,34.72 L 17,34.56 A 8.3,8.3 0 0,1 14.73,33.16 C 14.95,33.01 15.48,32.53 15.56,31.97 C 15.62,31.63 15.18,31.91 14.92,32.34 C 14.79,32.58 14.71,32.84 14.67,33.11 C 14.47,32.93 14.29,32.75 14.13,32.56 C 14.37,32.38 14.84,31.92 14.92,31.4 C 14.97,31.06 14.53,31.34 14.27,31.77 C 14.16,31.98 14.07,32.21 14.04,32.45 A 7.06,7.06 0 0,1 12.59,27.15 C 12.86,27.09 13.67,26.78 13.97,26.25 C 14.15,25.92 13.55,26.05 13.12,26.39 C 12.92,26.57 12.74,26.77 12.61,26.99 C 12.71,26.15 12.89,25.39 13.08,24.81 C 13.35,24.76 14.31,24.47 14.66,23.93 C 14.87,23.61 14.19,23.73 13.7,24.06 C 13.48,24.22 13.29,24.42 13.14,24.64 Z M 12.84,24.85 S 13.26,24.2 12.76,23.22 C 12.26,22.25 12.85,24.85 12.85,24.85 Z M 12.33,26.12 S 12.8,25.42 12.32,24.44 C 11.83,23.44 12.32,26.12 12.32,26.12 Z M 12.25,27.3 A 1.64,1.64 0 0,0 11.59,25.64 C 11.06,25.25 12.25,27.3 12.25,27.3 Z M 12.17,28.54 S 12.17,27.26 11.3,26.97 C 10.66,26.75 12.17,28.54 12.17,28.54 Z M 12.27,29.71 S 12.07,28.38 11.15,28.27 C 10.48,28.19 12.27,29.71 12.27,29.71 Z M 11.15,29.68 C 11.45,30.31 12.44,30.69 12.58,30.71 A 2.3,2.3 0 0,0 12.03,29.91 C 11.6,29.53 10.99,29.34 11.15,29.68 Z M 13.1,31.68 C 12.94,31.68 11.8,31.53 11.37,30.99 C 11.13,30.7 11.81,30.75 12.34,31.01 C 12.64,31.17 12.9,31.4 13.1,31.67 Z M 13,32.79 C 13.24,32.78 13.47,32.72 13.69,32.64 A 2.34,2.34 0 0,0 12.85,32.07 C 12.3,31.87 11.61,31.9 11.88,32.16 L 12,32.26 C 12.24,32.51 12.52,32.79 13,32.79 Z M 14.62,34.52 C 14.75,34.29 14.82,34.04 14.84,33.78 C 14.5,33.83 14.18,33.94 13.89,34.12 C 13.4,34.46 13.03,35.02 13.41,34.95 C 13.5,34.93 13.6,34.93 13.7,34.92 C 14.02,34.89 14.39,34.86 14.62,34.52 Z M 15.27,34.1 C 15.33,34.24 15.54,35.34 15.16,35.92 C 14.95,36.23 14.78,35.59 14.86,35.02 C 14.93,34.68 15.06,34.37 15.26,34.1 Z M 12.79,25.88 C 12.93,25.88 13.9,25.57 14.24,24.97 C 14.42,24.64 13.84,24.77 13.39,25.12 A 2.4,2.4 0 0,0 12.79,25.88 Z M 12.57,28.55 C 12.69,28.51 13.56,27.97 13.73,27.31 C 13.82,26.95 13.28,27.22 12.95,27.66 C 12.75,27.93 12.63,28.23 12.57,28.56 Z M 13.7,28.58 C 13.6,29.22 12.9,29.77 12.8,29.81 C 12.82,29.51 12.91,29.21 13.06,28.94 C 13.32,28.51 13.76,28.23 13.7,28.58 Z M 13.1,30.88 C 13.2,30.85 13.9,30.3 14,29.66 C 14.06,29.31 13.62,29.59 13.36,30.02 C 13.22,30.29 13.13,30.59 13.1,30.89 Z M 14.46,30.49 C 14.36,31.14 13.66,31.69 13.56,31.73 C 13.58,31.43 13.67,31.13 13.81,30.86 C 14.07,30.43 14.51,30.15 14.46,30.49 Z" fill="rgb(104, 95, 89)"/>
<path d="M 37.46,22.985 H 36.35 V 23.73 H 36.38 L 35.38,29 H 35 V 29.7 H 35.25 L 34.43,34.07 L 34.05,36.02 H 34.08 L 34.42,35.88 L 34.65,34.62 H 36.86 L 37.2,34.39 H 36.95 V 33.68 L 37.65,34.05 L 37.88,33.88 L 36.95,33.38 V 31.6 L 38.41,30.79 L 38.8,33.06 L 38.83,33.03 L 38.87,32.98 L 39.01,32.83 L 38.47,29.7 H 38.8 V 29 H 38.34 L 37.43,23.73 H 37.47 V 23 Z M 34.69,34.4 H 36.82 V 33.61 L 35,32.64 L 34.69,34.39 Z M 35.06,32.33 L 36.82,31.36 V 30.56 H 35.38 L 35.06,32.33 Z M 35.42,30.3 H 36.82 V 30 L 35.92,29.7 H 35.53 L 35.43,30.3 Z M 35.66,29 H 36.21 L 36.82,28.68 V 28.17 H 35.81 L 35.66,29 Z M 35.83,28.03 H 36.83 V 27.28 L 36.06,26.75 L 35.83,28.03 Z M 36.09,26.61 L 36.17,26.67 H 36.82 V 26.14 L 36.09,26.6 V 26.61 Z M 36.12,26.42 L 36.82,25.99 V 25.67 H 36.26 L 36.12,26.42 Z M 36.28,25.53 H 36.82 V 25.07 L 36.42,24.8 L 36.28,25.53 Z M 36.48,24.41 L 36.82,24.11 V 23.8 H 36.6 L 36.48,24.41 Z M 38.32,30.31 L 38.22,29.7 H 36.95 V 29.9 L 38.17,30.3 H 38.32 Z M 38.1,29 L 37.96,28.2 L 36.95,28.75 V 29 H 38.1 Z M 37.9,27.87 L 37.72,26.79 H 36.95 V 27.19 L 37.91,27.87 Z M 37.7,26.66 L 37.53,25.69 L 36.95,26.05 V 26.65 H 37.7 Z M 37.5,25.52 V 25.51 L 36.95,25.14 V 25.52 H 37.51 Z M 37.47,25.32 L 37.37,24.69 H 36.95 V 24.99 L 37.47,25.33 Z M 37.34,24.56 L 37.23,23.91 L 36.95,24.16 V 24.56 H 37.34 Z M 36.82,29.69 H 36.34 L 36.82,29.85 V 29.69 Z M 36.49,28.99 H 36.82 V 28.82 L 36.49,28.99 Z M 36.95,31.28 L 38.26,30.56 H 36.95 V 31.28 Z M 36.95,28.6 L 37.81,28.16 H 36.95 V 28.6 Z M 37.92,28.02 L 36.95,27.36 V 28.02 H 37.92 Z M 36.95,25.9 L 37.33,25.66 H 36.95 V 25.9 Z M 36.95,23.98 L 37.17,23.78 H 36.95 V 23.98 Z M 36.82,24.28 V 24.56 H 36.52 L 36.82,24.27 Z M 36.5,24.68 H 36.82 V 24.9 L 36.5,24.69 Z M 36.36,26.79 H 36.82 V 27.11 L 36.36,26.79 Z M 36.95,30.03 L 37.75,30.29 H 36.95 V 30.03 Z M 36.82,31.66 V 33.3 L 35.29,32.5 L 36.82,31.66 Z" fill="rgb(51, 47, 43)" fill-rule="evenodd"/>
<defs>
<linearGradient id="a" x1="23.94" x2="28.04" y1="31.05" y2="30.95" gradientUnits="userSpaceOnUse">
<stop stop-color="rgb(120, 116, 112)" offset="0"/>
<stop stop-color="rgb(49, 49, 48)" offset="1"/>
</linearGradient>
</defs>
</svg>
