<?xml version="1.0" encoding="UTF-8"?>
<!-- generated by Finnhub -->
<svg viewBox="0 0 55.5 55.5" xmlns="http://www.w3.org/2000/svg">
<path d="M 0,0 H 55.5 V 55.5 H 0 Z" fill="rgb(245, 247, 251)"/>
<path d="M 56,0 H 0 V 24 H 5.135 C 7.065,13.25 16.466,5.093 27.772,5.093 S 48.478,13.25 50.409,24 H 56 V 0 Z" fill="rgb(27, 66, 119)"/>
<path d="M 5.093,31.985 H 0 V 56 H 56 V 32 H 50.442 C 48.586,42.842 39.142,51.093 27.772,51.093 S 6.958,42.842 5.102,32 Z" fill="rgb(1, 8, 14)"/>
<path d="M 55.707,23.985 H 0.284 C 2.224,10.43 13.894,0 28,0 S 53.776,10.43 55.717,24 Z" fill="rgb(27, 66, 119)"/>
<path d="M 55.99,31.985 H 0 C 1.96,45.57 13.75,56 28,56 S 54.04,45.57 56,32 Z" fill="rgb(1, 8, 14)"/>
<circle cx="28" cy="28" r="15.889" fill="rgb(245, 247, 251)"/>
<circle cx="28" cy="28" r="13.816" fill="rgb(2, 9, 15)"/>
<circle cx="28" cy="28" r="11.744" fill="rgb(252, 251, 250)"/>
<path d="M 27.406,26.965 C 27.416,27.492 27.32,28.004 27.576,28.516 C 27.672,28.74 27.576,28.996 27.544,29.22 C 27.256,30.756 27.096,32.291 27.416,33.827 C 27.512,34.339 27.32,34.851 27.192,35.331 C 27.128,35.555 26.904,35.523 26.744,35.555 C 26.584,35.587 26.584,35.395 26.552,35.267 C 26.456,34.787 26.584,34.339 26.52,33.859 A 17.993,17.993 0 0,1 26.52,29.316 C 26.584,28.804 26.68,28.26 26.392,27.748 C 26.328,27.62 26.296,27.396 26.488,27.268 C 26.584,27.204 26.52,27.14 26.488,27.076 C 26.456,26.98 26.392,26.852 26.36,26.756 C 26.296,26.628 26.488,26.34 26.232,26.34 C 25.944,26.34 25.656,26.468 25.528,26.724 C 25.464,26.852 25.496,27.012 25.272,26.98 C 25.048,26.948 24.888,26.852 24.824,26.628 C 24.76,26.244 24.856,25.924 25.144,25.668 C 25.272,25.54 25.432,25.412 25.592,25.38 C 26.136,25.316 26.424,24.932 26.712,24.548 C 27.032,24.132 27.128,24.132 27.608,24.388 C 27.672,24.42 27.704,24.452 27.768,24.42 C 28.952,23.844 30.264,23.588 31.512,23.268 C 32.632,22.98 33.752,22.98 34.904,23.236 C 35.095,23.268 35.287,23.332 35.319,23.588 C 35.351,23.684 35.415,23.78 35.479,23.876 C 35.927,24.548 35.895,25.092 35.319,25.668 C 35.223,25.732 35.127,25.86 35.127,25.956 C 35.095,26.244 34.999,26.404 34.679,26.436 C 34.583,26.436 34.519,26.532 34.487,26.628 C 34.455,26.692 34.423,26.788 34.391,26.788 C 33.816,26.852 33.656,27.492 33.144,27.652 C 32.824,27.748 32.472,27.94 32.312,28.292 C 32.28,28.388 32.184,28.388 32.12,28.388 C 31.384,28.484 30.872,28.996 30.2,29.22 C 30.008,29.284 30.104,29.38 30.168,29.476 C 30.328,29.732 30.584,29.892 30.84,30.052 C 31.128,30.276 31.416,30.5 31.544,30.852 C 31.608,30.98 31.672,30.98 31.768,30.98 C 32.088,30.948 32.344,31.076 32.536,31.331 C 32.792,31.619 33.112,31.715 33.496,31.715 C 33.911,31.683 34.327,31.715 34.711,31.715 C 35.383,31.715 35.959,31.427 36.535,31.075 C 36.919,30.852 37.367,30.724 37.719,30.404 C 37.847,30.308 37.975,30.244 37.975,30.02 C 37.975,29.892 38.103,29.828 38.231,29.828 C 38.423,29.828 38.359,29.988 38.359,30.084 C 38.391,30.564 38.135,30.916 37.815,31.235 C 37.623,31.427 37.431,31.587 37.271,31.811 C 37.111,32.004 36.823,32.131 36.535,32.131 C 36.311,32.099 36.151,32.163 36.119,32.387 C 36.087,32.579 35.959,32.611 35.799,32.643 C 34.935,32.867 34.072,32.835 33.208,32.899 C 32.952,32.931 32.6,32.675 32.28,32.515 C 32.216,32.483 32.184,32.419 32.088,32.387 C 30.904,31.939 29.976,31.107 29.08,30.276 C 28.824,30.052 28.568,29.956 28.216,30.084 C 27.992,30.18 27.736,30.244 27.576,30.02 C 27.416,29.796 27.48,29.54 27.608,29.316 C 27.8,28.9 28.248,28.708 28.6,28.42 C 28.664,28.356 28.792,28.388 28.888,28.484 C 28.952,28.58 28.984,28.772 29.112,28.708 C 29.4,28.58 29.752,28.74 29.976,28.452 C 30.072,28.356 30.136,28.228 30.296,28.196 C 31,28.068 31.576,27.684 32.152,27.268 C 32.376,27.108 32.664,26.948 32.92,26.852 C 33.688,26.564 34.167,25.956 34.743,25.412 C 35.031,25.156 34.871,24.868 34.583,24.612 C 33.783,23.972 32.856,24.228 31.992,24.292 C 30.776,24.42 29.624,24.868 28.504,25.284 C 28.312,25.348 28.088,25.444 27.928,25.572 C 27.608,25.764 27.352,25.956 27.448,26.404 C 27.48,26.564 27.416,26.756 27.416,26.98 Z" fill="rgb(200, 37, 47)"/>
<path d="M 22.701999999999998,34.325 C 23,33.955 22.648,33.54 22.648,33.123 C 22.648,32.771 22.584,32.419 22.84,32.131 C 22.936,32.035 22.904,31.875 22.872,31.747 C 22.584,30.595 22.776,29.444 23,28.323 C 23.096,27.78 23.032,27.268 22.968,26.756 S 22.84,25.732 22.904,25.188 C 22.904,25.092 22.968,24.996 22.84,24.932 C 22.744,24.868 22.68,24.964 22.616,24.996 C 22.136,25.22 21.688,25.444 21.208,25.668 A 0.753,0.753 0 0,1 20.953,25.732 C 20.409,25.636 19.993,25.892 19.544,26.148 C 19.289,26.276 18.873,26.116 18.777,25.828 C 18.681,25.54 18.745,25.284 18.969,25.06 C 19.097,24.964 19.257,24.868 19.385,24.868 C 20.152,24.932 20.825,24.516 21.56,24.42 C 22.232,24.356 22.808,24.036 23.032,23.332 C 23.128,23.044 23.352,23.012 23.608,23.14 C 24.28,23.46 24.856,23.364 25.432,22.852 C 25.528,22.756 25.624,22.788 25.72,22.788 A 1.19,1.19 0 0,0 26.456,22.628 C 27.32,22.18 28.28,22.02 29.24,21.796 C 29.528,21.732 29.784,21.476 30.104,21.54 C 30.232,21.572 30.392,21.476 30.424,21.668 C 30.456,21.828 30.424,21.956 30.264,22.02 S 29.976,22.18 29.816,22.244 C 29.016,22.532 28.184,22.724 27.448,23.14 C 26.968,23.428 26.456,23.492 25.976,23.716 C 25.464,23.94 25.016,24.228 24.44,24.324 C 24.248,24.356 24.184,24.452 24.152,24.612 C 24.12,25.06 24.248,25.572 23.928,25.988 C 23.896,26.02 23.928,26.052 23.928,26.116 C 24.216,27.524 23.8,28.9 23.864,30.307 C 23.896,30.979 23.672,31.683 23.672,32.355 C 23.64,32.931 23.544,33.507 23.544,34.083 C 23.544,34.339 23.544,34.595 23.416,34.819 C 23.352,34.979 23.256,35.139 23.064,35.107 C 22.872,35.075 22.776,34.947 22.744,34.755 C 22.744,34.659 22.744,34.531 22.712,34.339 Z" fill="rgb(200, 37, 47)"/>
</svg>
