<?xml version="1.0" encoding="UTF-8"?>
<!-- generated by Finnhub -->
<svg viewBox="0 0 55.5 55.5" xmlns="http://www.w3.org/2000/svg">
<path d="M 0,0 H 55.5 V 55.5 H 0 Z" fill="rgb(1, 65, 117)"/>
<path d="M 17.99,35.23 V 44 L 25.355,40.007 C 22.424,39.365 19.766,37.673 18,35.245 Z M 38.298,31.443 A 7.644,7.644 0 0,1 37.772,31.983 C 37.795,32.186 37.81,32.385 37.822,32.582 C 37.988,32.234 38.152,31.855 38.298,31.443 Z M 20.238,28.12 A 10.406,10.406 0 0,1 19.437,26.383 C 18.847,24.697 18.752,23.003 19.139,21.437 C 18.655,22.124 18.325,22.757 18,23.523 V 31.641 C 18.455,30.497 19.22,29.297 20.238,28.12 Z M 32.506,32.688 C 33.857,32.498 35.044,32.028 36.016,31.328 C 35.775,30.177 35.319,28.944 34.675,27.706 C 31.669,29.384 27.681,28.114 25.608,25.526 A 24.23,24.23 0 0,0 22.29,28.304 C 24.563,31.356 28.65,33.228 32.506,32.688 Z M 35.26,21.81 C 34.515,21.796 33.64,21.912 32.683,22.152 A 21.876,21.876 0 0,1 35.087,25.18 C 35.785,24.19 35.705,22.884 35.26,21.81 Z M 24.757,15.667 L 18,12 V 20.273 A 12.553,12.553 0 0,1 24.756,15.666 Z M 33.867,26.304 A 20.28,20.28 0 0,0 30.935,22.694 C 29.546,23.197 28.218,23.871 26.96,24.642 C 28.549,26.548 31.591,27.558 33.867,26.304 Z M 26.122,23.244 A 25.92,25.92 0 0,1 29.58,21.484 C 28.59,20.684 27.589,20.048 26.622,19.585 C 25.734,20.595 25.636,22.015 26.122,23.244 Z M 21.406,26.873 A 25.682,25.682 0 0,1 24.74,24.138 C 23.989,22.477 24.007,20.518 25.053,18.978 C 24.155,18.716 23.318,18.63 22.589,18.736 C 20.279,20.811 20.059,24.168 21.406,26.877 V 26.873 Z M 32.729,34.293 C 28.419,34.895 23.847,32.872 21.186,29.521 C 20.196,30.719 18.918,32.458 19.172,34.133 C 21.182,36.885 24.397,38.611 27.806,38.679 L 36.106,34.179 A 5.66,5.66 0 0,0 36.211,33.133 C 35.19,33.717 34.017,34.113 32.729,34.293 Z M 28.167,18.564 A 18.347,18.347 0 0,1 31.33,20.849 C 32.057,20.624 32.75,20.461 33.405,20.356 L 29.623,18.306 C 29.121,18.306 28.613,18.41 28.167,18.564 Z M 39.742,32.209 L 47.507,28.002 L 39.95,23.904 C 41.012,27.225 40.543,30.098 39.742,32.209 Z M 25.04,17.307 C 25.46,17.404 25.888,17.539 26.323,17.701 A 5.56,5.56 0 0,1 27.436,17.125 L 27.039,16.901 C 26.359,16.987 25.703,17.078 25.039,17.307 Z M 35.982,26.664 A 16.83,16.83 0 0,1 37.374,30.008 C 37.498,29.843 37.621,29.676 37.73,29.498 C 38.716,27.878 38.887,25.898 38.23,23.907 C 38.23,23.907 37.843,22.959 37.486,22.567 L 37.114,22.365 C 37.419,23.909 37.023,25.488 35.982,26.665 Z M 18,31.641 C 16.92,28.977 16.874,26.161 18,23.523 V 20.273 C 14.72,24.648 14.712,30.913 18,35.245 V 31.641 C 17.973,31.707 18.022,31.576 18,31.641 Z M 28.263,16.863 A 5.824,5.824 0 0,0 27.433,17.125 L 29.623,18.313 C 31.336,18.258 33.066,19.023 34.228,20.255 C 33.96,20.28 33.685,20.31 33.404,20.355 L 37.112,22.373 C 37.102,22.333 37.098,22.29 37.09,22.248 C 37.242,22.344 37.373,22.45 37.484,22.575 L 39.949,23.903 C 37.825,17.713 31.189,13.968 24.755,15.669 L 27.037,16.907 C 27.451,16.867 27.843,16.852 28.263,16.863 Z M 36.105,34.178 C 35.465,37.515 30.758,38.745 27.805,38.678 L 25.355,40.008 C 31.321,41.308 37.595,37.901 39.741,32.208 L 36.105,34.178 Z M 18,35.245 V 44 L 25.355,40.007 C 22.424,39.365 19.766,37.673 18,35.245 Z M 38.298,31.443 A 7.644,7.644 0 0,1 37.772,31.983 C 37.795,32.186 37.81,32.385 37.822,32.582 C 37.988,32.234 38.152,31.855 38.298,31.443 Z M 20.238,28.12 A 10.406,10.406 0 0,1 19.437,26.383 C 18.847,24.697 18.752,23.003 19.139,21.437 C 18.655,22.124 18.325,22.757 18,23.523 V 31.641 C 18.455,30.497 19.22,29.297 20.238,28.12 Z M 32.506,32.688 C 33.857,32.498 35.044,32.028 36.016,31.328 C 35.775,30.177 35.319,28.944 34.675,27.706 C 31.669,29.384 27.681,28.114 25.608,25.526 A 24.23,24.23 0 0,0 22.29,28.304 C 24.563,31.356 28.65,33.228 32.506,32.688 Z M 35.26,21.81 C 34.515,21.796 33.64,21.912 32.683,22.152 A 21.876,21.876 0 0,1 35.087,25.18 C 35.785,24.19 35.705,22.884 35.26,21.81 Z M 24.757,15.667 L 18,12 V 20.273 A 12.553,12.553 0 0,1 24.756,15.666 Z M 33.867,26.304 A 20.28,20.28 0 0,0 30.935,22.694 C 29.546,23.197 28.218,23.871 26.96,24.642 C 28.549,26.548 31.591,27.558 33.867,26.304 Z M 26.122,23.244 A 25.92,25.92 0 0,1 29.58,21.484 C 28.59,20.684 27.589,20.048 26.622,19.585 C 25.734,20.595 25.636,22.015 26.122,23.244 Z M 21.406,26.873 A 25.682,25.682 0 0,1 24.74,24.138 C 23.989,22.477 24.007,20.518 25.053,18.978 C 24.155,18.716 23.318,18.63 22.589,18.736 C 20.279,20.811 20.059,24.168 21.406,26.877 V 26.873 Z M 32.729,34.293 C 28.419,34.895 23.847,32.872 21.186,29.521 C 20.196,30.719 18.918,32.458 19.172,34.133 C 21.182,36.885 24.397,38.611 27.806,38.679 L 36.106,34.179 A 5.66,5.66 0 0,0 36.211,33.133 C 35.19,33.717 34.017,34.113 32.729,34.293 Z M 28.167,18.564 A 18.347,18.347 0 0,1 31.33,20.849 C 32.057,20.624 32.75,20.461 33.405,20.356 L 29.623,18.306 C 29.121,18.306 28.613,18.41 28.167,18.564 Z M 39.742,32.209 L 47.507,28.002 L 39.95,23.904 C 41.012,27.225 40.543,30.098 39.742,32.209 Z M 25.04,17.307 C 25.46,17.404 25.888,17.539 26.323,17.701 A 5.56,5.56 0 0,1 27.436,17.125 L 27.039,16.901 C 26.359,16.987 25.703,17.078 25.039,17.307 Z M 35.982,26.664 A 16.83,16.83 0 0,1 37.374,30.008 C 37.498,29.843 37.621,29.676 37.73,29.498 C 38.716,27.878 38.887,25.898 38.23,23.907 C 38.23,23.907 37.843,22.959 37.486,22.567 L 37.114,22.365 C 37.419,23.909 37.023,25.488 35.982,26.665 Z M 18,31.641 C 16.92,28.977 16.874,26.161 18,23.523 V 20.273 C 14.72,24.648 14.712,30.913 18,35.245 V 31.641 C 17.973,31.707 18.022,31.576 18,31.641 Z M 28.263,16.863 A 5.824,5.824 0 0,0 27.433,17.125 L 29.623,18.313 C 31.336,18.258 33.066,19.023 34.228,20.255 C 33.96,20.28 33.685,20.31 33.404,20.355 L 37.112,22.373 C 37.102,22.333 37.098,22.29 37.09,22.248 C 37.242,22.344 37.373,22.45 37.484,22.575 L 39.949,23.903 C 37.825,17.713 31.189,13.968 24.755,15.669 L 27.037,16.907 C 27.451,16.867 27.843,16.852 28.263,16.863 Z M 36.105,34.178 C 35.465,37.515 30.758,38.745 27.805,38.678 L 25.355,40.008 C 31.321,41.308 37.595,37.901 39.741,32.208 L 36.105,34.178 Z" fill="rgb(254, 254, 253)"/>
</svg>
