<?xml version="1.0" encoding="UTF-8"?>
<!-- generated by Finnhub -->
<svg viewBox="0 0 55.5 55.5" xmlns="http://www.w3.org/2000/svg">
<path d="M 0,0 H 55.5 V 55.5 H 0 Z" fill="rgb(202, 44, 45)"/>
<path d="M 12.146,26.517 H 12.102 A 0.1,0.1 0 0,1 12.002,26.432 A 0.1,0.1 0 0,1 12.002,26.387 C 15.874,17.613 26.174,13.617 35.008,17.463 A 17.405,17.405 0 0,1 43.992,26.387 A 0.099,0.099 0 0,1 43.9,26.524 H 43.854 A 9.854,9.854 0 0,0 38.969,25.351 A 9.293,9.293 0 0,0 33.546,26.874 A 0.1,0.1 0 0,1 33.485,26.874 H 33.423 A 10.369,10.369 0 0,0 22.578,26.874 A 0.1,0.1 0 0,1 22.518,26.874 H 22.463 A 9.298,9.298 0 0,0 17.041,25.351 A 9.873,9.873 0 0,0 12.163,26.531 H 12.156 Z M 29,27 H 27 V 40.784 C 27,41.592 26.513,42.246 25.7,42.246 C 25.077,42.246 24.52,41.856 24.312,41.271 A 0.877,0.877 0 0,0 23.172,40.796 A 0.867,0.867 0 0,0 22.648,41.781 C 23.19,43.46 24.998,44.385 26.689,43.847 C 28.028,43.421 29.011,42.18 29,40.784 V 27 Z" fill="rgb(254, 254, 253)"/>
</svg>
