<?xml version="1.0" encoding="UTF-8"?>
<!-- generated by Finnhub -->
<svg viewBox="0 0 55.5 55.5" xmlns="http://www.w3.org/2000/svg">
<path d="M 0,0 H 55.5 V 55.5 H 0 Z" fill="rgb(1, 78, 131)"/>
<path d="M 15.425,32.985 V 31 H 13 V 30 H 15.435 V 28 H 13 V 27 H 15.435 V 25 H 10.625 V 33 H 15.435 Z M 18.061,28.851 L 15.435,33 H 17.939 L 19.313,30.728 L 20.748,33 H 23.313 L 20.626,28.788 L 23.19,25 H 20.748 L 19.374,27 L 18.061,25 H 15.435 L 18.061,28.851 Z M 30,33 H 32 V 27 H 32.565 C 33.393,27 33.745,27.347 33.619,28.104 C 33.496,28.862 33.079,29.174 32.374,29.042 L 34.877,33 H 37.313 L 35,29.24 C 35.915,28.55 36.185,27.673 35.81,26.615 C 35.437,25.558 34.645,25 33.434,25 H 30 V 33 Z M 47.374,33 V 28.788 L 50.061,33 H 52 V 25 H 49.565 V 28.393 L 47.313,25 H 45 V 33 H 47.374 Z M 4,25 V 27 H 6 V 33 H 8.374 V 27 H 10.626 L 9.374,25 H 4 Z M 22.999,25 V 27 H 25 V 33 H 27.503 V 27 H 30 L 28.694,25 H 22.999 Z M 40.626,30.792 C 41.124,30.792 41.551,30.608 41.905,30.242 C 42.257,29.876 42.435,29.433 42.435,28.915 C 42.435,28.398 42.257,27.955 41.905,27.589 C 41.551,27.223 41.125,27 40.625,27 S 39.697,27.224 39.34,27.588 C 38.987,27.955 38.81,28.398 38.81,28.915 C 38.81,29.433 38.986,29.876 39.34,30.241 C 39.697,30.608 40.126,30.791 40.626,30.791 Z M 36.687,28.915 C 36.687,27.791 37.071,26.83 37.844,26.029 C 38.614,25.23 39.541,25 40.626,25 C 41.709,25 42.636,25.23 43.408,26.03 C 44.178,26.83 44.565,27.791 44.565,28.915 C 44.565,30.04 44.178,31.002 43.408,31.801 C 42.636,32.601 41.709,33 40.626,33 C 39.541,33 38.614,32.601 37.844,31.8 C 37.071,31.002 36.687,30.04 36.687,28.915 Z" fill="rgb(254, 254, 253)"/>
</svg>
