<?xml version="1.0" encoding="UTF-8"?>
<!-- generated by Finnhub -->
<svg fill="none" viewBox="0 0 55.5 55.5" xmlns="http://www.w3.org/2000/svg">
<path d="M 0,0 H 55.5 V 55.5 H 0 Z" fill="rgb(1, 84, 127)"/>
<path d="M 48.701,20.807 C 49.262,21.792 49.544,22.828 49.567,24 H 47.492 C 47.412,22.512 46.828,21.032 45.421,20.474 C 44.12,19.95 42.589,19.95 41.212,20.272 C 40.064,20.581 38.93,21.6 38.624,22.832 C 38.279,24.187 38.356,25.848 39.337,26.908 C 39.822,27.431 40.409,27.739 41.009,27.993 C 42.424,28.57 43.979,28.811 45.357,29.535 C 46.135,30.084 46.35,30.982 46.327,31.907 C 46.275,32.899 45.714,33.851 44.834,34.294 C 43.456,34.936 41.799,34.91 40.256,34.629 C 39.185,34.359 38.023,33.583 37.693,32.403 C 37.526,31.84 37.501,31.143 37.539,30.553 L 39.579,30.54 C 39.644,30.848 39.63,31.264 39.694,31.613 C 39.758,32.109 40.204,32.563 40.639,32.725 C 41.632,32.993 42.679,33.073 43.648,32.712 C 43.878,32.577 44.107,32.336 44.158,32.068 C 44.221,31.706 44.195,31.304 43.941,31.035 C 43.431,30.647 42.793,30.553 42.194,30.379 C 40.115,29.896 37.731,29.079 36.813,26.746 C 35.958,24.335 36.366,21.372 38.229,19.616 C 40.306,17.766 43.264,17.713 45.841,18.422 C 46.989,18.811 48.098,19.682 48.711,20.822 Z" fill="rgb(254, 254, 253)"/>
<path d="M 37.403,34.829 C 36.163,33.799 35.987,32.231 36,30.648 H 34 V 31.198 C 34.012,31.896 34.063,32.606 34.242,33.25 C 34.853,35.688 37.082,37.284 39.302,37.712 C 42.119,38.236 45.422,38.182 47.769,36.386 C 49.745,34.737 50.396,32.07 49.771,29.604 C 49.159,26.802 46.29,25.944 44.083,25.26 C 43.407,24.912 42.463,25.02 42.081,24.202 C 42.031,23.921 42.056,23.572 42.298,23.384 C 42.642,23.143 43.217,23.156 43.585,23.37 C 43.854,23.665 43.879,24.095 43.918,24.47 H 45.899 C 46.021,23.423 45.684,23.116 45.499,22.647 C 44.709,21.293 42.923,21.334 41.649,21.641 C 40.806,21.936 40.169,22.781 40.131,23.719 C 40.028,24.671 40.373,25.582 41.151,26.065 C 42.911,26.963 44.963,27.15 46.634,28.303 C 47.807,29.187 48.126,30.529 48.024,32.016 C 47.947,33.598 46.762,35.179 45.358,35.688 C 42.885,36.533 39.595,36.546 37.414,34.844 Z" fill="rgb(254, 254, 253)"/>
<path d="M 30.99,37.985 V 30 H 27 V 37 H 23 V 30 H 19 V 26 H 23 V 19 H 27 V 26 H 31 V 19 H 35 V 31 M 19,24 V 19 H 15 V 31 A 2,2 0 0,1 13,33 V 33 A 2,2 0 0,1 11,31 V 19 H 7 V 31 A 6,6 0 0,0 13,37 H 14 A 5,5 0 0,0 19,32 V 32" stroke="rgb(254, 254, 253)" stroke-width="2"/>
</svg>
