<?xml version="1.0" encoding="UTF-8"?>
<!-- generated by Finnhub -->
<svg viewBox="0 0 55.5 55.5" xmlns="http://www.w3.org/2000/svg">
<path d="M 0,0 H 55.5 V 55.5 H 0 Z" fill="rgb(1, 79, 167)"/>
<path d="M 26.773999999999997,17.362 A 12.751,12.751 0 0,0 20.301,15.614 C 14.393,15.614 9,20.366 9,27.707 S 14.828,41 22.018,41 H 35.036 C 27.846,41 22.018,35.048 22.018,27.707 C 22.018,22.794 24.61,19.092 26.79,17.403 L 26.784,17.377 Z" fill="rgb(254, 254, 253)"/>
<path d="M 29.206,38.609 A 12.757,12.757 0 0,0 35.7,40.387 C 41.605,40.387 47,35.635 47,28.293 C 47,20.953 41.172,15 33.982,15 H 20.965 C 28.154,15 33.982,20.952 33.982,28.293 C 33.982,33.206 31.39,36.908 29.209,38.598 L 29.216,38.624 Z" fill="rgb(254, 254, 253)"/>
</svg>
