<?xml version="1.0" encoding="UTF-8"?>
<!-- generated by Finnhub -->
<svg viewBox="0 0 55.5 55.5" xmlns="http://www.w3.org/2000/svg">
<path d="M 0,0 H 55.5 V 55.5 H 0 Z" fill="rgb(45, 48, 112)"/>
<path d="M 35.527,22.985 C 34.662,23 34.202,23.46 33.978,23.929 C 33.754,24.398 33.758,24.857 33.758,24.857 V 33.586 S 33.768,34.186 33.954,34.78 C 34.046,35.076 34.176,35.37 34.392,35.602 C 34.608,35.833 34.912,36 35.293,36 H 37.485 C 38.315,36 38.717,35.325 38.873,35.071 C 38.883,35.131 38.913,35.221 38.922,35.311 C 38.942,35.537 38.946,35.788 38.946,35.788 V 36 H 42.623 V 23 H 39.043 S 39.041,23.404 39.019,23.61 C 39.001,23.783 38.959,23.968 38.922,24.114 C 38.864,24.025 38.797,23.898 38.678,23.743 C 38.416,23.401 37.971,23 37.266,23 H 35.536 Z M 38.191,26.343 C 38.542,26.343 38.65,26.474 38.727,26.608 C 38.804,26.742 38.824,26.873 38.824,26.873 V 32.153 S 38.85,32.269 38.775,32.392 C 38.701,32.515 38.53,32.657 38.191,32.657 A 0.436,0.436 0 0,1 37.85,32.498 A 1.025,1.025 0 0,1 37.655,32.127 C 37.572,31.845 37.606,31.569 37.606,31.569 V 26.927 S 37.583,26.753 37.656,26.608 C 37.727,26.463 37.883,26.343 38.191,26.343 Z M 14,23.108 V 23 H 17.686 V 32.018 C 17.686,32.382 17.854,32.502 18.003,32.588 A 0.973,0.973 0 0,0 18.319,32.696 S 18.476,32.676 18.66,32.588 C 18.845,32.499 19.05,32.378 19.05,32.018 V 23 H 22.849 V 33.048 C 22.849,34.17 22.483,34.951 22.069,35.404 C 21.656,35.858 21.199,36 20.949,36 H 15.851 C 15.581,36 15.131,35.855 14.731,35.404 C 14.331,34.953 14,34.182 14,33.048 V 23.108 Z M 27.67,23.785 A 1.622,1.622 0 0,1 29.109,23 H 33.273 V 26.602 H 31.763 C 31.503,26.602 31.382,26.682 31.324,26.792 C 31.268,26.901 31.276,27.035 31.276,27.035 V 32.208 S 31.313,32.351 31.373,32.479 C 31.433,32.607 31.511,32.723 31.763,32.723 H 33.273 V 36 H 29.109 C 28.393,36 27.928,35.616 27.672,35.215 A 2.141,2.141 0 0,1 27.428,34.645 A 1.335,1.335 0 0,1 27.355,34.294 V 24.76 C 27.355,24.677 27.38,24.558 27.428,24.381 C 27.476,24.205 27.545,23.988 27.672,23.785 Z M 47.226,23.637 C 47.502,23.341 47.95,23 48.516,23 H 50.392 C 51.187,23 51.632,23.492 51.828,23.955 C 52.025,24.418 51.998,24.857 51.998,24.857 V 36 H 48 V 26.847 C 48,26.562 47.7,26.449 47.508,26.449 C 47.274,26.449 47.01,26.571 47,26.847 C 46.99,27.123 47,36 47,36 H 43 V 23 H 46.958 S 46.955,23.428 46.958,23.637 C 46.96,23.767 46.976,23.851 46.982,23.955 C 47.049,23.868 47.112,23.758 47.226,23.637 Z M 4,20.13 V 20 H 8.14 V 27.961 C 8.14,28.706 8.3,29.611 8.48,30.302 C 8.57,30.648 8.667,30.953 8.749,31.161 C 8.789,31.265 8.817,31.345 8.846,31.395 C 8.875,31.345 8.928,31.265 8.968,31.161 C 9.048,30.953 9.148,30.647 9.236,30.302 C 9.411,29.612 9.552,28.709 9.552,27.961 V 20 H 13.595 V 27.961 C 13.595,29.761 12.952,31.777 12.329,33.321 C 11.705,34.862 11.087,36 11.087,36 H 6.41 S 4,31.552 4,27.961 V 20.131 Z M 23.214,20.13 V 20 H 27 V 36 H 23.214 V 20.13 Z" fill="rgb(254, 254, 253)"/>
</svg>
