<?xml version="1.0" encoding="UTF-8"?>
<!-- generated by Finnhub -->
<svg viewBox="0 0 55.5 55.5" xmlns="http://www.w3.org/2000/svg">
<path d="M 0,0 H 55.5 V 55.5 H 0 Z" fill="rgb(1, 104, 164)"/>
<path d="M 41.508,19.425 C 40.719,18.24 39.788,17.12 38.749,16.16 C 31.642,14.24 24.185,14.23 17.077,16.23 C 16.039,17.19 15.171,18.24 14.372,19.44 C 23.077,17.28 32.813,17.28 41.518,19.44 Z" fill="rgb(254, 254, 253)"/>
<path d="M 29.935,21.745 C 30.983,20.32 31.622,19.28 32.021,18.8 C 25.791,18.32 19.514,18.88 13.764,20.48 C 13.365,21.28 13.012,22.16 12.692,22.96 C 18.123,22.08 24.035,21.6 29.945,21.76 Z M 27.469,34.24 C 26.829,35.2 26.031,36.24 25.312,37.28 C 31.062,37.52 36.772,36.96 42.124,35.52 C 42.523,34.72 42.872,33.92 43.192,33.04 C 38.4,33.92 33.299,34.32 28.028,34.32 C 27.788,34.32 27.628,34.24 27.468,34.24 Z M 29.385,22.56 C 23.555,22.48 17.772,22.856 12.421,23.896 C 12.261,24.616 12.08,25.336 12,26.136 C 16.792,25.816 22.038,25.68 27.389,25.68 C 28.108,24.48 28.747,23.44 29.385,22.56 Z" fill="rgb(254, 254, 253)"/>
<path d="M 24.663999999999998,38.065 C 23.795,39.28 22.996,40.4 22.517,40.88 C 27.947,41.6 33.538,41.2 38.809,39.76 C 39.847,38.8 40.806,37.68 41.524,36.48 C 37.212,37.6 32.58,38.16 27.948,38.16 C 26.83,38.16 25.792,38.16 24.674,38.08 Z M 37.255,14.96 C 34.62,13.12 31.462,12 27.948,12 C 24.434,12 21.268,13.12 18.633,14.96 A 40.676,40.676 0 0,1 37.255,14.96 Z M 30.583,29.52 C 35.215,29.44 39.767,29.36 44,29.04 V 26.96 C 40.326,26.72 36.493,26.56 32.5,26.56 C 31.861,27.52 31.302,28.4 30.583,29.52 Z M 33.059,25.68 C 36.813,25.76 40.375,25.92 43.889,26.08 C 43.809,25.36 43.649,24.56 43.489,23.84 C 40.695,23.36 37.931,22.96 34.976,22.8 A 44.625,44.625 0 0,0 33.059,25.68 Z M 26.75,26.48 C 23.635,26.48 20.6,26.56 17.566,26.64 C 17.886,27.28 18.444,28.4 19.003,29.36 C 20.92,29.44 22.837,29.44 24.753,29.52 C 25.393,28.64 26.031,27.6 26.75,26.48 Z M 19.562,30.24 L 21.878,33.84 L 24.194,30.32 L 19.562,30.24 Z M 28.028,33.44 C 33.378,33.44 38.61,32.96 43.482,32.08 C 43.642,31.36 43.84,30.64 43.92,29.84 C 39.528,30.08 34.816,30.24 30.024,30.32 C 29.545,31.2 28.826,32.24 28.028,33.44 Z M 14.85,30.08 C 13.892,30 12.962,30 12.003,29.92 C 12.083,30.64 12.279,31.44 12.439,32.16 C 13.717,32.4 14.851,32.56 16.209,32.8 C 15.649,31.76 15.249,30.8 14.851,30.08 Z M 18.844,36.56 C 18.045,35.52 17.566,34.88 16.847,33.68 C 15.41,33.52 14.058,33.274 12.701,33.034 C 13.021,33.914 13.297,34.72 13.776,35.52 C 15.453,36 17.246,36.32 19.004,36.64 C 18.924,36.56 18.844,36.56 18.844,36.56 Z M 19.642,37.6 C 17.805,37.36 16.146,36.96 14.389,36.56 C 15.188,37.76 16.118,38.88 17.156,39.84 C 18.833,40.32 20.441,40.72 22.198,40.96 C 21.16,39.6 20.361,38.56 19.642,37.6 Z" fill="rgb(254, 254, 253)"/>
<path d="M 18.593999999999998,41.025 C 21.239,42.88 24.434,44 27.948,44 S 34.656,42.88 37.292,41.04 C 34.257,41.76 31.062,42.08 27.948,42.08 C 24.833,42.08 21.638,41.76 18.604,41.04 Z" fill="rgb(254, 254, 253)"/>
</svg>
