<?xml version="1.0" encoding="UTF-8"?>
<!-- generated by Finnhub -->
<svg viewBox="0 0 55.5 55.5" xmlns="http://www.w3.org/2000/svg">
<path d="M 0,0 H 55.5 V 55.5 H 0 Z" fill="rgb(236, 27, 34)"/>
<path d="M 31.337,12.338999999999999 A 16,16 0 1,1 24.652,43.646 L 25.312,40.562 A 12.847,12.847 0 0,0 30.687,15.438 L 31.347,12.354 Z" fill="rgb(254, 254, 253)"/>
<path d="M 41.792,31.075 A 14.143,14.143 0 0,1 14.199,24.91 L 15.478,25.197 A 12.833,12.833 0 0,0 40.523,30.803 L 41.802,31.089 Z" fill="rgb(254, 254, 253)"/>
<path d="M 17.237,25.74 A 10.986,10.986 0 0,1 38.754,30.245 L 35.504,29.567 A 7.666,7.666 0 1,0 20.495,26.433 L 17.247,25.755 Z" fill="rgb(254, 254, 253)"/>
<path d="M 26.802999999999997,33.728 A 5.864,5.864 0 1,1 29.187,22.258 L 28.548,25.348 A 2.708,2.708 0 0,0 27.452,30.653 L 26.813,33.743 Z" fill="rgb(254, 254, 253)"/>
<path d="M 24.825999999999997,23.048 A 5.864,5.864 0 0,1 31.164,32.937 L 30.453,31.827 A 4.546,4.546 0 0,0 25.547,24.172 L 24.837,23.063 Z" fill="rgb(254, 254, 253)"/>
<path d="M 30.15,17.215 A 10.986,10.986 0 1,1 25.84,38.771 L 26.118,37.383 A 9.57,9.57 0 0,0 29.882,18.617 L 30.161,17.229 Z" fill="rgb(254, 254, 253)"/>
</svg>
