<?xml version="1.0" encoding="UTF-8"?>
<!-- generated by Finnhub -->
<svg viewBox="0 0 55.5 55.5" xmlns="http://www.w3.org/2000/svg">
<path d="M 0,0 H 55.5 V 55.5 H 0 Z" fill="url(#a)"/>
<path d="M 3.99,20.985 H 5.265 L 8.57,31.101 L 12.134,20.537 L 15.814,31.012 L 19.003,21 H 20.267 L 15.812,34 L 12.133,23.407 L 8.57,34 L 4,21 Z M 26,32.314 C 25.469,33.4 24.308,34 22.98,34 C 20.56,34 18.995,32.4 18.995,30.029 C 18.995,27.657 20.589,26 22.832,26 C 24.22,26 25.41,26.571 26,27.629 V 26 H 26.994 V 34 H 26 V 32.314 Z M 23.039,33.029 C 24.692,33.029 25.843,31.914 25.843,29.829 C 25.843,28 24.722,26.943 23.069,26.943 C 21.386,26.943 20.264,28.057 20.264,30.057 C 20.294,31.971 21.268,33.029 23.039,33.029 Z M 28,27 V 26 H 30 V 23 H 30.988 V 26 H 33 V 27 H 30.988 V 34 H 30 V 27 H 28 Z M 34.236,30 C 34.293,31.914 35.414,33.029 37.024,33.029 C 38.231,33.029 39.064,32.457 39.668,31.314 L 40.703,31.8 C 39.869,33.314 38.748,34 36.995,34 C 34.61,34 33,32.371 33,30.057 C 33,27.6 34.638,26 36.967,26 C 39.151,26 40.674,27.457 40.674,29.771 V 30 H 34.236 Z M 36.823,26.971 C 35.529,26.971 34.466,27.686 34.351,29 H 39.352 C 39.237,27.6 38.346,26.971 36.822,26.971 Z M 45.616,25.971 C 45.932,25.971 46.22,26.057 46.565,26.143 L 46.162,27.085 C 45.904,27 45.645,27 45.415,27 C 44.15,27 43,28.17 43,29.97 V 34 H 42 V 26 H 43 V 27.743 C 43.805,26.543 44.466,25.971 45.616,25.971 Z M 47.286,31.771 C 47.689,32.6 48.321,33.029 49.298,33.029 C 50.247,33.029 50.822,32.514 50.822,31.829 C 50.822,30.8 49.873,30.657 48.551,30.2 C 47.257,29.686 46.625,29.086 46.625,28.171 C 46.625,26.914 47.66,26 49.241,26 C 50.534,26 51.454,26.514 51.885,27.514 L 50.879,28.029 C 50.62,27.343 50.017,26.943 49.155,26.943 C 48.379,26.943 47.804,27.429 47.804,28.029 C 47.804,28.771 48.464,29.057 49.729,29.457 C 51.195,29.886 52,30.371 52,31.743 C 52,33.029 50.908,34 49.097,34 C 47.717,34 46.654,33.343 46.28,32.371 L 47.286,31.771 Z" fill="rgb(254, 254, 253)"/>
<defs>
<linearGradient id="a" x1="10.418" x2="68.147" y1="9.712" y2="76.017" gradientUnits="userSpaceOnUse">
<stop stop-color="rgb(25, 29, 31)" offset="0"/>
<stop stop-color="rgb(5, 5, 8)" offset="1"/>
</linearGradient>
</defs>
</svg>
