<?xml version="1.0" encoding="UTF-8"?>
<!-- generated by Finnhub -->
<svg viewBox="0 0 55.5 55.5" xmlns="http://www.w3.org/2000/svg">
<path d="M 0,0 H 55.5 V 55.5 H 0 Z" fill="url(#a)"/>
<path d="M 25.494,11.985 H 25.837 C 25.754,12.642 25.707,13.288 25.661,13.934 C 25.631,14.351 25.601,14.767 25.561,15.183 C 25.021,15.225 24.482,15.289 23.943,15.353 L 23.251,15.433 C 23.374,14.406 23.55,13.387 23.749,12.373 C 24.33,12.233 24.917,12.112 25.504,12 Z M 15.265,18.15 C 15.399,18.088 15.531,18.025 15.664,17.962 C 16.067,17.771 16.47,17.579 16.895,17.442 L 16.747,17.887 C 16.564,18.437 16.381,18.986 16.225,19.544 C 15.582,19.759 14.959,20.023 14.335,20.286 C 14.102,20.386 13.869,20.484 13.635,20.58 C 13.964,19.87 14.396,19.214 14.842,18.573 L 14.889,18.509 C 14.992,18.367 15.099,18.219 15.265,18.149 Z M 37.666,22.9 A 142.292,142.292 0 0,0 33.686,22.593 C 33.726,23.023 33.736,23.454 33.744,23.885 C 33.754,24.347 33.764,24.808 33.812,25.267 C 34.495,25.276 35.177,25.302 35.86,25.327 C 36.542,25.353 37.224,25.379 37.906,25.387 C 37.85,24.557 37.772,23.727 37.666,22.9 Z M 22.456,25.55 C 22.868,25.53 23.282,25.524 23.695,25.517 C 24.188,25.509 24.681,25.501 25.173,25.471 C 25.185,27.156 25.183,28.841 25.172,30.527 C 24.693,30.5 24.215,30.492 23.736,30.483 A 41.2,41.2 0 0,1 22.459,30.448 A 250.716,250.716 0 0,1 22.456,25.55 Z M 17.006,33.236 C 16.6,33.186 16.195,33.138 15.789,33.096 C 15.959,34.163 16.159,35.232 16.479,36.266 C 16.771,36.341 17.058,36.43 17.345,36.519 C 17.794,36.659 18.243,36.799 18.705,36.884 C 18.423,35.722 18.223,34.541 18.051,33.358 C 17.702,33.32 17.354,33.278 17.006,33.236 Z M 39.751,36.456 C 40.421,36.232 41.069,35.956 41.718,35.68 C 41.928,35.59 42.139,35.5 42.351,35.412 C 42.011,36.148 41.559,36.825 41.096,37.487 L 41.084,37.503 C 40.983,37.64 40.876,37.784 40.714,37.853 C 40.18,38.107 39.64,38.353 39.086,38.559 C 39.162,38.317 39.242,38.078 39.322,37.838 C 39.476,37.38 39.629,36.923 39.752,36.455 Z M 30.269,38.236 C 28.749,38.286 27.228,38.3 25.708,38.234 C 25.727,38.506 25.738,38.778 25.748,39.051 C 25.768,39.551 25.786,40.053 25.857,40.551 C 27.285,40.607 28.72,40.649 30.145,40.527 C 30.194,39.763 30.233,39.001 30.269,38.237 Z" fill="rgb(165, 188, 209)"/>
<path d="M 18.226,15.122 C 18.939,14.537 19.748,14.058 20.573,13.645 L 20.358,14.143 C 20.062,14.826 19.766,15.509 19.544,16.221 C 18.847,16.411 18.165,16.647 17.484,16.882 L 17.441,16.897 C 17.673,16.297 17.931,15.703 18.236,15.137 Z M 33.108,15.801 C 34.157,15.961 35.193,16.194 36.22,16.464 L 36.283,16.664 C 36.496,17.334 36.71,18.006 36.866,18.692 C 35.699,18.438 34.528,18.206 33.344,18.052 C 33.32,17.7 33.275,17.35 33.231,16.999 C 33.18,16.601 33.129,16.203 33.108,15.801 Z M 25.388,18.098 C 24.558,18.13 23.731,18.215 22.907,18.324 A 123.161,123.161 0 0,0 22.595,22.284 C 22.745,22.278 22.896,22.272 23.047,22.264 H 23.049 A 50.514,50.514 0 0,1 25.229,22.199 C 25.263,21.478 25.289,20.755 25.314,20.033 C 25.337,19.388 25.36,18.743 25.388,18.098 Z M 17.295,19.503 A 34.82,34.82 0 0,1 18.69,19.107 A 45.48,45.48 0 0,0 18.043,22.636 C 17.293,22.714 16.545,22.807 15.797,22.902 C 15.968,21.836 16.167,20.769 16.492,19.738 C 16.76,19.662 17.027,19.583 17.295,19.503 Z M 43.274,23.693 C 42.374,23.535 41.473,23.377 40.566,23.258 C 40.598,23.63 40.641,24.001 40.683,24.372 C 40.729,24.773 40.775,25.174 40.809,25.575 C 41.873,25.636 42.937,25.727 43.999,25.824 C 43.906,25.123 43.773,24.425 43.575,23.746 L 43.274,23.693 Z M 32.254,25.523 C 32.671,25.53 33.088,25.537 33.505,25.553 C 33.543,27.186 33.535,28.818 33.507,30.45 C 33.087,30.466 32.668,30.472 32.248,30.478 C 31.768,30.485 31.288,30.492 30.809,30.514 V 28.703 C 30.81,27.63 30.811,26.558 30.805,25.485 C 31.288,25.508 31.771,25.515 32.255,25.524 Z M 13.596,30.313 A 38.512,38.512 0 0,0 12,30.2 V 30.441 C 12.096,30.951 12.206,31.458 12.316,31.965 L 12.373,32.225 C 13.381,32.453 14.406,32.597 15.429,32.737 C 15.329,31.967 15.239,31.199 15.173,30.427 C 14.646,30.403 14.121,30.358 13.596,30.314 Z M 36.273,30.666 C 36.811,30.643 37.348,30.62 37.886,30.606 C 37.852,31.436 37.767,32.263 37.659,33.088 A 119.72,119.72 0 0,1 33.7,33.396 L 33.716,33.013 C 33.749,32.255 33.781,31.499 33.799,30.741 C 34.624,30.735 35.449,30.7 36.273,30.666 Z M 25.244,33.81 A 91.792,91.792 0 0,1 22.595,33.71 C 22.681,35.033 22.775,36.357 22.907,37.677 C 23.73,37.777 24.556,37.874 25.385,37.899 C 25.369,37.371 25.348,36.844 25.326,36.317 C 25.293,35.481 25.259,34.646 25.244,33.81 Z M 19.131,37.304 C 20.286,37.571 21.451,37.791 22.626,37.948 C 22.676,38.395 22.727,38.841 22.779,39.288 L 22.884,40.19 A 20.603,20.603 0 0,1 19.734,39.506 C 19.661,39.214 19.571,38.926 19.48,38.639 C 19.342,38.199 19.203,37.76 19.131,37.304 Z M 37.947,39.304 C 37.448,39.472 36.949,39.639 36.44,39.774 C 36.146,40.662 35.777,41.523 35.388,42.372 A 15.3,15.3 0 0,0 37.525,41.06 C 37.649,40.97 37.771,40.87 37.829,40.722 C 38.084,40.192 38.322,39.656 38.537,39.109 C 38.34,39.173 38.143,39.239 37.947,39.305 Z" fill="rgb(146, 200, 66)"/>
<path d="M 30.45,11.985 H 30.166 L 30.172,12.067 C 30.267,13.101 30.362,14.135 30.414,15.172 C 31.186,15.237 31.955,15.328 32.724,15.425 A 60.385,60.385 0 0,0 32.234,12.398 C 31.828,12.284 31.415,12.199 31.002,12.114 C 30.822,12.077 30.641,12.04 30.461,12 Z M 37.409,14.854 A 15.558,15.558 0 0,0 35.399,13.632 C 35.779,14.481 36.147,15.336 36.446,16.219 C 37.09,16.399 37.723,16.614 38.356,16.829 L 38.534,16.889 C 38.374,16.443 38.173,16.014 37.972,15.585 V 15.584 L 37.827,15.274 C 37.752,15.103 37.599,14.992 37.453,14.886 L 37.409,14.854 Z M 25.837,15.476 A 29.78,29.78 0 0,1 30.146,15.476 C 30.159,15.92 30.186,16.364 30.213,16.809 C 30.233,17.128 30.252,17.446 30.266,17.764 A 40.005,40.005 0 0,0 25.714,17.769 C 25.729,17.452 25.748,17.135 25.767,16.819 V 16.818 C 25.794,16.371 25.821,15.924 25.837,15.476 Z M 37.477,19.158 L 37.294,19.108 C 37.546,20.275 37.776,21.45 37.934,22.635 C 38.352,22.679 38.769,22.729 39.186,22.778 C 39.516,22.818 39.845,22.856 40.174,22.893 C 40.027,21.839 39.782,20.803 39.518,19.773 C 38.846,19.54 38.161,19.349 37.477,19.158 Z M 18.322,22.912 C 19.638,22.787 20.956,22.69 22.274,22.606 C 22.252,23.046 22.236,23.488 22.221,23.93 C 22.205,24.37 22.189,24.812 22.167,25.253 A 162.59,162.59 0 0,0 18.547,25.378 L 18.095,25.398 C 18.125,24.565 18.212,23.735 18.322,22.912 Z M 13.109,23.623 L 12.834,23.669 C 12.79,23.68 12.745,23.688 12.7,23.696 A 0.7,0.7 0 0,0 12.394,23.797 C 12.276,24.157 12.204,24.527 12.131,24.898 C 12.091,25.108 12.049,25.318 12,25.526 V 25.82 A 137.42,137.42 0 0,1 15.174,25.566 C 15.242,24.796 15.32,24.026 15.429,23.261 C 14.653,23.363 13.881,23.493 13.109,23.623 Z M 43.518,30.223 L 44,30.18 C 43.9,30.88 43.78,31.58 43.573,32.257 C 43.306,32.301 43.038,32.347 42.77,32.393 C 42.031,32.518 41.293,32.644 40.55,32.741 C 40.66,31.972 40.74,31.198 40.812,30.424 C 41.716,30.38 42.617,30.301 43.518,30.222 Z M 19.502,30.661 C 19.034,30.642 18.564,30.624 18.095,30.608 C 18.129,31.438 18.215,32.264 18.321,33.088 C 19.638,33.214 20.957,33.312 22.276,33.392 L 22.244,32.592 C 22.218,31.978 22.191,31.362 22.177,30.748 C 21.285,30.731 20.394,30.696 19.502,30.661 Z M 37.936,33.365 C 38.331,33.325 38.726,33.278 39.121,33.23 C 39.474,33.188 39.827,33.145 40.181,33.108 C 40.028,34.16 39.786,35.197 39.521,36.226 C 38.788,36.48 38.042,36.694 37.291,36.884 C 37.561,35.723 37.771,34.547 37.936,33.365 Z M 32.428,33.757 C 31.863,33.78 31.298,33.803 30.735,33.82 C 30.719,34.791 30.678,35.761 30.638,36.731 C 30.621,37.12 30.605,37.508 30.591,37.897 C 31.421,37.873 32.248,37.777 33.071,37.676 C 33.201,36.358 33.298,35.039 33.375,33.718 L 32.428,33.756 Z M 17.444,39.108 L 17.541,39.142 C 18.203,39.367 18.865,39.593 19.538,39.783 C 19.822,40.65 20.189,41.486 20.557,42.32 L 20.575,42.362 C 19.875,42.02 19.221,41.595 18.581,41.153 L 18.531,41.117 C 18.384,41.011 18.229,40.899 18.156,40.725 A 21.225,21.225 0 0,1 17.444,39.108 Z M 25.552,40.824 A 39.585,39.585 0 0,1 23.252,40.569 C 23.36,41.41 23.504,42.247 23.648,43.083 L 23.736,43.592 C 24.123,43.715 24.521,43.795 24.919,43.874 C 25.12,43.914 25.321,43.954 25.521,44 H 25.811 C 25.743,43.303 25.69,42.605 25.637,41.908 C 25.609,41.546 25.582,41.185 25.552,40.824 Z" fill="rgb(87, 173, 224)"/>
<path d="M 22.877,15.790999999999999 C 21.833,15.955 20.795,16.198 19.767,16.467 C 19.52,17.166 19.327,17.88 19.132,18.594 L 19.109,18.679 C 20.276,18.44 21.443,18.201 22.624,18.047 C 22.702,17.297 22.794,16.552 22.888,15.806 Z M 40.379,18.008 C 39.956,17.811 39.532,17.613 39.092,17.451 L 39.098,17.466 C 39.335,18.153 39.571,18.839 39.765,19.539 C 40.645,19.833 41.496,20.205 42.344,20.581 A 15.783,15.783 0 0,0 40.992,18.4 A 0.661,0.661 0 0,0 40.705,18.16 L 40.38,18.009 Z M 30.594,18.1 C 31.424,18.135 32.25,18.22 33.074,18.325 C 33.198,19.641 33.298,20.96 33.376,22.28 C 33.064,22.269 32.752,22.256 32.439,22.242 A 75.074,75.074 0 0,0 30.735,22.182 C 30.721,21.172 30.679,20.162 30.636,19.152 C 30.622,18.802 30.607,18.451 30.594,18.1 Z M 30.434,22.48 C 28.803,22.449 27.17,22.445 25.539,22.483 C 25.526,22.875 25.521,23.268 25.516,23.66 A 45.208,45.208 0 0,1 25.48,25.17 C 26.555,25.173 27.63,25.173 28.706,25.172 H 30.498 C 30.473,24.702 30.468,24.232 30.463,23.762 A 37.79,37.79 0 0,0 30.433,22.48 Z M 15.486,25.84 C 15.914,25.834 16.341,25.806 16.768,25.78 C 17.099,25.758 17.431,25.737 17.763,25.726 A 38.823,38.823 0 0,0 17.758,30.278 C 17.473,30.263 17.188,30.246 16.903,30.228 A 65.77,65.77 0 0,0 15.469,30.151 C 15.385,28.717 15.347,27.271 15.486,25.84 Z M 39.356,25.786 C 38.976,25.762 38.596,25.738 38.216,25.727 C 38.312,27.24 38.306,28.762 38.216,30.276 C 38.521,30.26 38.826,30.242 39.13,30.223 C 39.588,30.196 40.046,30.168 40.504,30.151 A 27.908,27.908 0 0,0 40.498,25.846 C 40.118,25.834 39.738,25.81 39.357,25.786 Z M 25.48,30.826 C 26.317,30.828 27.153,30.827 27.99,30.827 H 30.502 C 30.47,31.321 30.465,31.815 30.46,32.309 C 30.456,32.713 30.451,33.117 30.433,33.519 C 28.802,33.549 27.171,33.557 25.539,33.514 A 54.78,54.78 0 0,1 25.512,32.233 C 25.506,31.764 25.499,31.295 25.48,30.827 Z M 13.625,35.406 A 16.398,16.398 0 0,0 14.855,37.416 C 14.969,37.583 15.085,37.752 15.273,37.838 C 15.802,38.092 16.336,38.338 16.884,38.55 A 42.1,42.1 0 0,1 16.214,36.46 C 15.33,36.164 14.473,35.794 13.625,35.407 Z M 33.352,37.955 C 34.532,37.785 35.707,37.582 36.867,37.305 A 37.828,37.828 0 0,1 36.221,39.529 C 35.191,39.804 34.147,40.037 33.092,40.197 L 33.152,39.699 C 33.222,39.118 33.293,38.538 33.352,37.955 Z M 32.722,40.575 C 31.956,40.674 31.19,40.765 30.421,40.822 C 30.394,41.296 30.355,41.769 30.316,42.242 C 30.268,42.828 30.22,43.413 30.194,44 H 30.352 C 30.986,43.887 31.62,43.773 32.239,43.593 L 32.361,42.883 C 32.493,42.115 32.625,41.347 32.721,40.575 Z" fill="rgb(80, 172, 165)"/>
<defs>
<linearGradient id="a" x1="10.418" x2="68.147" y1="9.712" y2="76.017" gradientUnits="userSpaceOnUse">
<stop stop-color="rgb(25, 29, 31)" offset="0"/>
<stop stop-color="rgb(5, 5, 8)" offset="1"/>
</linearGradient>
</defs>
</svg>
