<?xml version="1.0" encoding="UTF-8"?>
<!-- generated by Finnhub -->
<svg viewBox="0 0 55.5 55.5" xmlns="http://www.w3.org/2000/svg">
<path d="M 0,0 H 55.5 V 55.5 H 0 Z" fill="rgb(16, 135, 199)"/>
<path d="M 11.99,11.985 H 21 V 27 L 12,36 V 12 Z" fill="rgb(254, 254, 253)"/>
<path d="M 32.99,11.985 H 23 V 25.172 A 2,2 0 0,1 22.414,26.586 L 12,37 V 41 L 32.414,20.586 A 2,2 0 0,0 33,19.172 V 12 Z M 44,44 V 35 H 29 L 20,44 H 44 Z" fill="rgb(254, 254, 253)"/>
<path d="M 43.99,22.985 V 33 H 30.828 A 2,2 0 0,0 29.414,33.586 L 19,44 H 15 L 35.414,23.586 A 2,2 0 0,1 36.828,23 H 44 Z" fill="rgb(254, 254, 253)"/>
<path d="M 43.99,11.985 H 35 V 18.172 A 2,2 0 0,1 34.414,19.586 L 12,42 V 44 H 14 L 36.414,21.586 A 2,2 0 0,1 37.828,21 H 44 V 12 Z" fill="rgb(254, 254, 253)"/>
</svg>
