<?xml version="1.0" encoding="UTF-8"?>
<!-- generated by Finnhub -->
<svg viewBox="0 0 55.5 55.5" xmlns="http://www.w3.org/2000/svg">
<path d="M 0,0 H 55.5 V 55.5 H 0 Z" fill="rgb(13, 85, 62)"/>
<path d="M 18.886,9.0 V 20.93 S 19.049,20.716 19.151,20.643 C 22.564,17.936 26.447,16.901 30.745,17.709 C 36.5,18.79 40.826,23.033 41.877,28.683 C 43.337,36.488 37.567,44.235 29.629,44.943 C 21.617,45.67 13.849,39.365 13.896,31.09 C 13.934,23.399 13.896,9.016 13.896,9.016 H 18.896 Z M 28.088,21.978 C 22.951,21.978 18.698,26.129 18.698,31.144 C 18.698,36.331 22.886,40.51 28.088,40.51 C 33.254,40.51 37.496,36.367 37.542,31.39 C 37.607,26.057 32.968,21.869 28.088,21.978 Z" fill="rgb(254, 254, 253)"/>
<path d="M 21.506999999999998,26.495 C 22.907,26.51 23.949,27.168 24.959,27.923 C 25.871,28.613 26.783,29.292 27.674,30.003 C 27.956,30.233 28.14,30.212 28.412,29.993 A 70.082,70.082 0 0,1 31.789,27.441 C 32.516,26.927 33.319,26.642 34.199,26.521 C 34.449,26.489 34.601,26.489 34.47,26.806 C 33.37,29.553 35.112,33.026 33.005,35.446 C 32.067,36.532 30.716,36.49 29.4,36.464 C 28.933,36.464 28.488,36.486 28.173,36.891 C 28.053,37.044 27.945,37.022 27.836,36.881 C 27.543,36.486 27.12,36.453 26.664,36.464 C 24.658,36.497 22.951,36.156 22.244,33.978 C 21.627,32.057 22.05,29.876 21.908,27.89 C 21.864,27.441 21.604,27.025 21.518,26.51 Z M 23.602,33.803 C 24.188,35.172 25.741,35.643 26.859,34.789 C 27.967,33.946 28.336,31.723 27.554,30.551 C 27.217,30.047 26.631,29.818 26.099,29.971 C 25.556,30.124 25.219,30.617 25.209,31.263 C 25.209,31.493 25.209,31.646 25.491,31.471 C 25.676,31.351 25.893,31.307 26.099,31.449 C 26.643,31.83 26.621,32.97 26.012,33.278 C 25.393,33.573 24.818,33.256 24.785,32.555 C 24.753,31.591 24.785,30.628 24.775,29.665 C 24.764,28.865 24.188,28.165 23.493,28.055 C 23.309,28.033 23.168,27.989 23.243,28.285 C 23.751,30.052 22.858,32.085 23.602,33.803 Z M 30.822,31.603 C 30.952,31.405 30.844,31.273 30.833,31.131 C 30.735,30.42 30.421,30.036 29.845,29.938 C 29.248,29.839 28.727,30.102 28.445,30.715 C 27.934,31.788 27.977,32.905 28.531,33.924 C 29.443,35.588 31.365,35.643 32.331,34.088 C 33.366,32.412 32.459,30.061 32.841,28.218 C 32.896,27.967 32.701,28.033 32.559,28.044 C 31.919,28.142 31.333,28.788 31.311,29.5 C 31.278,30.485 31.311,31.47 31.289,32.456 C 31.279,33.048 30.985,33.387 30.507,33.366 C 29.565,33.338 29.26,32.116 29.888,31.482 C 30.192,31.186 30.518,31.427 30.822,31.602 Z M 28.01,36.278 C 28.629,35.599 28.694,35.008 28.249,34.515 C 28.064,34.307 27.945,34.329 27.782,34.525 C 27.38,35.019 27.445,35.588 28.01,36.278 Z M 30.692,32.402 C 30.714,32.226 30.638,32.117 30.464,32.106 C 30.301,32.095 30.193,32.183 30.182,32.358 C 30.171,32.522 30.225,32.643 30.41,32.654 C 30.594,32.654 30.692,32.577 30.692,32.402 Z M 25.654,32.095 C 25.48,32.095 25.383,32.194 25.361,32.358 C 25.339,32.522 25.437,32.643 25.611,32.654 C 25.784,32.664 25.881,32.577 25.904,32.402 C 25.914,32.215 25.817,32.128 25.654,32.095 Z" fill="rgb(254, 254, 253)"/>
<path d="M 23.99,25.985 H 32 C 32,26.15 31.803,26.283 31.699,26.364 C 30.619,27.196 29.489,27.987 28.409,28.819 C 28.119,29.039 27.922,29.073 27.62,28.842 C 26.495,27.976 25.346,27.132 24.209,26.289 C 24.128,26.208 24.012,26.173 24,26 Z" fill="rgb(254, 254, 253)"/>
</svg>
