<?xml version="1.0" encoding="UTF-8"?>
<!-- generated by Finnhub -->
<svg viewBox="0 0 55.5 55.5" xmlns="http://www.w3.org/2000/svg">
<path d="M 0,0 H 55.5 V 55.5 H 0 Z" fill="rgb(1, 84, 148)"/>
<path d="M 33.85,24.985 H 33 L 32.57,27 H 33.4 L 32.512,31.4 C 32.148,33.109 32.909,33.165 34.468,33.165 C 34.875,33.165 35.603,33.109 35.834,33.081 L 36.219,31.274 A 1.704,1.704 0 0,1 35.775,31.316 C 35.325,31.316 35.3,31.106 35.405,30.616 L 36.124,27 H 36.999 L 37.539,25 H 36.584 L 36.975,23 H 34.25 L 33.86,25 Z" fill="rgb(254, 254, 253)"/>
<path d="M 40.68,34.873 L 41.894,34.946 L 42.857,34.9 L 41.453,36.377 L 40.691,34.888 Z M 44.92,21.861 L 43.541,21.927 L 44.958,20.409 L 45.716,21.899 L 44.92,21.861 Z M 45.034,23.08 L 42.324,23.21 L 43.434,22.04 L 44.194,22.077 L 45.769,22.002 L 46.371,23.184 L 45.075,23.122 L 45.035,23.08 Z M 45.931,24.267 L 41.099,24.498 L 42.212,23.326 L 45.387,23.478 A 7.268,7.268 0 0,0 45.277,23.348 L 46.427,23.293 L 47.025,24.471 L 46.019,24.423 A 7.147,7.147 0 0,0 45.931,24.267 Z M 46.466,25.465 L 39.88,25.78 L 40.996,24.606 L 46.233,24.856 A 7.284,7.284 0 0,0 46.125,24.627 L 47.081,24.581 L 47.681,25.761 L 46.538,25.706 A 6.3,6.3 0 0,0 46.466,25.466 Z M 46.725,26.68 L 38.659,27.067 L 39.774,25.892 L 46.658,26.222 C 46.638,26.121 46.618,26.022 46.594,25.922 L 47.736,25.868 L 48.336,27.045 L 46.75,26.97 A 6.252,6.252 0 0,0 46.725,26.68 Z M 46.738,27.913 L 37.431,28.358 L 38.556,27.174 L 46.759,27.567 L 46.762,27.357 V 27.237 L 48.393,27.159 L 49,28.352 L 46.7,28.242 C 46.715,28.133 46.728,28.023 46.738,27.912 Z M 46.47,29.24 L 38.024,29.645 L 37.419,28.455 L 46.57,28.893 C 46.599,28.783 46.623,28.673 46.646,28.561 L 48.987,28.449 L 47.859,29.637 L 46.356,29.565 C 46.397,29.458 46.435,29.35 46.47,29.24 Z M 45.847,30.589 L 38.677,30.932 L 38.08,29.758 L 46.099,30.141 C 46.152,30.035 46.203,29.927 46.251,29.817 L 47.755,29.744 L 46.635,30.923 L 45.658,30.876 C 45.724,30.782 45.788,30.686 45.847,30.589 Z M 44.7,31.957 L 39.33,32.214 L 38.732,31.038 L 45.292,31.352 A 5.77,5.77 0 0,0 45.508,31.083 L 46.53,31.035 L 45.41,32.213 L 44.453,32.167 C 44.537,32.099 44.619,32.029 44.7,31.957 Z M 42.117,33.397 L 39.984,33.499 L 39.387,32.324 L 43.934,32.542 A 6.05,6.05 0 0,0 44.179,32.374 L 45.308,32.321 L 44.191,33.496 L 42.117,33.396 Z M 41.806,34.73 L 40.639,34.787 L 40.039,33.608 L 42.123,33.708 L 44.079,33.614 L 42.965,34.786 L 41.805,34.731 Z" fill="rgb(254, 254, 253)"/>
<path d="M 25.442999999999998,30.485 C 25.076,32.42 26.016,33.249 27.996,33.249 C 29.681,33.249 31.254,32.564 31.654,30.611 C 31.998,28.936 31.148,28.557 30.446,28.28 C 28.926,27.682 28.59,27.537 28.668,27.158 C 28.758,26.721 29.073,26.618 29.354,26.618 C 29.649,26.618 29.788,26.691 29.857,26.838 C 29.915,26.968 29.895,27.296 29.853,27.5 H 32.157 C 32.306,26.772 32.658,24.958 29.624,24.958 C 27.517,24.958 26.429,26.021 26.103,27.609 C 25.807,29.052 26.507,29.475 28.132,30.116 C 29.041,30.48 29.102,30.596 29.023,30.976 C 28.993,31.121 28.813,31.587 28.336,31.587 C 28.027,31.587 27.882,31.471 27.823,31.282 C 27.763,31.092 27.8,30.835 27.841,30.5 H 25.453 Z M 15.757,30.087 H 15.728 L 16.24,23.002 H 13.775 L 11.385,30.087 H 11.357 L 12.205,23.002 H 9.487 L 9,33 H 12.054 L 14.283,26.279 H 14.31 L 13.722,33 H 16.72 L 20.5,23.002 H 17.866 L 15.756,30.087 Z M 21.44,30.004 H 25.176 C 25.646,27.692 25.985,24.887 23.04,24.887 C 20.034,24.887 19.317,26.827 18.863,29.06 C 18.407,31.309 18.335,33.249 21.341,33.249 C 23.196,33.249 24.556,32.674 24.998,30.5 H 22.526 C 22.362,31.309 22.201,31.573 21.668,31.573 C 21.106,31.573 21.194,31 21.281,30.574 L 21.44,30.004 Z M 22.878,28.43 H 21.698 L 21.893,27.561 C 22.051,26.783 22.278,26.562 22.672,26.562 C 23.107,26.562 23.231,26.782 23.072,27.562 L 22.878,28.43 Z" fill="rgb(254, 254, 253)"/>
</svg>
