<?xml version="1.0" encoding="UTF-8"?>
<!-- generated by Finnhub -->
<svg viewBox="0 0 55.5 55.5" xmlns="http://www.w3.org/2000/svg">
<path d="M 0,0 H 55.5 V 55.5 H 0 Z" fill="url(#a)"/>
<path d="M 28.044999999999998,21.985 H 33.57 L 31.245,20 H 28.36 C 30.297,19.803 31.743,18.033 31.743,15.975 C 31.743,13.805 30.186,12 28,12 V 20 L 21.392,13.381 C 21.032,13.579 20.728,13.748 20.424,13.945 C 20.064,14.199 19.76,14.453 19.4,14.678 L 26,20.881 V 35 L 30,39 V 36 L 28,34 L 28.055,22 Z M 36,28 L 34,26 V 34 H 36 V 28 Z" fill="rgb(254, 254, 253)"/>
<path d="M 29.99,21.985 V 34 H 32 V 24 L 30,22 Z M 37,26 L 35,24 H 32 L 34,26 H 37 Z M 24,33 V 21.59 L 17.959,16 C 17.404,16.628 16.88,17.312 16.479,18.082 L 21,22.588 V 26.039 L 15.462,20.563 C 15.185,21.505 15,23 15,24 C 15.062,24 23.723,32.743 24,33 Z M 15,27.28 V 30.692 L 30,46 V 42.673 L 15,27.28 Z M 40.88,31 H 38 V 34 H 36 C 36,36.165 37.815,38 40,38 C 42.184,38 44,36.2 44,34.036 L 40.88,31 Z" fill="rgb(254, 254, 253)"/>
<defs>
<linearGradient id="a" x1="10.418" x2="68.147" y1="9.712" y2="76.017" gradientUnits="userSpaceOnUse">
<stop stop-color="rgb(25, 29, 31)" offset="0"/>
<stop stop-color="rgb(5, 5, 8)" offset="1"/>
</linearGradient>
</defs>
</svg>
